<svg width="533" height="533" viewBox="0 0 533 533" fill="none" xmlns="http://www.w3.org/2000/svg">
<path opacity="0.5" d="M263.915 342.629C248.774 362.113 245.216 366.899 260.913 392.811C275.662 374.63 279.53 368.225 263.915 342.629ZM308.032 202.217C326.937 197.237 335.745 184.516 336.29 164.783C336.488 157.629 334.32 158.215 329.647 160.556C312.278 169.256 303.661 182.513 308.032 202.217ZM158.517 197.4C166.908 220.975 178.178 227.919 202.38 225.238C196.537 203.211 180.516 196.182 158.517 197.4ZM334.513 231.261C353.714 236.463 367.713 230.261 377.581 213.387C380.871 207.764 380.038 206.884 373.926 206.307C354.28 204.454 341.528 213.055 334.513 231.261ZM231.607 198.858C235.89 180.087 230.961 165.336 213.576 155.906C211.571 154.818 209.851 152.172 207.321 153.796C205.403 155.025 206.529 157.522 206.372 159.486C204.826 178.792 212.868 192.095 231.607 198.858ZM394.883 271.761C378.055 258.545 360.85 254.391 343.13 269.828C363.666 285.744 377.228 286.308 394.883 271.761ZM326.413 380.248C328.881 355.367 324.563 345.671 306.862 336.391C304.362 335.08 301.444 331.746 300.645 337.925C298.06 357.883 306.273 371.441 326.413 380.248ZM272.383 137.97C254.415 164.449 256.253 169.153 270.262 189.909C287.381 174.062 284.292 156.619 272.383 137.97ZM151.752 326.337C171.517 327.909 188.317 326.727 196.767 306.83C197.59 304.896 201.069 302.049 197.23 301.422C188.69 300.021 179.323 298.294 171.617 303.275C163.389 308.594 157.472 316.609 151.752 326.337ZM197.97 374.599C221.026 366.512 227.651 355.854 225.503 330.3C200.27 343 196.291 349.401 197.97 374.599ZM374.693 335.43C368.266 313.135 356.575 305.776 330.784 307.793C342.081 332.776 347.874 336.421 374.693 335.43ZM191.082 263.102C168.594 248.351 155.703 247.902 138.797 261.275C161.057 277.809 168.541 278.07 191.082 263.102ZM318.632 419.082C322.822 411.412 322.14 405.943 313.115 402.125C308.237 400.063 303.77 396.434 299.921 392.686C295.17 388.057 292.801 389.487 289.999 394.526C275.638 420.345 275.204 420.833 294.497 435.306C307.094 444.759 306.191 447.297 312.912 431.06C314.602 426.979 316.714 423.07 318.632 419.082ZM396.169 173.312C397.577 165.6 398.903 157.873 400.421 150.182C401.313 145.666 399.595 143.944 395.086 143.92C385.508 143.866 376.154 145.346 366.787 147.114C362.044 148.009 360.056 151.118 360.896 155.032C362.758 163.697 355.478 173.96 360.231 179.778C365.646 186.408 376.921 180.332 385.38 182.077C393.283 183.706 394.77 179.006 396.169 173.312ZM174.095 137.757C169.209 136.686 166.56 135.994 163.87 135.532C142.68 131.885 142.676 131.899 145.068 153.511C147.021 171.161 147.027 171.081 164.399 172.337C168.122 172.607 171.783 173.704 175.48 174.379C180.61 175.316 183.209 173.97 182.481 167.963C181.79 162.239 180.98 156.17 182.15 150.664C184.124 141.358 179.982 138.155 174.095 137.757ZM415.077 213.365C411.118 210.852 406.647 212.011 403.028 219.283C400.347 224.669 395.895 229.156 392.354 234.133C390.328 236.982 388.541 239.543 392.836 242.617C415.01 258.48 422.631 257.298 438.634 234.954C439.425 233.852 440.185 232.709 441.114 231.73C444.483 228.188 443.384 225.836 439.286 224.054C432.094 220.93 424.939 217.727 415.077 213.365ZM403.056 332.766C407.403 334.153 410.975 332.141 414.326 330.995C445.856 320.202 444.042 325.402 424.706 298.124C419.81 291.214 414.834 288.315 406.679 294.415C400.89 298.747 390.066 299.709 388.027 304.794C385.779 310.409 394.67 316.972 397.777 323.666C399.283 326.912 399.697 330.976 403.056 332.766ZM357.114 395.481C361.825 396.4 364.151 396.894 366.492 397.304C392.121 401.782 392.122 401.778 388.224 376.152C386.011 361.587 386.006 361.663 371.249 360.936C366.854 360.719 362.371 360.389 358.131 359.319C352.346 357.858 350.796 359.996 351.126 365.419C351.515 371.831 352.113 378.359 351.335 384.68C350.486 391.603 352.748 395.071 357.114 395.481ZM213.544 438.668C215.003 437.983 216.969 437.355 218.601 436.238C223.926 432.599 229.093 428.729 234.388 425.043C241.888 419.821 244.407 415.823 239.212 405.456C235.806 398.665 233.784 389.471 228.95 387.473C223.704 385.301 218.185 390.239 212.021 393.586C207.956 395.796 199.137 398.888 200.572 405.781C202.908 416.997 205.576 428.347 212.087 438.187C212.231 438.407 212.708 438.404 213.544 438.668ZM333.617 129.076C333.397 128.085 333.158 126.437 332.663 124.87C330.005 116.462 327.259 108.081 324.593 99.6736C322.69 93.6716 319.409 93.4935 314.831 97.0301C308.657 101.8 302.543 106.699 296.008 110.931C290.125 114.741 289.7 118.655 293.101 124.489C297.167 131.463 298.751 142.815 304.389 145.187C311.206 148.056 318.144 137.559 326.191 134.949C328.751 134.118 332.215 133.214 333.617 129.076ZM137.355 358.37C135.997 366.774 134.819 375.214 133.204 383.569C132.343 388.018 133.248 390.022 138.156 389.439C147.601 388.319 157.079 387.461 166.53 386.39C170.397 385.951 173.253 383.798 172.717 379.733C171.672 371.799 173.658 364.166 174.29 356.407C174.652 351.956 173.335 350.329 168.561 350.749C161.821 351.343 154.9 351.869 148.251 350.97C141.637 350.076 138.51 352.069 137.355 358.37ZM115.575 319.086C124.318 322.249 124.302 322.24 132.392 310.902C136.128 305.667 143.036 300.435 142.954 295.291C142.842 288.294 134.807 286.597 128.391 283.428C115.292 275.143 114.385 276.143 103.97 287.298C86.9556 305.521 86.955 305.523 109.029 315.986C111.494 317.155 113.961 318.322 115.575 319.086ZM147.119 229.734C146.675 228.176 146.437 227.257 146.148 226.354C138.076 201.115 130.297 197.334 105.367 206.595C102.823 207.539 100.355 208.694 97.884 209.822C95.4758 210.923 93.8126 212.469 95.4201 215.347C100.903 225.161 106.872 235.235 115.819 241.616C121.708 245.816 145.136 230.567 147.119 229.734ZM213.8 116.364C210.608 122.313 211.632 126.12 218.083 129.544C223.674 132.509 229.205 136.002 233.794 140.752C236.73 143.789 239.661 144.051 242.825 139.634C259.522 116.337 259.399 114.403 237.146 96.1563C235.567 94.8621 233.859 93.7274 232.263 92.4536C228.87 89.7437 226.383 89.8027 224.394 94.2365C221.048 101.696 217.35 108.997 213.8 116.364ZM236.332 356.318C238.07 355.752 238.887 355.744 239.219 355.338C267.531 320.906 295.803 286.445 324.08 251.987C328.197 246.97 324.662 246.492 320.697 246.252C306.402 245.384 292.112 244.423 277.811 243.695C272.609 243.429 269.878 242.338 272.665 236.342C279.439 221.774 284.449 206.457 291.728 192.065C294.761 186.074 295.982 179.166 298.22 172.06C296.881 172.836 296.175 173.034 295.794 173.498C267.743 207.731 239.753 242.016 211.649 276.205C208.06 280.57 208.277 282.603 214.311 282.983C227.927 283.835 241.52 285.092 255.145 285.667C262.928 285.994 263.931 288.014 261.149 295.597C253.73 315.823 242.503 334.48 236.332 356.318ZM227.938 60.4941C242.625 67.6765 255.01 77.8994 266.169 89.384C272.447 95.8441 276.505 95.8103 283.006 89.7711C292.99 80.4988 304.891 73.6483 316.946 67.3138C328.3 61.3491 333.145 62.9353 339.434 73.9934C346.701 86.7729 351.992 100.41 355.393 114.634C357.086 121.725 360.298 123.176 366.989 121.944C381.764 119.223 396.703 117.97 411.754 119.47C422.94 120.585 426.67 124.958 426.338 136.008C425.881 151.133 423.265 165.95 419.547 180.524C418.041 186.428 419.146 189.014 424.951 191.178C438.711 196.311 452.226 202.09 464.617 210.2C474.606 216.739 476.131 221.863 470.417 232.312C463.491 244.975 454.429 256.1 444.104 266.018C438.353 271.544 436.821 275.265 442.927 281.924C452.816 292.708 460.479 305.276 467.01 318.411C471.698 327.847 469.891 333.736 460.696 338.753C447.49 345.959 433.603 351.6 418.962 355.145C412.594 356.687 409.956 359.187 411.511 366.527C414.699 381.556 415.607 396.919 414.045 412.265C412.969 422.847 408.437 426.301 397.685 425.976C382.578 425.518 367.731 423.085 353.137 419.423C347.355 417.973 344.922 418.921 342.615 424.774C337.115 438.737 330.987 452.476 322.759 465.175C316.822 474.336 309.827 475.923 300.514 470.131C287.713 462.173 275.921 452.934 265.597 442.026C260.898 437.063 257.475 437.277 252.779 441.522C241.856 451.397 229.45 459.217 216.475 466.046C205.496 471.823 199.539 469.856 193.833 459.012C186.995 446.012 181.569 432.428 178.155 418.104C176.631 411.705 173.706 409.659 166.561 411.211C151.886 414.398 136.821 414.662 121.796 414.047C111.822 413.637 107.096 408.433 107.294 398.385C107.597 382.915 110.268 367.742 113.941 352.831C115.462 346.656 114.03 344.533 108.485 342.421C94.7428 337.19 81.6363 330.557 69.1112 322.776C58.7017 316.308 57.0594 310.243 63.4319 300.03C71.0304 287.852 79.4882 276.236 90.0406 266.546C95.9502 261.12 96.4588 257.398 90.9851 251.495C81.4578 241.22 74.1567 229.266 67.6299 216.898C61.4559 205.196 63.212 199.9 74.6197 193.726C87.5441 186.73 100.989 180.997 115.346 177.822C121.816 176.392 123.678 173.344 122.313 166.986C119.153 152.273 118.315 137.363 119.388 122.327C120.207 110.862 124.831 106.48 136.112 106.948C150.17 107.53 164.073 109.581 177.521 113.467C185.328 115.723 188.877 114.585 191.803 106.444C196.765 92.6437 203.454 79.4967 211.489 67.0967C215.574 60.7941 220.823 58.4642 227.938 60.4941Z" fill="#FFD8CB"/>
</svg>
