<svg width="107" height="107" viewBox="0 0 107 107" fill="none" xmlns="http://www.w3.org/2000/svg">
<circle cx="53.4036" cy="53.6341" r="49.388" fill="#FF7242"/>
<circle cx="53.4036" cy="53.6341" r="51.2004" stroke="#FFB39A" stroke-opacity="0.51" stroke-width="3.6248"/>
<mask id="mask0_122_7792" style="mask-type:alpha" maskUnits="userSpaceOnUse" x="22" y="20" width="63" height="64">
<rect x="22.1406" y="20.6289" width="62.3854" height="62.3854" fill="#D9D9D9"/>
</mask>
<g mask="url(#mask0_122_7792)">
<mask id="path-4-outside-1_122_7792" maskUnits="userSpaceOnUse" x="24.0977" y="20.2852" width="59" height="63" fill="black">
<rect fill="white" x="24.0977" y="20.2852" width="59" height="63"/>
<path d="M81.9011 83.0022H25.5981C25.3217 83.0022 25.0977 82.7781 25.0977 82.5017C25.0977 82.2253 25.3217 82.0013 25.5981 82.0013H81.9011C82.1775 82.0013 82.4015 82.2253 82.4015 82.5017C82.4015 82.7781 82.1775 83.0022 81.9011 83.0022Z"/>
<path d="M32.7428 77.8416H36.9776V74.1177H32.7428V77.8416ZM37.4781 78.8425H32.2424C31.9661 78.8425 31.7419 78.6185 31.7419 78.342V73.6173C31.7419 73.3409 31.9661 73.1169 32.2424 73.1169H37.4781C37.7545 73.1169 37.9785 73.3409 37.9785 73.6173V78.342C37.9785 78.6185 37.7545 78.8425 37.4781 78.8425Z"/>
<path d="M70.478 77.8416H74.7128V74.1177H70.478V77.8416ZM75.2132 78.8425H69.9776C69.7012 78.8425 69.4771 78.6185 69.4771 78.342V73.6173C69.4771 73.3409 69.7012 73.1169 69.9776 73.1169H75.2132C75.4896 73.1169 75.7137 73.3409 75.7137 73.6173V78.342C75.7137 78.6185 75.4896 78.8425 75.2132 78.8425Z"/>
<path d="M45.2865 65.8862C44.3426 65.8862 43.5744 66.6542 43.5744 67.5983C43.5744 68.5423 44.3426 69.3103 45.2865 69.3103C46.2305 69.3103 46.9987 68.5423 46.9987 67.5983C46.9987 66.6542 46.2305 65.8862 45.2865 65.8862ZM45.2865 70.3112C43.7906 70.3112 42.5735 69.0941 42.5735 67.5983C42.5735 66.1024 43.7906 64.8853 45.2865 64.8853C46.7825 64.8853 47.9995 66.1024 47.9995 67.5983C47.9995 69.0941 46.7825 70.3112 45.2865 70.3112Z"/>
<path d="M55.0042 69.3452C54.0602 69.3452 53.2921 70.1132 53.2921 71.0573C53.2921 72.0013 54.0602 72.7693 55.0042 72.7693C55.9482 72.7693 56.7164 72.0013 56.7164 71.0573C56.7164 70.1132 55.9482 69.3452 55.0042 69.3452ZM55.0042 73.7702C53.5083 73.7702 52.2912 72.5531 52.2912 71.0573C52.2912 69.5614 53.5083 68.3443 55.0042 68.3443C56.5002 68.3443 57.7172 69.5614 57.7172 71.0573C57.7172 72.5531 56.5002 73.7702 55.0042 73.7702Z"/>
<path d="M64.6398 68.0987C63.6958 68.0987 62.9277 68.8667 62.9277 69.8108C62.9277 70.7548 63.6958 71.5228 64.6398 71.5228C65.5838 71.5228 66.352 70.7548 66.352 69.8108C66.352 68.8667 65.5838 68.0987 64.6398 68.0987ZM64.6398 72.5237C63.1439 72.5237 61.9268 71.3066 61.9268 69.8108C61.9268 68.3149 63.1439 67.0978 64.6398 67.0978C66.1358 67.0978 67.3528 68.3149 67.3528 69.8108C67.3528 71.3066 66.1358 72.5237 64.6398 72.5237Z"/>
<path d="M72.1901 63.3894C71.2461 63.3894 70.478 64.1574 70.478 65.1015C70.478 66.0455 71.2461 66.8135 72.1901 66.8135C73.1341 66.8135 73.9022 66.0455 73.9022 65.1015C73.9022 64.1574 73.1341 63.3894 72.1901 63.3894ZM72.1901 67.8144C70.6941 67.8144 69.4771 66.5973 69.4771 65.1015C69.4771 63.6056 70.6941 62.3885 72.1901 62.3885C73.6861 62.3885 74.9031 63.6056 74.9031 65.1015C74.9031 66.5973 73.6861 67.8144 72.1901 67.8144Z"/>
<path d="M60.6869 59.2841C59.7429 59.2841 58.9747 60.0521 58.9747 60.9963C58.9747 61.9403 59.7429 62.7083 60.6869 62.7083C61.6308 62.7083 62.399 61.9403 62.399 60.9963C62.399 60.0521 61.6308 59.2841 60.6869 59.2841ZM60.6869 63.7091C59.1909 63.7091 57.9739 62.4921 57.9739 60.9963C57.9739 59.5003 59.1909 58.2833 60.6869 58.2833C62.1828 58.2833 63.3999 59.5003 63.3999 60.9963C63.3999 62.4921 62.1828 63.7091 60.6869 63.7091Z"/>
<path d="M63.3863 52.4877C62.4423 52.4877 61.6741 53.2557 61.6741 54.1999C61.6741 55.1439 62.4423 55.9119 63.3863 55.9119C64.3303 55.9119 65.0984 55.1439 65.0984 54.1999C65.0984 53.2557 64.3303 52.4877 63.3863 52.4877ZM63.3863 56.9127C61.8903 56.9127 60.6733 55.6957 60.6733 54.1999C60.6733 52.7039 61.8903 51.4869 63.3863 51.4869C64.8822 51.4869 66.0993 52.7039 66.0993 54.1999C66.0993 55.6957 64.8822 56.9127 63.3863 56.9127Z"/>
<path d="M69.5975 40.3785C68.6536 40.3785 67.8854 41.1465 67.8854 42.0907C67.8854 43.0346 68.6536 43.8026 69.5975 43.8026C70.5415 43.8026 71.3097 43.0346 71.3097 42.0907C71.3097 41.1465 70.5415 40.3785 69.5975 40.3785ZM69.5975 44.8035C68.1016 44.8035 66.8845 43.5864 66.8845 42.0907C66.8845 40.5947 68.1016 39.3776 69.5975 39.3776C71.0935 39.3776 72.3105 40.5947 72.3105 42.0907C72.3105 43.5864 71.0935 44.8035 69.5975 44.8035Z"/>
<path d="M53.2323 57.8006C52.2884 57.8006 51.5202 58.5686 51.5202 59.5127C51.5202 60.4567 52.2884 61.2247 53.2323 61.2247C54.1763 61.2247 54.9445 60.4567 54.9445 59.5127C54.9445 58.5686 54.1763 57.8006 53.2323 57.8006ZM53.2323 62.2256C51.7364 62.2256 50.5193 61.0085 50.5193 59.5127C50.5193 58.0168 51.7364 56.7997 53.2323 56.7997C54.7283 56.7997 55.9454 58.0168 55.9454 59.5127C55.9454 61.0085 54.7283 62.2256 53.2323 62.2256Z"/>
<path d="M53.4057 46.44C52.4617 46.44 51.6935 47.208 51.6935 48.1521C51.6935 49.0961 52.4617 49.8641 53.4057 49.8641C54.3497 49.8641 55.1178 49.0961 55.1178 48.1521C55.1178 47.208 54.3497 46.44 53.4057 46.44ZM53.4057 50.8649C51.9097 50.8649 50.6927 49.6479 50.6927 48.1521C50.6927 46.6562 51.9097 45.4391 53.4057 45.4391C54.9016 45.4391 56.1187 46.6562 56.1187 48.1521C56.1187 49.6479 54.9016 50.8649 53.4057 50.8649Z"/>
<path d="M40.3226 31.7927C39.3786 31.7927 38.6105 32.5607 38.6105 33.5049C38.6105 34.4489 39.3786 35.2169 40.3226 35.2169C41.2666 35.2169 42.0348 34.4489 42.0348 33.5049C42.0348 32.5607 41.2666 31.7927 40.3226 31.7927ZM40.3226 36.2177C38.8267 36.2177 37.6096 35.0007 37.6096 33.5049C37.6096 32.0089 38.8267 30.7919 40.3226 30.7919C41.8186 30.7919 43.0356 32.0089 43.0356 33.5049C43.0356 35.0007 41.8186 36.2177 40.3226 36.2177Z"/>
<path d="M47.2728 29.8467C46.3288 29.8467 45.5607 30.6147 45.5607 31.5589C45.5607 32.5029 46.3288 33.2709 47.2728 33.2709C48.2168 33.2709 48.9849 32.5029 48.9849 31.5589C48.9849 30.6147 48.2168 29.8467 47.2728 29.8467ZM47.2728 34.2717C45.7768 34.2717 44.5598 33.0547 44.5598 31.5589C44.5598 30.0629 45.7768 28.8459 47.2728 28.8459C48.7688 28.8459 49.9858 30.0629 49.9858 31.5589C49.9858 33.0547 48.7688 34.2717 47.2728 34.2717Z"/>
<path d="M57.5919 22.286C56.6479 22.286 55.8798 23.054 55.8798 23.9982C55.8798 24.9421 56.6479 25.7101 57.5919 25.7101C58.5359 25.7101 59.304 24.9421 59.304 23.9982C59.304 23.054 58.5359 22.286 57.5919 22.286ZM57.5919 26.711C56.0959 26.711 54.8789 25.4939 54.8789 23.9982C54.8789 22.5022 56.0959 21.2852 57.5919 21.2852C59.0879 21.2852 60.3049 22.5022 60.3049 23.9982C60.3049 25.4939 59.0879 26.711 57.5919 26.711Z"/>
<path d="M69.5975 24.6689C68.6536 24.6689 67.8854 25.4369 67.8854 26.381C67.8854 27.325 68.6536 28.093 69.5975 28.093C70.5415 28.093 71.3097 27.325 71.3097 26.381C71.3097 25.4369 70.5415 24.6689 69.5975 24.6689ZM69.5975 29.0938C68.1016 29.0938 66.8845 27.8768 66.8845 26.381C66.8845 24.885 68.1016 23.668 69.5975 23.668C71.0935 23.668 72.3105 24.885 72.3105 26.381C72.3105 27.8768 71.0935 29.0938 69.5975 29.0938Z"/>
<path d="M59.0214 38.0274C58.0774 38.0274 57.3092 38.7954 57.3092 39.7395C57.3092 40.6835 58.0774 41.4515 59.0214 41.4515C59.9653 41.4515 60.7335 40.6835 60.7335 39.7395C60.7335 38.7954 59.9653 38.0274 59.0214 38.0274ZM59.0214 42.4523C57.5254 42.4523 56.3084 41.2353 56.3084 39.7395C56.3084 38.2436 57.5254 37.0265 59.0214 37.0265C60.5173 37.0265 61.7344 38.2436 61.7344 39.7395C61.7344 41.2353 60.5173 42.4523 59.0214 42.4523Z"/>
<path d="M52.8271 71.1637C52.7607 71.1637 52.693 71.1503 52.6281 71.1221L47.1851 68.7604C46.9316 68.6505 46.8151 68.3558 46.9252 68.102C47.0353 67.8487 47.3301 67.7324 47.5834 67.8423L53.0266 70.204C53.28 70.3139 53.3965 70.6087 53.2864 70.8623C53.2046 71.0509 53.0205 71.1637 52.8271 71.1637Z"/>
<path d="M56.5572 69.9828C56.4801 69.9828 56.4019 69.965 56.3286 69.9273C56.0829 69.8006 55.9862 69.4991 56.1126 69.2532L59.4221 62.8221C59.5486 62.5768 59.85 62.4798 60.0962 62.6061C60.3418 62.7327 60.4387 63.0345 60.3122 63.2802L57.0027 69.7112C56.914 69.8836 56.7388 69.9828 56.5572 69.9828Z"/>
<path d="M61.2336 59.2843C61.1635 59.2843 61.0923 59.2694 61.0244 59.2383C60.7733 59.1225 60.6637 58.8252 60.7793 58.5742L61.9729 55.9848C62.0885 55.7339 62.3852 55.624 62.6368 55.7397C62.8878 55.8553 62.9974 56.1528 62.8818 56.4036L61.6884 58.9932C61.604 59.1764 61.4229 59.2843 61.2336 59.2843Z"/>
<path d="M64.3525 52.4879C64.2674 52.4879 64.1813 52.4661 64.1022 52.4205C63.863 52.2821 63.7813 51.976 63.9198 51.7368L68.4373 43.9297C68.5756 43.6905 68.8815 43.6086 69.1212 43.7472C69.3603 43.8857 69.4422 44.1918 69.3037 44.431L64.7862 52.2379C64.6934 52.3983 64.5253 52.4879 64.3525 52.4879Z"/>
<path d="M53.2326 57.8006C53.2284 57.8006 53.2241 57.8006 53.2199 57.8004C52.9435 57.7936 52.7252 57.5639 52.7322 57.2876L52.9055 50.3522C52.9123 50.0758 53.1417 49.8567 53.4181 49.8643C53.6945 49.8713 53.9129 50.1008 53.906 50.377L53.7327 57.3127C53.7259 57.5847 53.5032 57.8006 53.2326 57.8006Z"/>
<path d="M51.5418 47.4602C51.4573 47.4602 51.3715 47.4387 51.293 47.3937C50.972 47.2092 43.4022 42.7974 40.5479 35.7965C40.4434 35.5406 40.5664 35.2485 40.8223 35.1441C41.078 35.0397 41.3701 35.1626 41.4745 35.4185C44.197 42.0959 51.7162 46.4824 51.7919 46.5259C52.0313 46.6637 52.1138 46.9696 51.9761 47.2092C51.8835 47.3701 51.7152 47.4602 51.5418 47.4602Z"/>
<path d="M56.8095 40.24C56.7917 40.24 56.7735 40.239 56.7555 40.237C48.8598 39.3891 42.4178 34.7404 42.1474 34.5431C41.9243 34.3801 41.8755 34.067 42.0384 33.8438C42.2011 33.6206 42.5143 33.5716 42.7375 33.7345C42.8018 33.7814 49.2406 38.4232 56.8622 39.2419C57.1371 39.2713 57.336 39.518 57.3064 39.7929C57.2787 40.0495 57.0619 40.24 56.8095 40.24Z"/>
<path d="M67.4375 42.1122C67.3852 42.1122 67.3319 42.1038 67.2795 42.0863C65.6246 41.5354 61.1832 40.6708 61.1385 40.6621C60.8671 40.6094 60.69 40.3468 60.7425 40.0754C60.7952 39.8042 61.0581 39.6267 61.3292 39.6796C61.5142 39.7155 65.8791 40.5654 67.5954 41.1368C67.8578 41.2241 67.9996 41.5075 67.9124 41.7697C67.8425 41.9794 67.6471 42.1122 67.4375 42.1122Z"/>
<path d="M47.5755 29.8671C47.5244 29.8671 47.4727 29.8593 47.4217 29.8427C47.1594 29.7578 47.015 29.4778 47.0989 29.215C47.1604 29.0225 48.6827 24.4901 55.3181 23.6718C55.5927 23.6386 55.8423 23.8329 55.8761 24.1071C55.91 24.3815 55.715 24.6313 55.4406 24.6651C49.4686 25.4016 48.1068 29.3537 48.0515 29.5216C47.9825 29.7325 47.7861 29.8671 47.5755 29.8671Z"/>
<path d="M51.0326 33C50.0051 33 49.3629 32.9535 49.2604 32.9455C48.9849 32.9239 48.7792 32.6832 48.8007 32.4077C48.8222 32.1321 49.0634 31.9256 49.3383 31.9476C49.4434 31.9556 59.9253 32.7029 67.7684 27.5376C67.9991 27.3855 68.3095 27.4496 68.4616 27.6804C68.6136 27.9113 68.5497 28.2216 68.3189 28.3735C62.0698 32.4891 54.4369 33 51.0326 33Z"/>
<path d="M66.7181 69.5495C66.5499 69.5495 66.3858 69.4649 66.2912 69.3111C66.1464 69.0757 66.2202 68.7676 66.4555 68.6227L70.3517 66.2275C70.5873 66.0828 70.8954 66.1559 71.0401 66.3916C71.1849 66.627 71.1114 66.9352 70.876 67.08L66.9796 69.4754C66.8979 69.5255 66.8075 69.5495 66.7181 69.5495Z"/>
<path d="M69.8223 76.4801H37.5642C37.2878 76.4801 37.0638 76.2561 37.0638 75.9797C37.0638 75.7033 37.2878 75.4792 37.5642 75.4792H69.8223C70.0987 75.4792 70.3228 75.7033 70.3228 75.9797C70.3228 76.2561 70.0987 76.4801 69.8223 76.4801Z"/>
</mask>
<path d="M81.9011 83.0022H25.5981C25.3217 83.0022 25.0977 82.7781 25.0977 82.5017C25.0977 82.2253 25.3217 82.0013 25.5981 82.0013H81.9011C82.1775 82.0013 82.4015 82.2253 82.4015 82.5017C82.4015 82.7781 82.1775 83.0022 81.9011 83.0022Z" fill="white"/>
<path d="M32.7428 77.8416H36.9776V74.1177H32.7428V77.8416ZM37.4781 78.8425H32.2424C31.9661 78.8425 31.7419 78.6185 31.7419 78.342V73.6173C31.7419 73.3409 31.9661 73.1169 32.2424 73.1169H37.4781C37.7545 73.1169 37.9785 73.3409 37.9785 73.6173V78.342C37.9785 78.6185 37.7545 78.8425 37.4781 78.8425Z" fill="white"/>
<path d="M70.478 77.8416H74.7128V74.1177H70.478V77.8416ZM75.2132 78.8425H69.9776C69.7012 78.8425 69.4771 78.6185 69.4771 78.342V73.6173C69.4771 73.3409 69.7012 73.1169 69.9776 73.1169H75.2132C75.4896 73.1169 75.7137 73.3409 75.7137 73.6173V78.342C75.7137 78.6185 75.4896 78.8425 75.2132 78.8425Z" fill="white"/>
<path d="M45.2865 65.8862C44.3426 65.8862 43.5744 66.6542 43.5744 67.5983C43.5744 68.5423 44.3426 69.3103 45.2865 69.3103C46.2305 69.3103 46.9987 68.5423 46.9987 67.5983C46.9987 66.6542 46.2305 65.8862 45.2865 65.8862ZM45.2865 70.3112C43.7906 70.3112 42.5735 69.0941 42.5735 67.5983C42.5735 66.1024 43.7906 64.8853 45.2865 64.8853C46.7825 64.8853 47.9995 66.1024 47.9995 67.5983C47.9995 69.0941 46.7825 70.3112 45.2865 70.3112Z" fill="white"/>
<path d="M55.0042 69.3452C54.0602 69.3452 53.2921 70.1132 53.2921 71.0573C53.2921 72.0013 54.0602 72.7693 55.0042 72.7693C55.9482 72.7693 56.7164 72.0013 56.7164 71.0573C56.7164 70.1132 55.9482 69.3452 55.0042 69.3452ZM55.0042 73.7702C53.5083 73.7702 52.2912 72.5531 52.2912 71.0573C52.2912 69.5614 53.5083 68.3443 55.0042 68.3443C56.5002 68.3443 57.7172 69.5614 57.7172 71.0573C57.7172 72.5531 56.5002 73.7702 55.0042 73.7702Z" fill="white"/>
<path d="M64.6398 68.0987C63.6958 68.0987 62.9277 68.8667 62.9277 69.8108C62.9277 70.7548 63.6958 71.5228 64.6398 71.5228C65.5838 71.5228 66.352 70.7548 66.352 69.8108C66.352 68.8667 65.5838 68.0987 64.6398 68.0987ZM64.6398 72.5237C63.1439 72.5237 61.9268 71.3066 61.9268 69.8108C61.9268 68.3149 63.1439 67.0978 64.6398 67.0978C66.1358 67.0978 67.3528 68.3149 67.3528 69.8108C67.3528 71.3066 66.1358 72.5237 64.6398 72.5237Z" fill="white"/>
<path d="M72.1901 63.3894C71.2461 63.3894 70.478 64.1574 70.478 65.1015C70.478 66.0455 71.2461 66.8135 72.1901 66.8135C73.1341 66.8135 73.9022 66.0455 73.9022 65.1015C73.9022 64.1574 73.1341 63.3894 72.1901 63.3894ZM72.1901 67.8144C70.6941 67.8144 69.4771 66.5973 69.4771 65.1015C69.4771 63.6056 70.6941 62.3885 72.1901 62.3885C73.6861 62.3885 74.9031 63.6056 74.9031 65.1015C74.9031 66.5973 73.6861 67.8144 72.1901 67.8144Z" fill="white"/>
<path d="M60.6869 59.2841C59.7429 59.2841 58.9747 60.0521 58.9747 60.9963C58.9747 61.9403 59.7429 62.7083 60.6869 62.7083C61.6308 62.7083 62.399 61.9403 62.399 60.9963C62.399 60.0521 61.6308 59.2841 60.6869 59.2841ZM60.6869 63.7091C59.1909 63.7091 57.9739 62.4921 57.9739 60.9963C57.9739 59.5003 59.1909 58.2833 60.6869 58.2833C62.1828 58.2833 63.3999 59.5003 63.3999 60.9963C63.3999 62.4921 62.1828 63.7091 60.6869 63.7091Z" fill="white"/>
<path d="M63.3863 52.4877C62.4423 52.4877 61.6741 53.2557 61.6741 54.1999C61.6741 55.1439 62.4423 55.9119 63.3863 55.9119C64.3303 55.9119 65.0984 55.1439 65.0984 54.1999C65.0984 53.2557 64.3303 52.4877 63.3863 52.4877ZM63.3863 56.9127C61.8903 56.9127 60.6733 55.6957 60.6733 54.1999C60.6733 52.7039 61.8903 51.4869 63.3863 51.4869C64.8822 51.4869 66.0993 52.7039 66.0993 54.1999C66.0993 55.6957 64.8822 56.9127 63.3863 56.9127Z" fill="white"/>
<path d="M69.5975 40.3785C68.6536 40.3785 67.8854 41.1465 67.8854 42.0907C67.8854 43.0346 68.6536 43.8026 69.5975 43.8026C70.5415 43.8026 71.3097 43.0346 71.3097 42.0907C71.3097 41.1465 70.5415 40.3785 69.5975 40.3785ZM69.5975 44.8035C68.1016 44.8035 66.8845 43.5864 66.8845 42.0907C66.8845 40.5947 68.1016 39.3776 69.5975 39.3776C71.0935 39.3776 72.3105 40.5947 72.3105 42.0907C72.3105 43.5864 71.0935 44.8035 69.5975 44.8035Z" fill="white"/>
<path d="M53.2323 57.8006C52.2884 57.8006 51.5202 58.5686 51.5202 59.5127C51.5202 60.4567 52.2884 61.2247 53.2323 61.2247C54.1763 61.2247 54.9445 60.4567 54.9445 59.5127C54.9445 58.5686 54.1763 57.8006 53.2323 57.8006ZM53.2323 62.2256C51.7364 62.2256 50.5193 61.0085 50.5193 59.5127C50.5193 58.0168 51.7364 56.7997 53.2323 56.7997C54.7283 56.7997 55.9454 58.0168 55.9454 59.5127C55.9454 61.0085 54.7283 62.2256 53.2323 62.2256Z" fill="white"/>
<path d="M53.4057 46.44C52.4617 46.44 51.6935 47.208 51.6935 48.1521C51.6935 49.0961 52.4617 49.8641 53.4057 49.8641C54.3497 49.8641 55.1178 49.0961 55.1178 48.1521C55.1178 47.208 54.3497 46.44 53.4057 46.44ZM53.4057 50.8649C51.9097 50.8649 50.6927 49.6479 50.6927 48.1521C50.6927 46.6562 51.9097 45.4391 53.4057 45.4391C54.9016 45.4391 56.1187 46.6562 56.1187 48.1521C56.1187 49.6479 54.9016 50.8649 53.4057 50.8649Z" fill="white"/>
<path d="M40.3226 31.7927C39.3786 31.7927 38.6105 32.5607 38.6105 33.5049C38.6105 34.4489 39.3786 35.2169 40.3226 35.2169C41.2666 35.2169 42.0348 34.4489 42.0348 33.5049C42.0348 32.5607 41.2666 31.7927 40.3226 31.7927ZM40.3226 36.2177C38.8267 36.2177 37.6096 35.0007 37.6096 33.5049C37.6096 32.0089 38.8267 30.7919 40.3226 30.7919C41.8186 30.7919 43.0356 32.0089 43.0356 33.5049C43.0356 35.0007 41.8186 36.2177 40.3226 36.2177Z" fill="white"/>
<path d="M47.2728 29.8467C46.3288 29.8467 45.5607 30.6147 45.5607 31.5589C45.5607 32.5029 46.3288 33.2709 47.2728 33.2709C48.2168 33.2709 48.9849 32.5029 48.9849 31.5589C48.9849 30.6147 48.2168 29.8467 47.2728 29.8467ZM47.2728 34.2717C45.7768 34.2717 44.5598 33.0547 44.5598 31.5589C44.5598 30.0629 45.7768 28.8459 47.2728 28.8459C48.7688 28.8459 49.9858 30.0629 49.9858 31.5589C49.9858 33.0547 48.7688 34.2717 47.2728 34.2717Z" fill="white"/>
<path d="M57.5919 22.286C56.6479 22.286 55.8798 23.054 55.8798 23.9982C55.8798 24.9421 56.6479 25.7101 57.5919 25.7101C58.5359 25.7101 59.304 24.9421 59.304 23.9982C59.304 23.054 58.5359 22.286 57.5919 22.286ZM57.5919 26.711C56.0959 26.711 54.8789 25.4939 54.8789 23.9982C54.8789 22.5022 56.0959 21.2852 57.5919 21.2852C59.0879 21.2852 60.3049 22.5022 60.3049 23.9982C60.3049 25.4939 59.0879 26.711 57.5919 26.711Z" fill="white"/>
<path d="M69.5975 24.6689C68.6536 24.6689 67.8854 25.4369 67.8854 26.381C67.8854 27.325 68.6536 28.093 69.5975 28.093C70.5415 28.093 71.3097 27.325 71.3097 26.381C71.3097 25.4369 70.5415 24.6689 69.5975 24.6689ZM69.5975 29.0938C68.1016 29.0938 66.8845 27.8768 66.8845 26.381C66.8845 24.885 68.1016 23.668 69.5975 23.668C71.0935 23.668 72.3105 24.885 72.3105 26.381C72.3105 27.8768 71.0935 29.0938 69.5975 29.0938Z" fill="white"/>
<path d="M59.0214 38.0274C58.0774 38.0274 57.3092 38.7954 57.3092 39.7395C57.3092 40.6835 58.0774 41.4515 59.0214 41.4515C59.9653 41.4515 60.7335 40.6835 60.7335 39.7395C60.7335 38.7954 59.9653 38.0274 59.0214 38.0274ZM59.0214 42.4523C57.5254 42.4523 56.3084 41.2353 56.3084 39.7395C56.3084 38.2436 57.5254 37.0265 59.0214 37.0265C60.5173 37.0265 61.7344 38.2436 61.7344 39.7395C61.7344 41.2353 60.5173 42.4523 59.0214 42.4523Z" fill="white"/>
<path d="M52.8271 71.1637C52.7607 71.1637 52.693 71.1503 52.6281 71.1221L47.1851 68.7604C46.9316 68.6505 46.8151 68.3558 46.9252 68.102C47.0353 67.8487 47.3301 67.7324 47.5834 67.8423L53.0266 70.204C53.28 70.3139 53.3965 70.6087 53.2864 70.8623C53.2046 71.0509 53.0205 71.1637 52.8271 71.1637Z" fill="white"/>
<path d="M56.5572 69.9828C56.4801 69.9828 56.4019 69.965 56.3286 69.9273C56.0829 69.8006 55.9862 69.4991 56.1126 69.2532L59.4221 62.8221C59.5486 62.5768 59.85 62.4798 60.0962 62.6061C60.3418 62.7327 60.4387 63.0345 60.3122 63.2802L57.0027 69.7112C56.914 69.8836 56.7388 69.9828 56.5572 69.9828Z" fill="white"/>
<path d="M61.2336 59.2843C61.1635 59.2843 61.0923 59.2694 61.0244 59.2383C60.7733 59.1225 60.6637 58.8252 60.7793 58.5742L61.9729 55.9848C62.0885 55.7339 62.3852 55.624 62.6368 55.7397C62.8878 55.8553 62.9974 56.1528 62.8818 56.4036L61.6884 58.9932C61.604 59.1764 61.4229 59.2843 61.2336 59.2843Z" fill="white"/>
<path d="M64.3525 52.4879C64.2674 52.4879 64.1813 52.4661 64.1022 52.4205C63.863 52.2821 63.7813 51.976 63.9198 51.7368L68.4373 43.9297C68.5756 43.6905 68.8815 43.6086 69.1212 43.7472C69.3603 43.8857 69.4422 44.1918 69.3037 44.431L64.7862 52.2379C64.6934 52.3983 64.5253 52.4879 64.3525 52.4879Z" fill="white"/>
<path d="M53.2326 57.8006C53.2284 57.8006 53.2241 57.8006 53.2199 57.8004C52.9435 57.7936 52.7252 57.5639 52.7322 57.2876L52.9055 50.3522C52.9123 50.0758 53.1417 49.8567 53.4181 49.8643C53.6945 49.8713 53.9129 50.1008 53.906 50.377L53.7327 57.3127C53.7259 57.5847 53.5032 57.8006 53.2326 57.8006Z" fill="white"/>
<path d="M51.5418 47.4602C51.4573 47.4602 51.3715 47.4387 51.293 47.3937C50.972 47.2092 43.4022 42.7974 40.5479 35.7965C40.4434 35.5406 40.5664 35.2485 40.8223 35.1441C41.078 35.0397 41.3701 35.1626 41.4745 35.4185C44.197 42.0959 51.7162 46.4824 51.7919 46.5259C52.0313 46.6637 52.1138 46.9696 51.9761 47.2092C51.8835 47.3701 51.7152 47.4602 51.5418 47.4602Z" fill="white"/>
<path d="M56.8095 40.24C56.7917 40.24 56.7735 40.239 56.7555 40.237C48.8598 39.3891 42.4178 34.7404 42.1474 34.5431C41.9243 34.3801 41.8755 34.067 42.0384 33.8438C42.2011 33.6206 42.5143 33.5716 42.7375 33.7345C42.8018 33.7814 49.2406 38.4232 56.8622 39.2419C57.1371 39.2713 57.336 39.518 57.3064 39.7929C57.2787 40.0495 57.0619 40.24 56.8095 40.24Z" fill="white"/>
<path d="M67.4375 42.1122C67.3852 42.1122 67.3319 42.1038 67.2795 42.0863C65.6246 41.5354 61.1832 40.6708 61.1385 40.6621C60.8671 40.6094 60.69 40.3468 60.7425 40.0754C60.7952 39.8042 61.0581 39.6267 61.3292 39.6796C61.5142 39.7155 65.8791 40.5654 67.5954 41.1368C67.8578 41.2241 67.9996 41.5075 67.9124 41.7697C67.8425 41.9794 67.6471 42.1122 67.4375 42.1122Z" fill="white"/>
<path d="M47.5755 29.8671C47.5244 29.8671 47.4727 29.8593 47.4217 29.8427C47.1594 29.7578 47.015 29.4778 47.0989 29.215C47.1604 29.0225 48.6827 24.4901 55.3181 23.6718C55.5927 23.6386 55.8423 23.8329 55.8761 24.1071C55.91 24.3815 55.715 24.6313 55.4406 24.6651C49.4686 25.4016 48.1068 29.3537 48.0515 29.5216C47.9825 29.7325 47.7861 29.8671 47.5755 29.8671Z" fill="white"/>
<path d="M51.0326 33C50.0051 33 49.3629 32.9535 49.2604 32.9455C48.9849 32.9239 48.7792 32.6832 48.8007 32.4077C48.8222 32.1321 49.0634 31.9256 49.3383 31.9476C49.4434 31.9556 59.9253 32.7029 67.7684 27.5376C67.9991 27.3855 68.3095 27.4496 68.4616 27.6804C68.6136 27.9113 68.5497 28.2216 68.3189 28.3735C62.0698 32.4891 54.4369 33 51.0326 33Z" fill="white"/>
<path d="M66.7181 69.5495C66.5499 69.5495 66.3858 69.4649 66.2912 69.3111C66.1464 69.0757 66.2202 68.7676 66.4555 68.6227L70.3517 66.2275C70.5873 66.0828 70.8954 66.1559 71.0401 66.3916C71.1849 66.627 71.1114 66.9352 70.876 67.08L66.9796 69.4754C66.8979 69.5255 66.8075 69.5495 66.7181 69.5495Z" fill="white"/>
<path d="M69.8223 76.4801H37.5642C37.2878 76.4801 37.0638 76.2561 37.0638 75.9797C37.0638 75.7033 37.2878 75.4792 37.5642 75.4792H69.8223C70.0987 75.4792 70.3228 75.7033 70.3228 75.9797C70.3228 76.2561 70.0987 76.4801 69.8223 76.4801Z" fill="white"/>
<path d="M81.9011 83.0022H25.5981C25.3217 83.0022 25.0977 82.7781 25.0977 82.5017C25.0977 82.2253 25.3217 82.0013 25.5981 82.0013H81.9011C82.1775 82.0013 82.4015 82.2253 82.4015 82.5017C82.4015 82.7781 82.1775 83.0022 81.9011 83.0022Z" stroke="white" stroke-width="0.550474" mask="url(#path-4-outside-1_122_7792)"/>
<path d="M32.7428 77.8416H36.9776V74.1177H32.7428V77.8416ZM37.4781 78.8425H32.2424C31.9661 78.8425 31.7419 78.6185 31.7419 78.342V73.6173C31.7419 73.3409 31.9661 73.1169 32.2424 73.1169H37.4781C37.7545 73.1169 37.9785 73.3409 37.9785 73.6173V78.342C37.9785 78.6185 37.7545 78.8425 37.4781 78.8425Z" stroke="white" stroke-width="0.550474" mask="url(#path-4-outside-1_122_7792)"/>
<path d="M70.478 77.8416H74.7128V74.1177H70.478V77.8416ZM75.2132 78.8425H69.9776C69.7012 78.8425 69.4771 78.6185 69.4771 78.342V73.6173C69.4771 73.3409 69.7012 73.1169 69.9776 73.1169H75.2132C75.4896 73.1169 75.7137 73.3409 75.7137 73.6173V78.342C75.7137 78.6185 75.4896 78.8425 75.2132 78.8425Z" stroke="white" stroke-width="0.550474" mask="url(#path-4-outside-1_122_7792)"/>
<path d="M45.2865 65.8862C44.3426 65.8862 43.5744 66.6542 43.5744 67.5983C43.5744 68.5423 44.3426 69.3103 45.2865 69.3103C46.2305 69.3103 46.9987 68.5423 46.9987 67.5983C46.9987 66.6542 46.2305 65.8862 45.2865 65.8862ZM45.2865 70.3112C43.7906 70.3112 42.5735 69.0941 42.5735 67.5983C42.5735 66.1024 43.7906 64.8853 45.2865 64.8853C46.7825 64.8853 47.9995 66.1024 47.9995 67.5983C47.9995 69.0941 46.7825 70.3112 45.2865 70.3112Z" stroke="white" stroke-width="0.550474" mask="url(#path-4-outside-1_122_7792)"/>
<path d="M55.0042 69.3452C54.0602 69.3452 53.2921 70.1132 53.2921 71.0573C53.2921 72.0013 54.0602 72.7693 55.0042 72.7693C55.9482 72.7693 56.7164 72.0013 56.7164 71.0573C56.7164 70.1132 55.9482 69.3452 55.0042 69.3452ZM55.0042 73.7702C53.5083 73.7702 52.2912 72.5531 52.2912 71.0573C52.2912 69.5614 53.5083 68.3443 55.0042 68.3443C56.5002 68.3443 57.7172 69.5614 57.7172 71.0573C57.7172 72.5531 56.5002 73.7702 55.0042 73.7702Z" stroke="white" stroke-width="0.550474" mask="url(#path-4-outside-1_122_7792)"/>
<path d="M64.6398 68.0987C63.6958 68.0987 62.9277 68.8667 62.9277 69.8108C62.9277 70.7548 63.6958 71.5228 64.6398 71.5228C65.5838 71.5228 66.352 70.7548 66.352 69.8108C66.352 68.8667 65.5838 68.0987 64.6398 68.0987ZM64.6398 72.5237C63.1439 72.5237 61.9268 71.3066 61.9268 69.8108C61.9268 68.3149 63.1439 67.0978 64.6398 67.0978C66.1358 67.0978 67.3528 68.3149 67.3528 69.8108C67.3528 71.3066 66.1358 72.5237 64.6398 72.5237Z" stroke="white" stroke-width="0.550474" mask="url(#path-4-outside-1_122_7792)"/>
<path d="M72.1901 63.3894C71.2461 63.3894 70.478 64.1574 70.478 65.1015C70.478 66.0455 71.2461 66.8135 72.1901 66.8135C73.1341 66.8135 73.9022 66.0455 73.9022 65.1015C73.9022 64.1574 73.1341 63.3894 72.1901 63.3894ZM72.1901 67.8144C70.6941 67.8144 69.4771 66.5973 69.4771 65.1015C69.4771 63.6056 70.6941 62.3885 72.1901 62.3885C73.6861 62.3885 74.9031 63.6056 74.9031 65.1015C74.9031 66.5973 73.6861 67.8144 72.1901 67.8144Z" stroke="white" stroke-width="0.550474" mask="url(#path-4-outside-1_122_7792)"/>
<path d="M60.6869 59.2841C59.7429 59.2841 58.9747 60.0521 58.9747 60.9963C58.9747 61.9403 59.7429 62.7083 60.6869 62.7083C61.6308 62.7083 62.399 61.9403 62.399 60.9963C62.399 60.0521 61.6308 59.2841 60.6869 59.2841ZM60.6869 63.7091C59.1909 63.7091 57.9739 62.4921 57.9739 60.9963C57.9739 59.5003 59.1909 58.2833 60.6869 58.2833C62.1828 58.2833 63.3999 59.5003 63.3999 60.9963C63.3999 62.4921 62.1828 63.7091 60.6869 63.7091Z" stroke="white" stroke-width="0.550474" mask="url(#path-4-outside-1_122_7792)"/>
<path d="M63.3863 52.4877C62.4423 52.4877 61.6741 53.2557 61.6741 54.1999C61.6741 55.1439 62.4423 55.9119 63.3863 55.9119C64.3303 55.9119 65.0984 55.1439 65.0984 54.1999C65.0984 53.2557 64.3303 52.4877 63.3863 52.4877ZM63.3863 56.9127C61.8903 56.9127 60.6733 55.6957 60.6733 54.1999C60.6733 52.7039 61.8903 51.4869 63.3863 51.4869C64.8822 51.4869 66.0993 52.7039 66.0993 54.1999C66.0993 55.6957 64.8822 56.9127 63.3863 56.9127Z" stroke="white" stroke-width="0.550474" mask="url(#path-4-outside-1_122_7792)"/>
<path d="M69.5975 40.3785C68.6536 40.3785 67.8854 41.1465 67.8854 42.0907C67.8854 43.0346 68.6536 43.8026 69.5975 43.8026C70.5415 43.8026 71.3097 43.0346 71.3097 42.0907C71.3097 41.1465 70.5415 40.3785 69.5975 40.3785ZM69.5975 44.8035C68.1016 44.8035 66.8845 43.5864 66.8845 42.0907C66.8845 40.5947 68.1016 39.3776 69.5975 39.3776C71.0935 39.3776 72.3105 40.5947 72.3105 42.0907C72.3105 43.5864 71.0935 44.8035 69.5975 44.8035Z" stroke="white" stroke-width="0.550474" mask="url(#path-4-outside-1_122_7792)"/>
<path d="M53.2323 57.8006C52.2884 57.8006 51.5202 58.5686 51.5202 59.5127C51.5202 60.4567 52.2884 61.2247 53.2323 61.2247C54.1763 61.2247 54.9445 60.4567 54.9445 59.5127C54.9445 58.5686 54.1763 57.8006 53.2323 57.8006ZM53.2323 62.2256C51.7364 62.2256 50.5193 61.0085 50.5193 59.5127C50.5193 58.0168 51.7364 56.7997 53.2323 56.7997C54.7283 56.7997 55.9454 58.0168 55.9454 59.5127C55.9454 61.0085 54.7283 62.2256 53.2323 62.2256Z" stroke="white" stroke-width="0.550474" mask="url(#path-4-outside-1_122_7792)"/>
<path d="M53.4057 46.44C52.4617 46.44 51.6935 47.208 51.6935 48.1521C51.6935 49.0961 52.4617 49.8641 53.4057 49.8641C54.3497 49.8641 55.1178 49.0961 55.1178 48.1521C55.1178 47.208 54.3497 46.44 53.4057 46.44ZM53.4057 50.8649C51.9097 50.8649 50.6927 49.6479 50.6927 48.1521C50.6927 46.6562 51.9097 45.4391 53.4057 45.4391C54.9016 45.4391 56.1187 46.6562 56.1187 48.1521C56.1187 49.6479 54.9016 50.8649 53.4057 50.8649Z" stroke="white" stroke-width="0.550474" mask="url(#path-4-outside-1_122_7792)"/>
<path d="M40.3226 31.7927C39.3786 31.7927 38.6105 32.5607 38.6105 33.5049C38.6105 34.4489 39.3786 35.2169 40.3226 35.2169C41.2666 35.2169 42.0348 34.4489 42.0348 33.5049C42.0348 32.5607 41.2666 31.7927 40.3226 31.7927ZM40.3226 36.2177C38.8267 36.2177 37.6096 35.0007 37.6096 33.5049C37.6096 32.0089 38.8267 30.7919 40.3226 30.7919C41.8186 30.7919 43.0356 32.0089 43.0356 33.5049C43.0356 35.0007 41.8186 36.2177 40.3226 36.2177Z" stroke="white" stroke-width="0.550474" mask="url(#path-4-outside-1_122_7792)"/>
<path d="M47.2728 29.8467C46.3288 29.8467 45.5607 30.6147 45.5607 31.5589C45.5607 32.5029 46.3288 33.2709 47.2728 33.2709C48.2168 33.2709 48.9849 32.5029 48.9849 31.5589C48.9849 30.6147 48.2168 29.8467 47.2728 29.8467ZM47.2728 34.2717C45.7768 34.2717 44.5598 33.0547 44.5598 31.5589C44.5598 30.0629 45.7768 28.8459 47.2728 28.8459C48.7688 28.8459 49.9858 30.0629 49.9858 31.5589C49.9858 33.0547 48.7688 34.2717 47.2728 34.2717Z" stroke="white" stroke-width="0.550474" mask="url(#path-4-outside-1_122_7792)"/>
<path d="M57.5919 22.286C56.6479 22.286 55.8798 23.054 55.8798 23.9982C55.8798 24.9421 56.6479 25.7101 57.5919 25.7101C58.5359 25.7101 59.304 24.9421 59.304 23.9982C59.304 23.054 58.5359 22.286 57.5919 22.286ZM57.5919 26.711C56.0959 26.711 54.8789 25.4939 54.8789 23.9982C54.8789 22.5022 56.0959 21.2852 57.5919 21.2852C59.0879 21.2852 60.3049 22.5022 60.3049 23.9982C60.3049 25.4939 59.0879 26.711 57.5919 26.711Z" stroke="white" stroke-width="0.550474" mask="url(#path-4-outside-1_122_7792)"/>
<path d="M69.5975 24.6689C68.6536 24.6689 67.8854 25.4369 67.8854 26.381C67.8854 27.325 68.6536 28.093 69.5975 28.093C70.5415 28.093 71.3097 27.325 71.3097 26.381C71.3097 25.4369 70.5415 24.6689 69.5975 24.6689ZM69.5975 29.0938C68.1016 29.0938 66.8845 27.8768 66.8845 26.381C66.8845 24.885 68.1016 23.668 69.5975 23.668C71.0935 23.668 72.3105 24.885 72.3105 26.381C72.3105 27.8768 71.0935 29.0938 69.5975 29.0938Z" stroke="white" stroke-width="0.550474" mask="url(#path-4-outside-1_122_7792)"/>
<path d="M59.0214 38.0274C58.0774 38.0274 57.3092 38.7954 57.3092 39.7395C57.3092 40.6835 58.0774 41.4515 59.0214 41.4515C59.9653 41.4515 60.7335 40.6835 60.7335 39.7395C60.7335 38.7954 59.9653 38.0274 59.0214 38.0274ZM59.0214 42.4523C57.5254 42.4523 56.3084 41.2353 56.3084 39.7395C56.3084 38.2436 57.5254 37.0265 59.0214 37.0265C60.5173 37.0265 61.7344 38.2436 61.7344 39.7395C61.7344 41.2353 60.5173 42.4523 59.0214 42.4523Z" stroke="white" stroke-width="0.550474" mask="url(#path-4-outside-1_122_7792)"/>
<path d="M52.8271 71.1637C52.7607 71.1637 52.693 71.1503 52.6281 71.1221L47.1851 68.7604C46.9316 68.6505 46.8151 68.3558 46.9252 68.102C47.0353 67.8487 47.3301 67.7324 47.5834 67.8423L53.0266 70.204C53.28 70.3139 53.3965 70.6087 53.2864 70.8623C53.2046 71.0509 53.0205 71.1637 52.8271 71.1637Z" stroke="white" stroke-width="0.550474" mask="url(#path-4-outside-1_122_7792)"/>
<path d="M56.5572 69.9828C56.4801 69.9828 56.4019 69.965 56.3286 69.9273C56.0829 69.8006 55.9862 69.4991 56.1126 69.2532L59.4221 62.8221C59.5486 62.5768 59.85 62.4798 60.0962 62.6061C60.3418 62.7327 60.4387 63.0345 60.3122 63.2802L57.0027 69.7112C56.914 69.8836 56.7388 69.9828 56.5572 69.9828Z" stroke="white" stroke-width="0.550474" mask="url(#path-4-outside-1_122_7792)"/>
<path d="M61.2336 59.2843C61.1635 59.2843 61.0923 59.2694 61.0244 59.2383C60.7733 59.1225 60.6637 58.8252 60.7793 58.5742L61.9729 55.9848C62.0885 55.7339 62.3852 55.624 62.6368 55.7397C62.8878 55.8553 62.9974 56.1528 62.8818 56.4036L61.6884 58.9932C61.604 59.1764 61.4229 59.2843 61.2336 59.2843Z" stroke="white" stroke-width="0.550474" mask="url(#path-4-outside-1_122_7792)"/>
<path d="M64.3525 52.4879C64.2674 52.4879 64.1813 52.4661 64.1022 52.4205C63.863 52.2821 63.7813 51.976 63.9198 51.7368L68.4373 43.9297C68.5756 43.6905 68.8815 43.6086 69.1212 43.7472C69.3603 43.8857 69.4422 44.1918 69.3037 44.431L64.7862 52.2379C64.6934 52.3983 64.5253 52.4879 64.3525 52.4879Z" stroke="white" stroke-width="0.550474" mask="url(#path-4-outside-1_122_7792)"/>
<path d="M53.2326 57.8006C53.2284 57.8006 53.2241 57.8006 53.2199 57.8004C52.9435 57.7936 52.7252 57.5639 52.7322 57.2876L52.9055 50.3522C52.9123 50.0758 53.1417 49.8567 53.4181 49.8643C53.6945 49.8713 53.9129 50.1008 53.906 50.377L53.7327 57.3127C53.7259 57.5847 53.5032 57.8006 53.2326 57.8006Z" stroke="white" stroke-width="0.550474" mask="url(#path-4-outside-1_122_7792)"/>
<path d="M51.5418 47.4602C51.4573 47.4602 51.3715 47.4387 51.293 47.3937C50.972 47.2092 43.4022 42.7974 40.5479 35.7965C40.4434 35.5406 40.5664 35.2485 40.8223 35.1441C41.078 35.0397 41.3701 35.1626 41.4745 35.4185C44.197 42.0959 51.7162 46.4824 51.7919 46.5259C52.0313 46.6637 52.1138 46.9696 51.9761 47.2092C51.8835 47.3701 51.7152 47.4602 51.5418 47.4602Z" stroke="white" stroke-width="0.550474" mask="url(#path-4-outside-1_122_7792)"/>
<path d="M56.8095 40.24C56.7917 40.24 56.7735 40.239 56.7555 40.237C48.8598 39.3891 42.4178 34.7404 42.1474 34.5431C41.9243 34.3801 41.8755 34.067 42.0384 33.8438C42.2011 33.6206 42.5143 33.5716 42.7375 33.7345C42.8018 33.7814 49.2406 38.4232 56.8622 39.2419C57.1371 39.2713 57.336 39.518 57.3064 39.7929C57.2787 40.0495 57.0619 40.24 56.8095 40.24Z" stroke="white" stroke-width="0.550474" mask="url(#path-4-outside-1_122_7792)"/>
<path d="M67.4375 42.1122C67.3852 42.1122 67.3319 42.1038 67.2795 42.0863C65.6246 41.5354 61.1832 40.6708 61.1385 40.6621C60.8671 40.6094 60.69 40.3468 60.7425 40.0754C60.7952 39.8042 61.0581 39.6267 61.3292 39.6796C61.5142 39.7155 65.8791 40.5654 67.5954 41.1368C67.8578 41.2241 67.9996 41.5075 67.9124 41.7697C67.8425 41.9794 67.6471 42.1122 67.4375 42.1122Z" stroke="white" stroke-width="0.550474" mask="url(#path-4-outside-1_122_7792)"/>
<path d="M47.5755 29.8671C47.5244 29.8671 47.4727 29.8593 47.4217 29.8427C47.1594 29.7578 47.015 29.4778 47.0989 29.215C47.1604 29.0225 48.6827 24.4901 55.3181 23.6718C55.5927 23.6386 55.8423 23.8329 55.8761 24.1071C55.91 24.3815 55.715 24.6313 55.4406 24.6651C49.4686 25.4016 48.1068 29.3537 48.0515 29.5216C47.9825 29.7325 47.7861 29.8671 47.5755 29.8671Z" stroke="white" stroke-width="0.550474" mask="url(#path-4-outside-1_122_7792)"/>
<path d="M51.0326 33C50.0051 33 49.3629 32.9535 49.2604 32.9455C48.9849 32.9239 48.7792 32.6832 48.8007 32.4077C48.8222 32.1321 49.0634 31.9256 49.3383 31.9476C49.4434 31.9556 59.9253 32.7029 67.7684 27.5376C67.9991 27.3855 68.3095 27.4496 68.4616 27.6804C68.6136 27.9113 68.5497 28.2216 68.3189 28.3735C62.0698 32.4891 54.4369 33 51.0326 33Z" stroke="white" stroke-width="0.550474" mask="url(#path-4-outside-1_122_7792)"/>
<path d="M66.7181 69.5495C66.5499 69.5495 66.3858 69.4649 66.2912 69.3111C66.1464 69.0757 66.2202 68.7676 66.4555 68.6227L70.3517 66.2275C70.5873 66.0828 70.8954 66.1559 71.0401 66.3916C71.1849 66.627 71.1114 66.9352 70.876 67.08L66.9796 69.4754C66.8979 69.5255 66.8075 69.5495 66.7181 69.5495Z" stroke="white" stroke-width="0.550474" mask="url(#path-4-outside-1_122_7792)"/>
<path d="M69.8223 76.4801H37.5642C37.2878 76.4801 37.0638 76.2561 37.0638 75.9797C37.0638 75.7033 37.2878 75.4792 37.5642 75.4792H69.8223C70.0987 75.4792 70.3228 75.7033 70.3228 75.9797C70.3228 76.2561 70.0987 76.4801 69.8223 76.4801Z" stroke="white" stroke-width="0.550474" mask="url(#path-4-outside-1_122_7792)"/>
</g>
</svg>
