<svg width="107" height="107" viewBox="0 0 107 107" fill="none" xmlns="http://www.w3.org/2000/svg">
<circle cx="53.677" cy="53.4622" r="49.388" fill="#FF7242"/>
<circle cx="53.677" cy="53.4622" r="51.2004" stroke="#FFB39A" stroke-opacity="0.51" stroke-width="3.6248"/>
<mask id="mask0_122_7778" style="mask-type:alpha" maskUnits="userSpaceOnUse" x="22" y="20" width="63" height="63">
<rect x="22.1875" y="20.1621" width="62.3854" height="62.3854" fill="#D9D9D9"/>
</mask>
<g mask="url(#mask0_122_7778)">
<path d="M48.3303 80.0968C48.9864 80.7694 50.0825 80.9458 50.9265 80.5104C51.4659 80.232 52.8423 78.1174 52.9261 77.5139C53.1678 75.7755 51.6088 74.5298 50.0242 75.3086C49.5353 75.5488 48.0123 77.5053 47.8571 78.022C47.648 78.7192 47.8124 79.566 48.3303 80.0968ZM46.5199 71.4506C46.3247 71.4716 45.9784 71.5749 45.8056 71.671C45.3088 71.9471 42.8676 74.993 42.7053 75.5425C42.1671 77.3636 44.2375 78.9023 45.7909 77.8153C46.28 77.473 48.4718 74.5025 48.6422 73.9277C49.0411 72.5824 47.8791 71.3042 46.5199 71.4506ZM42.3343 67.0381C41.5922 67.0671 41.1545 67.4328 40.6754 67.9352C40.0837 68.5556 37.7645 71.5193 37.4951 72.1924C36.6069 74.411 39.083 76.2216 40.9574 74.8412C41.4306 74.4926 44.3617 70.8682 44.5915 70.3407C45.2913 68.7353 44.054 66.971 42.3343 67.0381ZM37.1019 62.8518C36.627 62.9339 36.1286 63.2974 35.7933 63.6343C35.2319 64.1983 32.7101 67.4583 32.461 68.0879C31.5251 70.4529 34.2078 72.527 36.2579 70.9553C36.8412 70.5079 39.7662 66.7195 39.9782 66.0763C40.5938 64.2086 39.0259 62.5193 37.1019 62.8518ZM46.7778 49.1109H42.4199C42.0554 49.1109 41.1339 48.1883 40.9717 48.3002L32.8347 59.3959C34.0151 60.1092 34.7643 61.1461 34.577 62.5911C37.342 59.8506 41.7828 61.7028 41.6654 65.6123C44.287 64.9956 46.5777 67.3094 46.3125 69.9128C48.4882 69.6586 50.4233 71.4367 50.2648 73.6306C53.433 72.9701 55.5358 76.4257 53.9917 79.1393C56.3684 80.7709 58.7102 77.8003 56.4779 75.7258C54.9731 74.3273 52.9403 73.1365 51.3749 71.765C50.832 71.0854 51.5267 70.111 52.2774 70.5116C54.1559 71.7915 55.8659 73.4202 57.7133 74.7229C58.0513 74.961 58.4535 75.346 58.8554 75.4402C60.9611 75.9333 62.2251 73.6647 60.725 72.1761L54.5124 67.6977C53.9758 66.927 54.6181 66.1317 55.4895 66.4892C57.5056 67.8018 59.464 69.5803 61.4996 70.8205C62.6721 71.5349 63.9363 71.7629 64.9064 70.5515C65.8596 69.361 65.4158 68.0456 64.3799 67.1268C62.4498 65.415 59.8629 63.9892 57.855 62.3222C57.2309 61.5956 57.9705 60.6318 58.815 61.0718C61.1509 62.6287 63.3476 64.6493 65.6833 66.1721C65.9677 66.3575 66.3146 66.6486 66.6415 66.7246C68.4259 67.14 69.8893 65.7728 69.3051 64.0023C67.7949 63.9194 66.5377 63.3049 65.3326 62.4553C62.2337 60.2705 59.2913 57.1854 56.1802 55.1062C53.9702 53.6294 53.1065 55.207 51.1026 55.8181C48.8762 56.4973 43.9474 56.2291 43.8851 53.1083C43.854 51.5462 45.6018 50.4303 46.6013 49.4574C46.7156 49.3461 46.8199 49.3059 46.7778 49.1109ZM73.1572 62.1253L67.057 47.2547C65.877 48.0582 64.9111 48.505 63.4491 48.4181C60.2283 48.2271 56.5064 47.0138 53.3408 46.9032C50.8237 46.8153 49.1648 49.144 47.5361 50.741C46.4189 51.8364 43.891 53.3596 46.8688 54.3075C51.4231 55.7575 53.1114 51.0386 57.2244 53.9458C60.3162 56.131 63.2103 59.1185 66.3111 61.2444C68.6274 62.8322 70.5021 62.5663 73.1572 62.1253ZM74.1096 42.4134L67.8529 44.9524L75.0513 62.6904L81.308 60.1513L74.1096 42.4134ZM35.9141 42.2885L25.4217 56.5329L30.383 60.1875L40.8755 45.943L35.9141 42.2885ZM66.5092 45.8341C66.4956 44.9358 66.7051 44.1287 67.4986 43.6269C68.2316 43.1632 72.6134 41.1876 73.382 41.0279C74.2978 40.8378 74.9137 41.155 75.4806 41.8486L82.4591 58.9254C82.7462 60.0428 82.5888 60.8017 81.605 61.4518C80.9106 61.9109 76.4731 63.8985 75.721 64.0505C74.6499 64.267 74.4586 63.65 73.916 63.5754C73.7315 63.5499 71.0584 63.8841 70.9618 63.9979C71.3282 66.5223 69.4138 68.5796 66.8819 68.4028C67.4371 70.7473 65.3539 73.1494 62.9302 72.9331C63.2445 75.3764 61.4332 77.3002 58.9791 77.1167C59.2629 80.2995 55.7507 82.2967 53.1253 80.4955C51.2672 83.3918 47.0021 82.6865 46.3118 79.3254C44.0932 80.4561 41.3547 79.0091 41.0823 76.5363C38.5352 77.729 35.6272 75.6993 35.7374 72.9341C32.5913 73.714 29.8606 70.6865 30.9516 67.6243C31.3041 66.6351 32.9536 65.0791 33.0596 64.503C33.1372 64.0805 33.1229 62.5221 33.0678 62.0655C32.9913 61.4305 32.5393 60.9579 31.9593 60.7305C31.1515 61.4256 30.4508 61.801 29.3829 61.3346C28.8821 61.116 25.2693 58.2547 24.8101 57.7728C23.9252 56.8439 24.0972 55.8749 24.7197 54.8848C27.5064 50.4543 31.455 46.2689 34.3471 41.8514C35.0053 40.9678 36.0607 40.6996 37.0556 41.2276C37.7074 41.5734 40.9588 44.137 41.4893 44.6961C41.7458 44.9666 42.0408 45.4599 42.1012 45.8268C42.1683 46.2343 41.9798 46.8217 42.0663 47.015C42.1398 47.1796 42.696 47.5589 42.8903 47.5948C44.4584 47.8838 46.8928 47.4104 48.5552 47.5764C49.4447 46.6888 50.2347 45.9799 51.4807 45.6213C54.581 44.7291 60.4923 46.8708 63.9185 46.9124C64.8681 46.924 65.6948 46.2172 66.5092 45.8341Z" fill="white"/>
<path d="M49.5815 32.6765H58.6604C58.8823 32.6765 59.0893 32.7877 59.2118 32.9725C59.3345 33.1574 59.3563 33.3914 59.27 33.5958L57.4923 37.8072L63.6083 30.5221H55.0289C54.798 30.5221 54.5838 30.4018 54.4636 30.2047C54.3436 30.0076 54.3348 29.7621 54.4407 29.557L56.9722 24.647L49.5815 32.6765ZM55.1734 42.2605C55.0549 42.2605 54.9357 42.2287 54.8283 42.1632C54.549 41.9923 54.4365 41.6428 54.5641 41.341L57.6626 34.0001H48.0729C47.8101 34.0001 47.5723 33.8448 47.4667 33.6042C47.3612 33.3637 47.408 33.0835 47.5859 32.8902L59.324 20.1375C59.5482 19.8937 59.9184 19.8533 60.1901 20.0433C60.4619 20.233 60.551 20.5944 60.3991 20.889L56.1148 29.1984H65.028C65.2854 29.1984 65.5192 29.3475 65.6279 29.5808C65.7365 29.8139 65.7004 30.0887 65.5351 30.2858L55.6806 42.0241C55.5508 42.1785 55.3635 42.2605 55.1734 42.2605Z" fill="white"/>
<path d="M76.7828 57.0921C76.2906 57.0921 75.8899 57.4928 75.8899 57.985C75.8899 58.4774 76.2906 58.878 76.7828 58.878C77.275 58.878 77.6757 58.4774 77.6757 57.985C77.6757 57.4928 77.275 57.0921 76.7828 57.0921ZM76.7828 59.8094C75.7769 59.8094 74.9586 58.9909 74.9586 57.985C74.9586 56.9792 75.7769 56.1608 76.7828 56.1608C77.7888 56.1608 78.607 56.9792 78.607 57.985C78.607 58.9909 77.7888 59.8094 76.7828 59.8094Z" fill="white"/>
<path d="M29.4889 54.9799C28.9965 54.9799 28.5961 55.3806 28.5961 55.8728C28.5961 56.3652 28.9965 56.7659 29.4889 56.7659C29.9813 56.7659 30.3818 56.3652 30.3818 55.8728C30.3818 55.3806 29.9813 54.9799 29.4889 54.9799ZM29.4889 57.6972C28.483 57.6972 27.6645 56.8788 27.6645 55.8728C27.6645 54.8671 28.483 54.0486 29.4889 54.0486C30.4949 54.0486 31.3133 54.8671 31.3133 55.8728C31.3133 56.8788 30.4949 57.6972 29.4889 57.6972Z" fill="white"/>
</g>
</svg>
