<svg width="107" height="107" viewBox="0 0 107 107" fill="none" xmlns="http://www.w3.org/2000/svg">
<circle cx="53.4036" cy="53.929" r="49.388" fill="#FF7242"/>
<circle cx="53.4036" cy="53.929" r="51.2004" stroke="#FFB39A" stroke-opacity="0.51" stroke-width="3.6248"/>
<mask id="mask0_122_7757" style="mask-type:alpha" maskUnits="userSpaceOnUse" x="21" y="20" width="64" height="64">
<rect x="21.9141" y="20.6289" width="62.3854" height="62.3854" fill="#D9D9D9"/>
</mask>
<g mask="url(#mask0_122_7757)">
<mask id="path-4-outside-1_122_7757" maskUnits="userSpaceOnUse" x="20.9453" y="23.6191" width="64" height="57" fill="black">
<rect fill="white" x="20.9453" y="23.6191" width="64" height="57"/>
<path d="M37.6024 30.0635C35.234 30.0635 33.3072 31.9904 33.3072 34.3587C33.3072 36.7269 35.234 38.6538 37.6024 38.6538H43.1238C45.4921 38.6538 47.4189 36.7269 47.4189 34.3587C47.4189 31.9904 45.4921 30.0635 43.1238 30.0635H37.6024ZM43.1238 39.4878H37.6024C34.7741 39.4878 32.4732 37.1868 32.4732 34.3587C32.4732 31.5305 34.7741 29.2295 37.6024 29.2295H43.1238C45.9519 29.2295 48.2529 31.5305 48.2529 34.3587C48.2529 37.1868 45.9519 39.4878 43.1238 39.4878Z"/>
<path d="M24.8756 50.7901C24.6452 50.7901 24.4585 50.6035 24.4585 50.3731L24.4592 37.8568C24.4674 37.7195 24.7092 34.4774 29.292 32.7823L29.3619 32.7564H33.0406C33.271 32.7564 33.4576 32.9431 33.4576 33.1735C33.4576 33.4036 33.271 33.5905 33.0406 33.5905H29.5119C25.6187 35.0599 25.3114 37.6782 25.2926 37.897V50.3731C25.2926 50.6035 25.1059 50.7901 24.8756 50.7901Z"/>
<path d="M74.5634 63.3319C74.336 63.3319 74.15 63.1494 74.1465 62.9212L74.0599 57.2458L74.2064 57.1185C74.2379 57.0913 77.3578 54.379 78.0129 53.5603C78.422 53.0487 78.1343 52.6261 78.0419 52.514L73.9437 48.9355L73.9073 48.8652C73.8444 48.7441 67.6116 36.7354 66.6022 35.1092C65.7915 33.8031 65.1324 33.6117 65.0378 33.5904H47.8358C47.6057 33.5904 47.4188 33.4037 47.4188 33.1734C47.4188 32.943 47.6057 32.7563 47.8358 32.7563L65.0969 32.7572C65.2067 32.7645 66.2005 32.8803 67.3108 34.6693C68.3075 36.2749 74.0458 47.3217 74.6113 48.411L78.6449 51.9365C78.9665 52.2847 79.384 53.1813 78.6641 54.0812C78.0404 54.8607 75.5416 57.0596 74.9 57.6206L74.9806 62.9085C74.9839 63.1389 74.8003 63.3284 74.5699 63.3319H74.5634Z"/>
<path d="M63.2087 73.2607H40.4701C40.2398 73.2607 40.0531 73.074 40.0531 72.8436C40.0531 72.6133 40.2398 72.4266 40.4701 72.4266H63.104C63.3058 72.3534 64.5759 71.8006 66.289 68.9812L66.3077 68.9528C66.411 68.8105 66.5207 68.6517 66.6399 68.4797C67.9485 66.5891 70.3844 63.0696 77.0373 62.0398C77.1517 62.0245 78.1066 61.9091 78.6757 62.3966C78.9329 62.617 79.0721 62.9254 79.0782 63.2882C79.0919 64.1049 78.784 64.7565 78.2112 65.1223L78.1723 65.1468L78.0343 65.1971C76.707 65.6793 75.4533 66.1347 72.6984 68.0739C72.5099 68.2066 72.2497 68.1614 72.1172 67.9731C71.9846 67.7846 72.0298 67.5244 72.2182 67.3919C75.0639 65.3889 76.3686 64.915 77.7494 64.4132L77.7971 64.3959C78.1024 64.182 78.2529 63.8144 78.2442 63.3023C78.2415 63.1436 78.1836 63.0737 78.1338 63.0307C77.9179 62.8447 77.4205 62.8305 77.1569 62.8654C70.8662 63.8391 68.5632 67.1668 67.3258 68.9545C67.2067 69.1264 67.0966 69.2854 66.9932 69.4285C64.94 72.8018 63.4192 73.2153 63.2523 73.2512L63.2087 73.2607Z"/>
<path d="M27.468 73.2607H24.9865C23.3095 73.2607 21.9454 71.8963 21.9454 70.2196V53.3667C21.9454 51.6899 23.3095 50.3256 24.9865 50.3256H48.3438C50.0207 50.3256 51.3849 51.6899 51.3849 53.3667V55.3994C51.3849 55.6298 51.1982 55.8165 50.9679 55.8165C50.7377 55.8165 50.5508 55.6298 50.5508 55.3994V53.3667C50.5508 52.1496 49.5608 51.1596 48.3438 51.1596H24.9865C23.7694 51.1596 22.7794 52.1496 22.7794 53.3667V70.2196C22.7794 71.4364 23.7694 72.4266 24.9865 72.4266H27.468C27.6983 72.4266 27.885 72.6133 27.885 72.8436C27.885 73.074 27.6983 73.2607 27.468 73.2607Z"/>
<path d="M57.6204 59.0688H51.0502C50.8199 59.0688 50.6332 58.8821 50.6332 58.6517C50.6332 58.4214 50.8199 58.2347 51.0502 58.2347H57.6204C58.2871 58.2347 58.8294 57.6922 58.8294 57.0255C58.8294 56.3588 58.2871 55.8165 57.6204 55.8165H51.0502C50.8199 55.8165 50.6332 55.6298 50.6332 55.3994C50.6332 55.1691 50.8199 54.9824 51.0502 54.9824H57.6204C58.747 54.9824 59.6635 55.8989 59.6635 57.0255C59.6635 58.1521 58.747 59.0688 57.6204 59.0688Z"/>
<path d="M57.6204 69.2834C57.39 69.2834 57.2034 69.0968 57.2034 68.8664V58.6518C57.2034 58.4214 57.39 58.2347 57.6204 58.2347C57.8508 58.2347 58.0374 58.4214 58.0374 58.6518V68.8664C58.0374 69.0968 57.8508 69.2834 57.6204 69.2834Z"/>
<path d="M25.1141 63.3118C24.5156 63.3118 24.0287 62.8249 24.0287 62.2262V55.6494C24.0287 55.051 24.5156 54.5641 25.1141 54.5641H46.9951C47.2255 54.5641 47.4122 54.7508 47.4122 54.9811C47.4122 55.2113 47.2255 55.3982 46.9951 55.3982H25.1141C24.9755 55.3982 24.8627 55.5108 24.8627 55.6494V62.2262C24.8627 62.3648 24.9755 62.4778 25.1141 62.4778C25.2527 62.4778 25.3655 62.3648 25.3655 62.2262V61.7932C25.3655 61.5628 25.5521 61.3762 25.7825 61.3762C26.0129 61.3762 26.1995 61.5628 26.1995 61.7932V62.2262C26.1995 62.8249 25.7126 63.3118 25.1141 63.3118Z"/>
<path d="M61.2765 69.2834H50.4712C49.3321 69.2834 48.4053 68.3566 48.4053 67.2175V54.6058C48.4053 53.9265 47.8526 53.3739 47.1736 53.3739H22.3623C22.132 53.3739 21.9453 53.1872 21.9453 52.9569C21.9453 52.7265 22.132 52.5398 22.3623 52.5398H47.1736C48.3127 52.5398 49.2393 53.4666 49.2393 54.6058V67.2175C49.2393 67.8967 49.792 68.4494 50.4712 68.4494H60.7891C61.7208 66.7928 67.7902 55.974 68.6906 53.6962C69.5687 51.4754 68.7848 50.4142 68.7511 50.3701L68.7049 50.2974L60.2959 33.3588C60.1934 33.1525 60.2777 32.9023 60.484 32.7998C60.69 32.6974 60.9406 32.7818 61.043 32.988L69.4362 49.8947C69.6217 50.1585 70.4436 51.5313 69.4664 54.0028C68.4744 56.5116 61.6847 68.5597 61.3963 69.0714L61.2765 69.2834Z"/>
<path d="M62.1824 71.1019H41.7563L41.6808 70.7801C40.8302 67.1545 37.6311 64.6223 33.9012 64.6223C30.2794 64.6223 27.1029 67.0643 26.1766 70.5606C26.1175 70.7833 25.8893 70.9157 25.6666 70.8569C25.4439 70.798 25.3113 70.5696 25.3704 70.3469C26.3934 66.4853 29.9015 63.7883 33.9012 63.7883C37.9092 63.7883 41.3622 66.4359 42.4111 70.2679H62.1824C62.6302 70.2679 63.0342 70.02 63.2372 69.6208L70.0719 56.1765C70.5028 55.329 70.7305 54.3785 70.7305 53.4278V50.2196C70.7305 49.9894 70.9171 49.8025 71.1475 49.8025C71.3779 49.8025 71.5645 49.9894 71.5645 50.2196V53.4278C71.5645 54.5091 71.3055 55.5904 70.8154 56.5545L63.9807 69.999C63.6347 70.6794 62.9456 71.1019 62.1824 71.1019Z"/>
<path d="M33.9382 67.1009C30.6005 67.1009 27.885 69.8162 27.885 73.1541C27.885 76.492 30.6005 79.2075 33.9382 79.2075C37.2761 79.2075 39.9916 76.492 39.9916 73.1541C39.9916 69.8162 37.2761 67.1009 33.9382 67.1009ZM33.9382 80.0416C30.1406 80.0416 27.0509 76.9519 27.0509 73.1541C27.0509 69.3563 30.1406 66.2669 33.9382 66.2669C37.736 66.2669 40.8256 69.3563 40.8256 73.1541C40.8256 76.9519 37.736 80.0416 33.9382 80.0416Z"/>
<path d="M33.9382 69.2834C31.8039 69.2834 30.0674 71.0198 30.0674 73.1541C30.0674 75.2885 31.8039 77.0249 33.9382 77.0249C36.0726 77.0249 37.809 75.2885 37.809 73.1541C37.809 71.0198 36.0726 69.2834 33.9382 69.2834ZM33.9382 77.859C31.344 77.859 29.2333 75.7485 29.2333 73.1541C29.2333 70.5599 31.344 68.4494 33.9382 68.4494C36.5324 68.4494 38.6431 70.5599 38.6431 73.1541C38.6431 75.7485 36.5324 77.859 33.9382 77.859Z"/>
<path d="M33.9382 71.2726C32.9007 71.2726 32.0566 72.1167 32.0566 73.1541C32.0566 74.1917 32.9007 75.0359 33.9382 75.0359C34.9758 75.0359 35.8198 74.1917 35.8198 73.1541C35.8198 72.1167 34.9758 71.2726 33.9382 71.2726ZM33.9382 75.8699C32.4408 75.8699 31.2225 74.6515 31.2225 73.1541C31.2225 71.6568 32.4408 70.4386 33.9382 70.4386C35.4357 70.4386 36.6539 71.6568 36.6539 73.1541C36.6539 74.6515 35.4357 75.8699 33.9382 75.8699Z"/>
<path d="M75.9902 67.1011C72.6524 67.1011 69.937 69.8164 69.937 73.1543C69.937 76.4922 72.6524 79.2075 75.9902 79.2075C79.3281 79.2075 82.0434 76.4922 82.0434 73.1543C82.0434 69.8164 79.3281 67.1011 75.9902 67.1011ZM75.9902 80.0415C72.1925 80.0415 69.103 76.952 69.103 73.1543C69.103 69.3565 72.1925 66.267 75.9902 66.267C79.788 66.267 82.8775 69.3565 82.8775 73.1543C82.8775 76.952 79.788 80.0415 75.9902 80.0415Z"/>
<path d="M75.9902 69.2834C73.8559 69.2834 72.1194 71.0199 72.1194 73.1543C72.1194 75.2886 73.8559 77.0251 75.9902 77.0251C78.1246 77.0251 79.8609 75.2886 79.8609 73.1543C79.8609 71.0199 78.1246 69.2834 75.9902 69.2834ZM75.9902 77.8592C73.3958 77.8592 71.2853 75.7487 71.2853 73.1543C71.2853 70.5599 73.3958 68.4494 75.9902 68.4494C78.5845 68.4494 80.695 70.5599 80.695 73.1543C80.695 75.7487 78.5845 77.8592 75.9902 77.8592Z"/>
<path d="M75.9902 71.2728C74.9527 71.2728 74.1086 72.1168 74.1086 73.1542C74.1086 74.1918 74.9527 75.036 75.9902 75.036C77.0278 75.036 77.8717 74.1918 77.8717 73.1542C77.8717 72.1168 77.0278 71.2728 75.9902 71.2728ZM75.9902 75.8701C74.4928 75.8701 73.2746 74.6517 73.2746 73.1542C73.2746 71.6569 74.4928 70.4387 75.9902 70.4387C77.4877 70.4387 78.7057 71.6569 78.7057 73.1542C78.7057 74.6517 77.4877 75.8701 75.9902 75.8701Z"/>
<path d="M74.4799 58.0778C74.2496 58.0778 74.0629 57.8911 74.0629 57.6607V49.267H72.684C71.829 49.267 71.0418 48.8014 70.6299 48.0521L63.6733 35.3917C63.5625 35.1899 63.6361 34.9363 63.8379 34.8254C64.0398 34.7145 64.2935 34.7882 64.4044 34.99L71.3611 47.6504C71.6263 48.1332 72.1332 48.433 72.684 48.433H74.225C74.5957 48.433 74.897 48.7344 74.897 49.1049V57.6607C74.897 57.8911 74.7103 58.0778 74.4799 58.0778Z"/>
<path d="M74.8711 31.9623L76.5771 32.0732C76.8235 32.0891 77.0485 32.224 77.1786 32.434C77.3089 32.6441 77.3297 32.9056 77.2345 33.1335L75.5904 37.0697L82.5674 31.39L80.5837 31.2263C80.3081 31.2037 80.0653 31.0333 79.9498 30.7821C79.8347 30.5307 79.8639 30.2358 80.0264 30.0121L83.1808 25.667L78.8757 25.4549L74.8711 31.9623ZM75.4248 38.0612C75.2646 38.0612 75.1043 38.0095 74.9655 37.9059C74.6791 37.6919 74.5792 37.3264 74.717 36.9965L76.4285 32.8993L74.7051 32.7874C74.4346 32.7698 74.1987 32.6155 74.0741 32.3745C73.9495 32.1336 73.9598 31.8517 74.1021 31.6208L78.1863 24.9838C78.3333 24.7454 78.5962 24.6083 78.8769 24.6198L83.3467 24.8402C83.628 24.854 83.8784 25.0205 84.0003 25.2745C84.1219 25.5288 84.0947 25.8282 83.9291 26.0562L80.7719 30.405L82.8031 30.5724C83.1166 30.5983 83.3791 30.809 83.4724 31.1094C83.5653 31.4098 83.468 31.7323 83.2241 31.9309L75.9082 37.8864C75.7652 38.0027 75.5952 38.0612 75.4248 38.0612Z"/>
<path d="M42.0128 51.1597C41.7824 51.1597 41.5958 50.973 41.5958 50.7426V39.0707C41.5958 38.8404 41.7824 38.6537 42.0128 38.6537C42.2431 38.6537 42.4298 38.8404 42.4298 39.0707V50.7426C42.4298 50.973 42.2431 51.1597 42.0128 51.1597Z"/>
<path d="M39.199 33.4698H36.1651C35.9347 33.4698 35.748 33.2831 35.748 33.0528C35.748 32.8224 35.9347 32.6357 36.1651 32.6357H39.199C39.4294 32.6357 39.616 32.8224 39.616 33.0528C39.616 33.2831 39.4294 33.4698 39.199 33.4698Z"/>
<path d="M44.3373 33.4698H41.3034C41.073 33.4698 40.8863 33.2831 40.8863 33.0528C40.8863 32.8224 41.073 32.6357 41.3034 32.6357H44.3373C44.5677 32.6357 44.7543 32.8224 44.7543 33.0528C44.7543 33.2831 44.5677 33.4698 44.3373 33.4698Z"/>
<path d="M40.987 36.6506H36.2891C36.0589 36.6506 35.8721 36.4639 35.8721 36.2336C35.8721 36.0032 36.0589 35.8165 36.2891 35.8165H40.987C41.2174 35.8165 41.404 36.0032 41.404 36.2336C41.404 36.4639 41.2174 36.6506 40.987 36.6506Z"/>
<path d="M44.4614 36.6506H42.7731C42.5428 36.6506 42.3561 36.4639 42.3561 36.2336C42.3561 36.0032 42.5428 35.8165 42.7731 35.8165H44.4614C44.6918 35.8165 44.8785 36.0032 44.8785 36.2336C44.8785 36.4639 44.6918 36.6506 44.4614 36.6506Z"/>
<path d="M76.6382 52.9857C76.6382 53.2229 76.4459 53.4152 76.2087 53.4152C75.9715 53.4152 75.7792 53.2229 75.7792 52.9857C75.7792 52.7485 75.9715 52.5561 76.2087 52.5561C76.4459 52.5561 76.6382 52.7485 76.6382 52.9857Z"/>
</mask>
<path d="M37.6024 30.0635C35.234 30.0635 33.3072 31.9904 33.3072 34.3587C33.3072 36.7269 35.234 38.6538 37.6024 38.6538H43.1238C45.4921 38.6538 47.4189 36.7269 47.4189 34.3587C47.4189 31.9904 45.4921 30.0635 43.1238 30.0635H37.6024ZM43.1238 39.4878H37.6024C34.7741 39.4878 32.4732 37.1868 32.4732 34.3587C32.4732 31.5305 34.7741 29.2295 37.6024 29.2295H43.1238C45.9519 29.2295 48.2529 31.5305 48.2529 34.3587C48.2529 37.1868 45.9519 39.4878 43.1238 39.4878Z" fill="white"/>
<path d="M24.8756 50.7901C24.6452 50.7901 24.4585 50.6035 24.4585 50.3731L24.4592 37.8568C24.4674 37.7195 24.7092 34.4774 29.292 32.7823L29.3619 32.7564H33.0406C33.271 32.7564 33.4576 32.9431 33.4576 33.1735C33.4576 33.4036 33.271 33.5905 33.0406 33.5905H29.5119C25.6187 35.0599 25.3114 37.6782 25.2926 37.897V50.3731C25.2926 50.6035 25.1059 50.7901 24.8756 50.7901Z" fill="white"/>
<path d="M74.5634 63.3319C74.336 63.3319 74.15 63.1494 74.1465 62.9212L74.0599 57.2458L74.2064 57.1185C74.2379 57.0913 77.3578 54.379 78.0129 53.5603C78.422 53.0487 78.1343 52.6261 78.0419 52.514L73.9437 48.9355L73.9073 48.8652C73.8444 48.7441 67.6116 36.7354 66.6022 35.1092C65.7915 33.8031 65.1324 33.6117 65.0378 33.5904H47.8358C47.6057 33.5904 47.4188 33.4037 47.4188 33.1734C47.4188 32.943 47.6057 32.7563 47.8358 32.7563L65.0969 32.7572C65.2067 32.7645 66.2005 32.8803 67.3108 34.6693C68.3075 36.2749 74.0458 47.3217 74.6113 48.411L78.6449 51.9365C78.9665 52.2847 79.384 53.1813 78.6641 54.0812C78.0404 54.8607 75.5416 57.0596 74.9 57.6206L74.9806 62.9085C74.9839 63.1389 74.8003 63.3284 74.5699 63.3319H74.5634Z" fill="white"/>
<path d="M63.2087 73.2607H40.4701C40.2398 73.2607 40.0531 73.074 40.0531 72.8436C40.0531 72.6133 40.2398 72.4266 40.4701 72.4266H63.104C63.3058 72.3534 64.5759 71.8006 66.289 68.9812L66.3077 68.9528C66.411 68.8105 66.5207 68.6517 66.6399 68.4797C67.9485 66.5891 70.3844 63.0696 77.0373 62.0398C77.1517 62.0245 78.1066 61.9091 78.6757 62.3966C78.9329 62.617 79.0721 62.9254 79.0782 63.2882C79.0919 64.1049 78.784 64.7565 78.2112 65.1223L78.1723 65.1468L78.0343 65.1971C76.707 65.6793 75.4533 66.1347 72.6984 68.0739C72.5099 68.2066 72.2497 68.1614 72.1172 67.9731C71.9846 67.7846 72.0298 67.5244 72.2182 67.3919C75.0639 65.3889 76.3686 64.915 77.7494 64.4132L77.7971 64.3959C78.1024 64.182 78.2529 63.8144 78.2442 63.3023C78.2415 63.1436 78.1836 63.0737 78.1338 63.0307C77.9179 62.8447 77.4205 62.8305 77.1569 62.8654C70.8662 63.8391 68.5632 67.1668 67.3258 68.9545C67.2067 69.1264 67.0966 69.2854 66.9932 69.4285C64.94 72.8018 63.4192 73.2153 63.2523 73.2512L63.2087 73.2607Z" fill="white"/>
<path d="M27.468 73.2607H24.9865C23.3095 73.2607 21.9454 71.8963 21.9454 70.2196V53.3667C21.9454 51.6899 23.3095 50.3256 24.9865 50.3256H48.3438C50.0207 50.3256 51.3849 51.6899 51.3849 53.3667V55.3994C51.3849 55.6298 51.1982 55.8165 50.9679 55.8165C50.7377 55.8165 50.5508 55.6298 50.5508 55.3994V53.3667C50.5508 52.1496 49.5608 51.1596 48.3438 51.1596H24.9865C23.7694 51.1596 22.7794 52.1496 22.7794 53.3667V70.2196C22.7794 71.4364 23.7694 72.4266 24.9865 72.4266H27.468C27.6983 72.4266 27.885 72.6133 27.885 72.8436C27.885 73.074 27.6983 73.2607 27.468 73.2607Z" fill="white"/>
<path d="M57.6204 59.0688H51.0502C50.8199 59.0688 50.6332 58.8821 50.6332 58.6517C50.6332 58.4214 50.8199 58.2347 51.0502 58.2347H57.6204C58.2871 58.2347 58.8294 57.6922 58.8294 57.0255C58.8294 56.3588 58.2871 55.8165 57.6204 55.8165H51.0502C50.8199 55.8165 50.6332 55.6298 50.6332 55.3994C50.6332 55.1691 50.8199 54.9824 51.0502 54.9824H57.6204C58.747 54.9824 59.6635 55.8989 59.6635 57.0255C59.6635 58.1521 58.747 59.0688 57.6204 59.0688Z" fill="white"/>
<path d="M57.6204 69.2834C57.39 69.2834 57.2034 69.0968 57.2034 68.8664V58.6518C57.2034 58.4214 57.39 58.2347 57.6204 58.2347C57.8508 58.2347 58.0374 58.4214 58.0374 58.6518V68.8664C58.0374 69.0968 57.8508 69.2834 57.6204 69.2834Z" fill="white"/>
<path d="M25.1141 63.3118C24.5156 63.3118 24.0287 62.8249 24.0287 62.2262V55.6494C24.0287 55.051 24.5156 54.5641 25.1141 54.5641H46.9951C47.2255 54.5641 47.4122 54.7508 47.4122 54.9811C47.4122 55.2113 47.2255 55.3982 46.9951 55.3982H25.1141C24.9755 55.3982 24.8627 55.5108 24.8627 55.6494V62.2262C24.8627 62.3648 24.9755 62.4778 25.1141 62.4778C25.2527 62.4778 25.3655 62.3648 25.3655 62.2262V61.7932C25.3655 61.5628 25.5521 61.3762 25.7825 61.3762C26.0129 61.3762 26.1995 61.5628 26.1995 61.7932V62.2262C26.1995 62.8249 25.7126 63.3118 25.1141 63.3118Z" fill="white"/>
<path d="M61.2765 69.2834H50.4712C49.3321 69.2834 48.4053 68.3566 48.4053 67.2175V54.6058C48.4053 53.9265 47.8526 53.3739 47.1736 53.3739H22.3623C22.132 53.3739 21.9453 53.1872 21.9453 52.9569C21.9453 52.7265 22.132 52.5398 22.3623 52.5398H47.1736C48.3127 52.5398 49.2393 53.4666 49.2393 54.6058V67.2175C49.2393 67.8967 49.792 68.4494 50.4712 68.4494H60.7891C61.7208 66.7928 67.7902 55.974 68.6906 53.6962C69.5687 51.4754 68.7848 50.4142 68.7511 50.3701L68.7049 50.2974L60.2959 33.3588C60.1934 33.1525 60.2777 32.9023 60.484 32.7998C60.69 32.6974 60.9406 32.7818 61.043 32.988L69.4362 49.8947C69.6217 50.1585 70.4436 51.5313 69.4664 54.0028C68.4744 56.5116 61.6847 68.5597 61.3963 69.0714L61.2765 69.2834Z" fill="white"/>
<path d="M62.1824 71.1019H41.7563L41.6808 70.7801C40.8302 67.1545 37.6311 64.6223 33.9012 64.6223C30.2794 64.6223 27.1029 67.0643 26.1766 70.5606C26.1175 70.7833 25.8893 70.9157 25.6666 70.8569C25.4439 70.798 25.3113 70.5696 25.3704 70.3469C26.3934 66.4853 29.9015 63.7883 33.9012 63.7883C37.9092 63.7883 41.3622 66.4359 42.4111 70.2679H62.1824C62.6302 70.2679 63.0342 70.02 63.2372 69.6208L70.0719 56.1765C70.5028 55.329 70.7305 54.3785 70.7305 53.4278V50.2196C70.7305 49.9894 70.9171 49.8025 71.1475 49.8025C71.3779 49.8025 71.5645 49.9894 71.5645 50.2196V53.4278C71.5645 54.5091 71.3055 55.5904 70.8154 56.5545L63.9807 69.999C63.6347 70.6794 62.9456 71.1019 62.1824 71.1019Z" fill="white"/>
<path d="M33.9382 67.1009C30.6005 67.1009 27.885 69.8162 27.885 73.1541C27.885 76.492 30.6005 79.2075 33.9382 79.2075C37.2761 79.2075 39.9916 76.492 39.9916 73.1541C39.9916 69.8162 37.2761 67.1009 33.9382 67.1009ZM33.9382 80.0416C30.1406 80.0416 27.0509 76.9519 27.0509 73.1541C27.0509 69.3563 30.1406 66.2669 33.9382 66.2669C37.736 66.2669 40.8256 69.3563 40.8256 73.1541C40.8256 76.9519 37.736 80.0416 33.9382 80.0416Z" fill="white"/>
<path d="M33.9382 69.2834C31.8039 69.2834 30.0674 71.0198 30.0674 73.1541C30.0674 75.2885 31.8039 77.0249 33.9382 77.0249C36.0726 77.0249 37.809 75.2885 37.809 73.1541C37.809 71.0198 36.0726 69.2834 33.9382 69.2834ZM33.9382 77.859C31.344 77.859 29.2333 75.7485 29.2333 73.1541C29.2333 70.5599 31.344 68.4494 33.9382 68.4494C36.5324 68.4494 38.6431 70.5599 38.6431 73.1541C38.6431 75.7485 36.5324 77.859 33.9382 77.859Z" fill="white"/>
<path d="M33.9382 71.2726C32.9007 71.2726 32.0566 72.1167 32.0566 73.1541C32.0566 74.1917 32.9007 75.0359 33.9382 75.0359C34.9758 75.0359 35.8198 74.1917 35.8198 73.1541C35.8198 72.1167 34.9758 71.2726 33.9382 71.2726ZM33.9382 75.8699C32.4408 75.8699 31.2225 74.6515 31.2225 73.1541C31.2225 71.6568 32.4408 70.4386 33.9382 70.4386C35.4357 70.4386 36.6539 71.6568 36.6539 73.1541C36.6539 74.6515 35.4357 75.8699 33.9382 75.8699Z" fill="white"/>
<path d="M75.9902 67.1011C72.6524 67.1011 69.937 69.8164 69.937 73.1543C69.937 76.4922 72.6524 79.2075 75.9902 79.2075C79.3281 79.2075 82.0434 76.4922 82.0434 73.1543C82.0434 69.8164 79.3281 67.1011 75.9902 67.1011ZM75.9902 80.0415C72.1925 80.0415 69.103 76.952 69.103 73.1543C69.103 69.3565 72.1925 66.267 75.9902 66.267C79.788 66.267 82.8775 69.3565 82.8775 73.1543C82.8775 76.952 79.788 80.0415 75.9902 80.0415Z" fill="white"/>
<path d="M75.9902 69.2834C73.8559 69.2834 72.1194 71.0199 72.1194 73.1543C72.1194 75.2886 73.8559 77.0251 75.9902 77.0251C78.1246 77.0251 79.8609 75.2886 79.8609 73.1543C79.8609 71.0199 78.1246 69.2834 75.9902 69.2834ZM75.9902 77.8592C73.3958 77.8592 71.2853 75.7487 71.2853 73.1543C71.2853 70.5599 73.3958 68.4494 75.9902 68.4494C78.5845 68.4494 80.695 70.5599 80.695 73.1543C80.695 75.7487 78.5845 77.8592 75.9902 77.8592Z" fill="white"/>
<path d="M75.9902 71.2728C74.9527 71.2728 74.1086 72.1168 74.1086 73.1542C74.1086 74.1918 74.9527 75.036 75.9902 75.036C77.0278 75.036 77.8717 74.1918 77.8717 73.1542C77.8717 72.1168 77.0278 71.2728 75.9902 71.2728ZM75.9902 75.8701C74.4928 75.8701 73.2746 74.6517 73.2746 73.1542C73.2746 71.6569 74.4928 70.4387 75.9902 70.4387C77.4877 70.4387 78.7057 71.6569 78.7057 73.1542C78.7057 74.6517 77.4877 75.8701 75.9902 75.8701Z" fill="white"/>
<path d="M74.4799 58.0778C74.2496 58.0778 74.0629 57.8911 74.0629 57.6607V49.267H72.684C71.829 49.267 71.0418 48.8014 70.6299 48.0521L63.6733 35.3917C63.5625 35.1899 63.6361 34.9363 63.8379 34.8254C64.0398 34.7145 64.2935 34.7882 64.4044 34.99L71.3611 47.6504C71.6263 48.1332 72.1332 48.433 72.684 48.433H74.225C74.5957 48.433 74.897 48.7344 74.897 49.1049V57.6607C74.897 57.8911 74.7103 58.0778 74.4799 58.0778Z" fill="white"/>
<path d="M74.8711 31.9623L76.5771 32.0732C76.8235 32.0891 77.0485 32.224 77.1786 32.434C77.3089 32.6441 77.3297 32.9056 77.2345 33.1335L75.5904 37.0697L82.5674 31.39L80.5837 31.2263C80.3081 31.2037 80.0653 31.0333 79.9498 30.7821C79.8347 30.5307 79.8639 30.2358 80.0264 30.0121L83.1808 25.667L78.8757 25.4549L74.8711 31.9623ZM75.4248 38.0612C75.2646 38.0612 75.1043 38.0095 74.9655 37.9059C74.6791 37.6919 74.5792 37.3264 74.717 36.9965L76.4285 32.8993L74.7051 32.7874C74.4346 32.7698 74.1987 32.6155 74.0741 32.3745C73.9495 32.1336 73.9598 31.8517 74.1021 31.6208L78.1863 24.9838C78.3333 24.7454 78.5962 24.6083 78.8769 24.6198L83.3467 24.8402C83.628 24.854 83.8784 25.0205 84.0003 25.2745C84.1219 25.5288 84.0947 25.8282 83.9291 26.0562L80.7719 30.405L82.8031 30.5724C83.1166 30.5983 83.3791 30.809 83.4724 31.1094C83.5653 31.4098 83.468 31.7323 83.2241 31.9309L75.9082 37.8864C75.7652 38.0027 75.5952 38.0612 75.4248 38.0612Z" fill="white"/>
<path d="M42.0128 51.1597C41.7824 51.1597 41.5958 50.973 41.5958 50.7426V39.0707C41.5958 38.8404 41.7824 38.6537 42.0128 38.6537C42.2431 38.6537 42.4298 38.8404 42.4298 39.0707V50.7426C42.4298 50.973 42.2431 51.1597 42.0128 51.1597Z" fill="white"/>
<path d="M39.199 33.4698H36.1651C35.9347 33.4698 35.748 33.2831 35.748 33.0528C35.748 32.8224 35.9347 32.6357 36.1651 32.6357H39.199C39.4294 32.6357 39.616 32.8224 39.616 33.0528C39.616 33.2831 39.4294 33.4698 39.199 33.4698Z" fill="white"/>
<path d="M44.3373 33.4698H41.3034C41.073 33.4698 40.8863 33.2831 40.8863 33.0528C40.8863 32.8224 41.073 32.6357 41.3034 32.6357H44.3373C44.5677 32.6357 44.7543 32.8224 44.7543 33.0528C44.7543 33.2831 44.5677 33.4698 44.3373 33.4698Z" fill="white"/>
<path d="M40.987 36.6506H36.2891C36.0589 36.6506 35.8721 36.4639 35.8721 36.2336C35.8721 36.0032 36.0589 35.8165 36.2891 35.8165H40.987C41.2174 35.8165 41.404 36.0032 41.404 36.2336C41.404 36.4639 41.2174 36.6506 40.987 36.6506Z" fill="white"/>
<path d="M44.4614 36.6506H42.7731C42.5428 36.6506 42.3561 36.4639 42.3561 36.2336C42.3561 36.0032 42.5428 35.8165 42.7731 35.8165H44.4614C44.6918 35.8165 44.8785 36.0032 44.8785 36.2336C44.8785 36.4639 44.6918 36.6506 44.4614 36.6506Z" fill="white"/>
<path d="M76.6382 52.9857C76.6382 53.2229 76.4459 53.4152 76.2087 53.4152C75.9715 53.4152 75.7792 53.2229 75.7792 52.9857C75.7792 52.7485 75.9715 52.5561 76.2087 52.5561C76.4459 52.5561 76.6382 52.7485 76.6382 52.9857Z" fill="white"/>
<path d="M74.225 49.4046H74.2267V49.1294H74.225V49.4046ZM75.2849 37.1418L75.2847 37.1419L75.4788 37.3371L75.4789 37.3369L75.2849 37.1418ZM24.4585 50.3731L24.1833 50.3731V50.3731H24.4585ZM24.4592 37.8568L24.1844 37.8405L24.184 37.8486L24.184 37.8568L24.4592 37.8568ZM29.292 32.7823L29.3875 33.0404L29.3875 33.0404L29.292 32.7823ZM29.3619 32.7564V32.4812H29.3126L29.2664 32.4983L29.3619 32.7564ZM29.5119 33.5905V33.3152H29.4617L29.4147 33.333L29.5119 33.5905ZM25.2926 37.897L25.0184 37.8734L25.0173 37.8852V37.897H25.2926ZM74.1465 62.9212L73.8713 62.9254L73.8713 62.9254L74.1465 62.9212ZM74.0599 57.2458L73.8794 57.038L73.7828 57.122L73.7847 57.25L74.0599 57.2458ZM74.2064 57.1185L74.0267 56.9101L74.0259 56.9108L74.2064 57.1185ZM78.0129 53.5603L78.2278 53.7322L78.2278 53.7322L78.0129 53.5603ZM78.0419 52.514L78.2543 52.339L78.2399 52.3216L78.2229 52.3067L78.0419 52.514ZM73.9437 48.9355L73.6993 49.062L73.7233 49.1084L73.7626 49.1428L73.9437 48.9355ZM73.9073 48.8652L74.1517 48.7387L74.1516 48.7384L73.9073 48.8652ZM66.6022 35.1092L66.836 34.9641L66.836 34.9641L66.6022 35.1092ZM65.0378 33.5904L65.0984 33.3219L65.0685 33.3152H65.0378V33.5904ZM47.8358 32.7563L47.8359 32.4811H47.8358V32.7563ZM65.0969 32.7572L65.1153 32.4826L65.1061 32.4819L65.0969 32.4819L65.0969 32.7572ZM67.3108 34.6693L67.0769 34.8145L67.077 34.8145L67.3108 34.6693ZM74.6113 48.411L74.367 48.5378L74.391 48.584L74.4301 48.6182L74.6113 48.411ZM78.6449 51.9365L78.8471 51.7498L78.8371 51.739L78.826 51.7293L78.6449 51.9365ZM78.6641 54.0812L78.879 54.2532L78.879 54.2532L78.6641 54.0812ZM74.9 57.6206L74.7188 57.4134L74.6229 57.4973L74.6248 57.6248L74.9 57.6206ZM74.9806 62.9085L75.2558 62.9045V62.9043L74.9806 62.9085ZM74.5699 63.3319V63.6071L74.5741 63.6071L74.5699 63.3319ZM63.2087 73.2607V73.5359H63.2384L63.2674 73.5296L63.2087 73.2607ZM63.104 72.4266V72.7019H63.1524L63.1978 72.6854L63.104 72.4266ZM66.289 68.9812L66.0591 68.8296L66.0538 68.8382L66.289 68.9812ZM66.3077 68.9528L66.0847 68.791L66.0779 68.8014L66.3077 68.9528ZM66.6399 68.4797L66.8661 68.6364L66.8662 68.6364L66.6399 68.4797ZM77.0373 62.0398L77.0007 61.767L76.9952 61.7678L77.0373 62.0398ZM78.6757 62.3966L78.4967 62.6057L78.6757 62.3966ZM79.0782 63.2882L79.3534 63.2836L79.3534 63.2836L79.0782 63.2882ZM78.2112 65.1223L78.358 65.3551L78.3593 65.3543L78.2112 65.1223ZM78.1723 65.1468L78.2664 65.4055L78.2942 65.3954L78.3191 65.3796L78.1723 65.1468ZM78.0343 65.1971L78.1283 65.4557L78.1285 65.4557L78.0343 65.1971ZM72.6984 68.0739L72.54 67.8488L72.5399 67.8489L72.6984 68.0739ZM72.1172 67.9731L72.3424 67.8148L72.3423 67.8147L72.1172 67.9731ZM72.2182 67.3919L72.3765 67.6171L72.3766 67.617L72.2182 67.3919ZM77.7494 64.4132L77.8434 64.6719L77.8435 64.6719L77.7494 64.4132ZM77.7971 64.3959L77.8912 64.6545L77.9253 64.6421L77.9551 64.6213L77.7971 64.3959ZM78.2442 63.3023L77.969 63.3069V63.3069L78.2442 63.3023ZM78.1338 63.0307L78.3136 62.8223L78.3134 62.8222L78.1338 63.0307ZM77.1569 62.8654L77.1208 62.5925L77.1148 62.5934L77.1569 62.8654ZM67.3258 68.9545L67.552 69.1112L67.5521 69.1111L67.3258 68.9545ZM66.9932 69.4285L66.7701 69.2673L66.7637 69.2761L66.758 69.2854L66.9932 69.4285ZM63.2523 73.2512L63.1945 72.9821L63.1936 72.9823L63.2523 73.2512ZM61.2765 69.2834V69.5587H61.4372L61.5162 69.4188L61.2765 69.2834ZM49.2393 67.2175H49.5146H49.2393ZM60.7891 68.4494V68.7246H60.9501L61.029 68.5843L60.7891 68.4494ZM68.6906 53.6962L68.4346 53.595L68.4346 53.595L68.6906 53.6962ZM68.7511 50.3701L68.5188 50.5177L68.5253 50.5279L68.5326 50.5374L68.7511 50.3701ZM68.7049 50.2974L68.4584 50.4198L68.4649 50.4328L68.4726 50.445L68.7049 50.2974ZM60.2959 33.3588L60.0493 33.4812L60.0493 33.4812L60.2959 33.3588ZM60.484 32.7998L60.6064 33.0464L60.6066 33.0463L60.484 32.7998ZM61.043 32.988L61.2895 32.8656L61.2895 32.8655L61.043 32.988ZM69.4362 49.8947L69.1897 50.0171L69.199 50.0359L69.2111 50.0531L69.4362 49.8947ZM69.4664 54.0028L69.7224 54.104L69.7224 54.104L69.4664 54.0028ZM61.3963 69.0714L61.636 69.2068L61.6361 69.2066L61.3963 69.0714ZM41.7563 71.1019L41.4884 71.1648L41.5382 71.3771H41.7563V71.1019ZM41.6808 70.7801L41.4128 70.843L41.4128 70.8431L41.6808 70.7801ZM26.1766 70.5606L26.4426 70.6312L26.4426 70.6311L26.1766 70.5606ZM25.3704 70.3469L25.6364 70.4175L25.6364 70.4174L25.3704 70.3469ZM42.4111 70.2679L42.1456 70.3405L42.201 70.5431H42.4111V70.2679ZM63.2372 69.6208L63.4825 69.7456L63.4825 69.7455L63.2372 69.6208ZM70.0719 56.1765L70.3173 56.3013V56.3013L70.0719 56.1765ZM70.8154 56.5545L71.0607 56.6793L71.0607 56.6793L70.8154 56.5545ZM63.9807 69.999L64.226 70.1237L64.226 70.1237L63.9807 69.999ZM74.0629 49.267H74.3381V48.9918H74.0629V49.267ZM70.6299 48.0521L70.3887 48.1847L70.3887 48.1847L70.6299 48.0521ZM63.6733 35.3917L63.432 35.5241L63.4321 35.5243L63.6733 35.3917ZM64.4044 34.99L64.6456 34.8575L64.6456 34.8575L64.4044 34.99ZM71.3611 47.6504L71.6023 47.5179L71.6023 47.5179L71.3611 47.6504ZM74.8711 31.9623L74.6367 31.8181L74.3972 32.2073L74.8533 32.237L74.8711 31.9623ZM76.5771 32.0732L76.5592 32.3479L76.5594 32.3479L76.5771 32.0732ZM77.1786 32.434L76.9446 32.579L76.9447 32.5791L77.1786 32.434ZM77.2345 33.1335L76.9805 33.0273L76.9805 33.0274L77.2345 33.1335ZM75.5904 37.0697L75.3364 36.9636L75.7642 37.2832L75.5904 37.0697ZM82.5674 31.39L82.7412 31.6034L83.2713 31.1719L82.59 31.1157L82.5674 31.39ZM80.5837 31.2263L80.6063 30.952L80.6063 30.952L80.5837 31.2263ZM79.9498 30.7821L79.6996 30.8967L79.6997 30.897L79.9498 30.7821ZM80.0264 30.0121L80.2491 30.1739L80.2491 30.1738L80.0264 30.0121ZM83.1808 25.667L83.4035 25.8287L83.7023 25.4172L83.1943 25.3921L83.1808 25.667ZM78.8757 25.4549L78.8893 25.18L78.7267 25.1719L78.6413 25.3106L78.8757 25.4549ZM74.9655 37.9059L74.8008 38.1264L74.8009 38.1265L74.9655 37.9059ZM74.717 36.9965L74.463 36.8904L74.463 36.8904L74.717 36.9965ZM76.4285 32.8993L76.6824 33.0054L76.831 32.6496L76.4463 32.6246L76.4285 32.8993ZM74.7051 32.7874L74.723 32.5127L74.7229 32.5127L74.7051 32.7874ZM74.0741 32.3745L74.3186 32.2481L74.3186 32.248L74.0741 32.3745ZM74.1021 31.6208L74.3364 31.7653L74.3365 31.7651L74.1021 31.6208ZM78.1863 24.9838L77.952 24.8393L77.9519 24.8395L78.1863 24.9838ZM78.8769 24.6198L78.8904 24.3449L78.8882 24.3448L78.8769 24.6198ZM83.3467 24.8402L83.3332 25.1151L83.3332 25.1151L83.3467 24.8402ZM84.0003 25.2745L84.2486 25.1558L84.2484 25.1554L84.0003 25.2745ZM83.9291 26.0562L83.7064 25.8945L83.7064 25.8945L83.9291 26.0562ZM80.7719 30.405L80.5491 30.2433L80.2618 30.6391L80.7492 30.6793L80.7719 30.405ZM82.8031 30.5724L82.8257 30.2981L82.8257 30.2981L82.8031 30.5724ZM83.4724 31.1094L83.7353 31.0281L83.7352 31.0278L83.4724 31.1094ZM83.2241 31.9309L83.3979 32.1444L83.398 32.1443L83.2241 31.9309ZM75.9082 37.8864L76.0818 38.0999L76.0819 38.0999L75.9082 37.8864ZM37.6024 29.7883C35.082 29.7883 33.032 31.8383 33.032 34.3587H33.5825C33.5825 32.1424 35.3861 30.3388 37.6024 30.3388V29.7883ZM33.032 34.3587C33.032 36.8789 35.082 38.929 37.6024 38.929V38.3785C35.386 38.3785 33.5825 36.5749 33.5825 34.3587H33.032ZM37.6024 38.929H43.1238V38.3785H37.6024V38.929ZM43.1238 38.929C45.6441 38.929 47.6941 36.8789 47.6941 34.3587H47.1436C47.1436 36.5749 45.34 38.3785 43.1238 38.3785V38.929ZM47.6941 34.3587C47.6941 31.8383 45.6441 29.7883 43.1238 29.7883V30.3388C45.34 30.3388 47.1436 32.1424 47.1436 34.3587H47.6941ZM43.1238 29.7883H37.6024V30.3388H43.1238V29.7883ZM43.1238 39.2126H37.6024V39.7631H43.1238V39.2126ZM37.6024 39.2126C34.9261 39.2126 32.7484 37.0348 32.7484 34.3587H32.1979C32.1979 37.3388 34.6221 39.7631 37.6024 39.7631V39.2126ZM32.7484 34.3587C32.7484 31.6825 34.9262 29.5047 37.6024 29.5047V28.9542C34.6221 28.9542 32.1979 31.3784 32.1979 34.3587H32.7484ZM37.6024 29.5047H43.1238V28.9542H37.6024V29.5047ZM43.1238 29.5047C45.7999 29.5047 47.9777 31.6825 47.9777 34.3587H48.5282C48.5282 31.3785 46.104 28.9542 43.1238 28.9542V29.5047ZM47.9777 34.3587C47.9777 37.0348 45.7999 39.2126 43.1238 39.2126V39.7631C46.104 39.7631 48.5282 37.3388 48.5282 34.3587H47.9777ZM24.8756 50.5149C24.7972 50.5149 24.7338 50.4515 24.7338 50.3731H24.1833C24.1833 50.7555 24.4932 51.0654 24.8756 51.0654V50.5149ZM24.7338 50.3731L24.7344 37.8568L24.184 37.8568L24.1833 50.3731L24.7338 50.3731ZM24.7339 37.8732C24.7363 37.8344 24.791 37.0371 25.3951 36.0471C25.9963 35.0618 27.1527 33.8671 29.3875 33.0404L29.1965 32.5241C26.8486 33.3926 25.5926 34.6666 24.9252 35.7604C24.2606 36.8495 24.1903 37.742 24.1844 37.8405L24.7339 37.8732ZM29.3875 33.0404L29.4574 33.0146L29.2664 32.4983L29.1965 32.5241L29.3875 33.0404ZM29.3619 33.0317H33.0406V32.4812H29.3619V33.0317ZM33.0406 33.0317C33.1189 33.0317 33.1824 33.0951 33.1824 33.1735H33.7329C33.7329 32.7911 33.423 32.4812 33.0406 32.4812V33.0317ZM33.1824 33.1735C33.1824 33.2517 33.1189 33.3152 33.0406 33.3152V33.8657C33.423 33.8657 33.7329 33.5556 33.7329 33.1735H33.1824ZM33.0406 33.3152H29.5119V33.8657H33.0406V33.3152ZM29.4147 33.333C27.4163 34.0872 26.3183 35.1452 25.719 36.0621C25.1218 36.9756 25.0305 37.732 25.0184 37.8734L25.5668 37.9206C25.5735 37.8432 25.6452 37.181 26.1797 36.3633C26.712 35.549 27.7143 34.5632 29.6091 33.848L29.4147 33.333ZM25.0173 37.897V50.3731H25.5678V37.897H25.0173ZM25.0173 50.3731C25.0173 50.4515 24.9539 50.5149 24.8756 50.5149V51.0654C25.2579 51.0654 25.5678 50.7555 25.5678 50.3731H25.0173ZM74.5634 63.0566C74.4862 63.0566 74.4229 62.9946 74.4217 62.917L73.8713 62.9254C73.8771 63.3042 74.1859 63.6071 74.5634 63.6071V63.0566ZM74.4217 62.917L74.3352 57.2416L73.7847 57.25L73.8713 62.9254L74.4217 62.917ZM74.2405 57.4535L74.387 57.3263L74.0259 56.9108L73.8794 57.038L74.2405 57.4535ZM74.3862 57.3269C74.4033 57.3121 75.1929 56.6258 76.0605 55.8402C76.919 55.063 77.8831 54.163 78.2278 53.7322L77.7979 53.3883C77.4876 53.7762 76.5642 54.6417 75.6911 55.4322C75.2593 55.823 74.8469 56.1894 74.5403 56.4598C74.387 56.5949 74.2603 56.7061 74.171 56.7842C74.1263 56.8233 74.091 56.8541 74.0663 56.8755C74.054 56.8863 74.0444 56.8946 74.0376 56.9005C74.0343 56.9035 74.0316 56.9058 74.0297 56.9074C74.0287 56.9083 74.028 56.9089 74.0274 56.9094C74.0268 56.9099 74.0266 56.9101 74.0267 56.9101L74.3862 57.3269ZM78.2278 53.7322C78.4814 53.4151 78.5327 53.1016 78.4865 52.8396C78.4427 52.5907 78.3159 52.4138 78.2543 52.339L77.8295 52.6891C77.8602 52.7264 77.9236 52.8168 77.9444 52.9351C77.9629 53.0402 77.9535 53.1939 77.7979 53.3884L78.2278 53.7322ZM78.2229 52.3067L74.1247 48.7281L73.7626 49.1428L77.8608 52.7214L78.2229 52.3067ZM74.1881 48.8089L74.1517 48.7387L73.6629 48.9918L73.6993 49.062L74.1881 48.8089ZM74.1516 48.7384C74.0936 48.6267 67.8528 36.6021 66.836 34.9641L66.3683 35.2544C67.3704 36.8687 73.5953 48.8616 73.6631 48.9921L74.1516 48.7384ZM66.836 34.9641C65.9945 33.6083 65.2787 33.3626 65.0984 33.3219L64.9772 33.8589C64.9862 33.8609 65.5884 33.9978 66.3683 35.2544L66.836 34.9641ZM65.0378 33.3152H47.8358V33.8656H65.0378V33.3152ZM47.8358 33.3152C47.7576 33.3152 47.6941 33.2517 47.6941 33.1734H47.1436C47.1436 33.5558 47.4537 33.8656 47.8358 33.8656V33.3152ZM47.6941 33.1734C47.6941 33.0951 47.7576 33.0316 47.8358 33.0316V32.4811C47.4537 32.4811 47.1436 32.7909 47.1436 33.1734H47.6941ZM47.8358 33.0316L65.0969 33.0324L65.0969 32.4819L47.8359 32.4811L47.8358 33.0316ZM65.0785 33.0318C65.0907 33.0326 66.0084 33.0927 67.0769 34.8145L67.5447 34.5242C66.3926 32.6679 65.3227 32.4964 65.1153 32.4826L65.0785 33.0318ZM67.077 34.8145C68.0663 36.4082 73.7968 47.4394 74.367 48.5378L74.8555 48.2842C74.2948 47.204 68.5487 36.1416 67.5446 34.5242L67.077 34.8145ZM74.4301 48.6182L78.4638 52.1438L78.826 51.7293L74.7924 48.2038L74.4301 48.6182ZM78.4427 52.1233C78.5703 52.2614 78.7269 52.5225 78.7726 52.8411C78.8169 53.1491 78.7597 53.5211 78.4492 53.9093L78.879 54.2532C79.2884 53.7414 79.3825 53.2152 79.3175 52.7628C79.2541 52.3211 79.0411 51.9598 78.8471 51.7498L78.4427 52.1233ZM78.4492 53.9093C78.1535 54.2788 77.3909 55.0078 76.6028 55.7299C75.8223 56.4451 75.039 57.1334 74.7188 57.4134L75.0812 57.8278C75.4025 57.5468 76.1895 56.8552 76.9747 56.1358C77.7523 55.4233 78.551 54.6631 78.879 54.2532L78.4492 53.9093ZM74.6248 57.6248L74.7054 62.9127L75.2558 62.9043L75.1752 57.6164L74.6248 57.6248ZM74.7054 62.9125C74.7065 62.9912 74.6439 63.0555 74.5657 63.0567L74.5741 63.6071C74.9566 63.6012 75.2613 63.2865 75.2558 62.9045L74.7054 62.9125ZM74.5699 63.0566H74.5634V63.6071H74.5699V63.0566ZM63.2087 72.9854H40.4701V73.5359H63.2087V72.9854ZM40.4701 72.9854C40.3918 72.9854 40.3283 72.922 40.3283 72.8436H39.7779C39.7779 73.226 40.0877 73.5359 40.4701 73.5359V72.9854ZM40.3283 72.8436C40.3283 72.7653 40.3918 72.7019 40.4701 72.7019V72.1514C40.0878 72.1514 39.7779 72.4613 39.7779 72.8436H40.3283ZM40.4701 72.7019H63.104V72.1514H40.4701V72.7019ZM63.1978 72.6854C63.474 72.5852 64.7882 71.9812 66.5243 69.1241L66.0538 68.8382C64.3636 71.62 63.1376 72.1216 63.0101 72.1679L63.1978 72.6854ZM66.5189 69.1326L66.5376 69.1042L66.0779 68.8014L66.0592 68.8297L66.5189 69.1326ZM66.5305 69.1144C66.6359 68.9692 66.7476 68.8075 66.8661 68.6364L66.4136 68.323C66.2939 68.4959 66.1861 68.6518 66.085 68.7911L66.5305 69.1144ZM66.8662 68.6364C67.5188 67.6934 68.4349 66.3715 70.0032 65.1544C71.5692 63.9391 73.7975 62.8198 77.0794 62.3118L76.9952 61.7678C73.6242 62.2896 71.3081 63.445 69.6657 64.7195C68.0257 65.9922 67.0695 67.3754 66.4135 68.3231L66.8662 68.6364ZM77.0739 62.3126C77.1214 62.3063 77.3656 62.2762 77.6605 62.3037C77.9609 62.3317 78.275 62.4158 78.4967 62.6057L78.8548 62.1876C78.5073 61.8899 78.0594 61.788 77.7115 61.7556C77.358 61.7227 77.0677 61.7581 77.0007 61.767L77.0739 62.3126ZM78.4967 62.6057C78.6894 62.7707 78.7981 63.0024 78.803 63.2929L79.3534 63.2836C79.346 62.8485 79.1765 62.4633 78.8548 62.1876L78.4967 62.6057ZM78.803 63.2929C78.8155 64.0365 78.538 64.5871 78.063 64.8904L78.3593 65.3543C79.03 64.926 79.3683 64.1734 79.3534 63.2836L78.803 63.2929ZM78.0643 64.8895L78.0254 64.9141L78.3191 65.3796L78.358 65.3551L78.0643 64.8895ZM78.0782 64.8882L77.9402 64.9384L78.1285 65.4557L78.2664 65.4055L78.0782 64.8882ZM77.9403 64.9384C76.5948 65.4272 75.3184 65.893 72.54 67.8488L72.8568 68.2989C75.5881 66.3764 76.8192 65.9314 78.1283 65.4557L77.9403 64.9384ZM72.5399 67.8489C72.4756 67.8941 72.3872 67.8786 72.3424 67.8148L71.8921 68.1314C72.1121 68.4443 72.5442 68.5191 72.8569 68.2989L72.5399 67.8489ZM72.3423 67.8147C72.2971 67.7504 72.3127 67.6619 72.3765 67.6171L72.0598 67.1668C71.747 67.3868 71.6722 67.8188 71.8921 68.1315L72.3423 67.8147ZM72.3766 67.617C75.1987 65.6306 76.4806 65.1671 77.8434 64.6719L77.6554 64.1545C76.2565 64.6628 74.9292 65.1471 72.0597 67.1669L72.3766 67.617ZM77.8435 64.6719L77.8912 64.6545L77.7031 64.1372L77.6554 64.1545L77.8435 64.6719ZM77.9551 64.6213C78.3613 64.3367 78.529 63.8639 78.5194 63.2976L77.969 63.3069C77.9767 63.7649 77.8435 64.0273 77.6392 64.1704L77.9551 64.6213ZM78.5194 63.2976C78.5175 63.1848 78.4954 63.0864 78.4535 63.0014C78.4112 62.9155 78.3564 62.8592 78.3136 62.8223L77.9539 63.2391C77.9584 63.2429 77.9596 63.2444 77.9596 63.2444C77.9597 63.2445 77.9596 63.2444 77.9595 63.2443C77.9594 63.2442 77.9595 63.2443 77.9598 63.2448C77.96 63.2452 77.9682 63.2611 77.969 63.3069L78.5194 63.2976ZM78.3134 62.8222C78.1408 62.6735 77.8929 62.6159 77.6965 62.592C77.4883 62.5666 77.2747 62.5722 77.1208 62.5925L77.193 63.1382C77.3027 63.1237 77.4696 63.1189 77.63 63.1384C77.8021 63.1594 77.9108 63.2019 77.9541 63.2392L78.3134 62.8222ZM77.1148 62.5934C73.9249 63.0871 71.7325 64.1805 70.1776 65.3872C68.625 66.5921 67.7198 67.9016 67.0995 68.7978L67.5521 69.1111C68.1692 68.2196 69.0342 66.9714 70.5151 65.8221C71.9937 64.6746 74.0982 63.6173 77.199 63.1374L77.1148 62.5934ZM67.0995 68.7978C66.98 68.9703 66.8716 69.1269 66.7701 69.2673L67.2162 69.5897C67.3216 69.444 67.4333 69.2826 67.552 69.1112L67.0995 68.7978ZM66.758 69.2854C64.7309 72.616 63.2657 72.9668 63.1945 72.9821L63.3101 73.5203C63.5727 73.4638 65.1492 72.9875 67.2283 69.5716L66.758 69.2854ZM63.1936 72.9823L63.15 72.9918L63.2674 73.5296L63.311 73.5201L63.1936 72.9823ZM27.468 72.9854H24.9865V73.5359H27.468V72.9854ZM24.9865 72.9854C23.4616 72.9854 22.2206 71.7443 22.2206 70.2196H21.6701C21.6701 72.0483 23.1575 73.5359 24.9865 73.5359V72.9854ZM22.2206 70.2196V53.3667H21.6701V70.2196H22.2206ZM22.2206 53.3667C22.2206 51.8419 23.4616 50.6008 24.9865 50.6008V50.0503C23.1575 50.0503 21.6701 51.5379 21.6701 53.3667H22.2206ZM24.9865 50.6008H48.3438V50.0503H24.9865V50.6008ZM48.3438 50.6008C49.8687 50.6008 51.1097 51.8419 51.1097 53.3667H51.6601C51.6601 51.5379 50.1727 50.0503 48.3438 50.0503V50.6008ZM51.1097 53.3667V55.3994H51.6601V53.3667H51.1097ZM51.1097 55.3994C51.1097 55.4778 51.0462 55.5412 50.9679 55.5412V56.0917C51.3502 56.0917 51.6601 55.7818 51.6601 55.3994H51.1097ZM50.9679 55.5412C50.8896 55.5412 50.8261 55.4777 50.8261 55.3994H50.2756C50.2756 55.7819 50.5857 56.0917 50.9679 56.0917V55.5412ZM50.8261 55.3994V53.3667H50.2756V55.3994H50.8261ZM50.8261 53.3667C50.8261 51.9976 49.7128 50.8844 48.3438 50.8844V51.4349C49.4088 51.4349 50.2756 52.3017 50.2756 53.3667H50.8261ZM48.3438 50.8844H24.9865V51.4349H48.3438V50.8844ZM24.9865 50.8844C23.6174 50.8844 22.5042 51.9976 22.5042 53.3667H23.0546C23.0546 52.3017 23.9214 51.4349 24.9865 51.4349V50.8844ZM22.5042 53.3667V70.2196H23.0546V53.3667H22.5042ZM22.5042 70.2196C22.5042 71.5884 23.6174 72.7019 24.9865 72.7019V72.1514C23.9215 72.1514 23.0546 71.2844 23.0546 70.2196H22.5042ZM24.9865 72.7019H27.468V72.1514H24.9865V72.7019ZM27.468 72.7019C27.5463 72.7019 27.6097 72.7653 27.6097 72.8436H28.1602C28.1602 72.4613 27.8503 72.1514 27.468 72.1514V72.7019ZM27.6097 72.8436C27.6097 72.922 27.5463 72.9854 27.468 72.9854V73.5359C27.8503 73.5359 28.1602 73.226 28.1602 72.8436H27.6097ZM57.6204 58.7935H51.0502V59.344H57.6204V58.7935ZM51.0502 58.7935C50.9719 58.7935 50.9085 58.7301 50.9085 58.6517H50.358C50.358 59.0341 50.6679 59.344 51.0502 59.344V58.7935ZM50.9085 58.6517C50.9085 58.5734 50.9719 58.5099 51.0502 58.5099V57.9595C50.6679 57.9595 50.358 58.2693 50.358 58.6517H50.9085ZM51.0502 58.5099H57.6204V57.9595H51.0502V58.5099ZM57.6204 58.5099C58.4392 58.5099 59.1047 57.8442 59.1047 57.0255H58.5542C58.5542 57.5403 58.1351 57.9595 57.6204 57.9595V58.5099ZM59.1047 57.0255C59.1047 56.2067 58.4392 55.5412 57.6204 55.5412V56.0917C58.1351 56.0917 58.5542 56.5108 58.5542 57.0255H59.1047ZM57.6204 55.5412H51.0502V56.0917H57.6204V55.5412ZM51.0502 55.5412C50.9719 55.5412 50.9085 55.4778 50.9085 55.3994H50.358C50.358 55.7818 50.6679 56.0917 51.0502 56.0917V55.5412ZM50.9085 55.3994C50.9085 55.3211 50.9719 55.2576 51.0502 55.2576V54.7072C50.6679 54.7072 50.358 55.0171 50.358 55.3994H50.9085ZM51.0502 55.2576H57.6204V54.7072H51.0502V55.2576ZM57.6204 55.2576C58.595 55.2576 59.3883 56.0509 59.3883 57.0255H59.9387C59.9387 55.7468 58.8991 54.7072 57.6204 54.7072V55.2576ZM59.3883 57.0255C59.3883 58.0001 58.595 58.7935 57.6204 58.7935V59.344C58.8991 59.344 59.9387 58.3041 59.9387 57.0255H59.3883ZM57.6204 69.0082C57.5421 69.0082 57.4786 68.9448 57.4786 68.8664H56.9281C56.9281 69.2488 57.238 69.5587 57.6204 69.5587V69.0082ZM57.4786 68.8664V58.6518H56.9281V68.8664H57.4786ZM57.4786 58.6518C57.4786 58.5734 57.5421 58.5099 57.6204 58.5099V57.9595C57.238 57.9595 56.9281 58.2694 56.9281 58.6518H57.4786ZM57.6204 58.5099C57.6987 58.5099 57.7622 58.5734 57.7622 58.6518H58.3127C58.3127 58.2695 58.0028 57.9595 57.6204 57.9595V58.5099ZM57.7622 58.6518V68.8664H58.3127V58.6518H57.7622ZM57.7622 68.8664C57.7622 68.9448 57.6988 69.0082 57.6204 69.0082V69.5587C58.0028 69.5587 58.3127 69.2488 58.3127 68.8664H57.7622ZM25.1141 63.0366C24.6676 63.0366 24.3039 62.6729 24.3039 62.2262H23.7534C23.7534 62.9769 24.3636 63.5871 25.1141 63.5871V63.0366ZM24.3039 62.2262V55.6494H23.7534V62.2262H24.3039ZM24.3039 55.6494C24.3039 55.2031 24.6676 54.8394 25.1141 54.8394V54.2889C24.3636 54.2889 23.7534 54.899 23.7534 55.6494H24.3039ZM25.1141 54.8394H46.9951V54.2889H25.1141V54.8394ZM46.9951 54.8394C47.0735 54.8394 47.1369 54.9028 47.1369 54.9811H47.6874C47.6874 54.5988 47.3775 54.2889 46.9951 54.2889V54.8394ZM47.1369 54.9811C47.1369 55.0594 47.0734 55.1229 46.9951 55.1229V55.6734C47.3776 55.6734 47.6874 55.3633 47.6874 54.9811H47.1369ZM46.9951 55.1229H25.1141V55.6734H46.9951V55.1229ZM25.1141 55.1229C24.8237 55.1229 24.5875 55.3585 24.5875 55.6494H25.138C25.138 55.663 25.1273 55.6734 25.1141 55.6734V55.1229ZM24.5875 55.6494V62.2262H25.138V55.6494H24.5875ZM24.5875 62.2262C24.5875 62.5166 24.8232 62.753 25.1141 62.753V62.2025C25.1277 62.2025 25.138 62.2131 25.138 62.2262H24.5875ZM25.1141 62.753C25.405 62.753 25.6407 62.5166 25.6407 62.2262H25.0903C25.0903 62.2131 25.1005 62.2025 25.1141 62.2025V62.753ZM25.6407 62.2262V61.7932H25.0903V62.2262H25.6407ZM25.6407 61.7932C25.6407 61.7148 25.7042 61.6514 25.7825 61.6514V61.1009C25.4001 61.1009 25.0903 61.4108 25.0903 61.7932H25.6407ZM25.7825 61.6514C25.8609 61.6514 25.9243 61.7148 25.9243 61.7932H26.4748C26.4748 61.4108 26.1649 61.1009 25.7825 61.1009V61.6514ZM25.9243 61.7932V62.2262H26.4748V61.7932H25.9243ZM25.9243 62.2262C25.9243 62.6729 25.5606 63.0366 25.1141 63.0366V63.5871C25.8647 63.5871 26.4748 62.9769 26.4748 62.2262H25.9243ZM61.2765 69.0082H50.4712V69.5587H61.2765V69.0082ZM50.4712 69.0082C49.4841 69.0082 48.6805 68.2046 48.6805 67.2175H48.13C48.13 68.5087 49.1801 69.5587 50.4712 69.5587V69.0082ZM48.6805 67.2175V54.6058H48.13V67.2175H48.6805ZM48.6805 54.6058C48.6805 53.7746 48.0047 53.0987 47.1736 53.0987V53.6491C47.7006 53.6491 48.13 54.0785 48.13 54.6058H48.6805ZM47.1736 53.0987H22.3623V53.6491H47.1736V53.0987ZM22.3623 53.0987C22.284 53.0987 22.2205 53.0352 22.2205 52.9569H21.6701C21.6701 53.3392 21.98 53.6491 22.3623 53.6491V53.0987ZM22.2205 52.9569C22.2205 52.8785 22.284 52.8151 22.3623 52.8151V52.2646C21.98 52.2646 21.6701 52.5745 21.6701 52.9569H22.2205ZM22.3623 52.8151H47.1736V52.2646H22.3623V52.8151ZM47.1736 52.8151C48.1607 52.8151 48.9641 53.6186 48.9641 54.6058H49.5146C49.5146 53.3147 48.4647 52.2646 47.1736 52.2646V52.8151ZM48.9641 54.6058V67.2175H49.5146V54.6058H48.9641ZM48.9641 67.2175C48.9641 68.0488 49.64 68.7246 50.4712 68.7246V68.1742C49.944 68.1742 49.5146 67.7447 49.5146 67.2175H48.9641ZM50.4712 68.7246H60.7891V68.1742H50.4712V68.7246ZM61.029 68.5843C61.495 67.7557 63.2459 64.6357 64.9931 61.4377C66.7347 58.2499 68.4884 54.9564 68.9466 53.7974L68.4346 53.595C67.9924 54.7138 66.2611 57.9686 64.51 61.1738C62.7645 64.3688 61.0149 67.4865 60.5492 68.3145L61.029 68.5843ZM68.9465 53.7974C69.864 51.4772 69.0556 50.3151 68.9697 50.2029L68.5326 50.5374C68.5141 50.5133 69.2734 51.4737 68.4346 53.595L68.9465 53.7974ZM68.9835 50.2226L68.9373 50.1498L68.4726 50.445L68.5188 50.5177L68.9835 50.2226ZM68.9515 50.175L60.5424 33.2364L60.0493 33.4812L68.4584 50.4198L68.9515 50.175ZM60.5424 33.2364C60.5076 33.1663 60.5362 33.0812 60.6064 33.0464L60.3617 32.5533C60.0192 32.7233 59.8793 33.1387 60.0493 33.4812L60.5424 33.2364ZM60.6066 33.0463C60.6761 33.0117 60.7616 33.0402 60.7965 33.1104L61.2895 32.8655C61.1196 32.5235 60.7039 32.3831 60.3615 32.5534L60.6066 33.0463ZM60.7965 33.1104L69.1897 50.0171L69.6828 49.7723L61.2895 32.8656L60.7965 33.1104ZM69.2111 50.0531C69.3522 50.2537 70.1482 51.5298 69.2105 53.9016L69.7224 54.104C70.739 51.5328 69.8913 50.0632 69.6614 49.7364L69.2111 50.0531ZM69.2105 53.9016C68.7225 55.1356 66.7885 58.7552 64.9261 62.1537C63.0695 65.5418 61.3006 68.6807 61.1565 68.9363L61.6361 69.2066C61.7804 68.9504 63.5506 65.8093 65.4089 62.4183C67.2615 59.0376 69.2183 55.3787 69.7224 54.104L69.2105 53.9016ZM61.1567 68.9361L61.0369 69.1481L61.5162 69.4188L61.636 69.2068L61.1567 68.9361ZM62.1824 70.8267H41.7563V71.3771H62.1824V70.8267ZM42.0243 71.039L41.9487 70.7172L41.4128 70.8431L41.4884 71.1648L42.0243 71.039ZM41.9487 70.7173C41.0689 66.9669 37.7586 64.3471 33.9012 64.3471V64.8976C37.5036 64.8976 40.5915 67.3421 41.4128 70.843L41.9487 70.7173ZM33.9012 64.3471C30.1548 64.3471 26.8689 66.8728 25.9105 70.4901L26.4426 70.6311C27.3369 67.2557 30.4041 64.8976 33.9012 64.8976V64.3471ZM25.9105 70.4901C25.8905 70.5657 25.813 70.6109 25.737 70.5908L25.5963 71.123C25.9657 71.2206 26.3446 71.0009 26.4426 70.6312L25.9105 70.4901ZM25.737 70.5908C25.6615 70.5708 25.6163 70.4933 25.6364 70.4175L25.1043 70.2764C25.0063 70.6459 25.2264 71.0252 25.5963 71.123L25.737 70.5908ZM25.6364 70.4174C26.6275 66.6767 30.0261 64.0635 33.9012 64.0635V63.513C29.7768 63.513 26.1594 66.2939 25.1043 70.2764L25.6364 70.4174ZM33.9012 64.0635C37.7852 64.0635 41.1294 66.6282 42.1456 70.3405L42.6765 70.1952C41.5949 66.2436 38.0332 63.513 33.9012 63.513V64.0635ZM42.4111 70.5431H62.1824V69.9926H42.4111V70.5431ZM62.1824 70.5431C62.7338 70.5431 63.2326 70.237 63.4825 69.7456L62.9918 69.496C62.8358 69.8029 62.5265 69.9926 62.1824 69.9926V70.5431ZM63.4825 69.7455L70.3173 56.3013L69.8266 56.0518L62.9918 69.4961L63.4825 69.7455ZM70.3173 56.3013C70.7678 55.4151 71.0057 54.4218 71.0057 53.4278H70.4552C70.4552 54.3351 70.2378 55.2429 69.8266 56.0518L70.3173 56.3013ZM71.0057 53.4278V50.2196H70.4552V53.4278H71.0057ZM71.0057 50.2196C71.0057 50.1413 71.0692 50.0778 71.1475 50.0778V49.5273C70.7651 49.5273 70.4552 49.8374 70.4552 50.2196H71.0057ZM71.1475 50.0778C71.2258 50.0778 71.2893 50.1413 71.2893 50.2196H71.8398C71.8398 49.8374 71.53 49.5273 71.1475 49.5273V50.0778ZM71.2893 50.2196V53.4278H71.8398V50.2196H71.2893ZM71.2893 53.4278C71.2893 54.4657 71.0405 55.5043 70.57 56.4298L71.0607 56.6793C71.5705 55.6765 71.8398 54.5525 71.8398 53.4278H71.2893ZM70.57 56.4298L63.7353 69.8742L64.226 70.1237L71.0607 56.6793L70.57 56.4298ZM63.7353 69.8742C63.4363 70.4623 62.842 70.8267 62.1824 70.8267V71.3771C63.0492 71.3771 63.8331 70.8965 64.226 70.1237L63.7353 69.8742ZM33.9382 66.8257C30.4485 66.8257 27.6098 69.6642 27.6098 73.1541H28.1602C28.1602 69.9683 30.7525 67.3761 33.9382 67.3761V66.8257ZM27.6098 73.1541C27.6098 76.644 30.4485 79.4827 33.9382 79.4827V78.9323C30.7525 78.9323 28.1602 76.34 28.1602 73.1541H27.6098ZM33.9382 79.4827C37.4281 79.4827 40.2668 76.644 40.2668 73.1541H39.7164C39.7164 76.34 37.1241 78.9323 33.9382 78.9323V79.4827ZM40.2668 73.1541C40.2668 69.6642 37.4281 66.8257 33.9382 66.8257V67.3761C37.1241 67.3761 39.7164 69.9683 39.7164 73.1541H40.2668ZM33.9382 79.7663C30.2926 79.7663 27.3262 76.7999 27.3262 73.1541H26.7757C26.7757 77.1039 29.9886 80.3168 33.9382 80.3168V79.7663ZM27.3262 73.1541C27.3262 69.5084 30.2926 66.5421 33.9382 66.5421V65.9916C29.9886 65.9916 26.7757 69.2043 26.7757 73.1541H27.3262ZM33.9382 66.5421C37.584 66.5421 40.5504 69.5084 40.5504 73.1541H41.1009C41.1009 69.2043 37.888 65.9916 33.9382 65.9916V66.5421ZM40.5504 73.1541C40.5504 76.7999 37.584 79.7663 33.9382 79.7663V80.3168C37.888 80.3168 41.1009 77.1039 41.1009 73.1541H40.5504ZM33.9382 69.0082C31.6519 69.0082 29.7921 70.8677 29.7921 73.1541H30.3426C30.3426 71.1718 31.9559 69.5587 33.9382 69.5587V69.0082ZM29.7921 73.1541C29.7921 75.4405 31.6519 77.3002 33.9382 77.3002V76.7497C31.9559 76.7497 30.3426 75.1364 30.3426 73.1541H29.7921ZM33.9382 77.3002C36.2246 77.3002 38.0843 75.4405 38.0843 73.1541H37.5338C37.5338 75.1364 35.9205 76.7497 33.9382 76.7497V77.3002ZM38.0843 73.1541C38.0843 70.8677 36.2245 69.0082 33.9382 69.0082V69.5587C35.9206 69.5587 37.5338 71.1718 37.5338 73.1541H38.0843ZM33.9382 77.5838C31.496 77.5838 29.5086 75.5965 29.5086 73.1541H28.9581C28.9581 75.9005 31.192 78.1342 33.9382 78.1342V77.5838ZM29.5086 73.1541C29.5086 70.7119 31.496 68.7246 33.9382 68.7246V68.1742C31.192 68.1742 28.9581 70.4079 28.9581 73.1541H29.5086ZM33.9382 68.7246C36.3805 68.7246 38.3679 70.7119 38.3679 73.1541H38.9183C38.9183 70.4079 36.6844 68.1742 33.9382 68.1742V68.7246ZM38.3679 73.1541C38.3679 75.5965 36.3804 77.5838 33.9382 77.5838V78.1342C36.6844 78.1342 38.9183 75.9005 38.9183 73.1541H38.3679ZM33.9382 70.9974C32.7487 70.9974 31.7814 71.9647 31.7814 73.1541H32.3318C32.3318 72.2687 33.0526 71.5479 33.9382 71.5479V70.9974ZM31.7814 73.1541C31.7814 74.3436 32.7486 75.3111 33.9382 75.3111V74.7606C33.0527 74.7606 32.3318 74.0397 32.3318 73.1541H31.7814ZM33.9382 75.3111C35.1278 75.3111 36.0951 74.3436 36.0951 73.1541H35.5446C35.5446 74.0397 34.8237 74.7606 33.9382 74.7606V75.3111ZM36.0951 73.1541C36.0951 71.9647 35.1278 70.9974 33.9382 70.9974V71.5479C34.8238 71.5479 35.5446 72.2687 35.5446 73.1541H36.0951ZM33.9382 75.5947C32.5928 75.5947 31.4978 74.4996 31.4978 73.1541H30.9473C30.9473 74.8035 32.2887 76.1452 33.9382 76.1452V75.5947ZM31.4978 73.1541C31.4978 71.8088 32.5928 70.7138 33.9382 70.7138V70.1633C32.2888 70.1633 30.9473 71.5048 30.9473 73.1541H31.4978ZM33.9382 70.7138C35.2837 70.7138 36.3786 71.8088 36.3786 73.1541H36.9291C36.9291 71.5048 35.5877 70.1633 33.9382 70.1633V70.7138ZM36.3786 73.1541C36.3786 74.4996 35.2836 75.5947 33.9382 75.5947V76.1452C35.5877 76.1452 36.9291 74.8035 36.9291 73.1541H36.3786ZM75.9902 66.8258C72.5003 66.8258 69.6618 69.6644 69.6618 73.1543H70.2123C70.2123 69.9684 72.8044 67.3763 75.9902 67.3763V66.8258ZM69.6618 73.1543C69.6618 76.6442 72.5003 79.4827 75.9902 79.4827V78.9323C72.8044 78.9323 70.2123 76.3401 70.2123 73.1543H69.6618ZM75.9902 79.4827C79.4801 79.4827 82.3187 76.6442 82.3187 73.1543H81.7682C81.7682 76.3401 79.1761 78.9323 75.9902 78.9323V79.4827ZM82.3187 73.1543C82.3187 69.6644 79.4801 66.8258 75.9902 66.8258V67.3763C79.1761 67.3763 81.7682 69.9684 81.7682 73.1543H82.3187ZM75.9902 79.7663C72.3445 79.7663 69.3782 76.8 69.3782 73.1543H68.8277C68.8277 77.1041 72.0405 80.3168 75.9902 80.3168V79.7663ZM69.3782 73.1543C69.3782 69.5085 72.3445 66.5422 75.9902 66.5422V65.9918C72.0405 65.9918 68.8277 69.2045 68.8277 73.1543H69.3782ZM75.9902 66.5422C79.636 66.5422 82.6023 69.5085 82.6023 73.1543H83.1527C83.1527 69.2045 79.94 65.9918 75.9902 65.9918V66.5422ZM82.6023 73.1543C82.6023 76.8 79.636 79.7663 75.9902 79.7663V80.3168C79.94 80.3168 83.1527 77.1041 83.1527 73.1543H82.6023ZM75.9902 69.0082C73.7039 69.0082 71.8442 70.8679 71.8442 73.1543H72.3946C72.3946 71.172 74.0079 69.5587 75.9902 69.5587V69.0082ZM71.8442 73.1543C71.8442 75.4406 73.7039 77.3004 75.9902 77.3004V76.7499C74.0079 76.7499 72.3946 75.1366 72.3946 73.1543H71.8442ZM75.9902 77.3004C78.2766 77.3004 80.1361 75.4406 80.1361 73.1543H79.5857C79.5857 75.1366 77.9725 76.7499 75.9902 76.7499V77.3004ZM80.1361 73.1543C80.1361 70.8679 78.2766 69.0082 75.9902 69.0082V69.5587C77.9725 69.5587 79.5857 71.1719 79.5857 73.1543H80.1361ZM75.9902 77.5839C73.5478 77.5839 71.5606 75.5967 71.5606 73.1543H71.0101C71.0101 75.9007 73.2438 78.1344 75.9902 78.1344V77.5839ZM71.5606 73.1543C71.5606 70.7119 73.5478 68.7246 75.9902 68.7246V68.1742C73.2438 68.1742 71.0101 70.4079 71.0101 73.1543H71.5606ZM75.9902 68.7246C78.4325 68.7246 80.4197 70.7119 80.4197 73.1543H80.9702C80.9702 70.4079 78.7365 68.1742 75.9902 68.1742V68.7246ZM80.4197 73.1543C80.4197 75.5967 78.4325 77.5839 75.9902 77.5839V78.1344C78.7365 78.1344 80.9702 75.9007 80.9702 73.1543H80.4197ZM75.9902 70.9975C74.8007 70.9975 73.8334 71.9648 73.8334 73.1542H74.3838C74.3838 72.2689 75.1047 71.548 75.9902 71.548V70.9975ZM73.8334 73.1542C73.8334 74.3438 74.8006 75.3113 75.9902 75.3113V74.7608C75.1047 74.7608 74.3838 74.0398 74.3838 73.1542H73.8334ZM75.9902 75.3113C77.1799 75.3113 78.1469 74.3437 78.1469 73.1542H77.5965C77.5965 74.0399 76.8757 74.7608 75.9902 74.7608V75.3113ZM78.1469 73.1542C78.1469 71.9649 77.1798 70.9975 75.9902 70.9975V71.548C76.8758 71.548 77.5965 72.2688 77.5965 73.1542H78.1469ZM75.9902 75.5948C74.6448 75.5948 73.5498 74.4997 73.5498 73.1542H72.9993C72.9993 74.8037 74.3407 76.1453 75.9902 76.1453V75.5948ZM73.5498 73.1542C73.5498 71.809 74.6448 70.714 75.9902 70.714V70.1635C74.3408 70.1635 72.9993 71.5049 72.9993 73.1542H73.5498ZM75.9902 70.714C77.3357 70.714 78.4305 71.8089 78.4305 73.1542H78.981C78.981 71.505 77.6397 70.1635 75.9902 70.1635V70.714ZM78.4305 73.1542C78.4305 74.4997 77.3356 75.5948 75.9902 75.5948V76.1453C77.6397 76.1453 78.981 74.8037 78.981 73.1542H78.4305ZM74.4799 57.8025C74.4016 57.8025 74.3381 57.7391 74.3381 57.6607H73.7877C73.7877 58.0431 74.0976 58.353 74.4799 58.353V57.8025ZM74.3381 57.6607V49.267H73.7877V57.6607H74.3381ZM74.0629 48.9918H72.684V49.5422H74.0629V48.9918ZM72.684 48.9918C71.9294 48.9918 71.2346 48.5809 70.8711 47.9195L70.3887 48.1847C70.849 49.022 71.7286 49.5422 72.684 49.5422V48.9918ZM70.8712 47.9196L63.9145 35.2592L63.4321 35.5243L70.3887 48.1847L70.8712 47.9196ZM63.9146 35.2593C63.8768 35.1905 63.902 35.1042 63.9705 35.0666L63.7054 34.5842C63.3702 34.7684 63.2482 35.1893 63.432 35.5241L63.9146 35.2593ZM63.9705 35.0666C64.0391 35.0289 64.1255 35.054 64.1632 35.1226L64.6456 34.8575C64.4615 34.5224 64.0404 34.4 63.7054 34.5842L63.9705 35.0666ZM64.1632 35.1226L71.1199 47.783L71.6023 47.5179L64.6456 34.8575L64.1632 35.1226ZM71.1198 47.783C71.4335 48.3538 72.0329 48.7082 72.684 48.7082V48.1577C72.2336 48.1577 71.8192 47.9126 71.6023 47.5179L71.1198 47.783ZM72.684 48.7082H74.225V48.1577H72.684V48.7082ZM74.225 48.7082C74.4436 48.7082 74.6217 48.8863 74.6217 49.1049H75.1722C75.1722 48.5824 74.7477 48.1577 74.225 48.1577V48.7082ZM74.6217 49.1049V57.6607H75.1722V49.1049H74.6217ZM74.6217 57.6607C74.6217 57.7391 74.5583 57.8025 74.4799 57.8025V58.353C74.8623 58.353 75.1722 58.0431 75.1722 57.6607H74.6217ZM74.8533 32.237L76.5592 32.3479L76.5949 31.7986L74.889 31.6876L74.8533 32.237ZM76.5594 32.3479C76.7169 32.358 76.8614 32.4446 76.9446 32.579L77.4126 32.2891C77.2356 32.0034 76.93 31.8201 76.5947 31.7986L76.5594 32.3479ZM76.9447 32.5791C77.0281 32.7136 77.0415 32.8815 76.9805 33.0273L77.4884 33.2396C77.618 32.9297 77.5897 32.5745 77.4125 32.289L76.9447 32.5791ZM76.9805 33.0274L75.3364 36.9636L75.8444 37.1758L77.4885 33.2396L76.9805 33.0274ZM75.7642 37.2832L82.7412 31.6034L82.3936 31.1765L75.4166 36.8563L75.7642 37.2832ZM82.59 31.1157L80.6063 30.952L80.5611 31.5006L82.5448 31.6643L82.59 31.1157ZM80.6063 30.952C80.4299 30.9375 80.2739 30.8282 80.1999 30.6672L79.6997 30.897C79.8566 31.2385 80.1864 31.4698 80.5611 31.5006L80.6063 30.952ZM80.2001 30.6675C80.1263 30.5063 80.1451 30.317 80.2491 30.1739L79.8037 29.8504C79.5827 30.1546 79.5432 30.5551 79.6996 30.8967L80.2001 30.6675ZM80.2491 30.1738L83.4035 25.8287L82.958 25.5054L79.8037 29.8504L80.2491 30.1738ZM83.1943 25.3921L78.8893 25.18L78.8622 25.7298L83.1672 25.942L83.1943 25.3921ZM78.6413 25.3106L74.6367 31.8181L75.1055 32.1066L79.1101 25.5991L78.6413 25.3106ZM75.4248 37.786C75.3247 37.786 75.222 37.7539 75.1302 37.6854L74.8009 38.1265C74.9866 38.2651 75.2046 38.3365 75.4248 38.3365V37.786ZM75.1303 37.6854C74.9449 37.5469 74.8818 37.316 74.971 37.1025L74.463 36.8904C74.2766 37.3368 74.4133 37.8369 74.8008 38.1264L75.1303 37.6854ZM74.9709 37.1026L76.6824 33.0054L76.1745 32.7932L74.463 36.8904L74.9709 37.1026ZM76.4463 32.6246L74.723 32.5127L74.6873 33.062L76.4106 33.1739L76.4463 32.6246ZM74.7229 32.5127C74.5488 32.5014 74.3989 32.4034 74.3186 32.2481L73.8296 32.5009C73.9985 32.8276 74.3204 33.0383 74.6874 33.062L74.7229 32.5127ZM74.3186 32.248C74.2383 32.0928 74.2449 31.9137 74.3364 31.7653L73.8678 31.4764C73.6747 31.7897 73.6607 32.1744 73.8296 32.501L74.3186 32.248ZM74.3365 31.7651L78.4207 25.128L77.9519 24.8395L73.8677 31.4766L74.3365 31.7651ZM78.4206 25.1282C78.5143 24.9763 78.6823 24.8873 78.8656 24.8948L78.8882 24.3448C78.51 24.3293 78.1523 24.5145 77.952 24.8393L78.4206 25.1282ZM78.8633 24.8947L83.3332 25.1151L83.3603 24.5653L78.8904 24.3449L78.8633 24.8947ZM83.3332 25.1151C83.5134 25.1239 83.6739 25.2305 83.7522 25.3936L84.2484 25.1554C84.0829 24.8105 83.7426 24.5841 83.3603 24.5653L83.3332 25.1151ZM83.752 25.3933C83.8301 25.5565 83.8126 25.7482 83.7064 25.8945L84.1518 26.218C84.3768 25.9081 84.4138 25.501 84.2486 25.1558L83.752 25.3933ZM83.7064 25.8945L80.5491 30.2433L80.9946 30.5667L84.1518 26.2179L83.7064 25.8945ZM80.7492 30.6793L82.7805 30.8467L82.8257 30.2981L80.7945 30.1307L80.7492 30.6793ZM82.7805 30.8467C82.982 30.8634 83.1495 30.9977 83.2095 31.191L83.7352 31.0278C83.6087 30.6202 83.2511 30.3332 82.8257 30.2981L82.7805 30.8467ZM83.2094 31.1907C83.2692 31.3841 83.2071 31.5899 83.0503 31.7176L83.398 32.1443C83.729 31.8747 83.8613 31.4356 83.7353 31.0281L83.2094 31.1907ZM83.0504 31.7175L75.7344 37.673L76.0819 38.0999L83.3979 32.1444L83.0504 31.7175ZM75.7345 37.6729C75.6401 37.7496 75.5313 37.786 75.4248 37.786V38.3365C75.6591 38.3365 75.8903 38.2557 76.0818 38.0999L75.7345 37.6729ZM42.0128 50.8844C41.9344 50.8844 41.871 50.821 41.871 50.7426H41.3205C41.3205 51.125 41.6304 51.4349 42.0128 51.4349V50.8844ZM41.871 50.7426V39.0707H41.3205V50.7426H41.871ZM41.871 39.0707C41.871 38.9924 41.9344 38.929 42.0128 38.929V38.3785C41.6304 38.3785 41.3205 38.6884 41.3205 39.0707H41.871ZM42.0128 38.929C42.0911 38.929 42.1546 38.9924 42.1546 39.0707H42.705C42.705 38.6884 42.3952 38.3785 42.0128 38.3785V38.929ZM42.1546 39.0707V50.7426H42.705V39.0707H42.1546ZM42.1546 50.7426C42.1546 50.821 42.0911 50.8844 42.0128 50.8844V51.4349C42.3952 51.4349 42.705 51.125 42.705 50.7426H42.1546ZM39.199 33.1946H36.1651V33.745H39.199V33.1946ZM36.1651 33.1946C36.0867 33.1946 36.0233 33.1311 36.0233 33.0528H35.4728C35.4728 33.4351 35.7827 33.745 36.1651 33.745V33.1946ZM36.0233 33.0528C36.0233 32.9744 36.0867 32.911 36.1651 32.911V32.3605C35.7827 32.3605 35.4728 32.6704 35.4728 33.0528H36.0233ZM36.1651 32.911H39.199V32.3605H36.1651V32.911ZM39.199 32.911C39.2774 32.911 39.3408 32.9744 39.3408 33.0528H39.8913C39.8913 32.6704 39.5814 32.3605 39.199 32.3605V32.911ZM39.3408 33.0528C39.3408 33.1311 39.2774 33.1946 39.199 33.1946V33.745C39.5814 33.745 39.8913 33.4351 39.8913 33.0528H39.3408ZM44.3373 33.1946H41.3034V33.745H44.3373V33.1946ZM41.3034 33.1946C41.225 33.1946 41.1616 33.1311 41.1616 33.0528H40.6111C40.6111 33.4351 40.921 33.745 41.3034 33.745V33.1946ZM41.1616 33.0528C41.1616 32.9744 41.225 32.911 41.3034 32.911V32.3605C40.921 32.3605 40.6111 32.6704 40.6111 33.0528H41.1616ZM41.3034 32.911H44.3373V32.3605H41.3034V32.911ZM44.3373 32.911C44.4157 32.911 44.4791 32.9744 44.4791 33.0528H45.0296C45.0296 32.6704 44.7197 32.3605 44.3373 32.3605V32.911ZM44.4791 33.0528C44.4791 33.1311 44.4157 33.1946 44.3373 33.1946V33.745C44.7197 33.745 45.0296 33.4351 45.0296 33.0528H44.4791ZM40.987 36.3753H36.2891V36.9258H40.987V36.3753ZM36.2891 36.3753C36.2109 36.3753 36.1473 36.3118 36.1473 36.2336H35.5969C35.5969 36.616 35.907 36.9258 36.2891 36.9258V36.3753ZM36.1473 36.2336C36.1473 36.1553 36.2109 36.0918 36.2891 36.0918V35.5413C35.907 35.5413 35.5969 35.8511 35.5969 36.2336H36.1473ZM36.2891 36.0918H40.987V35.5413H36.2891V36.0918ZM40.987 36.0918C41.0654 36.0918 41.1288 36.1552 41.1288 36.2336H41.6793C41.6793 35.8512 41.3694 35.5413 40.987 35.5413V36.0918ZM41.1288 36.2336C41.1288 36.3119 41.0654 36.3753 40.987 36.3753V36.9258C41.3694 36.9258 41.6793 36.6159 41.6793 36.2336H41.1288ZM44.4614 36.3753H42.7731V36.9258H44.4614V36.3753ZM42.7731 36.3753C42.6948 36.3753 42.6314 36.3119 42.6314 36.2336H42.0809C42.0809 36.6159 42.3908 36.9258 42.7731 36.9258V36.3753ZM42.6314 36.2336C42.6314 36.1552 42.6948 36.0918 42.7731 36.0918V35.5413C42.3908 35.5413 42.0809 35.8512 42.0809 36.2336H42.6314ZM42.7731 36.0918H44.4614V35.5413H42.7731V36.0918ZM44.4614 36.0918C44.5398 36.0918 44.6032 36.1552 44.6032 36.2336H45.1537C45.1537 35.8512 44.8438 35.5413 44.4614 35.5413V36.0918ZM44.6032 36.2336C44.6032 36.3119 44.5398 36.3753 44.4614 36.3753V36.9258C44.8438 36.9258 45.1537 36.6159 45.1537 36.2336H44.6032ZM76.363 52.9857C76.363 53.0709 76.2939 53.14 76.2087 53.14V53.6904C76.5979 53.6904 76.9135 53.3749 76.9135 52.9857H76.363ZM76.2087 53.14C76.1235 53.14 76.0544 53.0709 76.0544 52.9857H75.5039C75.5039 53.3749 75.8195 53.6904 76.2087 53.6904V53.14ZM76.0544 52.9857C76.0544 52.9005 76.1235 52.8314 76.2087 52.8314V52.2809C75.8195 52.2809 75.5039 52.5964 75.5039 52.9857H76.0544ZM76.2087 52.8314C76.2939 52.8314 76.363 52.9005 76.363 52.9857H76.9135C76.9135 52.5964 76.5979 52.2809 76.2087 52.2809V52.8314Z" fill="white" mask="url(#path-4-outside-1_122_7757)"/>
</g>
</svg>
