<svg width="107" height="107" viewBox="0 0 107 107" fill="none" xmlns="http://www.w3.org/2000/svg">
<circle cx="53.2981" cy="53.0286" r="49.388" fill="#FF7242"/>
<circle cx="53.2981" cy="53.0286" r="51.2004" stroke="#FFB39A" stroke-opacity="0.51" stroke-width="3.6248"/>
<mask id="mask0_122_7785" style="mask-type:alpha" maskUnits="userSpaceOnUse" x="21" y="19" width="64" height="64">
<rect x="21.8086" y="19.7266" width="62.3854" height="62.3854" fill="#D9D9D9"/>
</mask>
<g mask="url(#mask0_122_7785)">
<mask id="path-4-outside-1_122_7785" maskUnits="userSpaceOnUse" x="24.2695" y="22.3574" width="57" height="57" fill="black">
<rect fill="white" x="24.2695" y="22.3574" width="57" height="57"/>
<path d="M39.2357 24.3583C37.7591 24.3583 36.5577 25.5597 36.5577 27.0363V75.3474C36.5577 76.824 37.7591 78.0254 39.2357 78.0254H66.7815C68.2581 78.0254 69.4594 76.824 69.4594 75.3474V27.0363C69.4594 25.5597 68.2581 24.3583 66.7815 24.3583H39.2357ZM66.7815 79.0262H39.2357C37.2071 79.0262 35.5569 77.3758 35.5569 75.3474V27.0363C35.5569 25.0077 37.2071 23.3574 39.2357 23.3574H66.7815C68.8099 23.3574 70.4603 25.0077 70.4603 27.0363V75.3474C70.4603 77.3758 68.8099 79.0262 66.7815 79.0262Z"/>
<path d="M69.9599 31.7073H36.0573C35.7811 31.7073 35.5569 31.4833 35.5569 31.2069C35.5569 30.9305 35.7811 30.7064 36.0573 30.7064H69.9599C70.2363 30.7064 70.4603 30.9305 70.4603 31.2069C70.4603 31.4833 70.2363 31.7073 69.9599 31.7073Z"/>
<path d="M69.9599 71.7355H36.0573C35.7811 71.7355 35.5569 71.5115 35.5569 71.2351C35.5569 70.9587 35.7811 70.7347 36.0573 70.7347H69.9599C70.2363 70.7347 70.4603 70.9587 70.4603 71.2351C70.4603 71.5115 70.2363 71.7355 69.9599 71.7355Z"/>
<path d="M57.5332 27.9258H47.9411C47.6646 27.9258 47.4406 27.7018 47.4406 27.4254C47.4406 27.149 47.6646 26.925 47.9411 26.925H57.5332C57.8096 26.925 58.0336 27.149 58.0336 27.4254C58.0336 27.7018 57.8096 27.9258 57.5332 27.9258Z"/>
<path d="M56.8255 75.6092H49.1736C48.8972 75.6092 48.6732 75.3851 48.6732 75.1087C48.6732 74.8323 48.8972 74.6083 49.1736 74.6083H56.8255C57.1019 74.6083 57.3259 74.8323 57.3259 75.1087C57.3259 75.3851 57.1019 75.6092 56.8255 75.6092Z"/>
<path d="M40.0901 66.3176H44.1851V48.1065H40.0901V66.3176ZM45.1861 67.3185H39.0894V47.1056H45.1861V67.3185Z"/>
<path d="M61.5282 62.0418H65.6232V38.9104H61.5282V62.0418ZM66.6239 63.0427H60.5272V37.9095H66.6239V63.0427Z"/>
<path d="M61.0277 63.0427H44.6856C44.4092 63.0427 44.1852 62.8186 44.1852 62.5422C44.1852 62.2658 44.4092 62.0418 44.6856 62.0418H61.0277C61.3041 62.0418 61.5281 62.2658 61.5281 62.5422C61.5281 62.8186 61.3041 63.0427 61.0277 63.0427Z"/>
<path d="M48.9934 57.6488H57.0328V45.5292H48.9934V57.6488ZM58.0335 58.6497H47.9924V44.5284H58.0335V58.6497Z"/>
<path d="M52.9995 56.4238C52.7231 56.4238 52.499 56.1998 52.499 55.9234V48.3088C52.499 48.0324 52.7231 47.8084 52.9995 47.8084C53.2759 47.8084 53.4999 48.0324 53.4999 48.3088V55.9234C53.4999 56.1998 53.2759 56.4238 52.9995 56.4238Z"/>
<path d="M28.2781 28.8895L28.2783 28.8899L28.2781 28.8895ZM26.4347 31.2069L27.8736 31.7393L28.4061 33.1784L28.9385 31.7393L30.3774 31.2069L28.9385 30.6744L28.4061 29.2352L27.8736 30.6744L26.4347 31.2069ZM28.4061 34.3434C28.0798 34.3434 27.7955 34.1456 27.6823 33.8395L27.1667 32.4461L25.7735 31.9306C25.4674 31.8174 25.2695 31.5333 25.2695 31.2069C25.2695 30.8804 25.4674 30.5962 25.7736 30.4831L27.1667 29.9675L27.6823 28.5743C27.7955 28.268 28.0798 28.0703 28.4061 28.0703C28.7325 28.0703 29.0166 28.268 29.1299 28.5741L29.6455 29.9675L31.0387 30.4831C31.3448 30.5962 31.5426 30.8804 31.5426 31.2069C31.5426 31.5333 31.3448 31.8174 31.0385 31.9306L29.6455 32.4461L29.1299 33.8395C29.0166 34.1456 28.7325 34.3434 28.4061 34.3434Z"/>
<path d="M26.4345 48.3089L27.8736 48.8413L28.406 50.2806L28.9386 48.8413L30.3777 48.3089L28.9386 47.7764L28.406 46.3373L27.8736 47.7764L26.4345 48.3089ZM28.406 51.4454C28.0797 51.4454 27.7955 51.2477 27.6822 50.9416L27.1668 49.5483L25.7736 49.0327C25.4673 48.9194 25.2696 48.6353 25.2696 48.3089C25.2696 47.9824 25.4673 47.6983 25.7736 47.5851L27.1668 47.0695L27.6822 45.6763C27.7955 45.3702 28.0797 45.1723 28.406 45.1723C28.7325 45.1723 29.0165 45.3702 29.13 45.6763L29.6454 47.0695L31.0386 47.5851C31.3449 47.6983 31.5426 47.9824 31.5426 48.3089C31.5426 48.6353 31.3449 48.9194 31.0386 49.0327L29.6454 49.5483L29.13 50.9415C29.0165 51.2477 28.7325 51.4454 28.406 51.4454Z"/>
<path d="M26.5065 65.411L27.893 65.9241L28.4061 67.3103L28.9191 65.9241L30.3056 65.411L28.9191 64.8979L28.4061 63.5115L27.893 64.8979L26.5065 65.411ZM28.4061 68.4329C28.0915 68.4329 27.8178 68.2422 27.7087 67.9473L27.2119 66.605L25.8696 66.1082C25.5747 65.9991 25.3842 65.7254 25.3842 65.411C25.3842 65.0964 25.5747 64.8226 25.8696 64.7135L27.2119 64.2169L27.7087 62.8746C27.8178 62.5795 28.0915 62.389 28.4061 62.389C28.7206 62.389 28.9943 62.5795 29.1034 62.8746L29.6001 64.2169L30.9425 64.7135C31.2374 64.8226 31.4281 65.0964 31.4281 65.411C31.4281 65.7254 31.2374 65.9991 30.9425 66.1082L29.6001 66.605L29.1034 67.9473C28.9945 68.2422 28.7206 68.4329 28.4061 68.4329Z"/>
<path d="M75.9976 75.1087L77.3559 75.6113L77.8585 76.9698L78.3611 75.6113L79.7194 75.1087L78.3611 74.6062L77.8585 73.2477L77.3559 74.6062L75.9976 75.1087ZM77.8585 78.0691C77.5504 78.0691 77.2823 77.8824 77.1752 77.5935L76.6887 76.2785L75.3737 75.7919C75.0848 75.6848 74.8981 75.4168 74.8981 75.1087C74.8981 74.8007 75.0848 74.5325 75.3737 74.4256L76.6887 73.939L77.1752 72.624C77.2823 72.3349 77.5504 72.1483 77.8585 72.1483C78.1666 72.1483 78.4348 72.3349 78.5418 72.624L79.0283 73.939L80.3433 74.4256C80.6324 74.5325 80.8191 74.8007 80.8191 75.1087C80.8191 75.4168 80.6324 75.6848 80.3433 75.7919L79.0283 76.2785L78.5418 77.5935C78.4348 77.8824 78.1666 78.0691 77.8585 78.0691Z"/>
<path d="M76.1241 45.0287L77.39 45.4971L77.8586 46.7631L78.3271 45.4971L79.593 45.0287L78.3271 44.5603L77.8586 43.2944L77.39 44.5603L76.1241 45.0287ZM77.8584 47.7879C77.5713 47.7879 77.3214 47.6138 77.2218 47.3444L76.7683 46.119L75.5427 45.6656C75.2732 45.5657 75.0993 45.3158 75.0993 45.0286C75.0993 44.7415 75.2733 44.4916 75.5427 44.392L76.7683 43.9385L77.2218 42.7129C77.3214 42.4437 77.5713 42.2695 77.8584 42.2695C78.1456 42.2695 78.3955 42.4435 78.4953 42.7129L78.9487 43.9385L80.1744 44.392C80.4436 44.4916 80.6176 44.7415 80.6176 45.0286C80.6176 45.3158 80.4438 45.5657 80.1745 45.6654L78.9487 46.119L78.4953 47.3446C78.3957 47.6138 78.1458 47.7879 77.8584 47.7879Z"/>
</mask>
<path d="M39.2357 24.3583C37.7591 24.3583 36.5577 25.5597 36.5577 27.0363V75.3474C36.5577 76.824 37.7591 78.0254 39.2357 78.0254H66.7815C68.2581 78.0254 69.4594 76.824 69.4594 75.3474V27.0363C69.4594 25.5597 68.2581 24.3583 66.7815 24.3583H39.2357ZM66.7815 79.0262H39.2357C37.2071 79.0262 35.5569 77.3758 35.5569 75.3474V27.0363C35.5569 25.0077 37.2071 23.3574 39.2357 23.3574H66.7815C68.8099 23.3574 70.4603 25.0077 70.4603 27.0363V75.3474C70.4603 77.3758 68.8099 79.0262 66.7815 79.0262Z" fill="white"/>
<path d="M69.9599 31.7073H36.0573C35.7811 31.7073 35.5569 31.4833 35.5569 31.2069C35.5569 30.9305 35.7811 30.7064 36.0573 30.7064H69.9599C70.2363 30.7064 70.4603 30.9305 70.4603 31.2069C70.4603 31.4833 70.2363 31.7073 69.9599 31.7073Z" fill="white"/>
<path d="M69.9599 71.7355H36.0573C35.7811 71.7355 35.5569 71.5115 35.5569 71.2351C35.5569 70.9587 35.7811 70.7347 36.0573 70.7347H69.9599C70.2363 70.7347 70.4603 70.9587 70.4603 71.2351C70.4603 71.5115 70.2363 71.7355 69.9599 71.7355Z" fill="white"/>
<path d="M57.5332 27.9258H47.9411C47.6646 27.9258 47.4406 27.7018 47.4406 27.4254C47.4406 27.149 47.6646 26.925 47.9411 26.925H57.5332C57.8096 26.925 58.0336 27.149 58.0336 27.4254C58.0336 27.7018 57.8096 27.9258 57.5332 27.9258Z" fill="white"/>
<path d="M56.8255 75.6092H49.1736C48.8972 75.6092 48.6732 75.3851 48.6732 75.1087C48.6732 74.8323 48.8972 74.6083 49.1736 74.6083H56.8255C57.1019 74.6083 57.3259 74.8323 57.3259 75.1087C57.3259 75.3851 57.1019 75.6092 56.8255 75.6092Z" fill="white"/>
<path d="M40.0901 66.3176H44.1851V48.1065H40.0901V66.3176ZM45.1861 67.3185H39.0894V47.1056H45.1861V67.3185Z" fill="white"/>
<path d="M61.5282 62.0418H65.6232V38.9104H61.5282V62.0418ZM66.6239 63.0427H60.5272V37.9095H66.6239V63.0427Z" fill="white"/>
<path d="M61.0277 63.0427H44.6856C44.4092 63.0427 44.1852 62.8186 44.1852 62.5422C44.1852 62.2658 44.4092 62.0418 44.6856 62.0418H61.0277C61.3041 62.0418 61.5281 62.2658 61.5281 62.5422C61.5281 62.8186 61.3041 63.0427 61.0277 63.0427Z" fill="white"/>
<path d="M48.9934 57.6488H57.0328V45.5292H48.9934V57.6488ZM58.0335 58.6497H47.9924V44.5284H58.0335V58.6497Z" fill="white"/>
<path d="M52.9995 56.4238C52.7231 56.4238 52.499 56.1998 52.499 55.9234V48.3088C52.499 48.0324 52.7231 47.8084 52.9995 47.8084C53.2759 47.8084 53.4999 48.0324 53.4999 48.3088V55.9234C53.4999 56.1998 53.2759 56.4238 52.9995 56.4238Z" fill="white"/>
<path d="M28.2781 28.8895L28.2783 28.8899L28.2781 28.8895ZM26.4347 31.2069L27.8736 31.7393L28.4061 33.1784L28.9385 31.7393L30.3774 31.2069L28.9385 30.6744L28.4061 29.2352L27.8736 30.6744L26.4347 31.2069ZM28.4061 34.3434C28.0798 34.3434 27.7955 34.1456 27.6823 33.8395L27.1667 32.4461L25.7735 31.9306C25.4674 31.8174 25.2695 31.5333 25.2695 31.2069C25.2695 30.8804 25.4674 30.5962 25.7736 30.4831L27.1667 29.9675L27.6823 28.5743C27.7955 28.268 28.0798 28.0703 28.4061 28.0703C28.7325 28.0703 29.0166 28.268 29.1299 28.5741L29.6455 29.9675L31.0387 30.4831C31.3448 30.5962 31.5426 30.8804 31.5426 31.2069C31.5426 31.5333 31.3448 31.8174 31.0385 31.9306L29.6455 32.4461L29.1299 33.8395C29.0166 34.1456 28.7325 34.3434 28.4061 34.3434Z" fill="white"/>
<path d="M26.4345 48.3089L27.8736 48.8413L28.406 50.2806L28.9386 48.8413L30.3777 48.3089L28.9386 47.7764L28.406 46.3373L27.8736 47.7764L26.4345 48.3089ZM28.406 51.4454C28.0797 51.4454 27.7955 51.2477 27.6822 50.9416L27.1668 49.5483L25.7736 49.0327C25.4673 48.9194 25.2696 48.6353 25.2696 48.3089C25.2696 47.9824 25.4673 47.6983 25.7736 47.5851L27.1668 47.0695L27.6822 45.6763C27.7955 45.3702 28.0797 45.1723 28.406 45.1723C28.7325 45.1723 29.0165 45.3702 29.13 45.6763L29.6454 47.0695L31.0386 47.5851C31.3449 47.6983 31.5426 47.9824 31.5426 48.3089C31.5426 48.6353 31.3449 48.9194 31.0386 49.0327L29.6454 49.5483L29.13 50.9415C29.0165 51.2477 28.7325 51.4454 28.406 51.4454Z" fill="white"/>
<path d="M26.5065 65.411L27.893 65.9241L28.4061 67.3103L28.9191 65.9241L30.3056 65.411L28.9191 64.8979L28.4061 63.5115L27.893 64.8979L26.5065 65.411ZM28.4061 68.4329C28.0915 68.4329 27.8178 68.2422 27.7087 67.9473L27.2119 66.605L25.8696 66.1082C25.5747 65.9991 25.3842 65.7254 25.3842 65.411C25.3842 65.0964 25.5747 64.8226 25.8696 64.7135L27.2119 64.2169L27.7087 62.8746C27.8178 62.5795 28.0915 62.389 28.4061 62.389C28.7206 62.389 28.9943 62.5795 29.1034 62.8746L29.6001 64.2169L30.9425 64.7135C31.2374 64.8226 31.4281 65.0964 31.4281 65.411C31.4281 65.7254 31.2374 65.9991 30.9425 66.1082L29.6001 66.605L29.1034 67.9473C28.9945 68.2422 28.7206 68.4329 28.4061 68.4329Z" fill="white"/>
<path d="M75.9976 75.1087L77.3559 75.6113L77.8585 76.9698L78.3611 75.6113L79.7194 75.1087L78.3611 74.6062L77.8585 73.2477L77.3559 74.6062L75.9976 75.1087ZM77.8585 78.0691C77.5504 78.0691 77.2823 77.8824 77.1752 77.5935L76.6887 76.2785L75.3737 75.7919C75.0848 75.6848 74.8981 75.4168 74.8981 75.1087C74.8981 74.8007 75.0848 74.5325 75.3737 74.4256L76.6887 73.939L77.1752 72.624C77.2823 72.3349 77.5504 72.1483 77.8585 72.1483C78.1666 72.1483 78.4348 72.3349 78.5418 72.624L79.0283 73.939L80.3433 74.4256C80.6324 74.5325 80.8191 74.8007 80.8191 75.1087C80.8191 75.4168 80.6324 75.6848 80.3433 75.7919L79.0283 76.2785L78.5418 77.5935C78.4348 77.8824 78.1666 78.0691 77.8585 78.0691Z" fill="white"/>
<path d="M76.1241 45.0287L77.39 45.4971L77.8586 46.7631L78.3271 45.4971L79.593 45.0287L78.3271 44.5603L77.8586 43.2944L77.39 44.5603L76.1241 45.0287ZM77.8584 47.7879C77.5713 47.7879 77.3214 47.6138 77.2218 47.3444L76.7683 46.119L75.5427 45.6656C75.2732 45.5657 75.0993 45.3158 75.0993 45.0286C75.0993 44.7415 75.2733 44.4916 75.5427 44.392L76.7683 43.9385L77.2218 42.7129C77.3214 42.4437 77.5713 42.2695 77.8584 42.2695C78.1456 42.2695 78.3955 42.4435 78.4953 42.7129L78.9487 43.9385L80.1744 44.392C80.4436 44.4916 80.6176 44.7415 80.6176 45.0286C80.6176 45.3158 80.4438 45.5657 80.1745 45.6654L78.9487 46.119L78.4953 47.3446C78.3957 47.6138 78.1458 47.7879 77.8584 47.7879Z" fill="white"/>
<path d="M30.6389 65.6719H30.6405V65.3966H30.6389V65.6719ZM77.6404 73.0188L77.6406 73.0189L77.8352 72.8243L77.835 72.8241L77.6404 73.0188ZM80.0459 75.3672H80.0476V75.092H80.0459V75.3672ZM79.8971 45.2789H79.8988V45.0037H79.8971V45.2789ZM40.0901 66.3176H39.8148V66.5929H40.0901V66.3176ZM44.1851 66.3176V66.5929H44.4603V66.3176H44.1851ZM44.1851 48.1065H44.4603V47.8312H44.1851V48.1065ZM40.0901 48.1065V47.8312H39.8148V48.1065H40.0901ZM45.1861 67.3185V67.5937H45.4613V67.3185H45.1861ZM39.0894 67.3185H38.8141V67.5937H39.0894V67.3185ZM39.0894 47.1056V46.8304H38.8141V47.1056H39.0894ZM45.1861 47.1056H45.4613V46.8304H45.1861V47.1056ZM61.5282 62.0418H61.253V62.317H61.5282V62.0418ZM65.6232 62.0418V62.317H65.8985V62.0418H65.6232ZM65.6232 38.9104H65.8985V38.6351H65.6232V38.9104ZM61.5282 38.9104V38.6351H61.253V38.9104H61.5282ZM66.6239 63.0427V63.3179H66.8992V63.0427H66.6239ZM60.5272 63.0427H60.2519V63.3179H60.5272V63.0427ZM60.5272 37.9095V37.6343H60.2519V37.9095H60.5272ZM66.6239 37.9095H66.8992V37.6343H66.6239V37.9095ZM48.9934 57.6488H48.7182V57.9241H48.9934V57.6488ZM57.0328 57.6488V57.9241H57.3081V57.6488H57.0328ZM57.0328 45.5292H57.3081V45.254H57.0328V45.5292ZM48.9934 45.5292V45.254H48.7182V45.5292H48.9934ZM58.0335 58.6497V58.9249H58.3088V58.6497H58.0335ZM47.9924 58.6497H47.7171V58.9249H47.9924V58.6497ZM47.9924 44.5284V44.2531H47.7171V44.5284H47.9924ZM58.0335 44.5284H58.3088V44.2531H58.0335V44.5284ZM26.4347 31.2069L26.3392 30.9487L25.6416 31.2069L26.3392 31.465L26.4347 31.2069ZM27.8736 31.7393L28.1317 31.6438L28.0878 31.5251L27.9691 31.4812L27.8736 31.7393ZM28.4061 33.1784L28.1479 33.2739L28.4061 33.9716L28.6642 33.2739L28.4061 33.1784ZM28.9385 31.7393L28.843 31.4812L28.7243 31.5251L28.6804 31.6438L28.9385 31.7393ZM30.3774 31.2069L30.473 31.465L31.1705 31.2069L30.473 30.9487L30.3774 31.2069ZM28.9385 30.6744L28.6804 30.7699L28.7243 30.8886L28.843 30.9325L28.9385 30.6744ZM28.4061 29.2352L28.6642 29.1397L28.4061 28.4419L28.1479 29.1397L28.4061 29.2352ZM27.8736 30.6744L27.9691 30.9325L28.0878 30.8886L28.1317 30.7699L27.8736 30.6744ZM27.6823 33.8395L27.9404 33.7439L27.9404 33.7439L27.6823 33.8395ZM27.1667 32.4461L27.4248 32.3506L27.3809 32.2319L27.2622 32.188L27.1667 32.4461ZM25.7735 31.9306L25.6779 32.1888L25.678 32.1888L25.7735 31.9306ZM25.7736 30.4831L25.869 30.7413L25.8692 30.7412L25.7736 30.4831ZM27.1667 29.9675L27.2622 30.2256L27.3809 30.1817L27.4248 30.063L27.1667 29.9675ZM27.6823 28.5743L27.9404 28.6698L27.9404 28.6697L27.6823 28.5743ZM29.1299 28.5741L28.8717 28.6696L28.8717 28.6696L29.1299 28.5741ZM29.6455 29.9675L29.3873 30.063L29.4313 30.1817L29.5499 30.2256L29.6455 29.9675ZM31.0387 30.4831L30.9431 30.7412L30.9433 30.7412L31.0387 30.4831ZM31.0385 31.9306L30.943 31.6725L30.943 31.6725L31.0385 31.9306ZM29.6455 32.4461L29.55 32.188L29.4313 32.2319L29.3873 32.3506L29.6455 32.4461ZM29.1299 33.8395L28.8717 33.7439L28.8717 33.7439L29.1299 33.8395ZM26.4345 48.3089L26.339 48.0507L25.6413 48.3089L26.339 48.567L26.4345 48.3089ZM27.8736 48.8413L28.1317 48.7458L28.0878 48.6271L27.9691 48.5832L27.8736 48.8413ZM28.406 50.2806L28.1479 50.3761L28.406 51.0737L28.6641 50.3761L28.406 50.2806ZM28.9386 48.8413L28.8431 48.5832L28.7244 48.6271L28.6805 48.7458L28.9386 48.8413ZM30.3777 48.3089L30.4732 48.567L31.1709 48.3089L30.4732 48.0507L30.3777 48.3089ZM28.9386 47.7764L28.6805 47.8719L28.7244 47.9906L28.8431 48.0345L28.9386 47.7764ZM28.406 46.3373L28.6641 46.2418L28.406 45.5443L28.1479 46.2418L28.406 46.3373ZM27.8736 47.7764L27.9691 48.0345L28.0878 47.9906L28.1317 47.8719L27.8736 47.7764ZM27.6822 50.9416L27.4241 51.0371L27.4241 51.0371L27.6822 50.9416ZM27.1668 49.5483L27.4249 49.4528L27.381 49.3341L27.2623 49.2901L27.1668 49.5483ZM25.7736 49.0327L25.8691 48.7745L25.8691 48.7745L25.7736 49.0327ZM25.7736 47.5851L25.8691 47.8432L25.8691 47.8432L25.7736 47.5851ZM27.1668 47.0695L27.2623 47.3276L27.381 47.2837L27.4249 47.165L27.1668 47.0695ZM27.6822 45.6763L27.4241 45.5807L27.4241 45.5808L27.6822 45.6763ZM29.13 45.6763L29.3881 45.5808L29.3881 45.5806L29.13 45.6763ZM29.6454 47.0695L29.3873 47.165L29.4312 47.2837L29.5499 47.3276L29.6454 47.0695ZM31.0386 47.5851L30.9431 47.8432L30.9431 47.8432L31.0386 47.5851ZM31.0386 49.0327L30.9431 48.7745L30.9431 48.7745L31.0386 49.0327ZM29.6454 49.5483L29.5499 49.2901L29.4312 49.3341L29.3873 49.4528L29.6454 49.5483ZM29.13 50.9415L29.3881 51.0371L29.3881 51.037L29.13 50.9415ZM26.5065 65.411L26.411 65.1528L25.7134 65.411L26.411 65.6691L26.5065 65.411ZM27.893 65.9241L28.1511 65.8285L28.1072 65.7099L27.9885 65.6659L27.893 65.9241ZM28.4061 67.3103L28.148 67.4058L28.4062 68.1033L28.6642 67.4058L28.4061 67.3103ZM28.9191 65.9241L28.8235 65.6659L28.7048 65.7099L28.6609 65.8286L28.9191 65.9241ZM30.3056 65.411L30.4011 65.6691L31.0986 65.411L30.4011 65.1528L30.3056 65.411ZM28.9191 64.8979L28.6609 64.9934L28.7048 65.1121L28.8235 65.156L28.9191 64.8979ZM28.4061 63.5115L28.6643 63.416L28.4062 62.7184L28.148 63.416L28.4061 63.5115ZM27.893 64.8979L27.9885 65.156L28.1072 65.1121L28.1511 64.9934L27.893 64.8979ZM27.7087 67.9473L27.9668 67.8518L27.9668 67.8518L27.7087 67.9473ZM27.2119 66.605L27.47 66.5095L27.4261 66.3908L27.3074 66.3469L27.2119 66.605ZM25.8696 66.1082L25.9651 65.8501L25.9651 65.8501L25.8696 66.1082ZM25.8696 64.7135L25.9651 64.9717L25.9651 64.9717L25.8696 64.7135ZM27.2119 64.2169L27.3074 64.4751L27.4261 64.4312L27.47 64.3125L27.2119 64.2169ZM27.7087 62.8746L27.9668 62.9701L27.9668 62.9701L27.7087 62.8746ZM29.1034 62.8746L28.8452 62.9701L28.8453 62.9701L29.1034 62.8746ZM29.6001 64.2169L29.342 64.3125L29.3859 64.4312L29.5046 64.4751L29.6001 64.2169ZM30.9425 64.7135L30.847 64.9717L30.847 64.9717L30.9425 64.7135ZM30.9425 66.1082L30.847 65.8501L30.8469 65.8501L30.9425 66.1082ZM29.6001 66.605L29.5046 66.3469L29.3859 66.3908L29.342 66.5095L29.6001 66.605ZM29.1034 67.9473L28.8453 67.8518L28.8452 67.852L29.1034 67.9473ZM75.9976 75.1087L75.9021 74.8505L75.2043 75.1086L75.9021 75.3668L75.9976 75.1087ZM77.3559 75.6113L77.614 75.5158L77.5701 75.3971L77.4514 75.3531L77.3559 75.6113ZM77.8585 76.9698L77.6004 77.0653L77.8585 77.763L78.1166 77.0653L77.8585 76.9698ZM78.3611 75.6113L78.2656 75.3531L78.1469 75.3971L78.103 75.5158L78.3611 75.6113ZM79.7194 75.1087L79.815 75.3668L80.5127 75.1086L79.8149 74.8505L79.7194 75.1087ZM78.3611 74.6062L78.103 74.7017L78.1469 74.8205L78.2656 74.8644L78.3611 74.6062ZM77.8585 73.2477L78.1166 73.1522L77.8585 72.4545L77.6004 73.1522L77.8585 73.2477ZM77.3559 74.6062L77.4514 74.8644L77.5701 74.8205L77.614 74.7017L77.3559 74.6062ZM77.1752 77.5935L76.9171 77.689L76.9172 77.6891L77.1752 77.5935ZM76.6887 76.2785L76.9468 76.183L76.9029 76.0643L76.7842 76.0204L76.6887 76.2785ZM75.3737 75.7919L75.278 76.05L75.2782 76.0501L75.3737 75.7919ZM75.3737 74.4256L75.2782 74.1674L75.2782 74.1675L75.3737 74.4256ZM76.6887 73.939L76.7842 74.1971L76.9029 74.1532L76.9468 74.0345L76.6887 73.939ZM77.1752 72.624L76.9172 72.5284L76.9171 72.5285L77.1752 72.624ZM78.5418 72.624L78.2836 72.7195L78.2836 72.7195L78.5418 72.624ZM79.0283 73.939L78.7702 74.0345L78.8141 74.1532L78.9328 74.1971L79.0283 73.939ZM80.3433 74.4256L80.2478 74.6837L80.2478 74.6837L80.3433 74.4256ZM80.3433 75.7919L80.4388 76.0501L80.4389 76.05L80.3433 75.7919ZM79.0283 76.2785L78.9328 76.0204L78.8141 76.0643L78.7702 76.183L79.0283 76.2785ZM78.5418 77.5935L78.7999 77.689L78.7999 77.689L78.5418 77.5935ZM76.1241 45.0287L76.0285 44.7706L75.3309 45.0287L76.0285 45.2869L76.1241 45.0287ZM77.39 45.4971L77.6481 45.4016L77.6042 45.2829L77.4855 45.239L77.39 45.4971ZM77.8586 46.7631L77.6004 46.8586L77.8586 47.556L78.1167 46.8586L77.8586 46.7631ZM78.3271 45.4971L78.2316 45.239L78.1129 45.2829L78.069 45.4016L78.3271 45.4971ZM79.593 45.0287L79.6886 45.2869L80.3862 45.0287L79.6886 44.7706L79.593 45.0287ZM78.3271 44.5603L78.069 44.6559L78.1129 44.7745L78.2316 44.8185L78.3271 44.5603ZM77.8586 43.2944L78.1167 43.1989L77.8586 42.5015L77.6004 43.1989L77.8586 43.2944ZM77.39 44.5603L77.4855 44.8185L77.6042 44.7745L77.6481 44.6559L77.39 44.5603ZM77.2218 47.3444L77.48 47.249L77.48 47.2489L77.2218 47.3444ZM76.7683 46.119L77.0264 46.0235L76.9825 45.9048L76.8638 45.8609L76.7683 46.119ZM75.5427 45.6656L75.4471 45.9237L75.4472 45.9238L75.5427 45.6656ZM75.5427 44.392L75.6382 44.6502L75.6383 44.6501L75.5427 44.392ZM76.7683 43.9385L76.8638 44.1966L76.9825 44.1527L77.0264 44.034L76.7683 43.9385ZM77.2218 42.7129L77.48 42.8084L77.48 42.8084L77.2218 42.7129ZM78.4953 42.7129L78.7534 42.6174L78.7534 42.6173L78.4953 42.7129ZM78.9487 43.9385L78.6905 44.034L78.7344 44.1527L78.8531 44.1966L78.9487 43.9385ZM80.1744 44.392L80.0789 44.6502L80.0789 44.6502L80.1744 44.392ZM80.1745 45.6654L80.2701 45.9236L80.2702 45.9235L80.1745 45.6654ZM78.9487 46.119L78.8532 45.8609L78.7344 45.9048L78.6905 46.0235L78.9487 46.119ZM78.4953 47.3446L78.2371 47.2491L78.2371 47.2491L78.4953 47.3446ZM39.2357 24.083C37.6071 24.083 36.2825 25.4076 36.2825 27.0363H36.833C36.833 25.7117 37.9111 24.6335 39.2357 24.6335V24.083ZM36.2825 27.0363V75.3474H36.833V27.0363H36.2825ZM36.2825 75.3474C36.2825 76.976 37.6071 78.3006 39.2357 78.3006V77.7501C37.9111 77.7501 36.833 76.672 36.833 75.3474H36.2825ZM39.2357 78.3006H66.7815V77.7501H39.2357V78.3006ZM66.7815 78.3006C68.4101 78.3006 69.7347 76.976 69.7347 75.3474H69.1842C69.1842 76.672 68.1061 77.7501 66.7815 77.7501V78.3006ZM69.7347 75.3474V27.0363H69.1842V75.3474H69.7347ZM69.7347 27.0363C69.7347 25.4076 68.4101 24.083 66.7815 24.083V24.6335C68.1061 24.6335 69.1842 25.7117 69.1842 27.0363H69.7347ZM66.7815 24.083H39.2357V24.6335H66.7815V24.083ZM66.7815 78.751H39.2357V79.3015H66.7815V78.751ZM39.2357 78.751C37.3592 78.751 35.8321 77.2238 35.8321 75.3474H35.2816C35.2816 77.5278 37.0551 79.3015 39.2357 79.3015V78.751ZM35.8321 75.3474V27.0363H35.2816V75.3474H35.8321ZM35.8321 27.0363C35.8321 25.1597 37.3591 23.6327 39.2357 23.6327V23.0822C37.0551 23.0822 35.2816 24.8557 35.2816 27.0363H35.8321ZM39.2357 23.6327H66.7815V23.0822H39.2357V23.6327ZM66.7815 23.6327C68.6579 23.6327 70.1851 25.1597 70.1851 27.0363H70.7355C70.7355 24.8557 68.9619 23.0822 66.7815 23.0822V23.6327ZM70.1851 27.0363V75.3474H70.7355V27.0363H70.1851ZM70.1851 75.3474C70.1851 77.2238 68.6579 78.751 66.7815 78.751V79.3015C68.9619 79.3015 70.7355 77.5278 70.7355 75.3474H70.1851ZM69.9599 31.4321H36.0573V31.9825H69.9599V31.4321ZM36.0573 31.4321C35.933 31.4321 35.8321 31.3312 35.8321 31.2069H35.2817C35.2817 31.6353 35.6291 31.9825 36.0573 31.9825V31.4321ZM35.8321 31.2069C35.8321 31.0825 35.933 30.9817 36.0573 30.9817V30.4312C35.6291 30.4312 35.2817 30.7784 35.2817 31.2069H35.8321ZM36.0573 30.9817H69.9599V30.4312H36.0573V30.9817ZM69.9599 30.9817C70.0843 30.9817 70.1851 31.0825 70.1851 31.2069H70.7355C70.7355 30.7785 70.3883 30.4312 69.9599 30.4312V30.9817ZM70.1851 31.2069C70.1851 31.3313 70.0843 31.4321 69.9599 31.4321V31.9825C70.3883 31.9825 70.7355 31.6353 70.7355 31.2069H70.1851ZM69.9599 71.4603H36.0573V72.0108H69.9599V71.4603ZM36.0573 71.4603C35.933 71.4603 35.8321 71.3594 35.8321 71.2351H35.2817C35.2817 71.6636 35.6291 72.0108 36.0573 72.0108V71.4603ZM35.8321 71.2351C35.8321 71.1108 35.933 71.0099 36.0573 71.0099V70.4594C35.6291 70.4594 35.2817 70.8066 35.2817 71.2351H35.8321ZM36.0573 71.0099H69.9599V70.4594H36.0573V71.0099ZM69.9599 71.0099C70.0843 71.0099 70.1851 71.1107 70.1851 71.2351H70.7355C70.7355 70.8067 70.3883 70.4594 69.9599 70.4594V71.0099ZM70.1851 71.2351C70.1851 71.3595 70.0843 71.4603 69.9599 71.4603V72.0108C70.3883 72.0108 70.7355 71.6635 70.7355 71.2351H70.1851ZM57.5332 27.6506H47.9411V28.2011H57.5332V27.6506ZM47.9411 27.6506C47.8167 27.6506 47.7159 27.5498 47.7159 27.4254H47.1654C47.1654 27.8538 47.5126 28.2011 47.9411 28.2011V27.6506ZM47.7159 27.4254C47.7159 27.301 47.8167 27.2002 47.9411 27.2002V26.6497C47.5126 26.6497 47.1654 26.997 47.1654 27.4254H47.7159ZM47.9411 27.2002H57.5332V26.6497H47.9411V27.2002ZM57.5332 27.2002C57.6576 27.2002 57.7584 27.301 57.7584 27.4254H58.3088C58.3088 26.997 57.9616 26.6497 57.5332 26.6497V27.2002ZM57.7584 27.4254C57.7584 27.5498 57.6576 27.6506 57.5332 27.6506V28.2011C57.9616 28.2011 58.3088 27.8538 58.3088 27.4254H57.7584ZM56.8255 75.3339H49.1736V75.8844H56.8255V75.3339ZM49.1736 75.3339C49.0492 75.3339 48.9484 75.2331 48.9484 75.1087H48.3979C48.3979 75.5371 48.7452 75.8844 49.1736 75.8844V75.3339ZM48.9484 75.1087C48.9484 74.9843 49.0492 74.8835 49.1736 74.8835V74.3331C48.7452 74.3331 48.3979 74.6803 48.3979 75.1087H48.9484ZM49.1736 74.8835H56.8255V74.3331H49.1736V74.8835ZM56.8255 74.8835C56.9499 74.8835 57.0507 74.9843 57.0507 75.1087H57.6012C57.6012 74.6803 57.2539 74.3331 56.8255 74.3331V74.8835ZM57.0507 75.1087C57.0507 75.2331 56.9499 75.3339 56.8255 75.3339V75.8844C57.2539 75.8844 57.6012 75.5371 57.6012 75.1087H57.0507ZM40.0901 66.5929H44.1851V66.0424H40.0901V66.5929ZM44.4603 66.3176V48.1065H43.9098V66.3176H44.4603ZM44.1851 47.8312H40.0901V48.3817H44.1851V47.8312ZM39.8148 48.1065V66.3176H40.3653V48.1065H39.8148ZM45.1861 67.0433H39.0894V67.5937H45.1861V67.0433ZM39.3646 67.3185V47.1056H38.8141V67.3185H39.3646ZM39.0894 47.3808H45.1861V46.8304H39.0894V47.3808ZM44.9109 47.1056V67.3185H45.4613V47.1056H44.9109ZM61.5282 62.317H65.6232V61.7666H61.5282V62.317ZM65.8985 62.0418V38.9104H65.348V62.0418H65.8985ZM65.6232 38.6351H61.5282V39.1856H65.6232V38.6351ZM61.253 38.9104V62.0418H61.8034V38.9104H61.253ZM66.6239 62.7674H60.5272V63.3179H66.6239V62.7674ZM60.8024 63.0427V37.9095H60.2519V63.0427H60.8024ZM60.5272 38.1847H66.6239V37.6343H60.5272V38.1847ZM66.3487 37.9095V63.0427H66.8992V37.9095H66.3487ZM61.0277 62.7674H44.6856V63.3179H61.0277V62.7674ZM44.6856 62.7674C44.5612 62.7674 44.4604 62.6666 44.4604 62.5422H43.9099C43.9099 62.9706 44.2572 63.3179 44.6856 63.3179V62.7674ZM44.4604 62.5422C44.4604 62.4178 44.5612 62.317 44.6856 62.317V61.7666C44.2572 61.7666 43.9099 62.1138 43.9099 62.5422H44.4604ZM44.6856 62.317H61.0277V61.7666H44.6856V62.317ZM61.0277 62.317C61.1521 62.317 61.2529 62.4178 61.2529 62.5422H61.8034C61.8034 62.1138 61.4561 61.7666 61.0277 61.7666V62.317ZM61.2529 62.5422C61.2529 62.6666 61.1521 62.7674 61.0277 62.7674V63.3179C61.4561 63.3179 61.8034 62.9706 61.8034 62.5422H61.2529ZM48.9934 57.9241H57.0328V57.3736H48.9934V57.9241ZM57.3081 57.6488V45.5292H56.7576V57.6488H57.3081ZM57.0328 45.254H48.9934V45.8045H57.0328V45.254ZM48.7182 45.5292V57.6488H49.2686V45.5292H48.7182ZM58.0335 58.3745H47.9924V58.9249H58.0335V58.3745ZM48.2676 58.6497V44.5284H47.7171V58.6497H48.2676ZM47.9924 44.8036H58.0335V44.2531H47.9924V44.8036ZM57.7583 44.5284V58.6497H58.3088V44.5284H57.7583ZM52.9995 56.1486C52.8751 56.1486 52.7743 56.0478 52.7743 55.9234H52.2238C52.2238 56.3518 52.571 56.6991 52.9995 56.6991V56.1486ZM52.7743 55.9234V48.3088H52.2238V55.9234H52.7743ZM52.7743 48.3088C52.7743 48.1844 52.8751 48.0836 52.9995 48.0836V47.5332C52.571 47.5332 52.2238 47.8804 52.2238 48.3088H52.7743ZM52.9995 48.0836C53.1239 48.0836 53.2247 48.1844 53.2247 48.3088H53.7751C53.7751 47.8804 53.4279 47.5332 52.9995 47.5332V48.0836ZM53.2247 48.3088V55.9234H53.7751V48.3088H53.2247ZM53.2247 55.9234C53.2247 56.0478 53.1239 56.1486 52.9995 56.1486V56.6991C53.4279 56.6991 53.7751 56.3518 53.7751 55.9234H53.2247ZM28.0319 29.0125L28.032 29.0128L28.5245 28.7669L28.5244 28.7666L28.0319 29.0125ZM28.5245 28.7669L28.5244 28.7666L28.0319 29.0125L28.032 29.0128L28.5245 28.7669ZM26.3392 31.465L27.7781 31.9974L27.9691 31.4812L26.5302 30.9487L26.3392 31.465ZM27.6155 31.8348L28.1479 33.2739L28.6642 33.0829L28.1317 31.6438L27.6155 31.8348ZM28.6642 33.2739L29.1967 31.8348L28.6804 31.6438L28.1479 33.0829L28.6642 33.2739ZM29.034 31.9974L30.473 31.465L30.2819 30.9487L28.843 31.4812L29.034 31.9974ZM30.473 30.9487L29.034 30.4163L28.843 30.9325L30.2819 31.465L30.473 30.9487ZM29.1967 30.5789L28.6642 29.1397L28.1479 29.3307L28.6804 30.7699L29.1967 30.5789ZM28.1479 29.1397L27.6155 30.5789L28.1317 30.7699L28.6642 29.3307L28.1479 29.1397ZM27.7781 30.4163L26.3392 30.9487L26.5302 31.465L27.9691 30.9325L27.7781 30.4163ZM28.4061 34.0682C28.1949 34.0682 28.0137 33.942 27.9404 33.7439L27.4241 33.935C27.5774 34.3491 27.9646 34.6186 28.4061 34.6186V34.0682ZM27.9404 33.7439L27.4248 32.3506L26.9085 32.5416L27.4241 33.935L27.9404 33.7439ZM27.2622 32.188L25.869 31.6725L25.678 32.1888L27.0712 32.7042L27.2622 32.188ZM25.869 31.6725C25.6709 31.5992 25.5448 31.4181 25.5448 31.2069H24.9943C24.9943 31.6485 25.2639 32.0356 25.6779 32.1888L25.869 31.6725ZM25.5448 31.2069C25.5448 30.9955 25.6709 30.8144 25.869 30.7413L25.6783 30.2249C25.2638 30.3779 24.9943 30.7653 24.9943 31.2069H25.5448ZM25.8692 30.7412L27.2622 30.2256L27.0711 29.7093L25.6781 30.2249L25.8692 30.7412ZM27.4248 30.063L27.9404 28.6698L27.4242 28.4787L26.9085 29.8719L27.4248 30.063ZM27.9404 28.6697C28.0137 28.4716 28.1949 28.3456 28.4061 28.3456V27.7951C27.9647 27.7951 27.5774 28.0644 27.4241 28.4788L27.9404 28.6697ZM28.4061 28.3456C28.6174 28.3456 28.7985 28.4716 28.8717 28.6696L29.388 28.4786C29.2347 28.0644 28.8476 27.7951 28.4061 27.7951V28.3456ZM28.8717 28.6696L29.3873 30.063L29.9036 29.8719L29.388 28.4786L28.8717 28.6696ZM29.5499 30.2256L30.9431 30.7412L31.1342 30.2249L29.741 29.7093L29.5499 30.2256ZM30.9433 30.7412C31.1412 30.8144 31.2674 30.9955 31.2674 31.2069H31.8178C31.8178 30.7653 31.5484 30.378 31.1341 30.2249L30.9433 30.7412ZM31.2674 31.2069C31.2674 31.4181 31.1413 31.5992 30.943 31.6725L31.134 32.1888C31.5482 32.0356 31.8178 31.6485 31.8178 31.2069H31.2674ZM30.943 31.6725L29.55 32.188L29.741 32.7042L31.134 32.1888L30.943 31.6725ZM29.3873 32.3506L28.8717 33.7439L29.388 33.935L29.9036 32.5416L29.3873 32.3506ZM28.8717 33.7439C28.7984 33.942 28.6173 34.0682 28.4061 34.0682V34.6186C28.8477 34.6186 29.2348 34.3491 29.388 33.935L28.8717 33.7439ZM26.339 48.567L27.778 49.0995L27.9691 48.5832L26.53 48.0507L26.339 48.567ZM27.6154 48.9368L28.1479 50.3761L28.6642 50.1851L28.1317 48.7458L27.6154 48.9368ZM28.6641 50.3761L29.1968 48.9368L28.6805 48.7458L28.1479 50.185L28.6641 50.3761ZM29.0342 49.0995L30.4732 48.567L30.2822 48.0507L28.8431 48.5832L29.0342 49.0995ZM30.4732 48.0507L29.0342 47.5183L28.8431 48.0345L30.2822 48.567L30.4732 48.0507ZM29.1968 47.6809L28.6641 46.2418L28.1479 46.4329L28.6805 47.8719L29.1968 47.6809ZM28.1479 46.2418L27.6154 47.6809L28.1317 47.8719L28.6642 46.4328L28.1479 46.2418ZM27.778 47.5183L26.339 48.0507L26.53 48.567L27.9691 48.0345L27.778 47.5183ZM28.406 51.1702C28.1948 51.1702 28.0136 51.0441 27.9404 50.8461L27.4241 51.0371C27.5774 51.4514 27.9647 51.7206 28.406 51.7206V51.1702ZM27.9404 50.8461L27.4249 49.4528L26.9086 49.6438L27.4241 51.0371L27.9404 50.8461ZM27.2623 49.2901L25.8691 48.7745L25.6781 49.2908L27.0713 49.8064L27.2623 49.2901ZM25.8691 48.7745C25.6709 48.7012 25.5449 48.5202 25.5449 48.3089H24.9944C24.9944 48.7504 25.2637 49.1376 25.6781 49.2908L25.8691 48.7745ZM25.5449 48.3089C25.5449 48.0975 25.6709 47.9165 25.8691 47.8432L25.6781 47.3269C25.2637 47.4802 24.9944 47.8673 24.9944 48.3089H25.5449ZM25.8691 47.8432L27.2623 47.3276L27.0713 46.8113L25.6781 47.3269L25.8691 47.8432ZM27.4249 47.165L27.9404 45.7718L27.4241 45.5808L26.9086 46.974L27.4249 47.165ZM27.9404 45.7718C28.0136 45.5737 28.1949 45.4476 28.406 45.4476V44.8971C27.9646 44.8971 27.5773 45.1666 27.4241 45.5807L27.9404 45.7718ZM28.406 45.4476C28.6173 45.4476 28.7984 45.5737 28.8719 45.7719L29.3881 45.5806C29.2347 45.1667 28.8477 44.8971 28.406 44.8971V45.4476ZM28.8718 45.7718L29.3873 47.165L29.9036 46.974L29.3881 45.5808L28.8718 45.7718ZM29.5499 47.3276L30.9431 47.8432L31.1342 47.3269L29.7409 46.8113L29.5499 47.3276ZM30.9431 47.8432C31.1413 47.9165 31.2673 48.0975 31.2673 48.3089H31.8178C31.8178 47.8673 31.5485 47.4802 31.1341 47.3269L30.9431 47.8432ZM31.2673 48.3089C31.2673 48.5202 31.1413 48.7012 30.9431 48.7745L31.1341 49.2908C31.5485 49.1376 31.8178 48.7504 31.8178 48.3089H31.2673ZM30.9431 48.7745L29.5499 49.2901L29.7409 49.8064L31.1342 49.2908L30.9431 48.7745ZM29.3873 49.4528L28.8718 50.846L29.3881 51.037L29.9036 49.6438L29.3873 49.4528ZM28.8719 50.8459C28.7984 51.0442 28.6173 51.1702 28.406 51.1702V51.7206C28.8476 51.7206 29.2347 51.4513 29.3881 51.0371L28.8719 50.8459ZM26.411 65.6691L27.7975 66.1822L27.9885 65.6659L26.602 65.1528L26.411 65.6691ZM27.6349 66.0196L28.148 67.4058L28.6642 67.2147L28.1511 65.8285L27.6349 66.0196ZM28.6642 67.4058L29.1772 66.0196L28.6609 65.8286L28.148 67.2148L28.6642 67.4058ZM29.0146 66.1822L30.4011 65.6691L30.2101 65.1528L28.8235 65.6659L29.0146 66.1822ZM30.4011 65.1528L29.0146 64.6397L28.8235 65.156L30.2101 65.6691L30.4011 65.1528ZM29.1772 64.8023L28.6643 63.416L28.148 63.607L28.6609 64.9934L29.1772 64.8023ZM28.148 63.416L27.6349 64.8023L28.1511 64.9934L28.6642 63.607L28.148 63.416ZM27.7975 64.6397L26.411 65.1528L26.602 65.6691L27.9885 65.156L27.7975 64.6397ZM28.4061 68.1577C28.2067 68.1577 28.036 68.0387 27.9668 67.8518L27.4505 68.0428C27.5996 68.4458 27.9763 68.7081 28.4061 68.7081V68.1577ZM27.9668 67.8518L27.47 66.5095L26.9538 66.7005L27.4506 68.0428L27.9668 67.8518ZM27.3074 66.3469L25.9651 65.8501L25.7741 66.3664L27.1164 66.8631L27.3074 66.3469ZM25.9651 65.8501C25.7783 65.781 25.6594 65.6103 25.6594 65.411H25.1089C25.1089 65.8405 25.3711 66.2173 25.7741 66.3664L25.9651 65.8501ZM25.6594 65.411C25.6594 65.2114 25.7783 65.0408 25.9651 64.9717L25.7741 64.4554C25.3711 64.6045 25.1089 64.9813 25.1089 65.411H25.6594ZM25.9651 64.9717L27.3074 64.4751L27.1164 63.9588L25.7741 64.4554L25.9651 64.9717ZM27.47 64.3125L27.9668 62.9701L27.4506 62.7791L26.9538 64.1214L27.47 64.3125ZM27.9668 62.9701C28.036 62.7831 28.2066 62.6643 28.4061 62.6643V62.1138C27.9764 62.1138 27.5996 62.3759 27.4505 62.7792L27.9668 62.9701ZM28.4061 62.6643C28.6054 62.6643 28.7761 62.7831 28.8452 62.9701L29.3615 62.7792C29.2125 62.376 28.8357 62.1138 28.4061 62.1138V62.6643ZM28.8453 62.9701L29.342 64.3125L29.8583 64.1214L29.3615 62.7791L28.8453 62.9701ZM29.5046 64.4751L30.847 64.9717L31.038 64.4554L29.6956 63.9588L29.5046 64.4751ZM30.847 64.9717C31.0339 65.0408 31.1528 65.2115 31.1528 65.411H31.7033C31.7033 64.9812 31.4409 64.6044 31.038 64.4554L30.847 64.9717ZM31.1528 65.411C31.1528 65.6102 31.0339 65.7809 30.847 65.8501L31.038 66.3664C31.4409 66.2173 31.7033 65.8406 31.7033 65.411H31.1528ZM30.8469 65.8501L29.5046 66.3469L29.6957 66.8631L31.038 66.3664L30.8469 65.8501ZM29.342 66.5095L28.8453 67.8518L29.3615 68.0428L29.8583 66.7005L29.342 66.5095ZM28.8452 67.852C28.7762 68.0387 28.6054 68.1577 28.4061 68.1577V68.7081C28.8357 68.7081 29.2127 68.4458 29.3616 68.0427L28.8452 67.852ZM75.9021 75.3668L77.2604 75.8694L77.4514 75.3531L76.0931 74.8505L75.9021 75.3668ZM77.0978 75.7068L77.6004 77.0653L78.1166 76.8743L77.614 75.5158L77.0978 75.7068ZM78.1166 77.0653L78.6192 75.7068L78.103 75.5158L77.6004 76.8743L78.1166 77.0653ZM78.4566 75.8694L79.815 75.3668L79.6239 74.8505L78.2656 75.3531L78.4566 75.8694ZM79.8149 74.8505L78.4566 74.3481L78.2656 74.8644L79.624 75.3668L79.8149 74.8505ZM78.6192 74.5107L78.1166 73.1522L77.6004 73.3432L78.103 74.7017L78.6192 74.5107ZM77.6004 73.1522L77.0978 74.5107L77.614 74.7017L78.1166 73.3432L77.6004 73.1522ZM77.2604 74.3481L75.9021 74.8505L76.0931 75.3668L77.4514 74.8644L77.2604 74.3481ZM77.8585 77.7938C77.6656 77.7938 77.5004 77.6789 77.4333 77.4978L76.9172 77.6891C77.0642 78.0859 77.4352 78.3443 77.8585 78.3443V77.7938ZM77.4334 77.498L76.9468 76.183L76.4305 76.374L76.9171 77.689L77.4334 77.498ZM76.7842 76.0204L75.4692 75.5338L75.2782 76.0501L76.5931 76.5366L76.7842 76.0204ZM75.4694 75.5338C75.2883 75.4667 75.1734 75.3016 75.1734 75.1087H74.6229C74.6229 75.532 74.8813 75.9029 75.278 76.05L75.4694 75.5338ZM75.1734 75.1087C75.1734 74.9159 75.2883 74.7507 75.4692 74.6837L75.2782 74.1675C74.8812 74.3144 74.6229 74.6856 74.6229 75.1087H75.1734ZM75.4692 74.6837L76.7842 74.1971L76.5931 73.6809L75.2782 74.1674L75.4692 74.6837ZM76.9468 74.0345L77.4334 72.7195L76.9171 72.5285L76.4305 73.8435L76.9468 74.0345ZM77.4333 72.7196C77.5005 72.5384 77.6656 72.4235 77.8585 72.4235V71.8731C77.4352 71.8731 77.0642 72.1315 76.9172 72.5284L77.4333 72.7196ZM77.8585 72.4235C78.0515 72.4235 78.2167 72.5385 78.2836 72.7195L78.7999 72.5285C78.653 72.1314 78.2817 71.8731 77.8585 71.8731V72.4235ZM78.2836 72.7195L78.7702 74.0345L79.2865 73.8435L78.7999 72.5285L78.2836 72.7195ZM78.9328 74.1971L80.2478 74.6837L80.4388 74.1674L79.1239 73.6809L78.9328 74.1971ZM80.2478 74.6837C80.4289 74.7507 80.5438 74.9159 80.5438 75.1087H81.0943C81.0943 74.6856 80.8359 74.3143 80.4388 74.1674L80.2478 74.6837ZM80.5438 75.1087C80.5438 75.3015 80.4289 75.4667 80.2477 75.5338L80.4389 76.05C80.8359 75.903 81.0943 75.532 81.0943 75.1087H80.5438ZM80.2478 75.5338L78.9328 76.0204L79.1239 76.5366L80.4388 76.0501L80.2478 75.5338ZM78.7702 76.183L78.2836 77.498L78.7999 77.689L79.2865 76.374L78.7702 76.183ZM78.2836 77.4979C78.2167 77.6788 78.0515 77.7938 77.8585 77.7938V78.3443C78.2817 78.3443 78.653 78.086 78.7999 77.689L78.2836 77.4979ZM76.0285 45.2869L77.2945 45.7553L77.4855 45.239L76.2196 44.7706L76.0285 45.2869ZM77.1319 45.5927L77.6004 46.8586L78.1167 46.6675L77.6481 45.4016L77.1319 45.5927ZM78.1167 46.8586L78.5852 45.5927L78.069 45.4016L77.6004 46.6675L78.1167 46.8586ZM78.4226 45.7553L79.6886 45.2869L79.4975 44.7706L78.2316 45.239L78.4226 45.7553ZM79.6886 44.7706L78.4226 44.3022L78.2316 44.8185L79.4975 45.2869L79.6886 44.7706ZM78.5852 44.4648L78.1167 43.1989L77.6004 43.3899L78.069 44.6559L78.5852 44.4648ZM77.6004 43.1989L77.1319 44.4648L77.6481 44.6559L78.1167 43.3899L77.6004 43.1989ZM77.2945 44.3022L76.0285 44.7706L76.2196 45.2869L77.4855 44.8185L77.2945 44.3022ZM77.8584 47.5127C77.6866 47.5127 77.5397 47.4104 77.48 47.249L76.9637 47.4398C77.1032 47.8172 77.456 48.0632 77.8584 48.0632V47.5127ZM77.48 47.2489L77.0264 46.0235L76.5102 46.2145L76.9637 47.4399L77.48 47.2489ZM76.8638 45.8609L75.6382 45.4075L75.4472 45.9238L76.6728 46.3771L76.8638 45.8609ZM75.6384 45.4075C75.4767 45.3476 75.3746 45.2007 75.3746 45.0286H74.8241C74.8241 45.4309 75.0696 45.7838 75.4471 45.9237L75.6384 45.4075ZM75.3746 45.0286C75.3746 44.8567 75.4768 44.7098 75.6382 44.6502L75.4473 44.1339C75.0698 44.2734 74.8241 44.6263 74.8241 45.0286H75.3746ZM75.6383 44.6501L76.8638 44.1966L76.6728 43.6803L75.4472 44.1339L75.6383 44.6501ZM77.0264 44.034L77.48 42.8084L76.9637 42.6174L76.5102 43.8429L77.0264 44.034ZM77.48 42.8084C77.5396 42.6471 77.6866 42.5448 77.8584 42.5448V41.9943C77.456 41.9943 77.1032 42.2402 76.9637 42.6174L77.48 42.8084ZM77.8584 42.5448C78.0304 42.5448 78.1774 42.647 78.2372 42.8085L78.7534 42.6173C78.6137 42.24 78.2608 41.9943 77.8584 41.9943V42.5448ZM78.2371 42.8084L78.6905 44.034L79.2068 43.843L78.7534 42.6174L78.2371 42.8084ZM78.8531 44.1966L80.0789 44.6502L80.2699 44.1339L79.0442 43.6803L78.8531 44.1966ZM80.0789 44.6502C80.2401 44.7098 80.3424 44.8567 80.3424 45.0286H80.8928C80.8928 44.6263 80.6471 44.2734 80.2699 44.1339L80.0789 44.6502ZM80.3424 45.0286C80.3424 45.2008 80.2401 45.3476 80.0789 45.4074L80.2702 45.9235C80.6474 45.7838 80.8928 45.4309 80.8928 45.0286H80.3424ZM80.079 45.4073L78.8532 45.8609L79.0442 46.3771L80.2701 45.9236L80.079 45.4073ZM78.6905 46.0235L78.2371 47.2491L78.7534 47.4401L79.2068 46.2145L78.6905 46.0235ZM78.2371 47.2491C78.1775 47.4103 78.0306 47.5127 77.8584 47.5127V48.0632C78.261 48.0632 78.6139 47.8173 78.7534 47.44L78.2371 47.2491Z" fill="white" mask="url(#path-4-outside-1_122_7785)"/>
</g>
</svg>
