<svg width="107" height="107" viewBox="0 0 107 107" fill="none" xmlns="http://www.w3.org/2000/svg">
<circle cx="53.177" cy="53.7649" r="49.388" fill="#FF7242"/>
<circle cx="53.177" cy="53.7649" r="51.2004" stroke="#FFB39A" stroke-opacity="0.51" stroke-width="3.6248"/>
<mask id="mask0_122_7764" style="mask-type:alpha" maskUnits="userSpaceOnUse" x="21" y="20" width="64" height="63">
<rect x="21.6875" y="20.4629" width="62.3854" height="62.3854" fill="#D9D9D9"/>
</mask>
<g mask="url(#mask0_122_7764)">
<mask id="path-4-outside-1_122_7764" maskUnits="userSpaceOnUse" x="22.3164" y="19.7383" width="61" height="64" fill="black">
<rect fill="white" x="22.3164" y="19.7383" width="61" height="64"/>
<path d="M48.6613 81.8878H57.2452L55.888 69.0336H50.338L48.6613 81.8878ZM58.1721 82.7219H47.7115L49.6056 68.1995H56.6386L58.1721 82.7219Z"/>
<path d="M78.6801 69.0336H26.444C25.4108 69.0336 24.4457 68.5244 23.8623 67.6713C23.2792 66.8184 23.1549 65.7343 23.5297 64.7713L36.3826 31.763C36.8539 30.5525 37.9978 29.7703 39.297 29.7703H62.4025C62.6329 29.7703 62.8196 29.957 62.8196 30.1873C62.8196 30.4177 62.6329 30.6044 62.4025 30.6044H39.297C38.3443 30.6044 37.5054 31.178 37.1598 32.0656L24.3069 65.0741C24.028 65.7907 24.1169 66.5657 24.5509 67.2007C24.985 67.8354 25.6751 68.1996 26.444 68.1996H78.6801C79.4616 68.1996 80.1577 67.8263 80.5902 67.1752C81.0227 66.5245 81.097 65.738 80.7942 65.0175L70.8645 41.3953C70.7752 41.183 70.8752 40.9384 71.0873 40.8492C71.2995 40.7599 71.5441 40.8597 71.6335 41.072L81.563 64.6942C81.9701 65.6622 81.8661 66.7623 81.285 67.6369C80.704 68.5115 79.7301 69.0336 78.6801 69.0336Z"/>
<path d="M81.1786 65.833H23.9183C23.6881 65.833 23.5013 65.6463 23.5013 65.4159C23.5013 65.1856 23.6881 64.9989 23.9183 64.9989H81.1786C81.409 64.9989 81.5957 65.1856 81.5957 65.4159C81.5957 65.6463 81.409 65.833 81.1786 65.833Z"/>
<path d="M28.3445 61.9694H40.5974L43.0222 54.0628H31.4018L28.3445 61.9694ZM41.214 62.8035H27.1278L30.83 53.2288H44.1503L41.214 62.8035Z"/>
<path d="M32.8038 50.7356H43.8223L46.1072 43.5801H35.6849L32.8038 50.7356ZM44.4315 51.5696H31.5689L35.1216 42.746H47.2492L44.4315 51.5696Z"/>
<path d="M36.9577 39.9803H46.7352L48.7552 33.6553H39.5046L36.9577 39.9803ZM47.3445 40.8143H35.7228L38.9413 32.8213H49.8971L47.3445 40.8143Z"/>
<path d="M68.8736 40.8143H57.2379L54.6854 32.8213H62.8304C63.0608 32.8213 63.2474 33.0079 63.2474 33.2383C63.2474 33.4685 63.0608 33.6553 62.8304 33.6553H55.8274L57.8471 39.9803H67.6108L66.7269 37.9095C66.6365 37.6976 66.7351 37.4526 66.9468 37.3622C67.159 37.2716 67.4035 37.3702 67.4941 37.582L68.8736 40.8143Z"/>
<path d="M61.2143 50.7356H72.2327L69.3515 43.5801H58.9292L61.2143 50.7356ZM73.4677 51.5696H60.6051L57.7872 42.746H69.9148L73.4677 51.5696Z"/>
<path d="M64.3078 61.9694H76.5605L73.5034 54.0628H61.8831L64.3078 61.9694ZM77.7774 62.8035H63.6911L60.7547 53.2288H74.0752L77.7774 62.8035Z"/>
<path d="M44.1467 61.9694H60.511L58.1917 54.0628H46.5188L44.1467 61.9694ZM61.6248 62.8035H43.0258L45.8982 53.2288H58.8162L61.6248 62.8035Z"/>
<path d="M47.2368 50.7356H57.1348L55.3758 43.5801H49.3578L47.2368 50.7356ZM58.1989 51.5696H46.1197L48.7352 42.746H56.0297L58.1989 51.5696Z"/>
<path d="M50.0259 39.9803H54.7183L53.088 33.6553H51.7128L50.0259 39.9803ZM55.7945 40.8143H48.9401L51.0721 32.8213H53.7344L55.7945 40.8143Z"/>
<path d="M73.6826 21.5723C69.2207 21.5723 65.5906 25.2023 65.5906 29.6643C65.5906 34.1262 69.2207 37.7563 73.6826 37.7563C78.1444 37.7563 81.7746 34.1262 81.7746 29.6643C81.7746 25.2023 78.1444 21.5723 73.6826 21.5723ZM73.6826 38.5903C68.7607 38.5903 64.7566 34.586 64.7566 29.6643C64.7566 24.7424 68.7607 20.7383 73.6826 20.7383C78.6045 20.7383 82.6086 24.7424 82.6086 29.6643C82.6086 34.586 78.6045 38.5903 73.6826 38.5903Z"/>
<path d="M71.5405 33.2803L68.744 30.8568C68.5701 30.7059 68.5512 30.4426 68.702 30.2685C68.8531 30.0947 69.116 30.0757 69.2905 30.2265L71.5076 32.148L77.7505 26.065C77.9156 25.9044 78.1795 25.9077 78.3403 26.0727C78.5009 26.2377 78.4974 26.5018 78.3326 26.6624L71.5405 33.2803Z"/>
</mask>
<path d="M48.6613 81.8878H57.2452L55.888 69.0336H50.338L48.6613 81.8878ZM58.1721 82.7219H47.7115L49.6056 68.1995H56.6386L58.1721 82.7219Z" fill="white"/>
<path d="M78.6801 69.0336H26.444C25.4108 69.0336 24.4457 68.5244 23.8623 67.6713C23.2792 66.8184 23.1549 65.7343 23.5297 64.7713L36.3826 31.763C36.8539 30.5525 37.9978 29.7703 39.297 29.7703H62.4025C62.6329 29.7703 62.8196 29.957 62.8196 30.1873C62.8196 30.4177 62.6329 30.6044 62.4025 30.6044H39.297C38.3443 30.6044 37.5054 31.178 37.1598 32.0656L24.3069 65.0741C24.028 65.7907 24.1169 66.5657 24.5509 67.2007C24.985 67.8354 25.6751 68.1996 26.444 68.1996H78.6801C79.4616 68.1996 80.1577 67.8263 80.5902 67.1752C81.0227 66.5245 81.097 65.738 80.7942 65.0175L70.8645 41.3953C70.7752 41.183 70.8752 40.9384 71.0873 40.8492C71.2995 40.7599 71.5441 40.8597 71.6335 41.072L81.563 64.6942C81.9701 65.6622 81.8661 66.7623 81.285 67.6369C80.704 68.5115 79.7301 69.0336 78.6801 69.0336Z" fill="white"/>
<path d="M81.1786 65.833H23.9183C23.6881 65.833 23.5013 65.6463 23.5013 65.4159C23.5013 65.1856 23.6881 64.9989 23.9183 64.9989H81.1786C81.409 64.9989 81.5957 65.1856 81.5957 65.4159C81.5957 65.6463 81.409 65.833 81.1786 65.833Z" fill="white"/>
<path d="M28.3445 61.9694H40.5974L43.0222 54.0628H31.4018L28.3445 61.9694ZM41.214 62.8035H27.1278L30.83 53.2288H44.1503L41.214 62.8035Z" fill="white"/>
<path d="M32.8038 50.7356H43.8223L46.1072 43.5801H35.6849L32.8038 50.7356ZM44.4315 51.5696H31.5689L35.1216 42.746H47.2492L44.4315 51.5696Z" fill="white"/>
<path d="M36.9577 39.9803H46.7352L48.7552 33.6553H39.5046L36.9577 39.9803ZM47.3445 40.8143H35.7228L38.9413 32.8213H49.8971L47.3445 40.8143Z" fill="white"/>
<path d="M68.8736 40.8143H57.2379L54.6854 32.8213H62.8304C63.0608 32.8213 63.2474 33.0079 63.2474 33.2383C63.2474 33.4685 63.0608 33.6553 62.8304 33.6553H55.8274L57.8471 39.9803H67.6108L66.7269 37.9095C66.6365 37.6976 66.7351 37.4526 66.9468 37.3622C67.159 37.2716 67.4035 37.3702 67.4941 37.582L68.8736 40.8143Z" fill="white"/>
<path d="M61.2143 50.7356H72.2327L69.3515 43.5801H58.9292L61.2143 50.7356ZM73.4677 51.5696H60.6051L57.7872 42.746H69.9148L73.4677 51.5696Z" fill="white"/>
<path d="M64.3078 61.9694H76.5605L73.5034 54.0628H61.8831L64.3078 61.9694ZM77.7774 62.8035H63.6911L60.7547 53.2288H74.0752L77.7774 62.8035Z" fill="white"/>
<path d="M44.1467 61.9694H60.511L58.1917 54.0628H46.5188L44.1467 61.9694ZM61.6248 62.8035H43.0258L45.8982 53.2288H58.8162L61.6248 62.8035Z" fill="white"/>
<path d="M47.2368 50.7356H57.1348L55.3758 43.5801H49.3578L47.2368 50.7356ZM58.1989 51.5696H46.1197L48.7352 42.746H56.0297L58.1989 51.5696Z" fill="white"/>
<path d="M50.0259 39.9803H54.7183L53.088 33.6553H51.7128L50.0259 39.9803ZM55.7945 40.8143H48.9401L51.0721 32.8213H53.7344L55.7945 40.8143Z" fill="white"/>
<path d="M73.6826 21.5723C69.2207 21.5723 65.5906 25.2023 65.5906 29.6643C65.5906 34.1262 69.2207 37.7563 73.6826 37.7563C78.1444 37.7563 81.7746 34.1262 81.7746 29.6643C81.7746 25.2023 78.1444 21.5723 73.6826 21.5723ZM73.6826 38.5903C68.7607 38.5903 64.7566 34.586 64.7566 29.6643C64.7566 24.7424 68.7607 20.7383 73.6826 20.7383C78.6045 20.7383 82.6086 24.7424 82.6086 29.6643C82.6086 34.586 78.6045 38.5903 73.6826 38.5903Z" fill="white"/>
<path d="M71.5405 33.2803L68.744 30.8568C68.5701 30.7059 68.5512 30.4426 68.702 30.2685C68.8531 30.0947 69.116 30.0757 69.2905 30.2265L71.5076 32.148L77.7505 26.065C77.9156 25.9044 78.1795 25.9077 78.3403 26.0727C78.5009 26.2377 78.4974 26.5018 78.3326 26.6624L71.5405 33.2803Z" fill="white"/>
<path d="M48.6613 81.8878H57.2452L55.888 69.0336H50.338L48.6613 81.8878ZM58.1721 82.7219H47.7115L49.6056 68.1995H56.6386L58.1721 82.7219Z" stroke="white" stroke-width="0.550474" mask="url(#path-4-outside-1_122_7764)"/>
<path d="M78.6801 69.0336H26.444C25.4108 69.0336 24.4457 68.5244 23.8623 67.6713C23.2792 66.8184 23.1549 65.7343 23.5297 64.7713L36.3826 31.763C36.8539 30.5525 37.9978 29.7703 39.297 29.7703H62.4025C62.6329 29.7703 62.8196 29.957 62.8196 30.1873C62.8196 30.4177 62.6329 30.6044 62.4025 30.6044H39.297C38.3443 30.6044 37.5054 31.178 37.1598 32.0656L24.3069 65.0741C24.028 65.7907 24.1169 66.5657 24.5509 67.2007C24.985 67.8354 25.6751 68.1996 26.444 68.1996H78.6801C79.4616 68.1996 80.1577 67.8263 80.5902 67.1752C81.0227 66.5245 81.097 65.738 80.7942 65.0175L70.8645 41.3953C70.7752 41.183 70.8752 40.9384 71.0873 40.8492C71.2995 40.7599 71.5441 40.8597 71.6335 41.072L81.563 64.6942C81.9701 65.6622 81.8661 66.7623 81.285 67.6369C80.704 68.5115 79.7301 69.0336 78.6801 69.0336Z" stroke="white" stroke-width="0.550474" mask="url(#path-4-outside-1_122_7764)"/>
<path d="M81.1786 65.833H23.9183C23.6881 65.833 23.5013 65.6463 23.5013 65.4159C23.5013 65.1856 23.6881 64.9989 23.9183 64.9989H81.1786C81.409 64.9989 81.5957 65.1856 81.5957 65.4159C81.5957 65.6463 81.409 65.833 81.1786 65.833Z" stroke="white" stroke-width="0.550474" mask="url(#path-4-outside-1_122_7764)"/>
<path d="M28.3445 61.9694H40.5974L43.0222 54.0628H31.4018L28.3445 61.9694ZM41.214 62.8035H27.1278L30.83 53.2288H44.1503L41.214 62.8035Z" stroke="white" stroke-width="0.550474" mask="url(#path-4-outside-1_122_7764)"/>
<path d="M32.8038 50.7356H43.8223L46.1072 43.5801H35.6849L32.8038 50.7356ZM44.4315 51.5696H31.5689L35.1216 42.746H47.2492L44.4315 51.5696Z" stroke="white" stroke-width="0.550474" mask="url(#path-4-outside-1_122_7764)"/>
<path d="M36.9577 39.9803H46.7352L48.7552 33.6553H39.5046L36.9577 39.9803ZM47.3445 40.8143H35.7228L38.9413 32.8213H49.8971L47.3445 40.8143Z" stroke="white" stroke-width="0.550474" mask="url(#path-4-outside-1_122_7764)"/>
<path d="M68.8736 40.8143H57.2379L54.6854 32.8213H62.8304C63.0608 32.8213 63.2474 33.0079 63.2474 33.2383C63.2474 33.4685 63.0608 33.6553 62.8304 33.6553H55.8274L57.8471 39.9803H67.6108L66.7269 37.9095C66.6365 37.6976 66.7351 37.4526 66.9468 37.3622C67.159 37.2716 67.4035 37.3702 67.4941 37.582L68.8736 40.8143Z" stroke="white" stroke-width="0.550474" mask="url(#path-4-outside-1_122_7764)"/>
<path d="M61.2143 50.7356H72.2327L69.3515 43.5801H58.9292L61.2143 50.7356ZM73.4677 51.5696H60.6051L57.7872 42.746H69.9148L73.4677 51.5696Z" stroke="white" stroke-width="0.550474" mask="url(#path-4-outside-1_122_7764)"/>
<path d="M64.3078 61.9694H76.5605L73.5034 54.0628H61.8831L64.3078 61.9694ZM77.7774 62.8035H63.6911L60.7547 53.2288H74.0752L77.7774 62.8035Z" stroke="white" stroke-width="0.550474" mask="url(#path-4-outside-1_122_7764)"/>
<path d="M44.1467 61.9694H60.511L58.1917 54.0628H46.5188L44.1467 61.9694ZM61.6248 62.8035H43.0258L45.8982 53.2288H58.8162L61.6248 62.8035Z" stroke="white" stroke-width="0.550474" mask="url(#path-4-outside-1_122_7764)"/>
<path d="M47.2368 50.7356H57.1348L55.3758 43.5801H49.3578L47.2368 50.7356ZM58.1989 51.5696H46.1197L48.7352 42.746H56.0297L58.1989 51.5696Z" stroke="white" stroke-width="0.550474" mask="url(#path-4-outside-1_122_7764)"/>
<path d="M50.0259 39.9803H54.7183L53.088 33.6553H51.7128L50.0259 39.9803ZM55.7945 40.8143H48.9401L51.0721 32.8213H53.7344L55.7945 40.8143Z" stroke="white" stroke-width="0.550474" mask="url(#path-4-outside-1_122_7764)"/>
<path d="M73.6826 21.5723C69.2207 21.5723 65.5906 25.2023 65.5906 29.6643C65.5906 34.1262 69.2207 37.7563 73.6826 37.7563C78.1444 37.7563 81.7746 34.1262 81.7746 29.6643C81.7746 25.2023 78.1444 21.5723 73.6826 21.5723ZM73.6826 38.5903C68.7607 38.5903 64.7566 34.586 64.7566 29.6643C64.7566 24.7424 68.7607 20.7383 73.6826 20.7383C78.6045 20.7383 82.6086 24.7424 82.6086 29.6643C82.6086 34.586 78.6045 38.5903 73.6826 38.5903Z" stroke="white" stroke-width="0.550474" mask="url(#path-4-outside-1_122_7764)"/>
<path d="M71.5405 33.2803L68.744 30.8568C68.5701 30.7059 68.5512 30.4426 68.702 30.2685C68.8531 30.0947 69.116 30.0757 69.2905 30.2265L71.5076 32.148L77.7505 26.065C77.9156 25.9044 78.1795 25.9077 78.3403 26.0727C78.5009 26.2377 78.4974 26.5018 78.3326 26.6624L71.5405 33.2803Z" stroke="white" stroke-width="0.550474" mask="url(#path-4-outside-1_122_7764)"/>
</g>
</svg>
