<svg width="107" height="107" viewBox="0 0 107 107" fill="none" xmlns="http://www.w3.org/2000/svg">
<circle cx="53.3958" cy="53.9739" r="49.388" fill="#FF7242"/>
<circle cx="53.3958" cy="53.9739" r="51.2004" stroke="#FFB39A" stroke-opacity="0.51" stroke-width="3.6248"/>
<mask id="path-3-outside-1_122_7771" maskUnits="userSpaceOnUse" x="30.6523" y="16.4453" width="45" height="70" fill="black">
<rect fill="white" x="30.6523" y="16.4453" width="45" height="70"/>
<path d="M54.4247 77.1225H52.5889V81.8976H54.4247V77.1225ZM65.4391 76.9397C63.4096 76.4839 63.229 78.0075 62.1402 79.2394C57.3583 84.6481 49.1255 84.3011 44.5145 78.8637C43.6102 77.7971 43.8025 76.8427 42.0289 76.9357C41.4633 76.9655 41.8191 77.6081 41.9699 77.9199C43.4003 80.8808 47.5264 83.7621 50.7104 84.4195C56.6511 85.6462 63.0746 82.5397 65.4391 76.9397ZM61.5847 73.4492H58.739C57.9547 75.0019 57.0831 76.0263 55.5262 76.8469V81.7139C57.8211 81.4347 60.2625 79.8299 61.6611 78.0252C62.7444 76.6275 62.1586 77.0581 61.6082 76.0887C61.0794 75.1577 61.3043 74.3991 61.5847 73.4492ZM51.4873 76.7551C49.9013 76.2969 48.9408 74.8607 48.2745 73.4492H45.2453C45.6446 74.0464 45.7329 74.8217 45.5737 75.5238C45.2921 76.7656 43.8872 76.1947 45.1689 77.8417C46.6456 79.7391 49.0579 81.4549 51.4873 81.7139V76.7551ZM61.7682 69.9597H58.6472L58.9356 72.3503L61.2184 72.3481C61.2364 71.9072 61.1578 71.4445 61.2552 71.0073C61.3513 70.5756 61.7888 70.3995 61.7682 69.9597ZM48.3663 69.9597H45.2453C45.5001 70.8585 46.0788 71.3445 45.6125 72.3474H48.1828L48.3663 69.9597ZM57.773 71.7285C57.773 69.3677 55.8599 67.4539 53.5 67.4539C51.1402 67.4539 49.2271 69.3677 49.2271 71.7285C49.2271 74.0893 51.1402 76.0031 53.5 76.0031C55.8599 76.0031 57.773 74.0893 57.773 71.7285ZM62.8697 66.468C59.597 59.1866 49.4951 58.3483 44.9096 64.9407C43.6054 66.8155 44.2826 66.1105 45.1452 67.0296C45.6361 67.5525 45.4852 68.343 45.695 68.6835C45.8522 68.9383 48.4046 68.9333 48.7884 68.821C49.2028 68.6997 49.373 68.1333 49.6692 67.8655C51.8743 65.8708 55.0222 65.688 57.2697 67.7565C57.586 68.0477 57.7855 68.6923 58.2251 68.821C58.6258 68.9383 60.9378 68.9397 61.1308 68.6794C61.2708 68.4906 61.2616 67.9476 61.3877 67.6506C61.629 67.082 62.2459 66.5443 62.8697 66.468ZM65.8065 66.4694C66.1054 66.1725 64.2752 63.3462 63.9399 62.9204C58.7274 56.2994 49.0134 56.0229 43.4986 62.4271C42.8989 63.1235 41.3256 65.3688 41.2043 66.195C41.1537 66.5385 41.2126 66.4591 41.4771 66.4705C41.741 66.4819 42.7426 66.5243 42.8341 66.4438C42.8936 66.3916 43.3061 65.3372 43.5168 65.0167C48.3223 57.7168 58.2209 57.2124 63.2031 64.5758C63.4326 64.9153 64.0962 66.3813 64.1824 66.442C64.4 66.5951 65.4407 66.3949 65.8065 66.4694ZM39.4624 70.6944C38.9989 70.5605 39.1548 69.7848 39.6825 69.6291C40.6651 69.3392 43.6335 69.9172 44.2524 69.4259C44.7124 69.0607 44.6182 67.8274 43.9765 67.6536C42.7824 67.33 40.2421 67.8864 39.372 67.48C38.5735 67.1069 39.3576 66.4289 39.7377 66.1046C38.2184 65.8032 36.791 66.6266 36.6121 68.2104C36.458 69.573 36.4522 73.2865 36.632 74.6277C36.699 75.1273 37.0988 76.0271 37.3814 76.4493C37.7746 77.0373 39.067 77.8807 39.0169 78.4964C38.8967 79.9722 36.9654 77.7968 36.6484 77.3662C36.084 76.5995 35.5881 75.6116 35.5077 74.6507C35.3698 73.003 35.3392 69.6466 35.5141 68.0302C35.7017 66.2957 37.1682 64.8821 38.9203 64.8103C39.4449 64.7888 40.1226 65.1325 40.4715 64.9153C40.6931 64.7772 41.6486 62.9871 41.9715 62.5525C47.4367 55.2006 58.1708 54.5109 64.2494 61.5089C64.7387 62.0722 66.365 64.8083 66.5384 64.9184C66.8743 65.1319 67.5769 64.789 68.0933 64.8103C69.8409 64.8821 71.3109 66.2905 71.4996 68.0302C71.6579 69.4912 71.6767 73.5588 71.4549 74.967C71.2748 76.111 69.9974 78.1706 68.9908 78.7501C68.4095 79.0849 67.8884 78.7133 68.0296 78.1679C68.1722 77.6166 70.0767 76.4342 70.3537 74.7836C70.5649 73.5238 70.5503 69.5266 70.4016 68.2104C70.2214 66.6161 68.7834 65.8058 67.2767 66.1039C67.1143 66.6353 67.71 66.4333 67.8125 66.7593C67.8926 67.0145 67.7743 67.5722 67.5512 67.5722H62.9616C62.7893 67.5722 62.3282 68.3435 62.3151 68.5983C62.2249 70.3525 66.2632 69.265 67.338 69.621C67.997 69.8393 67.7586 70.8781 67.1841 70.8781H62.7779C62.1785 70.8781 62.1785 72.7146 62.7779 72.7146H67.3676C67.7382 72.7146 68.0634 73.7616 67.2859 73.9282L62.9586 73.9974C62.1498 74.1506 62.2372 75.5726 62.996 75.8023C64.0414 76.1187 66.1912 75.6208 67.3678 75.8367C67.8597 75.9269 67.99 76.3558 67.7411 76.7617C67.5679 77.0444 66.9174 77.0301 66.6367 77.3095C66.3574 77.5875 65.6403 79.1779 65.2254 79.7544C59.6154 87.5464 47.79 87.8877 42.0477 80.0458C41.6004 79.435 40.7654 77.6366 40.377 77.3095C39.9818 76.9767 39.1005 77.1842 39.1741 76.2987C39.2015 75.9692 39.3449 75.8918 39.6459 75.8367C40.8492 75.6169 43.0338 76.1461 44.1024 75.7138C44.6752 75.4818 44.7426 74.1528 43.8642 74.0046C42.9985 73.8586 39.4384 74.3779 39.2034 73.5116C39.1723 73.397 39.3298 72.7146 39.3705 72.7146H44.2357C44.5142 72.7146 44.9751 71.5336 44.4284 71.0516C44.356 70.9878 43.7285 70.6944 43.6849 70.6944C42.786 70.6944 40.0882 70.8751 39.4624 70.6944Z"/>
<path d="M63.4188 35.0649C60.6945 37.7935 58.8624 35.0018 56.4955 34.0036C54.67 33.2336 52.617 33.1888 50.7555 33.8736C48.7418 34.6141 47.272 36.7531 44.8694 36.0834L43.4104 35.0657C43.5789 35.5888 43.8347 37.788 42.6732 37.1857C42.1217 36.8996 42.5307 36.0413 42.0361 36.1696C40.6362 36.5329 40.8652 38.9961 42.2191 39.4706C42.6732 39.6297 42.3702 38.881 42.7827 38.7513C43.0001 38.6828 43.3755 38.7001 43.5104 38.9129C43.6286 39.0995 43.674 41.5741 43.8261 42.2699C44.5594 45.6271 47.2834 49.0433 50.5213 50.2649C56.8729 52.6608 62.7527 46.9513 63.4188 40.8484C63.4943 40.1574 63.0457 38.3813 64.231 38.7511C64.5991 38.8659 64.4458 39.5172 64.6126 39.4717C66.1586 38.9123 66.5165 36.5239 64.7963 35.9842C64.6416 35.9358 64.8233 36.7826 64.4454 37.1008C63.3864 37.9927 63.2778 35.6212 63.4188 35.0649ZM63.4209 32.4952C61.5637 32.0555 59.787 31.3308 57.9153 30.9302C54.5419 30.2081 52.1399 30.1829 48.7658 30.965C47.0128 31.3713 45.3046 32.0625 43.5903 32.5882C43.8434 33.4434 44.7709 34.9692 45.72 35.064C46.8175 35.1739 47.8921 34.0494 48.7936 33.5638C51.103 32.3194 53.1341 31.9358 55.748 32.5475C58.7841 33.2579 61.5764 37.7212 63.4209 32.4952ZM57.3622 20.374C58.5178 21.913 59.5343 23.1603 60.1187 25.0528C60.3694 25.8648 61.1416 28.8579 60.302 29.2894C59.4041 29.7508 59.4496 26.9821 59.3325 26.3903C58.7129 23.2594 56.4178 20.6834 53.5982 19.3319C50.3483 20.6394 48.033 23.6391 47.4664 27.0939C47.381 27.6148 47.5211 28.1626 47.4084 28.6887C47.2101 29.6137 46.4033 29.5881 46.1615 28.7248C46.3754 26.8638 46.6152 25.1224 47.4807 23.435C48.0563 22.3128 48.9811 21.4263 49.6514 20.374C46.6704 21.5554 44.3225 24.3614 43.6753 27.5255C43.5286 28.2429 43.1976 30.6813 43.4955 31.2144C43.6538 31.4977 43.7453 31.2987 43.9109 31.2571C46.0731 30.7134 48.1219 29.7674 50.344 29.4215C54.9145 28.7104 59.0794 29.8086 63.331 31.3843C63.599 31.2177 63.5852 31.0309 63.6145 30.7566C63.669 30.2467 63.486 28.4012 63.3993 27.8316C62.9128 24.6352 60.4311 21.4466 57.3622 20.374ZM54.4659 18.3099C54.6513 18.4205 56.19 18.6155 56.6684 18.7707C60.0478 19.8667 63.2305 22.8178 64.2065 26.2895C64.9732 29.0167 64.6183 31.7858 64.7289 34.5825C65.2999 35.0607 65.948 35.1642 66.4399 35.8092C67.3621 37.0184 67.3109 38.712 66.249 39.823C65.8593 40.2305 64.6076 40.7091 64.5548 40.7912C64.4795 40.9081 64.2937 42.4786 64.1781 42.8937C60.7829 55.0921 45.855 54.8418 42.7601 42.6016C42.6581 42.1979 42.6066 41.0139 42.452 40.7986C42.3833 40.7028 41.2151 40.2633 40.838 39.8817C39.1189 38.1429 39.961 35.2952 42.3196 34.7704C41.9625 28.7833 42.2798 23.1752 47.9433 19.8573C49.6284 18.8701 51.0483 18.9501 52.4473 18.3471C52.7091 18.2344 52.805 17.5734 53.4575 17.4576C54.1583 17.3334 54.2588 18.1862 54.4659 18.3099Z"/>
<path d="M51.881 45.0063C52.0344 44.8948 53.7792 45.0247 54.2898 44.9393C54.975 44.8245 56.7228 43.394 56.8242 44.5257C56.8943 45.3086 54.9838 46.0145 54.334 46.0856C53.8738 46.136 52.3981 46.1603 52.0395 45.9921C51.6563 45.8122 51.6274 45.191 51.881 45.0063Z"/>
<path d="M71.4239 85.8522H68.8461C67.3435 85.8522 66.1209 84.6297 66.1209 83.1271V80.061C66.1209 79.7559 66.3681 79.5087 66.6731 79.5087C66.9783 79.5087 67.2253 79.7559 67.2253 80.061V83.1271C67.2253 84.0208 67.9526 84.7477 68.8461 84.7477H71.4239C72.8513 84.7477 74.0124 83.5866 74.0124 82.1592V65.4605C74.0124 59.4293 69.1057 54.5227 63.0746 54.5227H43.6946C37.6635 54.5227 32.7568 59.4293 32.7568 65.4605V82.1592C32.7568 83.5866 33.9181 84.7477 35.3453 84.7477H38.3555C39.2492 84.7477 39.9763 84.0208 39.9763 83.1271V80.1083C39.9763 79.8032 40.2235 79.556 40.5285 79.556C40.8333 79.556 41.0807 79.8032 41.0807 80.1083V83.1271C41.0807 84.6297 39.8583 85.8522 38.3555 85.8522H35.3453C33.309 85.8522 31.6523 84.1955 31.6523 82.1592V65.4605C31.6523 58.8204 37.0546 53.4183 43.6946 53.4183H63.0746C69.7146 53.4183 75.1169 58.8204 75.1169 65.4605V82.1592C75.1169 84.1955 73.4602 85.8522 71.4239 85.8522Z"/>
</mask>
<path d="M54.4247 77.1225H52.5889V81.8976H54.4247V77.1225ZM65.4391 76.9397C63.4096 76.4839 63.229 78.0075 62.1402 79.2394C57.3583 84.6481 49.1255 84.3011 44.5145 78.8637C43.6102 77.7971 43.8025 76.8427 42.0289 76.9357C41.4633 76.9655 41.8191 77.6081 41.9699 77.9199C43.4003 80.8808 47.5264 83.7621 50.7104 84.4195C56.6511 85.6462 63.0746 82.5397 65.4391 76.9397ZM61.5847 73.4492H58.739C57.9547 75.0019 57.0831 76.0263 55.5262 76.8469V81.7139C57.8211 81.4347 60.2625 79.8299 61.6611 78.0252C62.7444 76.6275 62.1586 77.0581 61.6082 76.0887C61.0794 75.1577 61.3043 74.3991 61.5847 73.4492ZM51.4873 76.7551C49.9013 76.2969 48.9408 74.8607 48.2745 73.4492H45.2453C45.6446 74.0464 45.7329 74.8217 45.5737 75.5238C45.2921 76.7656 43.8872 76.1947 45.1689 77.8417C46.6456 79.7391 49.0579 81.4549 51.4873 81.7139V76.7551ZM61.7682 69.9597H58.6472L58.9356 72.3503L61.2184 72.3481C61.2364 71.9072 61.1578 71.4445 61.2552 71.0073C61.3513 70.5756 61.7888 70.3995 61.7682 69.9597ZM48.3663 69.9597H45.2453C45.5001 70.8585 46.0788 71.3445 45.6125 72.3474H48.1828L48.3663 69.9597ZM57.773 71.7285C57.773 69.3677 55.8599 67.4539 53.5 67.4539C51.1402 67.4539 49.2271 69.3677 49.2271 71.7285C49.2271 74.0893 51.1402 76.0031 53.5 76.0031C55.8599 76.0031 57.773 74.0893 57.773 71.7285ZM62.8697 66.468C59.597 59.1866 49.4951 58.3483 44.9096 64.9407C43.6054 66.8155 44.2826 66.1105 45.1452 67.0296C45.6361 67.5525 45.4852 68.343 45.695 68.6835C45.8522 68.9383 48.4046 68.9333 48.7884 68.821C49.2028 68.6997 49.373 68.1333 49.6692 67.8655C51.8743 65.8708 55.0222 65.688 57.2697 67.7565C57.586 68.0477 57.7855 68.6923 58.2251 68.821C58.6258 68.9383 60.9378 68.9397 61.1308 68.6794C61.2708 68.4906 61.2616 67.9476 61.3877 67.6506C61.629 67.082 62.2459 66.5443 62.8697 66.468ZM65.8065 66.4694C66.1054 66.1725 64.2752 63.3462 63.9399 62.9204C58.7274 56.2994 49.0134 56.0229 43.4986 62.4271C42.8989 63.1235 41.3256 65.3688 41.2043 66.195C41.1537 66.5385 41.2126 66.4591 41.4771 66.4705C41.741 66.4819 42.7426 66.5243 42.8341 66.4438C42.8936 66.3916 43.3061 65.3372 43.5168 65.0167C48.3223 57.7168 58.2209 57.2124 63.2031 64.5758C63.4326 64.9153 64.0962 66.3813 64.1824 66.442C64.4 66.5951 65.4407 66.3949 65.8065 66.4694ZM39.4624 70.6944C38.9989 70.5605 39.1548 69.7848 39.6825 69.6291C40.6651 69.3392 43.6335 69.9172 44.2524 69.4259C44.7124 69.0607 44.6182 67.8274 43.9765 67.6536C42.7824 67.33 40.2421 67.8864 39.372 67.48C38.5735 67.1069 39.3576 66.4289 39.7377 66.1046C38.2184 65.8032 36.791 66.6266 36.6121 68.2104C36.458 69.573 36.4522 73.2865 36.632 74.6277C36.699 75.1273 37.0988 76.0271 37.3814 76.4493C37.7746 77.0373 39.067 77.8807 39.0169 78.4964C38.8967 79.9722 36.9654 77.7968 36.6484 77.3662C36.084 76.5995 35.5881 75.6116 35.5077 74.6507C35.3698 73.003 35.3392 69.6466 35.5141 68.0302C35.7017 66.2957 37.1682 64.8821 38.9203 64.8103C39.4449 64.7888 40.1226 65.1325 40.4715 64.9153C40.6931 64.7772 41.6486 62.9871 41.9715 62.5525C47.4367 55.2006 58.1708 54.5109 64.2494 61.5089C64.7387 62.0722 66.365 64.8083 66.5384 64.9184C66.8743 65.1319 67.5769 64.789 68.0933 64.8103C69.8409 64.8821 71.3109 66.2905 71.4996 68.0302C71.6579 69.4912 71.6767 73.5588 71.4549 74.967C71.2748 76.111 69.9974 78.1706 68.9908 78.7501C68.4095 79.0849 67.8884 78.7133 68.0296 78.1679C68.1722 77.6166 70.0767 76.4342 70.3537 74.7836C70.5649 73.5238 70.5503 69.5266 70.4016 68.2104C70.2214 66.6161 68.7834 65.8058 67.2767 66.1039C67.1143 66.6353 67.71 66.4333 67.8125 66.7593C67.8926 67.0145 67.7743 67.5722 67.5512 67.5722H62.9616C62.7893 67.5722 62.3282 68.3435 62.3151 68.5983C62.2249 70.3525 66.2632 69.265 67.338 69.621C67.997 69.8393 67.7586 70.8781 67.1841 70.8781H62.7779C62.1785 70.8781 62.1785 72.7146 62.7779 72.7146H67.3676C67.7382 72.7146 68.0634 73.7616 67.2859 73.9282L62.9586 73.9974C62.1498 74.1506 62.2372 75.5726 62.996 75.8023C64.0414 76.1187 66.1912 75.6208 67.3678 75.8367C67.8597 75.9269 67.99 76.3558 67.7411 76.7617C67.5679 77.0444 66.9174 77.0301 66.6367 77.3095C66.3574 77.5875 65.6403 79.1779 65.2254 79.7544C59.6154 87.5464 47.79 87.8877 42.0477 80.0458C41.6004 79.435 40.7654 77.6366 40.377 77.3095C39.9818 76.9767 39.1005 77.1842 39.1741 76.2987C39.2015 75.9692 39.3449 75.8918 39.6459 75.8367C40.8492 75.6169 43.0338 76.1461 44.1024 75.7138C44.6752 75.4818 44.7426 74.1528 43.8642 74.0046C42.9985 73.8586 39.4384 74.3779 39.2034 73.5116C39.1723 73.397 39.3298 72.7146 39.3705 72.7146H44.2357C44.5142 72.7146 44.9751 71.5336 44.4284 71.0516C44.356 70.9878 43.7285 70.6944 43.6849 70.6944C42.786 70.6944 40.0882 70.8751 39.4624 70.6944Z" fill="white"/>
<path d="M63.4188 35.0649C60.6945 37.7935 58.8624 35.0018 56.4955 34.0036C54.67 33.2336 52.617 33.1888 50.7555 33.8736C48.7418 34.6141 47.272 36.7531 44.8694 36.0834L43.4104 35.0657C43.5789 35.5888 43.8347 37.788 42.6732 37.1857C42.1217 36.8996 42.5307 36.0413 42.0361 36.1696C40.6362 36.5329 40.8652 38.9961 42.2191 39.4706C42.6732 39.6297 42.3702 38.881 42.7827 38.7513C43.0001 38.6828 43.3755 38.7001 43.5104 38.9129C43.6286 39.0995 43.674 41.5741 43.8261 42.2699C44.5594 45.6271 47.2834 49.0433 50.5213 50.2649C56.8729 52.6608 62.7527 46.9513 63.4188 40.8484C63.4943 40.1574 63.0457 38.3813 64.231 38.7511C64.5991 38.8659 64.4458 39.5172 64.6126 39.4717C66.1586 38.9123 66.5165 36.5239 64.7963 35.9842C64.6416 35.9358 64.8233 36.7826 64.4454 37.1008C63.3864 37.9927 63.2778 35.6212 63.4188 35.0649ZM63.4209 32.4952C61.5637 32.0555 59.787 31.3308 57.9153 30.9302C54.5419 30.2081 52.1399 30.1829 48.7658 30.965C47.0128 31.3713 45.3046 32.0625 43.5903 32.5882C43.8434 33.4434 44.7709 34.9692 45.72 35.064C46.8175 35.1739 47.8921 34.0494 48.7936 33.5638C51.103 32.3194 53.1341 31.9358 55.748 32.5475C58.7841 33.2579 61.5764 37.7212 63.4209 32.4952ZM57.3622 20.374C58.5178 21.913 59.5343 23.1603 60.1187 25.0528C60.3694 25.8648 61.1416 28.8579 60.302 29.2894C59.4041 29.7508 59.4496 26.9821 59.3325 26.3903C58.7129 23.2594 56.4178 20.6834 53.5982 19.3319C50.3483 20.6394 48.033 23.6391 47.4664 27.0939C47.381 27.6148 47.5211 28.1626 47.4084 28.6887C47.2101 29.6137 46.4033 29.5881 46.1615 28.7248C46.3754 26.8638 46.6152 25.1224 47.4807 23.435C48.0563 22.3128 48.9811 21.4263 49.6514 20.374C46.6704 21.5554 44.3225 24.3614 43.6753 27.5255C43.5286 28.2429 43.1976 30.6813 43.4955 31.2144C43.6538 31.4977 43.7453 31.2987 43.9109 31.2571C46.0731 30.7134 48.1219 29.7674 50.344 29.4215C54.9145 28.7104 59.0794 29.8086 63.331 31.3843C63.599 31.2177 63.5852 31.0309 63.6145 30.7566C63.669 30.2467 63.486 28.4012 63.3993 27.8316C62.9128 24.6352 60.4311 21.4466 57.3622 20.374ZM54.4659 18.3099C54.6513 18.4205 56.19 18.6155 56.6684 18.7707C60.0478 19.8667 63.2305 22.8178 64.2065 26.2895C64.9732 29.0167 64.6183 31.7858 64.7289 34.5825C65.2999 35.0607 65.948 35.1642 66.4399 35.8092C67.3621 37.0184 67.3109 38.712 66.249 39.823C65.8593 40.2305 64.6076 40.7091 64.5548 40.7912C64.4795 40.9081 64.2937 42.4786 64.1781 42.8937C60.7829 55.0921 45.855 54.8418 42.7601 42.6016C42.6581 42.1979 42.6066 41.0139 42.452 40.7986C42.3833 40.7028 41.2151 40.2633 40.838 39.8817C39.1189 38.1429 39.961 35.2952 42.3196 34.7704C41.9625 28.7833 42.2798 23.1752 47.9433 19.8573C49.6284 18.8701 51.0483 18.9501 52.4473 18.3471C52.7091 18.2344 52.805 17.5734 53.4575 17.4576C54.1583 17.3334 54.2588 18.1862 54.4659 18.3099Z" fill="white"/>
<path d="M51.881 45.0063C52.0344 44.8948 53.7792 45.0247 54.2898 44.9393C54.975 44.8245 56.7228 43.394 56.8242 44.5257C56.8943 45.3086 54.9838 46.0145 54.334 46.0856C53.8738 46.136 52.3981 46.1603 52.0395 45.9921C51.6563 45.8122 51.6274 45.191 51.881 45.0063Z" fill="white"/>
<path d="M71.4239 85.8522H68.8461C67.3435 85.8522 66.1209 84.6297 66.1209 83.1271V80.061C66.1209 79.7559 66.3681 79.5087 66.6731 79.5087C66.9783 79.5087 67.2253 79.7559 67.2253 80.061V83.1271C67.2253 84.0208 67.9526 84.7477 68.8461 84.7477H71.4239C72.8513 84.7477 74.0124 83.5866 74.0124 82.1592V65.4605C74.0124 59.4293 69.1057 54.5227 63.0746 54.5227H43.6946C37.6635 54.5227 32.7568 59.4293 32.7568 65.4605V82.1592C32.7568 83.5866 33.9181 84.7477 35.3453 84.7477H38.3555C39.2492 84.7477 39.9763 84.0208 39.9763 83.1271V80.1083C39.9763 79.8032 40.2235 79.556 40.5285 79.556C40.8333 79.556 41.0807 79.8032 41.0807 80.1083V83.1271C41.0807 84.6297 39.8583 85.8522 38.3555 85.8522H35.3453C33.309 85.8522 31.6523 84.1955 31.6523 82.1592V65.4605C31.6523 58.8204 37.0546 53.4183 43.6946 53.4183H63.0746C69.7146 53.4183 75.1169 58.8204 75.1169 65.4605V82.1592C75.1169 84.1955 73.4602 85.8522 71.4239 85.8522Z" fill="white"/>
<path d="M54.4247 77.1225H52.5889V81.8976H54.4247V77.1225ZM65.4391 76.9397C63.4096 76.4839 63.229 78.0075 62.1402 79.2394C57.3583 84.6481 49.1255 84.3011 44.5145 78.8637C43.6102 77.7971 43.8025 76.8427 42.0289 76.9357C41.4633 76.9655 41.8191 77.6081 41.9699 77.9199C43.4003 80.8808 47.5264 83.7621 50.7104 84.4195C56.6511 85.6462 63.0746 82.5397 65.4391 76.9397ZM61.5847 73.4492H58.739C57.9547 75.0019 57.0831 76.0263 55.5262 76.8469V81.7139C57.8211 81.4347 60.2625 79.8299 61.6611 78.0252C62.7444 76.6275 62.1586 77.0581 61.6082 76.0887C61.0794 75.1577 61.3043 74.3991 61.5847 73.4492ZM51.4873 76.7551C49.9013 76.2969 48.9408 74.8607 48.2745 73.4492H45.2453C45.6446 74.0464 45.7329 74.8217 45.5737 75.5238C45.2921 76.7656 43.8872 76.1947 45.1689 77.8417C46.6456 79.7391 49.0579 81.4549 51.4873 81.7139V76.7551ZM61.7682 69.9597H58.6472L58.9356 72.3503L61.2184 72.3481C61.2364 71.9072 61.1578 71.4445 61.2552 71.0073C61.3513 70.5756 61.7888 70.3995 61.7682 69.9597ZM48.3663 69.9597H45.2453C45.5001 70.8585 46.0788 71.3445 45.6125 72.3474H48.1828L48.3663 69.9597ZM57.773 71.7285C57.773 69.3677 55.8599 67.4539 53.5 67.4539C51.1402 67.4539 49.2271 69.3677 49.2271 71.7285C49.2271 74.0893 51.1402 76.0031 53.5 76.0031C55.8599 76.0031 57.773 74.0893 57.773 71.7285ZM62.8697 66.468C59.597 59.1866 49.4951 58.3483 44.9096 64.9407C43.6054 66.8155 44.2826 66.1105 45.1452 67.0296C45.6361 67.5525 45.4852 68.343 45.695 68.6835C45.8522 68.9383 48.4046 68.9333 48.7884 68.821C49.2028 68.6997 49.373 68.1333 49.6692 67.8655C51.8743 65.8708 55.0222 65.688 57.2697 67.7565C57.586 68.0477 57.7855 68.6923 58.2251 68.821C58.6258 68.9383 60.9378 68.9397 61.1308 68.6794C61.2708 68.4906 61.2616 67.9476 61.3877 67.6506C61.629 67.082 62.2459 66.5443 62.8697 66.468ZM65.8065 66.4694C66.1054 66.1725 64.2752 63.3462 63.9399 62.9204C58.7274 56.2994 49.0134 56.0229 43.4986 62.4271C42.8989 63.1235 41.3256 65.3688 41.2043 66.195C41.1537 66.5385 41.2126 66.4591 41.4771 66.4705C41.741 66.4819 42.7426 66.5243 42.8341 66.4438C42.8936 66.3916 43.3061 65.3372 43.5168 65.0167C48.3223 57.7168 58.2209 57.2124 63.2031 64.5758C63.4326 64.9153 64.0962 66.3813 64.1824 66.442C64.4 66.5951 65.4407 66.3949 65.8065 66.4694ZM39.4624 70.6944C38.9989 70.5605 39.1548 69.7848 39.6825 69.6291C40.6651 69.3392 43.6335 69.9172 44.2524 69.4259C44.7124 69.0607 44.6182 67.8274 43.9765 67.6536C42.7824 67.33 40.2421 67.8864 39.372 67.48C38.5735 67.1069 39.3576 66.4289 39.7377 66.1046C38.2184 65.8032 36.791 66.6266 36.6121 68.2104C36.458 69.573 36.4522 73.2865 36.632 74.6277C36.699 75.1273 37.0988 76.0271 37.3814 76.4493C37.7746 77.0373 39.067 77.8807 39.0169 78.4964C38.8967 79.9722 36.9654 77.7968 36.6484 77.3662C36.084 76.5995 35.5881 75.6116 35.5077 74.6507C35.3698 73.003 35.3392 69.6466 35.5141 68.0302C35.7017 66.2957 37.1682 64.8821 38.9203 64.8103C39.4449 64.7888 40.1226 65.1325 40.4715 64.9153C40.6931 64.7772 41.6486 62.9871 41.9715 62.5525C47.4367 55.2006 58.1708 54.5109 64.2494 61.5089C64.7387 62.0722 66.365 64.8083 66.5384 64.9184C66.8743 65.1319 67.5769 64.789 68.0933 64.8103C69.8409 64.8821 71.3109 66.2905 71.4996 68.0302C71.6579 69.4912 71.6767 73.5588 71.4549 74.967C71.2748 76.111 69.9974 78.1706 68.9908 78.7501C68.4095 79.0849 67.8884 78.7133 68.0296 78.1679C68.1722 77.6166 70.0767 76.4342 70.3537 74.7836C70.5649 73.5238 70.5503 69.5266 70.4016 68.2104C70.2214 66.6161 68.7834 65.8058 67.2767 66.1039C67.1143 66.6353 67.71 66.4333 67.8125 66.7593C67.8926 67.0145 67.7743 67.5722 67.5512 67.5722H62.9616C62.7893 67.5722 62.3282 68.3435 62.3151 68.5983C62.2249 70.3525 66.2632 69.265 67.338 69.621C67.997 69.8393 67.7586 70.8781 67.1841 70.8781H62.7779C62.1785 70.8781 62.1785 72.7146 62.7779 72.7146H67.3676C67.7382 72.7146 68.0634 73.7616 67.2859 73.9282L62.9586 73.9974C62.1498 74.1506 62.2372 75.5726 62.996 75.8023C64.0414 76.1187 66.1912 75.6208 67.3678 75.8367C67.8597 75.9269 67.99 76.3558 67.7411 76.7617C67.5679 77.0444 66.9174 77.0301 66.6367 77.3095C66.3574 77.5875 65.6403 79.1779 65.2254 79.7544C59.6154 87.5464 47.79 87.8877 42.0477 80.0458C41.6004 79.435 40.7654 77.6366 40.377 77.3095C39.9818 76.9767 39.1005 77.1842 39.1741 76.2987C39.2015 75.9692 39.3449 75.8918 39.6459 75.8367C40.8492 75.6169 43.0338 76.1461 44.1024 75.7138C44.6752 75.4818 44.7426 74.1528 43.8642 74.0046C42.9985 73.8586 39.4384 74.3779 39.2034 73.5116C39.1723 73.397 39.3298 72.7146 39.3705 72.7146H44.2357C44.5142 72.7146 44.9751 71.5336 44.4284 71.0516C44.356 70.9878 43.7285 70.6944 43.6849 70.6944C42.786 70.6944 40.0882 70.8751 39.4624 70.6944Z" stroke="white" stroke-width="0.607453" mask="url(#path-3-outside-1_122_7771)"/>
<path d="M63.4188 35.0649C60.6945 37.7935 58.8624 35.0018 56.4955 34.0036C54.67 33.2336 52.617 33.1888 50.7555 33.8736C48.7418 34.6141 47.272 36.7531 44.8694 36.0834L43.4104 35.0657C43.5789 35.5888 43.8347 37.788 42.6732 37.1857C42.1217 36.8996 42.5307 36.0413 42.0361 36.1696C40.6362 36.5329 40.8652 38.9961 42.2191 39.4706C42.6732 39.6297 42.3702 38.881 42.7827 38.7513C43.0001 38.6828 43.3755 38.7001 43.5104 38.9129C43.6286 39.0995 43.674 41.5741 43.8261 42.2699C44.5594 45.6271 47.2834 49.0433 50.5213 50.2649C56.8729 52.6608 62.7527 46.9513 63.4188 40.8484C63.4943 40.1574 63.0457 38.3813 64.231 38.7511C64.5991 38.8659 64.4458 39.5172 64.6126 39.4717C66.1586 38.9123 66.5165 36.5239 64.7963 35.9842C64.6416 35.9358 64.8233 36.7826 64.4454 37.1008C63.3864 37.9927 63.2778 35.6212 63.4188 35.0649ZM63.4209 32.4952C61.5637 32.0555 59.787 31.3308 57.9153 30.9302C54.5419 30.2081 52.1399 30.1829 48.7658 30.965C47.0128 31.3713 45.3046 32.0625 43.5903 32.5882C43.8434 33.4434 44.7709 34.9692 45.72 35.064C46.8175 35.1739 47.8921 34.0494 48.7936 33.5638C51.103 32.3194 53.1341 31.9358 55.748 32.5475C58.7841 33.2579 61.5764 37.7212 63.4209 32.4952ZM57.3622 20.374C58.5178 21.913 59.5343 23.1603 60.1187 25.0528C60.3694 25.8648 61.1416 28.8579 60.302 29.2894C59.4041 29.7508 59.4496 26.9821 59.3325 26.3903C58.7129 23.2594 56.4178 20.6834 53.5982 19.3319C50.3483 20.6394 48.033 23.6391 47.4664 27.0939C47.381 27.6148 47.5211 28.1626 47.4084 28.6887C47.2101 29.6137 46.4033 29.5881 46.1615 28.7248C46.3754 26.8638 46.6152 25.1224 47.4807 23.435C48.0563 22.3128 48.9811 21.4263 49.6514 20.374C46.6704 21.5554 44.3225 24.3614 43.6753 27.5255C43.5286 28.2429 43.1976 30.6813 43.4955 31.2144C43.6538 31.4977 43.7453 31.2987 43.9109 31.2571C46.0731 30.7134 48.1219 29.7674 50.344 29.4215C54.9145 28.7104 59.0794 29.8086 63.331 31.3843C63.599 31.2177 63.5852 31.0309 63.6145 30.7566C63.669 30.2467 63.486 28.4012 63.3993 27.8316C62.9128 24.6352 60.4311 21.4466 57.3622 20.374ZM54.4659 18.3099C54.6513 18.4205 56.19 18.6155 56.6684 18.7707C60.0478 19.8667 63.2305 22.8178 64.2065 26.2895C64.9732 29.0167 64.6183 31.7858 64.7289 34.5825C65.2999 35.0607 65.948 35.1642 66.4399 35.8092C67.3621 37.0184 67.3109 38.712 66.249 39.823C65.8593 40.2305 64.6076 40.7091 64.5548 40.7912C64.4795 40.9081 64.2937 42.4786 64.1781 42.8937C60.7829 55.0921 45.855 54.8418 42.7601 42.6016C42.6581 42.1979 42.6066 41.0139 42.452 40.7986C42.3833 40.7028 41.2151 40.2633 40.838 39.8817C39.1189 38.1429 39.961 35.2952 42.3196 34.7704C41.9625 28.7833 42.2798 23.1752 47.9433 19.8573C49.6284 18.8701 51.0483 18.9501 52.4473 18.3471C52.7091 18.2344 52.805 17.5734 53.4575 17.4576C54.1583 17.3334 54.2588 18.1862 54.4659 18.3099Z" stroke="white" stroke-width="0.607453" mask="url(#path-3-outside-1_122_7771)"/>
<path d="M51.881 45.0063C52.0344 44.8948 53.7792 45.0247 54.2898 44.9393C54.975 44.8245 56.7228 43.394 56.8242 44.5257C56.8943 45.3086 54.9838 46.0145 54.334 46.0856C53.8738 46.136 52.3981 46.1603 52.0395 45.9921C51.6563 45.8122 51.6274 45.191 51.881 45.0063Z" stroke="white" stroke-width="0.607453" mask="url(#path-3-outside-1_122_7771)"/>
<path d="M71.4239 85.8522H68.8461C67.3435 85.8522 66.1209 84.6297 66.1209 83.1271V80.061C66.1209 79.7559 66.3681 79.5087 66.6731 79.5087C66.9783 79.5087 67.2253 79.7559 67.2253 80.061V83.1271C67.2253 84.0208 67.9526 84.7477 68.8461 84.7477H71.4239C72.8513 84.7477 74.0124 83.5866 74.0124 82.1592V65.4605C74.0124 59.4293 69.1057 54.5227 63.0746 54.5227H43.6946C37.6635 54.5227 32.7568 59.4293 32.7568 65.4605V82.1592C32.7568 83.5866 33.9181 84.7477 35.3453 84.7477H38.3555C39.2492 84.7477 39.9763 84.0208 39.9763 83.1271V80.1083C39.9763 79.8032 40.2235 79.556 40.5285 79.556C40.8333 79.556 41.0807 79.8032 41.0807 80.1083V83.1271C41.0807 84.6297 39.8583 85.8522 38.3555 85.8522H35.3453C33.309 85.8522 31.6523 84.1955 31.6523 82.1592V65.4605C31.6523 58.8204 37.0546 53.4183 43.6946 53.4183H63.0746C69.7146 53.4183 75.1169 58.8204 75.1169 65.4605V82.1592C75.1169 84.1955 73.4602 85.8522 71.4239 85.8522Z" stroke="white" stroke-width="0.607453" mask="url(#path-3-outside-1_122_7771)"/>
</svg>
