<svg width="1592" height="1612" viewBox="0 0 1592 1612" fill="none" xmlns="http://www.w3.org/2000/svg">
<g opacity="0.1">
<g clip-path="url(#clip0_158_824)">
<path d="M476.306 1080.53C469.865 1098.86 456.755 1124.07 450.331 1142.39L434.27 1158.96C447.854 1135.02 444.812 1100.5 443.973 1073.02C443.133 1045.54 440.302 1017.65 446.42 990.82C452.539 963.992 469.835 937.681 496.217 929.759C506.597 981.49 493.81 1030.72 476.306 1080.53Z" fill="white"/>
<path d="M319.218 822.087C342.824 858.475 378.392 886.959 419.084 902.154C419.155 902.136 419.182 902.167 419.169 902.189C420.103 900.906 419.651 903.038 420.598 901.732C420.375 901.979 420.174 902.239 419.95 902.486C420.264 902.597 420.565 902.73 420.879 902.841C419.424 902.144 420.855 903.799 419.423 903.115C419.441 903.11 419.432 903.151 419.378 903.164C390.832 935.904 373.12 977.889 369.691 1021.13C320.788 1009.67 276.222 985.96 244.228 947.339L244.06 946.677C253.802 897.48 281.7 855.406 319.245 822.042L319.218 822.087Z" fill="white"/>
<path d="M399.45 667.196C380.332 670.804 351.927 672.101 332.813 675.727L310.414 670.153C337.974 669.889 366.414 649.986 389.832 635.487C413.268 620.982 436.066 604.565 462.394 596.428C488.717 588.273 520.187 590.043 540.226 608.891C500.51 643.776 451.414 657.379 399.455 667.214L399.45 667.196Z" fill="white"/>
<path d="M384.724 719.11C423.837 754.576 458.522 791.773 474.029 842.205C447.04 847.807 419.32 832.904 401.165 812.228C383.014 791.569 372.199 765.682 359.868 741.112C347.538 716.542 333.757 684.745 310.41 670.161L332.427 677.087C346.818 690.134 370.352 706.059 384.724 719.11Z" fill="white"/>
<path d="M525.684 528.393C525.684 528.393 525.729 528.496 525.706 528.483C527.294 528.651 525.193 529.317 526.817 529.477C526.493 529.406 526.157 529.358 525.838 529.306C525.902 529.632 525.925 529.95 525.989 530.277C525.868 528.67 525.147 530.718 525.017 529.152C525.022 529.17 524.999 529.157 524.937 529.135C482.281 520.872 437.007 526.596 397.769 545.295C383.318 497.298 381.651 446.899 399.198 399.893L399.685 399.407C447.241 383.188 497.673 386.226 545.367 401.949C525.564 440.581 518.597 485.592 525.715 528.367L525.684 528.393Z" fill="white"/>
<path d="M719.779 393.71C707.106 379.01 691.794 355.1 679.117 340.383L672.78 318.234C686.755 341.911 718.232 356.509 742.512 369.505C766.787 382.483 792.404 393.979 812.626 412.647C832.831 431.32 847.001 459.383 840.658 486.153C790.562 469.307 754.252 433.682 719.797 393.705L719.779 393.71Z" fill="white"/>
<path d="M667.392 406.999C656.136 458.578 641.168 507.178 605.139 545.849C586.813 525.329 585.91 493.904 594.784 467.863C603.658 441.821 620.728 419.509 635.893 396.536C651.059 373.564 671.787 345.737 672.795 318.243L677.77 340.737C673.627 359.699 671.548 388.015 667.41 406.994L667.392 406.999Z" fill="white"/>
<path d="M903.229 433.291C903.229 433.291 903.175 433.381 903.166 433.345C903.82 434.797 902.188 433.326 902.847 434.796C902.748 434.479 902.612 434.17 902.517 433.871C902.267 434.087 901.994 434.289 901.738 434.487C903.073 433.578 900.925 433.989 902.224 433.089C902.206 433.093 902.206 433.093 902.205 433.017C888.096 392.015 860.534 355.753 824.725 331.213C859.176 294.674 902.076 267.986 951.616 259.6L952.272 259.777C990.068 292.76 1012.62 337.866 1022.77 386.953C979.361 389.197 936.824 405.724 903.251 433.304L903.229 433.291Z" fill="white"/>
<path d="M1146.85 623.267C1140.73 650.095 1123.44 676.406 1097.05 684.328C1086.67 632.597 1099.46 583.37 1116.97 533.557C1123.41 515.232 1136.52 490.02 1142.94 471.7L1159 455.124C1145.42 479.066 1148.46 513.585 1149.3 541.067C1150.14 568.549 1152.97 596.44 1146.85 623.267Z" fill="white"/>
<path d="M1375.51 454.599C1362.74 470.836 1358.07 491.777 1353.37 511.412C1348.66 531.051 1343.41 551.243 1331.46 567.919C1326.49 574.871 1320.46 581.043 1313.34 585.684C1319.34 589.645 1325.12 593.947 1330.61 598.684C1341.64 608.149 1351.71 618.692 1362.83 628.076C1374.16 637.651 1386.77 645.325 1401.25 648.699C1402.97 647.958 1404.93 648.108 1406.4 649.584C1407.06 650.252 1407.48 651.231 1407.64 652.22C1407.97 653.163 1408.06 654.205 1407.8 655.128C1407.22 657.122 1405.6 658.18 1403.75 658.361C1382.57 677.149 1376.47 705.324 1367.22 731.041C1364.16 739.565 1360.54 747.715 1356.35 755.608C1373.78 756.997 1389.64 766.283 1402.87 777.454C1418.72 790.817 1430.98 807.676 1445.95 821.946C1454.07 829.69 1463.13 836.799 1473.52 841.285C1475.63 842.195 1477.18 843.935 1476.76 846.402C1476.4 848.471 1474.45 850.623 1472.13 850.336C1441.86 846.453 1417.91 870.013 1397.94 889.217C1387.32 899.426 1376.36 909.627 1363.47 916.948C1352.84 922.99 1340.74 926.513 1328.5 926.608C1323.67 926.653 1318.82 926.072 1314.19 924.867C1326.98 939.5 1341.99 952.351 1359.54 960.713C1362.73 961.086 1365.92 961.553 1369.09 962.177C1371.54 962.66 1372.91 965.644 1372.25 967.885C1372.14 968.274 1371.97 968.642 1371.76 968.961C1371.77 969.359 1371.71 969.753 1371.59 970.165C1370.94 972.423 1368.22 974.197 1365.87 973.329C1362.77 972.19 1359.76 970.917 1356.82 969.567C1337.24 967.43 1318.02 970.474 1299.42 976.425C1315.53 981.346 1329.48 994.559 1337.43 1009.05C1351.88 1035.44 1352.66 1066.75 1366.51 1093.33C1372.94 1105.69 1382.02 1116.58 1394.97 1122.38C1399.08 1124.21 1397 1131.59 1392.51 1130.96C1369.97 1127.78 1348.07 1135.08 1326.72 1141.39C1308.15 1146.87 1288.6 1151.64 1269.11 1149.28C1261.28 1148.34 1253.62 1146.26 1246.62 1142.74C1246.24 1148.85 1245.54 1154.95 1244.5 1161C1241.92 1175.84 1237.61 1190.29 1234.79 1205.07C1231.92 1220.19 1231.31 1235.47 1235.76 1250.22C1237.28 1251.34 1238.12 1253.16 1237.55 1255.18C1237.28 1256.08 1236.67 1256.9 1235.87 1257.52C1235.23 1258.29 1234.38 1258.87 1233.47 1259.1C1231.42 1259.62 1229.67 1258.71 1228.59 1257.18C1199.62 1247.6 1170.08 1258.57 1140.98 1263.14C1143.22 1268.34 1143.96 1274.23 1142.83 1280.21C1141.02 1289.72 1134.83 1297.29 1126.71 1301.21C1125.2 1301.97 1123.6 1302.59 1121.97 1303.06C1120.47 1303.5 1118.95 1303.81 1117.38 1304C1114.42 1304.36 1111.34 1304.29 1108.24 1303.7L1088.18 1299.9L1056.09 1293.83C1025.67 1288.08 1000.98 1265.33 992.77 1235.62C992.584 1235.04 992.439 1234.47 992.29 1233.88L931.134 992.528C930.337 989.38 930.073 986.23 930.307 983.163C929.345 980.875 928.223 978.704 926.944 976.668C929.182 975.035 931.393 973.371 933.573 971.657C936.692 969.211 939.735 966.688 942.702 964.09C942.953 963.875 943.203 963.659 943.436 963.448C944.344 962.665 945.248 961.865 946.13 961.052C946.376 960.818 946.64 960.58 946.886 960.346C947.767 959.533 948.653 958.737 949.512 957.911C949.695 957.731 949.865 957.574 950.049 957.394C950.111 957.34 950.187 957.264 950.246 957.192C955.18 952.496 959.903 947.569 964.37 942.459C983.656 920.46 998.608 894.914 1008.34 867.343C1008.49 866.886 1008.64 866.447 1008.8 866.008C1018.19 838.863 1022.54 809.764 1020.98 780.141C1020.59 772.663 1019.84 765.165 1018.69 757.632C1018.5 756.254 1018.28 754.881 1018.03 753.517C1018.02 753.405 1018.01 753.293 1017.99 753.186C1017.73 751.728 1017.46 750.274 1017.16 748.807C1017.15 748.754 1017.13 748.682 1017.14 748.624C1016.85 747.175 1016.56 745.744 1016.25 744.299C1015.66 741.5 1015.01 738.714 1014.3 735.924C1013.01 730.844 1011.55 725.828 1009.95 720.924C1000.44 691.85 985.474 665.835 966.503 643.747C965.963 643.122 965.446 642.511 964.91 641.904C945.895 620.246 922.975 602.452 897.579 589.339C889.221 585.043 880.609 581.248 871.769 577.987C870.337 577.456 868.892 576.946 867.446 576.437C865.96 575.919 864.479 575.419 862.989 574.959C862.715 574.857 862.423 574.76 862.154 574.676C860.614 574.171 859.061 573.689 857.495 573.23C855.991 572.792 854.487 572.355 852.988 571.935C843.357 569.313 833.534 567.291 823.556 565.936C795.807 562.138 766.936 563.401 738.166 570.482C737.606 570.605 737.05 570.746 736.494 570.887L735.418 571.159C706.77 578.571 680.777 591.115 658.176 607.559C650.007 613.493 642.278 619.963 635.004 626.869C633.886 627.952 632.767 629.035 631.653 630.136C630.526 631.259 629.403 632.4 628.303 633.554C628.057 633.788 627.816 634.039 627.597 634.304C626.474 635.445 625.378 636.617 624.305 637.803C623.24 638.948 622.199 640.107 621.179 641.279C614.905 648.37 609.095 655.857 603.76 663.642C587.663 687.231 575.969 713.74 569.535 741.809C569.354 742.598 569.176 743.404 569.017 744.206C562.79 772.641 561.99 802.613 567.42 832.701C568.358 837.907 569.484 843.103 570.803 848.308C571.501 851.062 572.252 853.803 573.053 856.512C573.483 857.983 573.909 859.436 574.37 860.88L574.379 860.916C574.849 862.396 575.337 863.871 575.821 865.328C575.83 865.364 575.839 865.4 575.866 865.431C576.341 866.852 576.829 868.252 577.335 869.646C579.906 876.856 582.844 883.858 586.105 890.627C598.881 917.406 616.587 940.9 637.806 960.267C638.157 960.597 638.508 960.927 638.876 961.252C660.617 980.868 685.979 996.178 713.481 1006.3C719.797 1008.64 726.23 1010.68 732.764 1012.46C732.854 1012.43 732.948 1012.43 733.042 1012.42C733.405 1012.35 733.778 1012.31 734.127 1012.26C734.096 1012.44 734.061 1012.6 734.03 1012.78C735.179 1013.1 736.319 1013.38 737.463 1013.68C737.809 1013.77 738.154 1013.85 738.5 1013.93C739.64 1014.22 740.775 1014.48 741.929 1014.74C742.274 1014.82 742.597 1014.89 742.943 1014.98C746.605 1015.8 750.298 1016.52 754.004 1017.14C756.938 1017.65 759.873 1018.09 762.834 1018.48C762.68 1021.26 762.79 1024.11 763.134 1026.97C764.432 1029.23 765.438 1031.7 766.109 1034.35L825.357 1268.17C825.638 1269.28 825.896 1270.37 826.123 1271.49C826.151 1271.6 826.164 1271.73 826.196 1271.86C826.469 1273.23 826.728 1274.63 826.907 1276.02C831.07 1303.82 820.418 1332.4 798.557 1350.64L770.941 1373.72L748.628 1392.36L745.039 1395.36L744.596 1395.72C743.558 1396.59 742.461 1397.38 741.337 1398.07C728.997 1405.84 712.514 1403.51 702.913 1392.04C699.16 1387.55 696.944 1382.27 696.293 1376.84C688.854 1379.1 681.388 1381.26 674.012 1383.7C657.952 1388.99 642.785 1396.22 631.166 1408.57C630.951 1410.43 629.825 1412.09 627.799 1412.6C626.885 1412.83 625.844 1412.72 624.91 1412.34C623.932 1412.17 623.003 1411.74 622.337 1411.07C620.849 1409.57 620.745 1407.57 621.552 1405.87C615.664 1377.28 593.022 1357.65 575.003 1336C569.797 1329.77 565.111 1323.25 560.85 1316.45C551.562 1329.86 536.977 1338.64 521.834 1344.53C502.071 1352.22 480.859 1354.49 460.526 1360.16C448.533 1363.5 436.992 1368.18 426.934 1375.62C423.286 1378.31 417.93 1372.84 420.683 1369.25C437.077 1347.89 432.31 1319.13 426.407 1294.93C422.653 1279.52 418.37 1264.12 417.48 1248.18C416.723 1234.73 419.051 1221.33 425.253 1209.29C427.846 1204.23 431.197 1199.54 435.178 1195.52C416.055 1199.26 397.384 1205.84 381.357 1216.83C379.448 1219.39 377.432 1221.9 375.299 1224.32C373.658 1226.21 370.429 1225.96 368.76 1224.27C368.454 1223.97 368.234 1223.62 368.036 1223.29C367.699 1223.09 367.393 1222.86 367.092 1222.58C365.45 1220.92 365.213 1217.65 367.155 1216.05C369.693 1213.94 372.284 1211.97 374.944 1210.12C386.576 1194.29 393.583 1176.08 397.771 1157C386.604 1167.36 370.468 1172.88 355.45 1173.55C325.772 1174.86 298.555 1160.21 269.471 1157.17C253.401 1155.49 236.726 1157.07 223.288 1166.76C221.448 1168.08 218.571 1167.19 217.342 1165.51C215.879 1163.5 216.282 1161.32 217.757 1159.46C230.527 1143.23 235.199 1122.29 239.897 1102.65C244.613 1083.01 249.856 1062.82 261.81 1046.14C266.783 1039.19 272.813 1033.02 279.936 1028.38C273.934 1024.42 268.15 1020.12 262.657 1015.38C251.635 1005.91 241.561 995.371 230.445 985.987C219.109 976.411 206.499 968.738 192.022 965.364C190.302 966.104 188.337 965.955 186.876 964.479C186.21 963.81 185.79 962.832 185.635 961.843C185.301 960.9 185.208 959.858 185.471 958.935C186.053 956.941 187.674 955.883 189.517 955.701C210.703 936.913 216.805 908.738 226.048 883.022C229.115 874.498 232.736 866.347 236.917 858.455C219.49 857.065 203.629 847.78 190.4 836.609C174.556 823.246 162.29 806.387 147.322 792.116C139.197 784.373 130.146 777.263 119.756 772.777C117.637 771.868 116.089 770.128 116.513 767.66C116.867 765.591 118.821 763.44 121.145 763.727C151.415 767.61 175.361 744.05 195.335 724.845C205.951 714.637 216.912 704.436 229.805 697.114C240.427 691.073 252.527 687.55 264.771 687.454C269.606 687.409 274.446 687.991 279.083 689.195C266.293 674.563 251.284 661.712 233.731 653.35C230.545 652.977 227.355 652.51 224.183 651.886C221.733 651.403 220.366 648.418 221.019 646.178C221.131 645.788 221.304 645.421 221.51 645.102C221.504 644.704 221.557 644.31 221.682 643.898C222.331 641.639 225.048 639.866 227.405 640.734C230.498 641.873 233.511 643.146 236.448 644.496C256.03 646.633 275.253 643.589 293.855 637.638C277.745 632.717 263.789 619.504 255.844 605.014C241.391 578.622 240.614 547.317 226.762 520.734C220.329 508.374 211.254 497.483 198.3 491.686C194.191 489.853 196.271 482.474 200.762 483.106C223.298 486.284 245.201 478.983 266.555 472.677C285.122 467.192 304.673 462.428 324.157 464.78C331.99 465.727 339.651 467.801 346.648 471.32C347.027 465.209 347.733 459.111 348.775 453.06C351.351 438.227 355.663 423.772 358.481 408.992C361.348 393.875 361.958 378.589 357.515 363.84C355.991 362.722 355.148 360.899 355.725 358.888C355.992 357.983 356.604 357.161 357.401 356.541C358.045 355.768 358.891 355.192 359.805 354.96C361.849 354.443 363.605 355.349 364.681 356.885C395.165 366.957 426.279 354.295 456.851 350.259C462.092 349.559 467.375 349.172 472.648 348.978C464.873 332.523 465.392 313.339 468.866 295.651C472.805 275.657 481.174 256.881 485.867 237.076C488.453 226.124 489.719 214.934 488.438 203.705C487.924 199.267 495.373 197.417 497.08 201.515C507.691 226.978 535.95 237.005 560.465 244.078C574.464 248.125 588.584 251.895 601.782 258.201C614.176 264.12 625.007 272.606 632.778 283.999C636.267 289.11 638.964 294.784 640.603 300.726C646.919 282.357 650.59 262.963 649.086 243.625C647.805 240.676 646.644 237.677 645.6 234.61C644.791 232.246 646.672 229.58 648.949 229.003C649.361 228.899 649.756 228.875 650.137 228.873C650.468 228.675 650.831 228.526 651.244 228.422C653.521 227.845 656.444 229.293 656.859 231.757C657.41 234.987 657.809 238.217 658.104 241.416C666.004 259.343 678.243 274.438 692.652 287.556C688.745 270.33 694.075 250.631 703.585 236.058C719.148 212.166 744.046 196.283 759.749 172.565C767.78 160.442 773.193 146.641 771.697 131.926C771.246 127.51 778.677 125.589 780.338 129.736C787.972 148.72 802.801 163.045 817.4 176.838C832.3 190.916 847.507 205.45 856.459 224.214C860.319 232.296 862.862 240.978 863.361 249.874C866.093 248.535 868.839 247.249 871.63 246.066C887.077 239.563 903.361 235.608 919.241 230.365C935.301 225.077 950.468 217.846 962.088 205.499C962.303 203.636 963.428 201.98 965.454 201.467C966.369 201.235 967.409 201.352 968.343 201.724C969.321 201.895 970.251 202.326 970.916 202.995C972.405 204.502 972.509 206.493 971.702 208.202C977.589 236.784 1000.23 256.419 1018.25 278.063C1023.46 284.3 1028.14 290.822 1032.4 297.622C1041.69 284.209 1056.28 275.431 1071.42 269.538C1091.18 261.846 1112.39 259.574 1132.73 253.907C1144.72 250.564 1156.26 245.888 1166.32 238.447C1169.97 235.753 1175.32 241.229 1172.57 244.82C1156.18 266.181 1160.94 294.933 1166.85 319.133C1170.6 334.551 1174.88 349.95 1175.77 365.884C1176.53 379.34 1174.2 392.74 1168 404.78C1165.41 409.834 1162.06 414.528 1158.08 418.545C1177.2 414.803 1195.87 408.225 1211.9 397.235C1213.8 394.677 1215.82 392.167 1217.95 389.743C1219.6 387.861 1222.82 388.109 1224.49 389.799C1224.8 390.102 1225.02 390.446 1225.22 390.776C1225.55 390.976 1225.86 391.203 1226.16 391.489C1227.8 393.147 1228.04 396.418 1226.1 398.014C1223.56 400.123 1220.97 402.093 1218.31 403.947C1206.68 419.781 1199.67 437.983 1195.48 457.07C1206.65 446.702 1222.79 441.186 1237.8 440.521C1267.48 439.206 1294.7 453.855 1323.78 456.897C1339.85 458.573 1356.53 456.993 1369.97 447.307C1371.81 445.984 1374.68 446.873 1375.91 448.56C1377.37 450.569 1376.97 452.745 1375.5 454.604L1375.51 454.599ZM1357.77 730.011C1362.7 716.503 1366.52 702.591 1372 689.287C1377.07 677 1383.64 665.419 1392.82 655.936C1368.05 648.089 1349.77 628.568 1330.86 611.26C1325.49 606.339 1319.97 601.553 1314.09 597.238C1310.53 594.637 1306.84 592.261 1303.05 589.984C1302.09 589.79 1301.18 589.297 1300.52 588.494C1298.26 587.182 1295.99 585.91 1293.71 584.661C1278.97 576.71 1263.36 570.35 1246.99 566.616C1229.07 562.534 1210.38 562.036 1192.54 566.673C1191.44 566.95 1190.47 566.855 1189.65 566.509C1189.56 581.933 1189.03 597.349 1187.06 612.677C1184.13 635.653 1177.92 658.202 1167.71 679.061C1160.04 694.728 1149.55 709.949 1135.84 721.056C1150.44 723.789 1164.45 730.195 1176.89 738.102C1195.81 750.133 1212.45 765.941 1226.23 783.577C1237.94 798.576 1247.58 814.845 1256.7 831.474C1257.25 830.707 1258.07 830.117 1259.25 829.817C1291.74 821.814 1317.41 797.987 1336.06 771.161C1338.82 767.19 1341.4 763.166 1343.85 759.061C1344.06 758.134 1344.55 757.362 1345.2 756.778C1350.14 748.238 1354.39 739.355 1357.83 729.975L1357.77 730.011ZM1359.24 908.711C1384.56 894.186 1401.42 868.938 1426.09 853.418C1435.06 847.776 1445.1 843.348 1455.55 841.554C1443.18 833.079 1432.71 822.027 1422.62 810.804C1409.45 796.174 1396.19 781.145 1378.52 771.785C1370.04 767.292 1360.8 764.664 1351.23 764.691C1349.46 767.633 1347.63 770.554 1345.68 773.426C1342.92 777.513 1340.02 781.503 1336.99 785.413C1351.3 786.353 1364.49 795.479 1375.34 805.329C1387.68 816.535 1399.28 829.529 1414.88 835.454C1404.02 837.026 1394.8 844.311 1387.51 852.498C1380.21 860.684 1374.25 870.038 1366.5 877.806C1347.95 896.441 1319.19 903.938 1293.76 897.611C1295.57 900.424 1297.46 903.183 1299.37 905.933C1299.37 905.933 1299.37 905.933 1299.4 905.964C1314.73 922.578 1341.36 918.992 1359.23 908.733L1359.24 908.711ZM1295.07 1139.43C1315.8 1136.33 1335.31 1128.24 1355.75 1123.88C1362.42 1122.46 1369.23 1121.44 1376.04 1121.08C1361.12 1107.98 1352.78 1087.84 1347.49 1069.1C1340.05 1042.66 1335.78 1011.43 1312.48 993.558C1302.46 985.875 1289.76 981.402 1277.22 984.846C1274.12 986.205 1271.04 987.631 1267.98 989.093C1292.9 996.997 1313.36 1018.36 1319.39 1043.87C1321.89 1054.52 1322.07 1065.59 1323.98 1076.37C1325.89 1087.16 1329.92 1098.17 1338.34 1105.17C1321.93 1102.08 1305.23 1107.12 1288.81 1110.24C1274.38 1112.98 1258.35 1113.87 1245.65 1107.2C1245.84 1109.02 1246.04 1110.84 1246.19 1112.65C1246.75 1119.2 1247 1125.78 1246.96 1132.34C1261.25 1141.13 1278.73 1141.9 1295.07 1139.45L1295.07 1139.43ZM1049.65 1219.36C1051.77 1227.75 1058.66 1234.23 1067.18 1235.84L1119.32 1245.71C1125.8 1246.95 1131.37 1250.18 1135.5 1254.67C1150.63 1252.57 1165.42 1248.61 1180.5 1246.14C1195.45 1243.69 1210.62 1243.02 1225.23 1246.61C1222.71 1235.24 1222.69 1223.44 1224.33 1211.83C1226.43 1196.99 1230.57 1182.56 1233.71 1167.92C1235.95 1157.48 1237.28 1146.75 1237.68 1135.97C1237.35 1134.97 1237.34 1133.88 1237.78 1132.84C1238.19 1113 1235.47 1093.01 1229.49 1074.28C1224.06 1057.32 1215.3 1041.5 1202.75 1028.79C1201.95 1027.96 1201.55 1027.07 1201.44 1026.19C1184.46 1035.82 1167.15 1044.83 1148.78 1051.54C1129.22 1058.69 1108.44 1063.12 1087.62 1063.9C1071.84 1064.51 1055.34 1062.79 1040.47 1057.12C1042.39 1062.51 1043.75 1068.09 1044.66 1073.74C1046.79 1086.88 1046.72 1100.3 1045.12 1113.5C1043.25 1128.99 1039.49 1144.03 1034.24 1158.57L1049.64 1219.35L1049.65 1219.36ZM1056.98 922.225C1052.74 925.262 1048.46 928.344 1044.1 931.297C1033.54 950.264 1020.86 968.04 1006.28 984.221C1015.58 984.929 1024.85 983.587 1033.18 979.46C1039.26 976.452 1044.78 972.408 1050.1 968.32C1057.27 962.792 1064.36 957.189 1071.79 952.032C1085.01 942.856 1099.16 935.064 1113.97 928.779C1131.83 921.17 1150.45 915.671 1169.5 912.006C1143.41 888.181 1121.65 859.681 1107.41 827.259C1103.69 818.76 1100.51 810.049 1097.22 801.383C1094.85 795.17 1092.24 788.807 1088.49 782.962C1086.1 779.247 1083.16 775.919 1079.83 773.014C1081.32 795.306 1080.15 817.358 1076.55 838.828C1077.38 840.767 1078.2 842.711 1079.01 844.637C1085.9 860.992 1092.17 880.134 1104.64 892.771C1105.74 893.102 1106.81 893.439 1107.91 893.77C1107.27 893.876 1106.63 893.999 1105.99 894.122C1106.47 894.572 1106.96 895 1107.45 895.428C1106.33 895.141 1105.21 894.855 1104.1 894.563C1086.85 898.84 1071.46 911.895 1056.98 922.225ZM991.705 584.56C1003.16 585.882 1014.74 586.393 1025.35 583.628C1026.18 582.846 1027.02 582.082 1027.85 581.3C1027.62 581.892 1027.41 582.497 1027.2 583.102C1027.83 582.925 1028.43 582.734 1029.04 582.522C1028.25 583.33 1027.45 584.144 1026.66 584.934C1023.21 596.714 1023.88 609.829 1025.18 622.634C1041.24 644.527 1054.37 668.991 1063.78 695.595C1063.88 695.246 1063.96 694.883 1064.03 694.543C1065.28 688.285 1065.01 680.875 1064.29 674.11C1063.45 666.196 1062 657.482 1061.06 649.251C1059.13 632.076 1058.96 614.76 1060.78 597.548C1062.96 576.952 1067.7 556.735 1074.5 537.178C1044.08 546.79 1012.06 551.556 980.158 549.455C970.455 548.811 960.827 547.482 951.234 545.916C946.478 545.142 941.793 544.273 937.056 543.647C956.779 555.075 975.154 568.787 991.705 584.56ZM708.17 517.535C712.15 511.254 715.46 504.743 717.344 497.87C717.085 496.775 716.84 495.657 716.582 494.561C716.991 495.047 717.4 495.534 717.828 496.015C717.974 495.388 718.103 494.766 718.231 494.143C718.53 495.248 718.842 496.329 719.137 497.416C724.084 502.558 730.1 506.725 736.613 510.366C759.532 505.795 782.419 504.107 804.909 505.07C796.49 501.664 788.103 498.155 779.979 494.104C766.637 487.454 754 479.521 742.172 470.489C727.36 459.167 713.871 446.292 701.662 432.217C694.916 462.668 683.337 492.117 666.126 518.234C660.725 526.436 654.745 534.233 648.526 541.843C647.655 542.92 646.778 543.98 645.884 545.044C665.126 533.639 685.97 524.341 708.17 517.535ZM546.819 642.972C544.702 644.556 542.616 646.188 540.526 647.803C533.4 653.339 526.27 658.858 518.789 663.894C505.981 672.527 492.312 679.873 478.061 685.826C460.571 693.151 442.368 698.487 423.778 702.075C449.871 725.917 471.658 754.449 485.889 786.893C489.639 795.441 492.828 804.188 496.143 812.904C498.505 819.138 501.195 825.613 504.996 831.427C505.896 832.797 506.855 834.096 507.881 835.359C503.605 807.415 503.599 779.608 507.398 752.663C502.569 741.134 496.991 729.737 488.609 721.278C487.536 720.96 486.441 720.629 485.364 720.293C486.005 720.187 486.623 720.069 487.255 719.927C486.783 719.495 486.311 719.063 485.826 718.653C486.93 718.944 488.029 719.217 489.134 719.509C499.514 716.954 509.222 711.22 518.449 704.79C525.446 683.088 534.994 662.338 546.819 642.972ZM637.198 1034.06C632.299 1033.55 627.409 1032.93 622.541 1032.32C604.905 1030.1 585.138 1025.96 567.923 1030.45C567.091 1031.23 566.254 1032 565.422 1032.78C565.654 1032.19 565.863 1031.58 566.072 1030.98C565.445 1031.14 564.831 1031.35 564.217 1031.56C565.022 1030.75 565.823 1029.92 566.628 1029.11C571.579 1012.05 567.966 992.221 566.242 974.576C566.072 972.849 565.897 971.104 565.74 969.354C552.195 952.116 540.515 933.205 531.088 912.791C530.216 915.296 529.523 917.908 529.032 920.64C528.847 921.715 528.649 923.345 528.536 924.858C528.402 926.586 528.357 928.291 528.375 930.019C528.385 933.595 528.663 937.179 529.067 940.731C529.967 948.726 531.426 957.645 532.34 965.998C534.193 983.021 534.26 1000.15 532.412 1017.18C530.201 1037.59 525.473 1057.64 518.73 1077.03C520.871 1076.3 523.009 1075.54 525.178 1074.92C530.206 1073.45 535.266 1072.11 540.367 1070.94C549.555 1068.8 558.862 1067.13 568.232 1066.01C583.727 1064.14 599.32 1063.63 614.89 1064.77C624.548 1065.46 634.114 1066.84 643.653 1068.42C650.805 1069.62 657.872 1070.93 665.152 1071.27C672.163 1071.61 678.166 1070.91 684.861 1068.64C688.952 1067.24 692.831 1065.31 696.457 1062.98C675.646 1055.61 655.748 1045.9 637.198 1034.06ZM556.319 1288.47C558.687 1293.68 561.261 1298.79 564.028 1303.76C564.788 1304.43 565.252 1305.28 565.43 1306.21C569.858 1313.9 574.793 1321.25 580.454 1328.15C589.893 1339.65 600.447 1350.21 609.65 1361.91C618.155 1372.73 625.285 1384.53 629.069 1397.66C638.805 1388.8 650.508 1382.58 662.914 1377.85C673.968 1373.66 685.378 1370.58 696.671 1367.11C697.968 1360.79 701.317 1354.87 706.655 1350.42L760.638 1305.35C767.029 1300 769.948 1291.42 768.142 1283.31C733.766 1319.62 691.01 1346.12 641.67 1354.48L641.015 1354.3C603.219 1321.32 580.667 1276.21 570.518 1227.12C613.926 1224.88 656.463 1208.35 690.036 1180.77C690.076 1180.7 690.089 1180.68 690.098 1180.72C689.444 1179.27 691.076 1180.74 690.418 1179.27C690.517 1179.58 690.652 1179.89 690.747 1180.19C690.998 1179.98 691.271 1179.77 691.526 1179.58C690.192 1180.48 692.339 1180.07 691.041 1180.97C691.059 1180.97 691.059 1180.97 691.059 1181.05C705.088 1221.8 732.411 1257.88 767.911 1282.4L754.315 1228.74C754.072 1228.54 753.825 1228.32 753.577 1228.09C734.152 1210.46 717.101 1188.95 707.332 1164.47C704.587 1157.56 702.491 1150.34 701.319 1143C701.319 1143 701.319 1143 701.315 1142.99C692.631 1153.07 681.66 1161.27 670.12 1167.76C651.759 1178.04 631.271 1184.76 610.61 1188.53C588.819 1192.51 566.898 1192.88 544.947 1192.39C545.335 1193.25 545.423 1194.27 545.103 1195.42C536.063 1226.53 543.165 1259.6 556.31 1288.44L556.319 1288.47ZM433.954 1212.53C427.83 1223.67 425.979 1236.25 426.734 1248.79C428.488 1277.77 441.776 1304.84 441.118 1334.17C440.93 1342.61 439.566 1351.16 436.654 1359.09C468.685 1343.8 507.72 1346.35 537.922 1326.1C545.161 1321.24 551.271 1315.01 555.584 1307.48C553.412 1303.58 551.37 1299.59 549.435 1295.49C547.78 1291.97 546.21 1288.41 544.725 1284.8C536.732 1296.71 522.21 1303.55 508.229 1308C492.307 1313.09 475.247 1316.61 462.268 1327.13C466.35 1316.96 464.633 1305.37 461.179 1294.97C457.725 1284.58 452.587 1274.77 449.738 1264.2C442.881 1238.87 450.748 1210.29 468.934 1191.48C465.585 1191.66 462.249 1191.9 458.89 1192.2C447.716 1194.71 439.341 1202.69 433.931 1212.51L433.954 1212.53ZM256.968 1075.9C250.049 1095.05 247.326 1115.41 240.722 1134.67C238.79 1140.3 236.53 1145.76 233.831 1150.99C255.774 1143.55 281.155 1148.92 302.981 1154.94C327.37 1161.67 354.432 1170.21 378.795 1158.68C389.429 1153.67 398.418 1145.39 401.509 1133.8C401.903 1130.39 402.217 1126.96 402.495 1123.54C383.144 1141.14 354.365 1148.18 329.221 1140.66C318.713 1137.52 309.011 1132.13 298.7 1128.41C288.388 1124.68 276.829 1122.66 266.515 1126.46C277.412 1113.82 281.399 1096.87 286.932 1081.14C291.78 1067.29 299.048 1052.98 311.214 1045.35C308.533 1044.18 305.879 1042.97 303.248 1041.7C298.308 1039.29 293.471 1036.69 288.763 1033.93C272.663 1042.59 263.041 1059.14 256.959 1075.94L256.968 1075.9ZM235.487 884.056C230.553 897.565 226.733 911.476 221.251 924.781C216.18 937.067 209.613 948.648 200.435 958.131C225.203 965.978 243.486 985.499 262.391 1002.81C267.759 1007.73 273.283 1012.51 279.165 1016.83C282.724 1019.43 286.417 1021.81 290.199 1024.08C291.164 1024.28 292.072 1024.77 292.733 1025.57C294.992 1026.89 297.261 1028.16 299.542 1029.41C314.283 1037.36 329.898 1043.72 346.26 1047.45C364.179 1051.53 382.869 1052.03 400.716 1047.39C401.809 1047.12 402.787 1047.21 403.6 1047.56C403.698 1032.13 404.218 1016.72 406.192 1001.39C409.127 978.415 415.338 955.865 425.544 935.006C433.213 919.339 443.703 904.118 457.411 893.012C442.81 890.278 428.805 883.872 416.365 875.966C397.443 863.934 380.807 848.126 367.028 830.49C355.309 815.491 345.673 799.222 336.556 782.593C336.007 783.361 335.183 783.95 334 784.25C301.514 792.254 275.842 816.08 257.188 842.906C254.436 846.877 251.85 850.902 249.399 855.006C249.195 855.933 248.703 856.705 248.05 857.289C243.117 865.83 238.862 874.712 235.419 884.092L235.487 884.056ZM234.034 705.37C208.714 719.894 191.855 745.142 167.188 760.663C158.22 766.304 148.18 770.733 137.722 772.526C150.096 781.002 160.566 792.053 170.659 803.276C183.83 817.907 197.082 832.936 214.755 842.295C223.239 846.789 232.471 849.417 242.042 849.39C243.815 846.447 245.65 843.527 247.594 840.655C250.355 836.567 253.255 832.577 256.29 828.668C241.971 827.728 228.784 818.602 217.932 808.752C205.591 797.546 193.999 784.552 178.398 778.626C189.257 777.055 198.476 769.77 205.77 761.583C213.063 753.396 219.03 744.042 226.773 736.275C245.328 717.64 274.088 710.143 299.521 716.47C297.701 713.657 295.819 710.898 293.901 708.148C293.901 708.148 293.901 708.148 293.879 708.135C278.546 691.52 251.924 695.107 234.052 705.365L234.034 705.37ZM298.193 474.653C277.458 477.756 257.948 485.841 237.512 490.201C230.833 491.627 224.032 492.646 217.216 493.003C232.136 506.105 240.482 526.241 245.765 544.984C253.208 571.421 257.479 602.658 280.781 620.527C290.798 628.21 303.493 632.683 316.033 629.239C319.142 627.88 322.215 626.454 325.279 624.993C300.362 617.088 279.895 595.722 273.872 570.22C271.363 559.568 271.191 548.496 269.279 537.712C267.367 526.928 263.337 515.92 254.923 508.915C271.332 512.009 288.025 506.961 304.445 503.847C318.88 501.103 334.911 500.219 347.607 506.88C347.414 505.064 347.221 503.247 347.068 501.44C346.513 494.88 346.258 488.302 346.294 481.745C332.009 472.955 314.529 472.188 298.188 474.635L298.193 474.653ZM478.915 357.973C472.789 357.965 466.686 358.274 460.651 359.004C444.492 360.967 428.784 365.309 412.739 367.947C397.793 370.402 382.622 371.068 368.014 367.48C370.533 378.852 370.547 390.65 368.909 402.257C366.813 417.102 362.667 431.533 359.525 446.167C357.288 456.613 355.962 467.342 355.564 478.121C355.894 479.122 355.902 480.205 355.46 481.25C355.051 501.092 357.767 521.075 363.755 539.81C369.177 556.766 377.937 572.59 390.488 585.304C391.289 586.129 391.686 587.018 391.796 587.903C408.777 578.271 426.088 569.259 444.458 562.548C464.016 555.403 484.797 550.975 505.623 550.189C521.399 549.58 537.881 551.303 552.764 556.954C547.504 541.994 546.236 525.546 547.258 509.85C548.787 486.222 555.086 463.041 564.537 441.383C571.237 426.038 579.501 411.514 588.213 397.258C587.307 397.145 586.418 396.723 585.617 395.898C565.101 374.563 536.172 363.926 507.261 360.06C499.064 358.958 490.693 358.224 482.333 358.059C481.173 358.524 479.975 358.466 478.924 358.009L478.915 357.973ZM625.491 289.728C618.493 278.977 608.163 271.411 596.676 265.985C571.659 254.147 543.227 251.72 519.048 237.766C511.161 233.217 503.772 227.476 497.901 220.494C495.233 254.613 474.828 286.051 475.624 320.891C475.861 330.786 478.142 340.391 483.089 348.921C490.283 349.078 497.474 349.597 504.616 350.452C505.819 350.604 507.026 350.774 508.21 350.93C501.866 338.091 503.214 322.103 506.338 307.778C509.901 291.496 515.406 274.969 512.766 258.526C519.56 267.121 530.461 271.439 541.208 273.645C551.956 275.852 563.044 276.316 573.653 279.109C599.047 285.808 619.912 306.864 627.132 331.968C628.676 328.95 630.17 325.888 631.602 322.803C635.124 311.327 631.881 299.586 625.478 289.75L625.491 289.728ZM832.639 205.277C819.521 190.1 803.477 177.758 790.341 162.586C786.62 158.294 783.137 153.809 780.066 149.067C775.975 169.291 761.675 187.095 747.406 201.484C728.794 220.267 705.844 238.797 701.288 266.371C699.16 279.207 701.524 293.131 711.026 302.543C713.771 304.569 716.58 306.541 719.401 308.491C713.84 283.005 722.157 254.611 741.278 236.632C749.277 229.123 758.806 223.435 767.206 216.377C775.605 209.318 783.157 200.343 785.016 189.536C790.53 205.27 803.217 217.168 814.122 229.784C823.709 240.888 832.485 254.291 833.025 268.62C839.78 263.654 846.831 258.955 854.167 254.774C854.669 236.05 844.583 219.134 832.621 205.282L832.639 205.277ZM1036.96 325.609C1034.59 320.404 1032.01 315.289 1029.25 310.318C1028.49 309.654 1028.02 308.801 1027.85 307.875C1023.42 300.184 1018.48 292.832 1012.82 285.929C1003.38 274.426 992.829 263.872 983.626 252.175C975.121 241.349 967.99 229.547 964.206 216.42C954.471 225.283 942.768 231.503 930.362 236.227C915.361 241.932 899.678 245.544 884.555 250.918C876.732 253.7 869.215 257.166 861.956 261.118C861.298 261.837 860.439 262.359 859.412 262.524C853.751 265.709 848.258 269.176 842.894 272.858C830.641 281.273 819.244 291.109 809.573 302.41C798.958 314.808 790.748 329.241 786.404 344.999C786.106 346.083 785.543 346.873 784.836 347.395C796.703 354.323 808.397 361.543 819.514 369.652C838.84 383.731 856.093 400.468 869.819 420.079C880.354 435.149 889.052 452.684 891.97 471.054C900.636 460.978 911.611 452.791 923.138 446.33C941.499 436.043 961.987 429.329 982.648 425.559C1004.44 421.579 1026.36 421.201 1048.31 421.691C1047.92 420.838 1047.83 419.813 1048.15 418.666C1057.19 387.558 1050.09 354.486 1036.95 325.65L1036.96 325.609ZM1159.32 401.555C1165.45 390.41 1167.3 377.835 1166.54 365.292C1164.79 336.31 1151.5 309.241 1152.16 279.914C1152.35 271.472 1153.71 262.923 1156.62 254.99C1124.59 270.283 1085.56 267.726 1055.35 287.98C1048.11 292.841 1042 299.072 1037.69 306.598C1039.86 310.502 1041.91 314.495 1043.84 318.575C1045.49 322.095 1047.06 325.656 1048.55 329.258C1056.54 317.354 1071.06 310.515 1085.04 306.058C1100.96 300.977 1118.02 297.453 1131 286.931C1126.92 297.102 1128.64 308.696 1132.09 319.089C1135.55 329.482 1140.68 339.296 1143.53 349.861C1150.39 375.191 1142.52 403.775 1124.34 422.583C1127.69 422.4 1131.02 422.164 1134.38 421.865C1145.56 419.357 1153.93 411.372 1159.34 401.55L1159.32 401.555ZM1201.36 414.009C1181.44 423.855 1159.44 428.61 1137 430.699C1136.88 430.731 1136.75 430.763 1136.64 430.79C1136.07 430.935 1135.53 430.92 1135.02 430.877C1116.05 432.505 1096.79 432.305 1078.22 431.681C1051.15 430.793 1023.83 429.226 996.857 432.617C976.112 435.228 955.46 440.69 936.571 449.721C919.554 457.859 903.362 469.177 893.012 485.028C892.978 487.378 892.867 489.728 892.622 492.074C892.351 494.541 890.558 496.652 887.893 496.603C886.88 496.594 885.852 496.15 885.034 495.482C883.962 495.62 882.849 495.445 881.996 494.938C879.683 493.564 879.326 490.875 880.392 488.607C881.413 486.463 882.533 484.409 883.739 482.391C883.223 463.487 875.38 445.413 865.158 429.616C852.585 410.189 835.906 393.307 817.387 379.48C782.174 353.151 741.001 335.985 705.654 309.957C705.318 309.757 704.972 309.521 704.648 309.222C704.643 309.205 704.616 309.173 704.594 309.16C700.244 305.922 695.961 302.573 691.799 299.021C678.893 287.997 667.298 275.365 658.317 261.081C656.882 283.277 649.974 304.804 640.533 325.298C640.511 325.361 640.507 325.419 640.484 325.482C640.324 325.979 640.101 326.378 639.851 326.746C633.219 340.932 625.393 354.622 617.373 367.694C604.136 389.245 589.997 410.32 578.66 432.97C568.261 453.745 560.587 476.094 557.603 499.177C554.834 520.55 555.603 543.615 565.467 563.043C567.489 564.243 569.488 565.507 571.393 566.928C573.406 568.397 574.364 570.971 572.998 573.259C572.475 574.134 571.58 574.818 570.567 575.188C570.166 576.166 569.469 577.028 568.587 577.537C566.249 578.852 563.708 577.859 562.272 575.806C560.921 573.864 559.705 571.85 558.556 569.8C544.058 561.977 527.246 559.252 510.755 559.3C490.34 559.372 469.958 563.491 450.681 570.089C403.882 586.135 364.723 617.948 319.612 637.64C319.343 637.784 319.052 637.915 318.72 638.037C315.195 639.559 311.633 641.013 308.031 642.383C290.53 648.988 272.077 653.416 253.484 654.13C272.044 666.463 287.27 683.181 300.329 701.589C300.356 701.621 300.383 701.652 300.428 701.679C300.747 702.035 300.995 702.41 301.184 702.781C310.08 715.45 317.959 728.852 325.197 742.131C338.145 765.898 350.076 790.321 365.42 812.701C378.283 831.464 393.998 848.609 412.427 862.079C428.981 874.177 448.404 883.969 469.083 885.086C471.12 883.942 473.194 882.864 475.358 881.916C477.642 880.919 480.339 881.32 481.672 883.647C482.182 884.527 482.315 885.654 482.152 886.742C482.809 887.604 483.211 888.663 483.204 889.692C483.144 892.391 480.978 894.006 478.476 894.222C476.139 894.414 473.803 894.454 471.471 894.436C456.032 903.906 444.563 918.804 436.083 934.734C425.622 954.363 419.038 976.265 415.925 998.239C409.487 1043.53 415.802 1089.54 410.665 1134.85C410.666 1135.15 410.613 1135.47 410.56 1135.79C409.863 1141.77 408.959 1147.77 407.795 1153.71C404.649 1169.83 399.573 1185.64 391.919 1200.09C411.843 1190.24 433.838 1185.49 456.279 1183.4C456.405 1183.37 456.53 1183.34 456.638 1183.31C457.211 1183.16 457.75 1183.18 458.257 1183.22C477.228 1181.59 496.491 1181.79 515.061 1182.42C542.129 1183.31 569.447 1184.87 596.424 1181.48C617.169 1178.87 637.821 1173.41 656.71 1164.38C673.709 1156.24 689.901 1144.93 700.255 1129.09C700.285 1126.73 700.413 1124.37 700.676 1122.02C700.943 1119.53 702.741 1117.44 705.387 1117.5C706.401 1117.5 707.442 1117.93 708.283 1118.61C709.336 1118.47 710.431 1118.65 711.285 1119.16C713.598 1120.53 713.955 1123.22 712.889 1125.49C711.867 1127.64 710.752 1129.71 709.528 1131.73C710.132 1153.16 720.039 1173.44 732.382 1190.75C737.712 1198.23 743.628 1205.24 750.005 1211.81L713.694 1068.51C711.558 1067.91 709.435 1067.28 707.316 1066.6C697.886 1074.11 686.701 1079.21 673.433 1080.39C666.51 1081 659.56 1080.23 652.7 1079.21C644.014 1077.91 635.394 1076.26 626.668 1075.18C610.306 1073.18 593.778 1072.86 577.349 1074.28C567.229 1075.15 557.174 1076.73 547.241 1078.86C541.414 1080.11 535.618 1081.56 529.886 1083.19C526.839 1084.03 523.81 1084.95 520.807 1085.9C517.984 1086.81 515.162 1088.02 512.293 1088.75C512.257 1088.76 512.239 1088.76 512.199 1088.75C512.127 1088.77 512.056 1088.79 511.979 1088.79C511.818 1088.83 511.652 1088.85 511.482 1088.86C511.249 1088.92 510.993 1088.89 510.737 1088.86C510.603 1088.85 510.464 1088.83 510.32 1088.79C510.185 1088.79 510.042 1088.75 509.898 1088.71L509.88 1088.71C509.27 1088.56 508.735 1088.26 508.286 1087.84C508.209 1087.76 508.137 1087.71 508.056 1087.61C506.811 1086.46 506.102 1084.64 506.735 1083C506.819 1082.81 506.882 1082.6 506.966 1082.41C520.711 1046.07 527.189 1007.56 523.378 968.802C521.861 953.178 517.5 937.096 519.634 921.347C520.606 914.267 522.835 907.554 526.089 901.343C521.019 889.018 516.774 876.18 513.407 862.89C512.396 858.902 511.484 854.926 510.662 850.928C507.903 848.772 505.268 846.356 502.808 843.649C492.013 831.766 487.63 815.974 481.918 801.338C475.546 785.003 467.473 769.404 457.662 754.855C444.514 735.345 428.35 718.009 410.536 702.671C410.464 702.613 410.387 702.537 410.315 702.479C410.266 702.434 410.252 702.381 410.207 702.354C410.207 702.354 410.198 702.318 410.176 702.305C409.991 702.104 409.82 701.881 409.663 701.636C409.663 701.636 409.658 701.618 409.654 701.6C409.559 701.452 409.487 701.318 409.428 701.162L409.419 701.126C409.32 700.885 409.221 700.644 409.153 700.375C409.017 699.839 409.002 699.252 409.085 698.679C409.112 698.482 409.156 698.281 409.2 698.079C409.254 697.913 409.294 697.77 409.352 697.622C409.423 697.376 409.534 697.138 409.668 696.914C409.757 696.739 409.869 696.577 409.999 696.411C409.999 696.411 410.017 696.407 410.03 696.384C410.611 695.59 411.426 694.965 412.412 694.791L412.502 694.768C412.667 694.745 412.851 694.718 413.013 694.677C447.949 688.964 481.671 677.183 511.382 657.777C518.962 652.83 526.168 647.387 533.289 641.833C539.363 637.115 545.418 632.249 552.1 628.425C554.218 627.222 556.372 626.162 558.563 625.245C576.415 600.297 598.27 578.123 623.485 559.799C626.708 554.224 630.718 549.115 634.79 544.105C640.379 537.245 646.11 530.501 651.344 523.37C660.648 510.696 668.653 497.113 675.245 482.842C684.275 463.29 690.45 442.481 694.525 421.368C694.569 421.166 694.591 420.951 694.635 420.75C694.879 419.527 695.728 418.588 696.808 418.029C697.511 417.642 698.336 417.433 699.174 417.43C700.39 417.407 701.584 417.828 702.38 418.787C702.515 418.943 702.632 419.104 702.767 419.26C724.58 445.862 750.855 468.688 781.533 484.574C790.097 489.008 798.929 492.766 807.859 496.385C815.676 499.524 823.663 502.582 830.881 506.977C831.151 507.137 831.425 507.315 831.677 507.48C862.091 511.631 891.392 520.652 918.57 533.865L918.588 533.86C918.749 533.819 918.924 533.832 919.09 533.809C927.071 533.005 935.026 534.054 942.891 535.277C951.308 536.571 959.677 538.124 968.151 539.117C984.217 541.003 1000.45 541.229 1016.57 539.79C1038.55 537.819 1060.16 532.626 1080.96 525.378C1082.15 524.962 1083.44 525.244 1084.47 525.916C1084.65 526.04 1084.84 526.183 1085.03 526.325C1085.17 526.441 1085.3 526.579 1085.44 526.717C1085.54 526.824 1085.64 526.932 1085.73 527.061C1085.85 527.222 1085.97 527.382 1086.07 527.548C1086.15 527.659 1086.22 527.793 1086.27 527.914C1086.76 528.874 1086.92 529.957 1086.56 531.001C1086.57 531.037 1086.54 531.082 1086.53 531.122C1086.49 531.247 1086.43 531.395 1086.39 531.521C1072.45 568.171 1066.01 607.053 1069.96 646.138C1071.59 662.115 1075.87 678.426 1073.37 694.516C1072.52 699.967 1070.86 705.182 1068.54 710.11C1069.66 713.843 1070.69 717.617 1071.66 721.426C1074.95 734.429 1077.3 747.445 1078.73 760.405C1083.06 763.267 1087.1 766.716 1090.77 770.811C1101.38 782.703 1105.72 798.392 1111.4 812.922C1117.76 829.203 1125.83 844.766 1135.61 859.266C1148.75 878.775 1164.92 896.112 1182.73 911.45C1182.8 911.508 1182.88 911.584 1182.95 911.642C1183 911.687 1183.01 911.74 1183.06 911.767C1183.37 912.106 1183.64 912.494 1183.86 912.954C1183.97 913.191 1184.06 913.455 1184.13 913.741C1184.27 914.278 1184.28 914.864 1184.2 915.437C1184.17 915.634 1184.13 915.836 1184.08 916.037C1184.03 916.203 1183.99 916.346 1183.93 916.494C1183.9 916.597 1183.87 916.701 1183.82 916.79C1183.76 916.938 1183.7 917.068 1183.62 917.203C1183.53 917.378 1183.4 917.544 1183.29 917.705C1183.16 917.871 1183.03 918.037 1182.89 918.168C1182.47 918.635 1181.98 918.968 1181.4 919.154C1181.23 919.217 1181.05 919.28 1180.87 919.326L1180.78 919.348C1180.62 919.371 1180.45 919.394 1180.29 919.435C1144.22 925.34 1109.45 937.729 1079.06 958.221C1071.66 963.199 1064.62 968.695 1057.57 974.155C1051.62 978.765 1045.61 983.411 1038.94 986.909C1026.35 993.468 1012.17 994.985 998.467 992.615L998.449 992.62C996.816 994.309 995.139 995.971 993.457 997.615L1030.05 1142.03C1035.75 1122.21 1038.64 1101.25 1036.38 1080.81C1035.63 1074.07 1034.2 1067.37 1032.04 1060.95C1030.82 1057.28 1029.51 1054.13 1027.97 1051.15C1027.97 1051.15 1027.97 1051.15 1027.97 1051.13C1025.9 1049.9 1023.87 1048.61 1021.91 1047.18C1019.9 1045.71 1018.94 1043.14 1020.31 1040.85C1020.83 1039.98 1021.73 1039.31 1022.72 1038.93C1022.72 1038.93 1022.71 1038.91 1022.71 1038.89C1023.11 1037.93 1023.82 1037.09 1024.7 1036.58C1027.02 1035.27 1029.57 1036.24 1031 1038.32C1031.96 1039.71 1032.89 1041.11 1033.75 1042.57C1034.09 1043.15 1034.45 1043.74 1034.77 1044.34C1049.27 1052.15 1066.04 1054.86 1082.51 1054.8C1102.92 1054.73 1123.31 1050.61 1142.58 1044.01C1189.38 1027.97 1228.54 996.156 1273.65 976.463C1273.92 976.319 1274.21 976.188 1274.54 976.066C1278.07 974.544 1281.63 973.09 1285.23 971.72C1302.73 965.116 1321.19 960.687 1339.78 959.973C1321.22 947.64 1305.99 930.922 1292.93 912.514C1292.91 912.482 1292.88 912.451 1292.83 912.425C1292.52 912.068 1292.27 911.693 1292.08 911.322C1283.18 898.653 1275.3 885.251 1268.07 871.972C1255.12 848.206 1243.19 823.782 1227.84 801.403C1214.98 782.64 1199.26 765.494 1180.84 752.024C1164.28 739.926 1144.86 730.134 1124.18 729.017C1122.14 730.161 1120.07 731.239 1117.9 732.187C1115.62 733.185 1112.92 732.783 1111.59 730.456C1111.08 729.576 1110.95 728.449 1111.11 727.361C1110.45 726.499 1110.05 725.44 1110.06 724.411C1110.12 721.712 1112.28 720.097 1114.79 719.881C1117.12 719.689 1119.46 719.649 1121.79 719.667C1137.23 710.197 1148.7 695.299 1157.18 679.369C1167.64 659.74 1174.22 637.838 1177.34 615.864C1183.78 570.568 1177.46 524.564 1182.6 479.255C1182.6 478.951 1182.65 478.633 1182.7 478.315C1183.4 472.333 1184.3 466.336 1185.47 460.388C1188.61 444.268 1193.69 428.459 1201.34 414.014L1201.36 414.009ZM1290.28 459.144C1265.89 452.419 1238.83 443.878 1214.46 455.401C1203.83 460.418 1194.84 468.691 1191.75 480.286C1191.35 483.698 1191.04 487.127 1190.76 490.548C1210.11 472.948 1238.89 465.903 1264.04 473.426C1274.54 476.569 1284.25 481.953 1294.56 485.678C1304.87 489.403 1316.43 491.423 1326.74 487.63C1315.85 500.27 1311.86 517.212 1306.33 532.946C1301.48 546.795 1294.21 561.104 1282.04 568.736C1284.72 569.903 1287.38 571.115 1290.01 572.389C1294.95 574.792 1299.79 577.392 1304.49 580.159C1320.6 571.491 1330.22 554.949 1336.3 538.142C1343.22 518.992 1345.94 498.639 1352.55 479.378C1354.48 473.749 1356.74 468.285 1359.44 463.052C1337.49 470.496 1312.11 465.127 1290.29 459.104L1290.28 459.144Z" fill="white"/>
<path d="M1079.3 494.922C1028.93 511.017 979.262 522.442 927.745 510.677C936.408 484.555 963.225 468.034 990.25 462.651C1017.28 457.286 1045.14 460.847 1072.66 462.44C1100.17 464.033 1134.66 468.008 1159 455.102L1141.96 470.67C1123.43 476.603 1097.83 488.989 1079.3 494.904L1079.3 494.922Z" fill="white"/>
<path d="M1274.04 792C1250.43 755.612 1214.86 727.128 1174.17 711.934C1174.1 711.952 1174.07 711.921 1174.09 711.898C1173.15 713.182 1173.6 711.05 1172.66 712.356C1172.88 712.109 1173.08 711.848 1173.31 711.601C1172.99 711.491 1172.69 711.358 1172.38 711.247C1173.83 711.944 1172.4 710.289 1173.83 710.973C1173.81 710.977 1173.82 710.937 1173.88 710.923C1202.42 678.184 1220.14 636.198 1223.56 592.959C1272.47 604.417 1317.03 628.128 1349.03 666.749L1349.19 667.411C1339.45 716.608 1311.56 758.681 1274.01 792.045L1274.04 792Z" fill="white"/>
<path d="M1260.46 938.335L1282.86 943.908C1255.3 944.173 1226.86 964.076 1203.44 978.575C1180 993.079 1157.2 1009.5 1130.88 1017.63C1104.55 1025.79 1073.08 1024.02 1053.04 1005.17C1092.76 970.286 1141.86 956.683 1193.82 946.848C1212.93 943.24 1241.34 941.943 1260.45 938.317L1260.46 938.335Z" fill="white"/>
<path d="M1192.1 801.838C1210.25 822.497 1221.06 848.384 1233.4 872.954C1245.74 897.519 1259.51 929.321 1282.85 943.904L1260.84 936.978C1246.45 923.932 1222.91 908.006 1208.54 894.955C1169.43 859.489 1134.74 822.292 1119.23 771.86C1146.22 766.258 1173.94 781.161 1192.1 801.838Z" fill="white"/>
</g>
<g clip-path="url(#clip1_158_824)">
<path d="M384.743 720.623C370.327 707.644 346.763 691.818 332.365 678.834L310.336 671.986C333.71 686.473 347.537 718.174 359.935 742.657C372.333 767.139 383.176 792.932 401.372 813.516C419.568 834.1 447.334 848.888 474.291 843.221C458.682 792.93 423.924 755.906 384.743 720.623Z" fill="white"/>
<path d="M399.362 668.793C451.296 658.821 500.377 645.094 540 610.161C519.906 591.413 488.458 589.752 462.15 597.952C435.846 606.17 413.079 622.607 389.675 637.153C366.272 651.7 337.88 671.668 310.337 671.991L332.745 677.487C351.855 673.83 380.253 672.45 399.358 668.775L399.362 668.793Z" fill="white"/>
<path d="M370.303 1022.17C373.644 978.997 391.268 937.038 419.744 904.275C419.815 904.257 419.824 904.217 419.802 904.203C421.235 904.882 419.819 903.229 421.276 903.921C420.961 903.811 420.66 903.679 420.346 903.57C420.569 903.322 420.769 903.062 420.992 902.815C420.048 904.121 420.513 901.987 419.582 903.271C419.6 903.266 419.573 903.235 419.519 903.249C378.801 888.204 343.177 859.879 319.499 823.63C282.027 857.043 254.218 899.12 244.578 948.254L244.747 948.914C276.817 987.368 321.428 1010.9 370.348 1022.19L370.303 1022.17Z" fill="white"/>
<path d="M514.798 1119.54C496.283 1125.51 470.716 1137.95 452.196 1143.91L435.188 1159.5C459.519 1146.56 494.009 1150.41 521.506 1151.92C549.022 1153.43 576.891 1156.92 603.903 1151.46C630.919 1146.03 657.712 1129.44 666.303 1103.34C614.749 1091.76 565.128 1103.3 514.793 1119.52L514.798 1119.54Z" fill="white"/>
<path d="M477.055 1081.09C494.455 1031.32 507.139 982.146 496.654 930.543C470.274 938.534 453.051 964.841 446.988 991.637C440.921 1018.41 443.796 1046.27 444.709 1073.69C445.623 1101.11 448.717 1135.56 435.183 1159.5L451.209 1142.91C457.613 1124.6 470.67 1099.4 477.055 1081.09Z" fill="white"/>
<path d="M692.008 1180.84C692.008 1180.84 691.999 1180.73 691.985 1180.75C693.3 1179.84 691.136 1180.27 692.486 1179.35C692.235 1179.57 691.963 1179.77 691.708 1179.97C691.608 1179.65 691.477 1179.36 691.376 1179.04C692.038 1180.51 690.426 1179.06 691.06 1180.49C691.056 1180.48 691.042 1180.5 690.998 1180.55C657.485 1208.18 614.987 1224.8 571.588 1227.17C581.836 1276.13 604.46 1321.09 642.338 1353.89L642.998 1354.09C692.517 1345.57 735.357 1318.8 769.73 1282.23C733.874 1257.84 706.241 1221.73 692.049 1180.85L692.008 1180.84Z" fill="white"/>
<path d="M926.847 1206.09C922.743 1225.03 920.723 1253.29 916.624 1272.25L921.644 1294.69C922.6 1267.26 943.269 1239.42 958.382 1216.43C973.499 1193.46 990.502 1171.14 999.34 1145.12C1008.16 1119.1 1007.19 1087.73 988.827 1067.31C952.881 1106.01 938.019 1154.58 926.865 1206.08L926.847 1206.09Z" fill="white"/>
<path d="M874.486 1219.48C839.947 1179.66 803.573 1144.23 753.447 1127.56C747.16 1154.3 761.386 1182.27 781.627 1200.85C801.867 1219.43 827.523 1230.82 851.822 1243.7C876.122 1256.58 907.626 1271.06 921.652 1294.67L915.27 1272.58C902.569 1257.95 887.21 1234.13 874.503 1219.47L874.486 1219.48Z" fill="white"/>
<path d="M1069.05 1083.72C1069.05 1083.72 1068.96 1083.67 1068.97 1083.7C1068.85 1082.12 1068.12 1084.19 1067.99 1082.58C1068.06 1082.91 1068.09 1083.25 1068.14 1083.55C1067.82 1083.48 1067.49 1083.44 1067.17 1083.39C1068.77 1083.54 1066.69 1084.21 1068.26 1084.38C1068.24 1084.38 1068.24 1084.38 1068.28 1084.45C1075.48 1127.12 1068.61 1172.07 1048.89 1210.69C1096.61 1226.24 1147.04 1229.12 1194.56 1212.79L1195.05 1212.32C1212.48 1165.36 1210.73 1115.05 1196.18 1067.19C1156.99 1085.97 1111.73 1091.82 1069.06 1083.7L1069.05 1083.72Z" fill="white"/>
<path d="M1192.22 800.812C1174.02 780.228 1146.25 765.44 1119.3 771.107C1134.91 821.399 1169.66 858.423 1208.85 893.706C1223.26 906.685 1246.83 922.511 1261.22 935.494L1283.25 942.342C1259.88 927.855 1246.05 896.154 1233.65 871.672C1221.26 847.189 1210.41 821.396 1192.22 800.812Z" fill="white"/>
<path d="M1473.65 839.325C1454.68 831.201 1440.56 815.084 1427.05 800.124C1413.52 785.169 1399.27 769.982 1380.8 761.082C1373.11 757.368 1364.86 754.841 1356.39 754.179C1359.77 747.839 1362.79 741.305 1365.35 734.529C1370.51 720.967 1374.32 706.914 1379.59 693.378C1384.97 679.569 1392.38 666.819 1403.48 656.943C1405.35 656.77 1407 655.7 1407.58 653.708C1407.84 652.804 1407.75 651.746 1407.41 650.805C1407.25 649.819 1406.84 648.861 1406.16 648.178C1404.7 646.709 1402.77 646.557 1401.07 647.278C1373.48 640.941 1354.65 619.169 1334.24 601.053C1327.48 595.049 1320.4 589.638 1312.96 584.72C1327.6 575.173 1337.09 559.456 1343.37 543.344C1350.9 524.062 1353.61 503.427 1359.94 483.768C1363.37 473.099 1367.92 462.544 1374.9 453.647C1376.33 451.837 1376.86 449.573 1375.31 447.613C1374.01 445.969 1371.26 445.018 1369.36 446.38C1344.63 464.25 1312.34 455.05 1285.62 447.769C1271.41 443.898 1256.91 440.198 1242.09 439.945C1229.87 439.727 1217.56 442.424 1206.76 448.192C1202.49 450.463 1198.52 453.287 1195.03 456.558C1199.26 437.623 1206.3 419.189 1217.72 403.472C1220.34 401.622 1222.92 399.689 1225.41 397.626C1227.33 396.031 1227.1 392.763 1225.46 391.112C1225.18 390.824 1224.85 390.585 1224.51 390.404C1224.33 390.052 1224.09 389.732 1223.79 389.43C1222.14 387.761 1218.9 387.506 1217.25 389.394C1215.08 391.87 1213.04 394.425 1211.11 397.012C1194.93 408.244 1176.59 414.764 1157.41 418.44C1169.21 406.429 1175.15 388.18 1175.2 371.686C1175.28 341.652 1161 313.849 1160.46 283.935C1160.2 270.03 1162.97 256.149 1171.57 244.878C1174.31 241.308 1168.95 235.836 1165.31 238.536C1147.04 252.092 1124.31 256.163 1102.54 260.843C1083.61 264.911 1064.17 270.081 1048.18 281.455C1041.75 286.028 1036.01 291.508 1031.55 297.935C1028.3 292.761 1024.76 287.755 1020.96 282.951C1011.6 271.184 1000.91 260.579 991.368 248.975C981.626 237.099 973.784 223.995 970.637 208.948C971.44 207.241 971.31 205.24 969.841 203.753C969.174 203.088 968.244 202.661 967.247 202.498C966.313 202.129 965.294 202.028 964.381 202.262C962.338 202.785 961.229 204.419 961.018 206.279C940.157 228.519 908.971 233.026 881.227 242.924C880.702 237.299 878.546 231.787 874.69 227.091C868.556 219.614 859.502 215.945 850.491 216.389C848.805 216.441 847.106 216.667 845.444 217.035C843.925 217.367 842.439 217.824 840.966 218.41C838.191 219.501 835.53 221.038 833.081 223.033L817.28 235.956L792.004 256.609C768.036 276.185 757.225 307.922 764.209 337.878C764.324 338.476 764.47 339.047 764.621 339.635L826.265 580.351C827.069 583.491 828.343 586.377 830.014 588.952C830.263 591.417 830.315 593.855 830.165 596.251C832.911 596.612 835.648 597.014 838.382 597.473C842.291 598.126 846.169 598.882 850.016 599.741C850.339 599.81 850.663 599.879 850.968 599.953C852.14 600.204 853.316 600.473 854.479 600.765C854.806 600.852 855.152 600.935 855.48 601.022C856.643 601.313 857.801 601.587 858.951 601.901C859.198 601.971 859.422 602.027 859.669 602.097C859.75 602.114 859.853 602.145 859.938 602.18C866.517 603.936 873.02 605.997 879.385 608.339C906.838 618.399 932.179 633.636 953.9 653.147C954.251 653.475 954.598 653.785 954.945 654.096C976.171 673.39 993.892 696.814 1006.69 723.515C1009.92 730.252 1012.84 737.184 1015.43 744.332C1015.92 745.633 1016.39 746.939 1016.82 748.254C1016.87 748.356 1016.91 748.459 1016.94 748.566C1017.41 749.965 1017.87 751.369 1018.31 752.796C1018.32 752.85 1018.34 752.921 1018.37 752.97C1018.81 754.379 1019.24 755.769 1019.66 757.183C1020.48 759.92 1021.24 762.672 1021.95 765.454C1023.25 770.521 1024.36 775.615 1025.3 780.679C1030.85 810.698 1030.13 840.647 1024.03 869.07C1023.85 869.875 1023.69 870.658 1023.51 871.445C1017.16 899.512 1005.54 926.059 989.5 949.687C984.213 957.447 978.463 964.888 972.258 971.97C971.255 973.12 970.228 974.258 969.202 975.395C968.145 976.559 967.083 977.705 965.994 978.82C965.802 979.041 965.593 979.265 965.396 979.468C964.285 980.646 963.151 981.81 961.995 982.962C960.884 984.064 959.772 985.166 958.656 986.25C951.451 993.151 943.79 999.618 935.674 1005.57C913.119 1022.17 887.159 1034.86 858.507 1042.4C857.956 1042.56 857.4 1042.71 856.845 1042.85L855.77 1043.12C827.067 1050.32 798.243 1051.75 770.534 1048.14C760.523 1046.85 750.643 1044.87 740.953 1042.3C739.453 1041.88 737.954 1041.47 736.449 1041.04C734.923 1040.59 733.391 1040.13 731.873 1039.64C731.545 1039.56 731.213 1039.45 730.894 1039.32C729.362 1038.86 727.84 1038.36 726.331 1037.83C724.848 1037.34 723.38 1036.82 721.924 1036.28C713.025 1033.07 704.343 1029.28 695.937 1025.01C670.525 1012.03 647.585 994.393 628.519 972.872C627.982 972.269 627.441 971.647 626.918 971.02C607.859 949.08 592.831 923.199 583.219 894.239C581.554 889.229 580.059 884.137 578.73 878.946C578.026 876.199 577.377 873.438 576.785 870.681C576.46 869.187 576.139 867.71 575.854 866.224L575.845 866.189C575.551 864.667 575.274 863.141 575.003 861.633C574.994 861.597 574.984 861.562 574.993 861.522C574.731 860.049 574.491 858.59 574.269 857.126C573.081 849.58 572.314 842.04 571.943 834.55C570.364 804.978 574.686 775.929 584.066 748.816C584.216 748.36 584.366 747.903 584.535 747.442C594.253 719.862 609.21 694.324 628.525 672.309C632.954 667.24 637.627 662.375 642.52 657.7C642.609 657.677 642.694 657.637 642.779 657.596C643.133 657.486 643.478 657.341 643.809 657.218C643.696 657.076 643.588 656.952 643.475 656.809C644.333 655.982 645.199 655.19 646.061 654.38C646.324 654.141 646.587 653.903 646.851 653.664C647.717 652.872 648.588 652.098 649.477 651.319C649.74 651.08 649.99 650.864 650.254 650.626C653.077 648.154 655.976 645.758 658.934 643.442C661.266 641.59 663.634 639.805 666.048 638.047C664.584 635.684 663.32 633.138 662.254 630.464C662.314 627.864 662.019 625.221 661.343 622.581L601.622 389.376C601.338 388.27 601.042 387.186 600.705 386.094C600.678 385.987 600.628 385.867 600.596 385.742C600.177 384.404 599.735 383.054 599.232 381.757C589.601 355.406 566.582 335.449 538.667 329.918L503.381 322.891L474.878 317.226L470.29 316.31L469.729 316.207C468.4 315.938 467.059 315.769 465.744 315.706C451.192 314.794 437.83 324.717 434.876 339.349C433.728 345.08 434.306 350.767 436.33 355.837C428.714 357.408 421.125 359.085 413.481 360.472C396.849 363.514 380.072 364.426 363.966 359.16C362.887 357.631 361.106 356.718 359.082 357.237C358.168 357.471 357.31 358.071 356.668 358.843C355.89 359.46 355.28 360.282 355.015 361.186C354.428 363.218 355.289 365.013 356.814 366.124C365.304 393.983 354.803 422.011 349.322 449.589C347.731 457.542 346.733 465.497 346.241 473.492C331.673 466.179 314.668 465.457 298.552 467.531C277.518 470.237 257.802 478.384 237.236 483.137C225.105 485.939 212.734 487.358 200.345 485.645C195.853 485.028 193.766 492.386 197.9 494.217C222.509 505.099 232.064 532.572 238.446 556.599C242.518 571.903 246.116 587.443 252.951 601.831C258.717 613.984 267.166 624.613 278.368 632.2C283.061 635.389 288.248 637.9 293.663 639.517C275.08 645.378 255.538 648.538 236.209 646.568C233.311 645.239 230.34 644.003 227.308 642.898C224.968 642.034 222.249 643.794 221.592 646.072C221.468 646.484 221.439 646.891 221.423 647.275C221.222 647.612 221.063 647.957 220.934 648.351C220.286 650.589 221.641 653.568 224.109 654.039C227.346 654.674 230.563 655.161 233.785 655.515C251.569 663.83 266.423 676.431 279.223 691.154C264.461 687.407 247.653 690.285 234.145 696.88C207.451 709.912 190.549 735.758 166.46 752.324C153.148 761.473 137.748 768.058 121.316 765.993C119.068 765.714 116.965 767.868 116.693 769.933C116.368 772.393 117.762 774.108 119.945 775.031C138.922 783.155 153.034 799.272 166.544 814.232C180.073 829.187 194.328 844.374 212.797 853.274C220.488 856.988 228.733 859.515 237.207 860.177C233.829 866.517 230.806 873.05 228.245 879.827C223.089 893.388 219.28 907.442 214.003 920.977C208.623 934.786 201.217 947.537 190.114 957.413C188.25 957.586 186.595 958.656 186.017 960.648C185.752 961.552 185.852 962.61 186.188 963.551C186.345 964.537 186.762 965.494 187.433 966.178C188.898 967.647 190.827 967.799 192.532 967.077C220.119 973.414 238.944 995.187 259.353 1013.3C266.122 1019.31 273.197 1024.72 280.642 1029.64C266 1039.18 256.508 1054.9 250.229 1071.01C242.7 1090.29 239.985 1110.93 233.66 1130.59C230.226 1141.26 225.674 1151.81 218.693 1160.71C217.267 1162.52 216.739 1164.78 218.291 1166.74C219.59 1168.39 222.335 1169.34 224.239 1167.98C248.968 1150.11 281.259 1159.31 307.981 1166.59C322.184 1170.46 336.686 1174.16 351.509 1174.41C363.726 1174.63 376.036 1171.93 386.835 1166.16C391.103 1163.89 395.076 1161.07 398.572 1157.8C394.333 1176.73 387.294 1195.17 375.874 1210.88C373.255 1212.73 370.676 1214.67 368.188 1216.73C366.267 1218.32 366.493 1221.59 368.138 1223.24C368.422 1223.53 368.75 1223.77 369.083 1223.95C369.268 1224.3 369.503 1224.62 369.809 1224.93C371.459 1226.59 374.693 1226.85 376.348 1224.96C378.52 1222.49 380.558 1219.93 382.492 1217.34C398.669 1206.11 417.007 1199.59 436.188 1195.92C424.392 1207.93 418.45 1226.18 418.397 1242.67C418.319 1272.7 432.598 1300.51 433.137 1330.42C433.396 1344.33 430.631 1358.21 422.024 1369.48C419.292 1373.05 424.645 1378.52 428.287 1375.82C446.561 1362.26 469.287 1358.19 491.056 1353.51C509.984 1349.44 529.432 1344.28 545.419 1332.9C551.847 1328.33 557.584 1322.85 562.047 1316.42C565.3 1321.59 568.835 1326.6 572.642 1331.4C581.994 1343.17 592.69 1353.78 602.229 1365.38C611.972 1377.26 619.814 1390.36 622.961 1405.41C622.157 1407.12 622.288 1409.12 623.757 1410.6C624.423 1411.27 625.354 1411.7 626.35 1411.86C627.285 1412.23 628.303 1412.33 629.217 1412.09C631.259 1411.57 632.368 1409.94 632.579 1408.08C654.538 1384.68 687.916 1380.91 716.695 1369.83C721.633 1367.94 726.457 1365.75 731.182 1363.4C732.218 1381.54 741.843 1398.1 753.348 1411.94C766.364 1427.58 782.687 1440.03 796.275 1455.14C803.781 1463.5 810.241 1472.7 814.483 1483.15C816.153 1487.29 823.579 1485.35 823.119 1480.94C820.269 1453.56 840.295 1431.27 858.445 1413.35C868.806 1403.11 879.405 1393.06 887.982 1381.23C896.038 1370.12 901.495 1357.5 902.874 1343.81C903.496 1337.66 903.152 1331.4 901.752 1325.41C916.079 1338.49 928.572 1353.73 936.494 1371.39C936.778 1374.59 937.192 1377.77 937.741 1380.96C938.161 1383.41 941.087 1384.85 943.362 1384.27C943.774 1384.16 944.132 1384 944.468 1383.81C944.853 1383.83 945.243 1383.79 945.656 1383.68C947.931 1383.1 949.806 1380.43 948.993 1378.07C947.933 1374.98 946.74 1371.96 945.47 1369.02C943.84 1349.53 947.374 1330.45 953.759 1312.07C958.561 1329.03 972.658 1343.75 987.975 1351.97C1013.06 1365.47 1042.52 1367.49 1067.65 1380.77C1080.5 1387.55 1091.85 1397.06 1097.57 1410.67C1099.28 1414.75 1106.72 1412.88 1106.2 1408.46C1103.83 1388.17 1110.01 1368.53 1116.24 1349.47C1122.6 1330.01 1129.01 1310.01 1127.9 1289.29C1127.43 1280.36 1125.51 1271.54 1121.7 1263.5C1124.74 1263.37 1127.76 1263.18 1130.78 1262.89C1147.45 1261.2 1163.65 1256.89 1180.1 1253.89C1196.73 1250.85 1213.51 1249.93 1229.61 1255.2C1230.69 1256.73 1232.47 1257.64 1234.5 1257.12C1235.41 1256.89 1236.27 1256.29 1236.91 1255.52C1237.69 1254.9 1238.3 1254.08 1238.56 1253.17C1239.15 1251.14 1238.29 1249.35 1236.77 1248.24C1228.28 1220.38 1238.78 1192.35 1244.26 1164.77C1245.85 1156.82 1246.85 1148.86 1247.34 1140.87C1261.91 1148.18 1278.91 1148.9 1295.03 1146.83C1316.06 1144.12 1335.78 1135.98 1356.34 1131.22C1368.47 1128.42 1380.85 1127 1393.23 1128.72C1397.73 1129.33 1399.81 1121.97 1395.68 1120.14C1371.07 1109.26 1361.52 1081.79 1355.13 1057.76C1351.06 1042.46 1347.46 1026.92 1340.63 1012.53C1334.86 1000.38 1326.41 989.747 1315.21 982.161C1310.52 978.971 1305.33 976.46 1299.92 974.843C1318.5 968.982 1338.04 965.822 1357.37 967.792C1360.27 969.122 1363.24 970.357 1366.27 971.462C1368.61 972.327 1371.33 970.566 1371.99 968.288C1372.11 967.876 1372.14 967.469 1372.16 967.085C1372.36 966.749 1372.52 966.404 1372.65 966.01C1373.29 963.772 1371.94 960.792 1369.47 960.322C1366.23 959.687 1363.02 959.199 1359.79 958.845C1342.01 950.531 1327.16 937.93 1314.36 923.206C1329.12 926.954 1345.93 924.075 1359.43 917.48C1386.13 904.448 1403.03 878.603 1427.12 862.037C1440.43 852.887 1455.83 846.302 1472.26 848.367C1474.51 848.647 1476.61 846.493 1476.89 844.427C1477.21 841.968 1475.82 840.253 1473.63 839.329L1473.65 839.325ZM1326.43 606.475C1337.22 615.954 1347.22 626.318 1358.4 635.356C1368.72 643.699 1380.03 650.708 1392.62 654.63C1374.62 673.344 1367.89 699.189 1359.56 723.391C1357.2 730.268 1354.63 737.103 1351.53 743.695C1349.65 747.675 1347.54 751.522 1345.31 755.325C1344.55 755.956 1343.99 756.822 1343.79 757.842C1342.43 760.071 1341.05 762.269 1339.64 764.454C1330.5 778.467 1319.82 791.503 1307.24 802.595C1293.45 814.737 1277.27 824.106 1259.38 828.573C1258.29 828.853 1257.48 829.403 1256.93 830.095C1249.47 816.627 1241.65 803.367 1232.59 790.879C1219.03 772.149 1202.8 755.358 1183.86 741.958C1169.64 731.895 1153.15 723.571 1135.8 720.391C1147.32 711.017 1156.56 698.71 1163.71 685.836C1174.57 666.25 1181.63 644.446 1185.3 622.407C1188.42 603.663 1189.11 584.802 1189.17 565.873C1190.02 566.283 1191.02 566.406 1192.21 566.103C1224.56 557.59 1258.5 566.198 1287.7 580.789C1292.02 582.953 1296.21 585.243 1300.33 587.668C1300.95 588.383 1301.75 588.825 1302.6 589.025C1311.02 594.15 1319 599.9 1326.51 606.474L1326.43 606.475ZM1242.32 449.182C1271.5 449.808 1298.37 463.873 1327.45 465.684C1338.02 466.341 1348.96 465.423 1359 461.996C1352.18 475.337 1348.27 490.025 1344.77 504.684C1340.2 523.799 1335.74 543.302 1324.69 559.95C1319.39 567.942 1312.54 574.658 1304.12 579.209C1301.15 577.477 1298.15 575.795 1295.07 574.208C1290.69 571.946 1286.23 569.836 1281.7 567.86C1293.83 560.193 1301.05 545.894 1305.87 532.075C1311.35 516.358 1315.32 499.431 1326.19 486.783C1315.9 490.595 1304.32 488.618 1294.01 484.93C1283.69 481.243 1273.98 475.898 1263.46 472.792C1238.26 465.332 1209.42 472.508 1190.11 490.208C1190.36 486.873 1190.69 483.556 1191.06 480.23C1191.06 480.23 1191.06 480.23 1191.07 480.19C1196.6 458.303 1221.69 448.722 1242.29 449.168L1242.32 449.182ZM1075.68 277.683C1095.37 270.492 1116.37 268.251 1136.4 262.305C1142.95 260.362 1149.41 258.005 1155.57 255.059C1148.73 273.672 1151.02 295.305 1155.34 314.253C1161.44 340.976 1172.62 370.39 1160.69 397.185C1155.57 408.705 1146.55 418.692 1133.89 421.668C1130.51 421.963 1127.13 422.182 1123.74 422.366C1141.85 403.53 1149.61 375.025 1142.71 349.8C1139.83 339.268 1134.69 329.483 1131.21 319.12C1127.74 308.756 1126.01 297.184 1130.06 287.025C1117.12 297.579 1100.05 301.133 1084.14 306.253C1070.15 310.747 1055.65 317.635 1047.68 329.54C1046.98 327.856 1046.28 326.172 1045.55 324.515C1042.91 318.502 1039.99 312.616 1036.82 306.888C1045.17 292.358 1060.15 283.331 1075.67 277.665L1075.68 277.683ZM821.931 324.941C819.789 316.575 822.742 307.607 829.452 302.125L870.53 268.55C875.627 264.374 878.974 258.879 880.457 252.968C894.751 247.578 909.636 243.975 924.058 238.933C938.358 233.941 952 227.273 963.114 217.147C966.337 228.316 971.964 238.66 978.951 248.049C987.886 260.055 998.426 270.719 1008.18 282.041C1015.14 290.125 1021.43 298.892 1026.93 308.147C1027.12 309.182 1027.63 310.135 1028.52 310.839C1038.36 328.03 1045.53 346.839 1049.22 366.118C1052.56 383.567 1052.43 401.62 1047.49 418.759C1047.18 419.865 1047.25 420.833 1047.58 421.662C1028.06 421.338 1008.55 421.715 989.21 424.614C968.618 427.701 948.251 433.753 929.585 443.018C915.438 450.024 901.768 459.417 891.421 471.495C890.529 465.85 889.054 460.316 887.159 454.927C882.746 442.39 876.269 430.667 868.559 419.868C859.508 407.187 849.014 395.808 837.459 385.575L821.936 324.959L821.931 324.941ZM970.396 581.804C965.213 581.173 959.985 580.516 954.741 580.015C936.407 568.438 916.77 558.925 896.233 551.714C904.061 546.649 912.849 543.392 922.13 543.03C928.914 542.756 935.695 543.662 942.319 544.704C951.254 546.122 960.158 547.644 969.15 548.611C985.15 550.33 1001.3 550.396 1017.31 548.823C1036.63 546.956 1055.62 542.875 1074.1 536.983C1062.57 570.329 1057.08 605.702 1060.07 640.921C1060.86 650.145 1062.23 659.298 1063.49 668.461C1064.38 675.04 1065.13 681.861 1064.63 688.776C1064.3 693.174 1063.31 697.496 1061.77 701.634C1052.43 681.388 1040.86 662.623 1027.44 645.532C1027.24 643.433 1027.03 641.339 1026.83 639.264C1025.06 621.638 1021.41 601.872 1026.33 584.837C1027.13 584.023 1027.92 583.213 1028.72 582.399C1028.11 582.613 1027.49 582.81 1026.87 583.006C1027.07 582.384 1027.3 581.774 1027.53 581.165C1026.68 581.953 1025.83 582.74 1025 583.523C1007.8 588.021 988.048 583.937 970.396 581.804ZM1074.45 908.888C1083.88 902.253 1093.81 896.272 1104.45 893.622C1105.55 893.91 1106.65 894.179 1107.76 894.467C1107.27 894.059 1106.8 893.629 1106.33 893.199C1106.96 893.056 1107.58 892.936 1108.22 892.829C1107.14 892.496 1106.04 892.169 1104.97 891.854C1096.31 883.179 1090.64 871.365 1085.66 859.524C1089.3 832.664 1089.13 804.954 1084.68 777.144C1084.94 777.401 1085.18 777.681 1085.4 777.948C1089.5 782.83 1092.8 789.455 1095.4 795.728C1098.44 803.065 1101.34 811.39 1104.44 819.053C1110.96 835.025 1119.08 850.28 1128.91 864.492C1140.67 881.496 1154.5 896.945 1169.82 910.834C1138.51 916.95 1108.1 928.081 1081.09 945.167C1072.87 950.369 1065.05 956.135 1057.38 962.093C1053.57 965.044 1049.87 968.044 1046.01 970.858C1057.87 951.417 1067.45 930.619 1074.45 908.888ZM857.469 1103.13C863.966 1106.74 869.986 1110.86 874.925 1115.98C875.221 1117.06 875.54 1118.16 875.837 1119.25C875.964 1118.62 876.091 1118 876.236 1117.38C876.664 1117.85 877.075 1118.34 877.485 1118.82C877.22 1117.71 876.977 1116.62 876.716 1115.52C878.603 1108.65 881.896 1102.13 885.875 1095.82C908.189 1088.87 929.097 1079.41 948.388 1067.82C942.623 1074.83 936.934 1081.91 931.735 1089.35C923.196 1101.55 915.889 1114.54 909.817 1128.11C902.22 1145.11 896.527 1162.84 892.531 1181.01C872.052 1157.55 847.808 1137.28 820.209 1122.62C811.545 1118.01 802.567 1114.04 793.468 1110.34C792.187 1109.81 790.911 1109.3 789.618 1108.8C811.968 1109.6 834.718 1107.78 857.469 1103.13ZM655.807 1070.34C653.191 1069.96 650.579 1069.53 647.971 1069.11C639.067 1067.67 630.168 1066.24 621.19 1065.4C605.815 1063.96 590.299 1064.05 574.938 1065.65C556.076 1067.59 537.538 1071.61 519.497 1077.35C531.018 1043.99 536.516 1008.58 533.507 973.346C532.714 964.063 531.335 954.874 530.081 945.653C529.175 939.061 528.443 932.101 529.003 925.191C529.139 923.56 529.36 921.963 529.657 920.366C539.258 946.896 552.543 971.265 568.758 993.06C570.027 1005.47 570.575 1018.12 567.257 1029.54C566.467 1030.33 565.663 1031.15 564.878 1031.96C565.491 1031.74 566.091 1031.55 566.714 1031.37C566.506 1031.98 566.298 1032.58 566.067 1033.17C566.898 1032.39 567.733 1031.62 568.563 1030.84C578.901 1028.12 590.168 1028.5 601.345 1029.73C617.863 1045.4 636.165 1059.02 655.807 1070.34ZM548.259 684.441C544.201 687.229 540.205 690.115 536.223 692.979C521.791 703.346 506.412 716.427 489.144 720.716C488.04 720.428 486.94 720.159 485.835 719.871C486.321 720.279 486.794 720.709 487.267 721.139C486.64 721.3 485.999 721.407 485.358 721.514C486.454 721.842 487.555 722.187 488.65 722.515C501.149 735.091 507.455 754.196 514.375 770.482C515.05 772.077 515.73 773.689 516.429 775.297C512.772 796.877 511.553 819.03 513.03 841.424C511.067 839.646 509.21 837.688 507.473 835.528C506.797 834.675 505.844 833.341 505.022 832.069C504.078 830.619 503.223 829.146 502.413 827.624C500.713 824.486 499.244 821.212 497.901 817.907C494.871 810.471 491.889 801.958 488.7 794.202C482.19 778.4 474.061 763.355 464.3 749.317C452.601 732.487 438.869 717.185 423.678 703.416C425.91 703.034 428.146 702.671 430.35 702.182C435.466 701.062 440.55 699.818 445.593 698.412C454.685 695.894 463.658 692.912 472.422 689.413C486.925 683.647 500.862 676.638 513.993 668.2C522.144 662.977 529.884 657.193 537.507 651.249C543.217 646.784 548.797 642.257 555.026 638.476C561.023 634.83 566.631 632.577 573.595 631.364C577.856 630.634 582.187 630.475 586.485 630.781C571.727 647.182 558.892 665.2 548.259 684.441ZM355.631 500.17C355.224 494.477 355.04 488.765 355.094 483.086C355.444 482.141 355.444 481.172 355.157 480.276C355.371 471.42 356.191 462.619 357.863 453.865C360.655 439.273 364.88 424.981 367.372 410.333C369.667 396.782 370.289 383.032 367.338 369.721C380.125 372.834 393.376 372.691 406.53 370.901C418.24 369.29 429.734 366.536 441.311 364.18C445.474 369.102 451.24 372.682 458.058 374.034L527.009 387.724C535.179 389.357 541.845 395.482 544.133 403.45C496.588 388.062 446.37 385.277 399.045 401.539L398.554 402.007C381.123 448.973 382.875 499.277 397.424 547.141C436.62 528.36 481.877 522.512 524.545 530.633C524.613 530.673 524.635 530.686 524.626 530.65C524.746 532.235 525.476 530.167 525.6 531.77C525.536 531.444 525.507 531.109 525.447 530.801C525.771 530.871 526.107 530.917 526.426 530.969C524.82 530.81 526.902 530.144 525.332 529.976C525.349 529.971 525.349 529.971 525.313 529.904C518.154 487.486 524.909 442.816 544.366 404.36L558.071 457.876C557.956 458.171 557.845 458.485 557.735 458.798C549.101 483.534 544.407 510.53 547.525 536.648C548.421 544.022 550.029 551.347 552.506 558.335C552.506 558.335 552.506 558.335 552.511 558.353C540.067 553.67 526.51 551.724 513.275 551.558C492.233 551.32 471.03 555.228 451.082 561.8C430.042 568.727 410.609 578.873 391.565 589.794C391.498 588.861 391.085 587.921 390.256 587.069C367.448 564.131 357.878 531.757 355.641 500.206L355.631 500.17ZM284.461 625.203C273.756 618.364 266.121 608.23 260.789 596.878C248.477 570.644 247.21 540.574 232.615 515.19C228.415 507.883 223.131 501.043 216.782 495.483C252.223 493.575 285.284 472.677 321.489 475.99C330.171 476.79 338.515 479.329 345.9 483.863C345.858 488.322 345.973 492.797 346.232 497.312C346.461 501.188 346.784 505.059 347.201 508.925C334.492 502.314 318.469 503.261 304.06 506.039C287.648 509.196 270.98 514.262 254.553 511.245C262.998 518.207 267.032 529.187 268.966 539.945C270.9 550.703 271.078 561.758 273.625 572.378C279.709 597.85 300.281 619.137 325.243 626.926C322.213 628.367 319.171 629.754 316.078 631.097C305.065 634.24 293.894 631.246 284.448 625.225L284.461 625.203ZM194.321 829.511C179.092 816.037 166.973 799.504 151.966 785.783C147.579 781.774 142.983 778.066 138.111 774.77C160.941 770.806 180.666 753.97 196.956 738.261C215.162 720.711 234.847 700.293 261.751 698.745C273.489 698.059 285.337 701.012 293.594 709.695C295.571 712.496 297.486 715.351 299.365 718.216C273.958 712.043 245.315 719.624 226.827 738.235C219.101 746.01 213.154 755.365 205.878 763.558C198.602 771.751 189.416 779.045 178.544 780.65C194.156 786.518 205.755 799.458 218.135 810.601C229.011 820.419 242.234 829.484 256.566 830.357C254.77 832.661 253.018 834.991 251.316 837.366C248.126 841.832 245.121 846.423 242.309 851.096C224.026 851.197 207.669 841.3 194.294 829.48L194.321 829.511ZM267.149 1007.89C256.359 998.407 246.355 988.043 235.182 979.004C224.855 970.662 213.553 963.653 200.96 959.73C218.963 941.016 225.689 915.172 234.02 890.97C236.382 884.092 238.947 877.258 242.051 870.665C243.933 866.686 246.041 862.838 248.274 859.035C249.029 858.405 249.59 857.539 249.787 856.519C251.145 854.289 252.529 852.091 253.936 849.906C263.081 835.893 273.756 822.857 286.341 811.765C300.128 799.624 316.305 790.254 334.195 785.787C335.288 785.507 336.102 784.957 336.65 784.265C344.108 797.733 351.933 810.994 360.992 823.481C374.552 842.211 390.784 859.002 409.718 872.402C423.94 882.465 440.429 890.789 457.776 893.969C446.259 903.343 437.021 915.65 429.874 928.524C419.006 948.111 411.951 969.914 408.279 991.954C405.156 1010.7 404.468 1029.56 404.409 1048.49C403.56 1048.08 402.555 1047.95 401.372 1048.26C369.016 1056.77 335.081 1048.16 305.877 1033.57C301.561 1031.41 297.367 1029.12 293.252 1026.69C292.63 1025.98 291.829 1025.54 290.976 1025.34C282.562 1020.21 274.579 1014.46 267.073 1007.89L267.149 1007.89ZM351.277 1165.16C322.098 1164.53 295.223 1150.46 266.141 1148.65C255.568 1148 244.635 1148.91 234.592 1152.34C241.409 1139 245.322 1124.31 248.823 1109.65C253.397 1090.54 257.853 1071.04 268.901 1054.39C274.204 1046.4 281.057 1039.68 289.475 1035.13C292.439 1036.86 295.447 1038.54 298.526 1040.13C302.905 1042.39 307.359 1044.5 311.893 1046.48C299.767 1054.14 292.546 1068.44 287.723 1082.26C282.241 1097.98 278.271 1114.91 267.401 1127.56C277.689 1123.74 289.268 1125.72 299.586 1129.41C309.905 1133.1 319.616 1138.44 330.129 1141.55C355.331 1149.01 384.174 1141.83 403.486 1124.13C403.233 1127.46 402.898 1130.78 402.528 1134.11C402.528 1134.11 402.528 1134.11 402.515 1134.13C396.99 1156.02 371.894 1165.6 351.295 1165.15L351.277 1165.16ZM517.897 1336.66C498.204 1343.85 477.204 1346.09 457.173 1352.04C450.626 1353.98 444.165 1356.34 438.009 1359.28C444.85 1340.67 442.555 1319.04 438.237 1300.09C432.139 1273.37 420.96 1243.95 432.884 1217.16C438.009 1205.64 447.021 1195.65 459.681 1192.68C463.061 1192.38 466.441 1192.16 469.83 1191.98C451.725 1210.81 443.961 1239.32 450.86 1264.54C453.749 1275.07 458.889 1284.86 462.364 1295.22C465.839 1305.59 467.561 1317.16 463.519 1327.32C476.452 1316.76 493.526 1313.21 509.436 1308.09C523.424 1303.6 537.926 1296.71 545.893 1284.8C546.592 1286.49 547.29 1288.17 548.02 1289.83C550.667 1295.84 553.587 1301.73 556.753 1307.45C548.409 1321.99 533.423 1331.01 517.902 1336.68L517.897 1336.66ZM732.386 1352.53C727.01 1355.46 721.502 1358.11 715.853 1360.35C700.723 1366.35 684.852 1370.06 669.5 1375.41C655.199 1380.41 641.557 1387.07 630.443 1397.2C627.22 1386.03 621.593 1375.69 614.606 1366.3C605.671 1354.29 595.131 1343.63 585.378 1332.31C578.421 1324.22 572.128 1315.46 566.627 1306.2C566.438 1305.16 565.927 1304.21 565.04 1303.51C555.197 1286.32 548.032 1267.51 544.336 1248.23C540.994 1230.78 541.124 1212.73 546.071 1195.59C546.38 1194.48 546.303 1193.51 545.977 1192.68C565.495 1193.01 585.005 1192.63 604.347 1189.73C624.939 1186.65 645.306 1180.59 663.972 1171.33C678.119 1164.32 691.771 1154.93 702.141 1142.87C704.672 1158.49 711.42 1173.51 719.819 1186.78C732.456 1206.75 749.067 1224.05 767.719 1238.51C780.938 1248.76 795.137 1257.53 809.602 1265.86C808.86 1266.39 808.281 1267.19 807.972 1268.29C800.151 1296.8 779.828 1319.94 756.284 1337.15C749.612 1342.03 742.611 1346.68 735.347 1350.82C734.106 1350.96 733.082 1351.59 732.377 1352.49L732.386 1352.53ZM893.737 1342.27C892.729 1355.03 887.272 1366.6 879.777 1376.85C863.464 1399.18 839.653 1414.89 825.087 1438.68C820.334 1446.43 816.589 1454.99 814.77 1463.92C796.119 1435.3 763.173 1417.5 747.22 1386.59C742.698 1377.81 740.111 1368.3 740.379 1358.46C746.622 1354.89 752.69 1350.99 758.554 1346.83C759.537 1346.12 760.516 1345.4 761.481 1344.69C762.046 1358.98 770.871 1372.34 780.462 1383.4C791.373 1395.97 804.107 1407.82 809.647 1423.49C811.507 1412.71 819.017 1403.72 827.401 1396.64C835.785 1389.57 845.302 1383.87 853.285 1376.35C872.385 1358.34 880.647 1329.92 874.989 1304.47C877.787 1306.38 880.563 1308.35 883.295 1310.37C891.873 1318.74 894.637 1330.58 893.714 1342.26L893.737 1342.27ZM1116.03 1317.26C1111.76 1336.83 1103.57 1355.32 1099.29 1374.89C1098.07 1380.43 1097.15 1386.02 1096.72 1391.65C1083.46 1375.88 1062.4 1367.11 1042.99 1361.32C1017.66 1353.76 988.649 1348.49 971.469 1326.51C963.466 1316.28 958.887 1302.95 962.733 1290.16C964.176 1287.07 965.7 1284 967.246 1280.94C974.543 1305.93 995.418 1326.84 1020.8 1333.45C1031.42 1336.21 1042.51 1336.64 1053.26 1338.81C1064.01 1340.98 1074.93 1345.24 1081.73 1353.82C1079.05 1337.4 1084.51 1320.91 1088.05 1304.64C1091.17 1290.33 1092.47 1274.39 1086.09 1261.57C1094.4 1262.7 1102.84 1263.45 1111.28 1263.6C1120.67 1279.77 1119.9 1299.41 1116.01 1317.27L1116.03 1317.26ZM1237.96 1114.17C1238.37 1119.86 1238.55 1125.57 1238.5 1131.25C1238.15 1132.2 1238.15 1133.17 1238.44 1134.06C1238.22 1142.92 1237.4 1151.72 1235.73 1160.47C1232.94 1175.06 1228.71 1189.36 1226.22 1204C1223.93 1217.56 1223.3 1231.31 1226.25 1244.62C1213.47 1241.5 1200.22 1241.65 1187.06 1243.44C1171.16 1245.61 1155.66 1249.94 1139.81 1252.46C1131.61 1253.76 1123.35 1254.31 1115.09 1254.32C1114.17 1254.01 1113.16 1253.96 1112.18 1254.3C1105.69 1254.22 1099.21 1253.81 1092.74 1253.14C1077.95 1251.63 1063.24 1248.46 1049.35 1243.17C1034.1 1237.38 1019.99 1228.66 1008.64 1216.93C1007.86 1216.12 1006.99 1215.7 1006.12 1215.58C1013.23 1203.84 1020.05 1191.92 1025.94 1179.5C1036.18 1157.93 1043.34 1135.02 1046.02 1111.27C1048.07 1093.03 1047.33 1073.51 1041.11 1056.02C1053.54 1060.7 1067.09 1062.63 1080.3 1062.78C1101.34 1063.02 1122.54 1059.11 1142.49 1052.54C1163.53 1045.62 1182.97 1035.47 1202.01 1024.55C1202.08 1025.48 1202.49 1026.42 1203.32 1027.27C1226.13 1050.21 1235.7 1082.59 1237.93 1114.14L1237.96 1114.17ZM1309.13 989.135C1319.84 995.974 1327.47 1006.11 1332.8 1017.46C1345.12 1043.69 1346.38 1073.76 1360.98 1099.15C1365.18 1106.46 1370.46 1113.3 1376.81 1118.85C1341.37 1120.76 1308.31 1141.66 1272.1 1138.35C1263.42 1137.55 1255.08 1135.01 1247.69 1130.47C1247.74 1126.02 1247.62 1121.54 1247.37 1117.04C1247.14 1113.17 1246.81 1109.3 1246.4 1105.43C1259.1 1112.04 1275.13 1111.09 1289.54 1108.32C1305.95 1105.16 1322.62 1100.09 1339.04 1103.11C1330.6 1096.15 1326.57 1085.17 1324.63 1074.41C1322.7 1063.65 1322.52 1052.6 1319.97 1041.98C1313.89 1016.51 1293.32 995.219 1268.35 987.43C1271.38 985.989 1274.43 984.602 1277.52 983.258C1288.53 980.115 1299.7 983.109 1309.15 989.13L1309.13 989.135ZM1340.1 958.129C1317.9 959.024 1296.31 965.37 1275.6 974.265C1275.47 974.297 1275.35 974.329 1275.24 974.357C1274.67 974.504 1274.2 974.775 1273.78 975.055C1256.34 982.695 1239.51 992.078 1223.5 1001.5C1200.15 1015.22 1176.91 1029.64 1151.6 1039.57C1132.13 1047.19 1111.38 1052.28 1090.48 1053.39C1071.64 1054.39 1052.01 1052.22 1035.34 1043.27C1034.19 1041.23 1032.97 1039.22 1031.64 1037.29C1030.22 1035.25 1027.63 1034.26 1025.32 1035.58C1024.43 1036.07 1023.74 1036.95 1023.34 1037.93C1022.33 1038.32 1021.44 1039 1020.93 1039.85C1019.56 1042.16 1020.53 1044.69 1022.55 1046.17C1024.47 1047.56 1026.44 1048.82 1028.46 1050.02C1037.04 1066.83 1038.79 1086.41 1037.37 1105.14C1035.61 1128.17 1029.03 1150.94 1019.37 1171.91C1001.03 1211.81 973.076 1246.53 954.472 1286.23C954.272 1286.57 954.081 1286.94 953.939 1287.35C953.944 1287.37 953.935 1287.41 953.922 1287.43C951.649 1292.35 949.488 1297.33 947.53 1302.43C941.465 1318.26 937.318 1334.87 936.258 1351.68C924.389 1332.92 908.033 1317.36 889.946 1303.91C889.897 1303.87 889.865 1303.82 889.816 1303.77C889.437 1303.41 889.051 1303.17 888.655 1302.97C876.05 1293.71 862.634 1285.45 849.342 1277.83C827.417 1265.27 804.926 1253.56 784.144 1239.14C765.081 1225.9 747.66 1209.99 734.006 1191.18C721.359 1173.78 711.01 1153.2 710.388 1131.46C711.589 1129.44 712.741 1127.38 713.736 1125.23C714.801 1122.98 714.412 1120.26 712.119 1118.91C711.242 1118.39 710.129 1118.22 709.062 1118.38C708.243 1117.72 707.218 1117.3 706.2 1117.27C703.518 1117.24 701.761 1119.32 701.481 1121.81C701.223 1124.15 701.118 1126.5 701.088 1128.85C692.094 1142.63 678.631 1153.05 664.125 1160.89C646.16 1170.59 626.291 1176.72 606.208 1180.15C557.437 1188.46 507.84 1179.3 458.808 1183.6C458.503 1183.61 458.185 1183.63 457.836 1183.68C454.012 1184.03 450.189 1184.46 446.37 1184.98C427.843 1187.56 409.52 1192.5 392.85 1200.76C403.256 1181.08 408.637 1159.16 411.308 1136.78C411.317 1136.74 411.326 1136.7 411.352 1136.66C411.462 1136.19 411.501 1135.75 411.49 1135.33C413.247 1119.98 413.762 1104.47 413.772 1089.37C413.784 1062.36 412.59 1035.25 415.369 1008.31C417.698 985.721 423.306 963.186 433.053 942.575C441.809 924.061 454.188 906.198 471.815 895.336C474.151 895.365 476.488 895.318 478.841 895.114C481.324 894.897 483.501 893.256 483.56 890.579C483.587 889.565 483.165 888.514 482.501 887.638C482.667 886.569 482.513 885.449 482.016 884.55C480.673 882.214 477.998 881.834 475.698 882.841C473.554 883.789 471.483 884.871 469.444 886.001C451.358 885.082 434.164 877.509 419.104 867.604C400.534 855.403 384.283 839.358 371.047 821.591C343.743 784.977 327.301 741.647 301.134 704.4C300.99 704.133 300.791 703.879 300.593 703.626C297.121 698.718 293.461 693.895 289.596 689.239C279.128 676.618 267.114 665.191 253.489 656.191C275.692 655.296 297.282 648.95 317.99 640.055C318.116 640.023 318.241 639.991 318.348 639.963C318.922 639.816 319.387 639.545 319.812 639.265C337.252 631.625 354.074 622.242 370.085 612.82C393.434 599.105 416.677 584.676 441.99 574.753C461.458 567.126 482.206 562.042 503.112 560.927C521.929 559.93 541.559 562.107 558.221 571.033C559.379 573.093 560.617 575.095 561.971 577.03C563.393 579.08 565.972 580.054 568.271 578.743C569.157 578.25 569.87 577.383 570.283 576.384C571.272 575.998 572.148 575.317 572.655 574.465C574.03 572.155 573.058 569.629 571.038 568.15C569.116 566.76 567.146 565.478 565.104 564.29C555.391 545.222 554.402 522.722 556.967 501.65C558.072 492.547 559.918 483.577 562.379 474.774L598.98 617.697C597.391 619.245 595.824 620.806 594.289 622.415C582.418 620.342 570.157 621.219 557.943 626.533C551.57 629.305 545.835 633.302 540.299 637.476C533.292 642.767 526.506 648.326 519.359 653.444C505.946 663.018 491.585 671.201 476.476 677.807C467.172 681.881 457.586 685.305 447.841 688.18C442.127 689.872 436.345 691.371 430.534 692.688C427.452 693.401 424.352 694.043 421.261 694.645C418.348 695.2 415.291 695.489 412.424 696.223C412.389 696.232 412.371 696.237 412.339 696.264C412.268 696.282 412.196 696.3 412.129 696.336C411.968 696.378 411.811 696.437 411.659 696.514C411.426 696.574 411.216 696.722 411.006 696.871C410.89 696.939 410.778 697.025 410.671 697.128C410.554 697.196 410.447 697.299 410.34 697.403L410.322 697.407C409.858 697.83 409.533 698.351 409.338 698.933C409.307 699.036 409.272 699.121 409.246 699.242C408.702 700.845 408.948 702.777 410.29 703.917C410.457 704.045 410.61 704.196 410.776 704.324C440.215 729.595 464.31 760.244 479.488 796.029C485.623 810.444 489.48 826.621 498.881 839.401C503.119 845.14 508.285 849.957 514.111 853.845C515.55 867.067 517.958 880.346 521.352 893.6C522.371 897.578 523.47 901.498 524.658 905.394C523.265 908.602 522.106 911.978 521.239 915.527C517.438 931.099 521.136 947.031 523.115 962.587C525.327 979.945 525.692 997.473 524.029 1014.91C521.807 1038.29 515.896 1061.21 507.582 1083.16C507.546 1083.25 507.515 1083.35 507.48 1083.44C507.458 1083.5 507.471 1083.55 507.445 1083.6C507.445 1083.6 507.454 1083.63 507.44 1083.65C507.374 1083.92 507.331 1084.2 507.31 1084.49C507.31 1084.49 507.314 1084.5 507.319 1084.52C507.306 1084.7 507.307 1084.85 507.33 1085.01L507.339 1085.05C507.367 1085.31 507.396 1085.57 507.464 1085.83C507.601 1086.37 507.868 1086.89 508.216 1087.35C508.333 1087.51 508.468 1087.67 508.604 1087.82C508.73 1087.94 508.833 1088.05 508.955 1088.15C509.135 1088.33 509.347 1088.49 509.571 1088.62C509.733 1088.73 509.909 1088.82 510.102 1088.9C510.102 1088.9 510.12 1088.9 510.142 1088.91C511.032 1089.33 512.046 1089.49 512.996 1089.17L513.085 1089.15C513.242 1089.09 513.417 1089.02 513.578 1088.98C546.991 1077.29 582.239 1071.5 617.608 1074.3C626.63 1075.01 635.561 1076.34 644.469 1077.8C652.058 1079.03 659.702 1080.4 667.398 1080.56C669.833 1080.6 672.232 1080.5 674.594 1080.26C702.196 1093.59 731.989 1102.57 762.893 1106.58C768.389 1109.92 774.352 1112.48 780.323 1114.92C788.509 1118.26 796.767 1121.43 804.771 1125.18C819.001 1131.84 832.524 1139.92 845.133 1149.27C862.41 1162.09 877.778 1177.37 891.448 1193.92C891.584 1194.08 891.705 1194.26 891.841 1194.41C892.639 1195.37 893.834 1195.78 895.049 1195.76C895.852 1195.76 896.676 1195.55 897.414 1195.15C898.492 1194.59 899.34 1193.65 899.581 1192.43C899.625 1192.23 899.651 1192.03 899.694 1191.83C906.137 1158.1 918.304 1125.54 937.655 1096.95C943.057 1088.97 949.018 1081.46 955.131 1074.02C960.495 1067.53 966.048 1061.04 970.288 1053.74C970.448 1053.47 970.603 1053.18 970.746 1052.92C995.473 1034.74 1016.9 1012.83 1034.45 988.264L1034.47 988.26C1034.63 988.219 1034.78 988.124 1034.93 988.065C1042.33 984.955 1048.81 980.234 1055.13 975.403C1061.91 970.246 1068.52 964.886 1075.49 959.965C1088.69 950.633 1102.84 942.676 1117.69 936.232C1137.93 927.456 1159.4 921.674 1181.12 918.089C1182.37 917.884 1183.37 917.019 1183.95 915.939C1184.05 915.741 1184.15 915.526 1184.25 915.311C1184.32 915.141 1184.37 914.958 1184.42 914.774C1184.46 914.631 1184.5 914.488 1184.51 914.331C1184.54 914.134 1184.57 913.938 1184.57 913.745C1184.6 913.607 1184.6 913.455 1184.58 913.326C1184.55 912.249 1184.18 911.224 1183.36 910.484C1183.35 910.448 1183.3 910.421 1183.28 910.39C1183.18 910.302 1183.06 910.2 1182.96 910.111C1153.2 884.655 1128.96 853.662 1113.75 817.525C1107.54 802.749 1103.51 786.408 1093.62 773.505C1090.27 769.137 1086.32 765.357 1081.93 762.148C1081.13 758.342 1080.23 754.542 1079.26 750.743C1075.94 737.774 1071.77 725.248 1066.84 713.206C1069.27 708.629 1071.17 703.675 1072.44 698.333C1076.07 682.842 1072.38 667.021 1070.43 651.573C1068.23 634.268 1067.88 616.776 1069.54 599.396C1071.76 576.017 1077.67 553.1 1085.98 531.145C1086.02 531.06 1086.05 530.957 1086.09 530.872C1086.11 530.809 1086.09 530.755 1086.12 530.71C1086.24 530.263 1086.29 529.794 1086.25 529.289C1086.24 529.025 1086.19 528.753 1086.12 528.468C1085.98 527.933 1085.72 527.412 1085.37 526.95C1085.25 526.79 1085.12 526.634 1084.98 526.479C1084.85 526.359 1084.75 526.252 1084.63 526.15C1084.55 526.075 1084.48 526 1084.39 525.947C1084.26 525.845 1084.15 525.761 1084.01 525.681C1083.85 525.57 1083.66 525.487 1083.48 525.399C1083.29 525.315 1083.1 525.231 1082.91 525.184C1082.32 524.973 1081.73 524.915 1081.13 525.03C1080.95 525.058 1080.77 525.086 1080.59 525.132L1080.5 525.155C1080.34 525.214 1080.19 525.273 1080.02 525.315C1045.52 537.381 1009.06 543.143 972.579 539.711C963.7 538.886 954.891 537.436 946.09 536.02C938.662 534.824 931.158 533.628 923.63 533.75C909.437 534.02 896.265 539.465 885.359 548.093L885.341 548.097C883.1 547.398 880.832 546.743 878.569 546.106L841.684 402.076C856.162 416.712 868.722 433.702 876.507 452.694C879.065 458.958 881.011 465.512 882.181 472.169C882.867 475.966 883.22 479.355 883.294 482.7C883.294 482.7 883.294 482.7 883.298 482.718C882.07 484.781 880.91 486.884 879.866 489.071C878.8 491.321 879.19 494.035 881.483 495.386C882.36 495.903 883.469 496.056 884.522 495.92C884.522 495.92 884.526 495.938 884.531 495.955C885.346 496.602 886.365 497.006 887.384 497.031C890.048 497.071 891.827 495 892.085 492.501C892.265 490.82 892.41 489.148 892.473 487.459C892.493 486.789 892.525 486.096 892.522 485.412C901.521 471.646 914.952 461.25 929.446 453.433C947.41 443.738 967.279 437.605 987.363 434.173C1036.13 425.867 1085.73 435.027 1134.76 430.721C1135.07 430.719 1135.39 430.695 1135.73 430.643C1139.56 430.292 1143.38 429.864 1147.2 429.342C1165.73 426.765 1184.05 421.826 1200.72 413.566C1190.31 433.243 1184.93 455.169 1182.26 477.542C1182.25 477.582 1182.24 477.622 1182.22 477.667C1182.11 478.133 1182.07 478.58 1182.08 478.995C1180.32 494.348 1179.81 509.857 1179.8 524.953C1179.79 551.967 1180.98 579.071 1178.2 606.014C1175.87 628.604 1170.26 651.139 1160.52 671.75C1151.76 690.263 1139.38 708.126 1121.76 718.989C1119.42 718.96 1117.08 719.007 1114.73 719.21C1112.25 719.428 1110.07 721.069 1110.01 723.745C1109.98 724.759 1110.41 725.811 1111.07 726.687C1110.9 727.755 1111.06 728.876 1111.55 729.775C1112.9 732.111 1115.57 732.491 1117.87 731.483C1120.02 730.535 1122.09 729.454 1124.13 728.323C1142.21 729.243 1159.41 736.815 1174.47 746.721C1193.04 758.922 1209.29 774.966 1222.52 792.733C1249.83 829.348 1266.27 872.678 1292.44 909.925C1292.58 910.192 1292.78 910.445 1292.98 910.699C1296.45 915.607 1300.11 920.43 1303.97 925.085C1314.44 937.707 1326.46 949.134 1340.08 958.134L1340.1 958.129ZM1396.62 876.082C1378.41 893.631 1358.73 914.05 1331.82 915.597C1320.09 916.284 1308.24 913.33 1299.98 904.647C1298 901.846 1296.09 898.991 1294.21 896.127C1319.62 902.3 1348.26 894.718 1366.75 876.108C1374.47 868.332 1380.42 858.978 1387.7 850.785C1394.97 842.592 1404.16 835.298 1415.03 833.692C1399.42 827.824 1387.82 814.884 1375.44 803.741C1364.56 793.923 1351.34 784.859 1337.01 783.985C1338.81 781.682 1340.56 779.351 1342.26 776.977C1345.45 772.51 1348.45 767.92 1351.27 763.246C1369.55 763.146 1385.91 773.043 1399.28 784.863C1414.51 798.337 1426.63 814.869 1441.64 828.59C1446.02 832.599 1450.62 836.308 1455.49 839.603C1432.66 843.567 1412.94 860.403 1396.65 876.113L1396.62 876.082Z" fill="white"/>
<path d="M1194.23 945.564C1142.29 955.535 1093.21 969.263 1053.59 1004.2C1073.68 1022.94 1105.13 1024.6 1131.44 1016.4C1157.74 1008.19 1180.51 991.75 1203.91 977.203C1227.32 962.657 1255.71 942.689 1283.25 942.366L1260.84 936.869C1241.74 940.527 1213.34 941.906 1194.23 945.582L1194.23 945.564Z" fill="white"/>
<path d="M1223.26 592.174C1219.92 635.342 1202.29 677.302 1173.82 710.065C1173.75 710.083 1173.74 710.123 1173.76 710.136C1172.33 709.458 1173.74 711.11 1172.29 710.419C1172.6 710.528 1172.9 710.66 1173.22 710.77C1172.99 711.017 1172.79 711.278 1172.57 711.525C1173.51 710.218 1173.05 712.353 1173.98 711.069C1173.96 711.073 1173.99 711.104 1174.04 711.091C1214.76 726.135 1250.38 754.46 1274.06 790.71C1311.53 757.297 1339.34 715.22 1348.98 666.086L1348.81 665.426C1316.74 626.972 1272.13 603.439 1223.21 592.148L1223.26 592.174Z" fill="white"/>
<path d="M1146.6 622.713C1152.67 595.935 1149.79 568.083 1148.88 540.66C1147.98 513.232 1144.87 478.787 1158.4 454.85L1142.38 471.442C1135.98 489.752 1122.92 514.955 1116.53 533.26C1099.13 583.031 1086.45 632.204 1096.93 683.807C1123.31 675.816 1140.54 649.509 1146.6 622.713Z" fill="white"/>
</g>
</g>
<defs>
<clipPath id="clip0_158_824">
<rect width="1299.99" height="664.763" fill="white" transform="matrix(0.969128 -0.246557 -0.243926 -0.969794 165.637 967.865)"/>
</clipPath>
<clipPath id="clip1_158_824">
<rect width="1300.01" height="663.442" fill="white" transform="matrix(0.968979 -0.247144 0.249783 0.968302 165.742 967.828)"/>
</clipPath>
</defs>
</svg>
