<svg width="159" height="74" viewBox="0 0 159 74" fill="none" xmlns="http://www.w3.org/2000/svg">
<path d="M134.975 27.481C134.127 25.378 133.341 23.4351 132.048 21.7691C131.509 21.0746 132.011 20.688 132.445 20.3197C137.201 16.2869 142.567 14.8487 148.539 16.98C156.45 19.8035 160.469 28.0641 158.472 36.3281C156.935 42.6849 150.631 48.3001 142.909 47.9646C135.767 47.654 129.446 42.8039 127.873 35.8781C127.465 34.0806 127.351 32.2109 127.175 30.3676C126.775 26.1784 121.538 22.2366 117.801 22.4912C112.863 22.8272 108.899 26.6424 108.563 31.3271C108.23 35.9857 110.999 39.4291 114.328 40.7897C118.39 42.449 123.415 40.8695 125.334 37.8923C125.581 37.5085 125.95 37.2027 126.365 36.7479C127.26 38.7898 128.054 40.7445 129.307 42.457C129.864 43.217 129.047 43.5209 128.667 43.8092C127.832 44.4422 127.929 44.8445 128.657 45.5313C131.046 47.7855 132.706 50.4826 133.534 53.7091C136.054 63.5287 128.184 74.1835 116.677 73.2558C108.565 72.6018 102.395 66.1864 102.066 57.7942C101.944 54.682 104.145 53.0681 106.757 54.1861C108.297 54.8459 108.753 56.2379 108.626 57.7181C108.261 61.9617 112.579 67.1695 118.342 66.8621C122.512 66.6396 126.741 63.7505 127.391 58.0567C127.843 54.0951 124.867 49.6778 120.87 48.4337C119.798 48.0999 118.727 47.9016 117.597 47.8873C110.305 47.7944 104.265 43.0652 102.465 35.767C100.852 29.2254 103.66 22.1538 109.979 18.4271C119.788 12.6422 133.687 18.9096 133.962 32.3334C134.049 36.5747 137.892 41.4688 143.226 41.5C148.122 41.5283 152.36 37.5324 152.645 32.6485C152.92 27.9291 150.141 24.4051 146.193 23.0182C142.146 21.5966 138.167 22.9978 135.493 26.716C135.348 26.9171 135.215 27.1268 134.975 27.481Z" fill="#FF4102"/>
<path d="M16.0605 41.53C21.1643 41.5565 25.2669 37.5344 25.3019 32.4707C25.3375 27.3214 21.2165 23.0804 16.1678 23.0705C11.2476 23.0606 6.90346 27.3905 6.92542 32.2829C6.9477 37.3272 11.0741 41.5043 16.0605 41.53ZM7.03617 10.9502C7.03617 13.3349 7.05686 15.7202 7.02663 18.1045C7.01326 19.1675 7.19912 19.6751 8.35564 18.9717C16.521 14.0064 27.3432 17.8407 30.8382 27.2113C34.2638 36.3957 27.1866 47.3388 17.3889 47.8505C14.0663 48.0243 10.9863 47.3426 8.16374 45.5709C7.61094 45.2237 7.25068 45.0155 6.81181 45.8271C5.8596 47.5889 4.61969 48.1662 3.09145 47.7853C1.6294 47.4209 0.633912 45.9983 0.630093 44.1378C0.615453 36.7712 0.62341 29.405 0.623091 22.0384C0.623091 16.3147 0.621182 10.5909 0.625637 4.86717C0.626274 4.12819 0.591267 3.38825 0.830273 2.66328C1.30765 1.21746 2.65799 0.221008 4.04366 0.329216C5.67692 0.456833 6.92797 1.62928 6.98112 3.32014C7.06068 5.86138 7.0018 8.40676 7.0018 10.9502C7.01326 10.9502 7.02472 10.9502 7.03617 10.9502Z" fill="#FF4102"/>
<path d="M33.6255 24.0312C33.6255 17.3537 33.6185 10.6761 33.6299 3.99856C33.6331 2.12947 34.5347 0.786133 36.1505 0.425236C37.5734 0.10762 38.6994 0.678246 39.5609 1.88092C40.0468 2.55943 39.9787 3.28854 39.9829 4.01161C40.0096 8.72746 40.0414 13.4436 39.9959 18.1592C39.9835 19.4312 40.1853 19.6508 41.3647 18.9764C51.9294 12.936 64.6687 20.3163 64.732 32.4897C64.752 36.3584 64.7466 40.227 64.7358 44.0957C64.7294 46.4285 63.5312 47.8358 61.5797 47.8539C59.6572 47.8717 58.3698 46.4097 58.3625 44.1463C58.3491 40.1716 58.4001 36.1964 58.3485 32.2224C58.2817 27.0606 53.9916 22.9269 48.9455 23.0838C44.2115 23.2308 40.0646 27.3713 40.0064 32.0951C39.9564 36.1222 40.0121 40.1506 39.9921 44.1781C39.9803 46.5287 38.8018 47.8491 36.7889 47.8539C34.9157 47.8584 33.6392 46.3502 33.6353 44.0635C33.6248 37.3863 33.6315 30.7088 33.6315 24.0312H33.6255Z" fill="#FF4102"/>
<path d="M83.1834 41.5393C87.5721 41.7834 92.4404 37.6388 92.3076 32.1875C92.1858 27.1756 88.0367 22.9871 83.0599 23.082C77.8259 23.1816 73.8596 27.0808 73.8077 32.2438C73.7504 37.9275 78.4809 41.7376 83.1834 41.5393ZM98.5874 32.4188C98.5874 36.2894 98.5966 40.16 98.5836 44.0306C98.5772 46.0355 97.7612 47.3359 96.2931 47.7672C94.7661 48.2162 93.6612 47.7369 92.5422 45.9079C91.9531 44.9452 91.5133 45.4379 90.8917 45.7825C84.2626 49.4599 76.5666 48.2372 71.4959 42.7257C67.0184 37.8587 66.2705 30.2735 69.6911 24.4215C73.0321 18.7063 79.8732 15.7402 86.2784 17.1326C88.0081 17.5088 89.5471 18.2595 91.1059 19.0128C91.7224 19.3107 92.0954 19.4927 92.4999 18.5593C93.0711 17.2408 94.9039 16.5601 96.1162 16.898C97.6832 17.3347 98.5482 18.4234 98.5613 20.1713C98.5915 24.2535 98.5708 28.3363 98.5708 32.4188H98.5874Z" fill="#FF4102"/>
</svg>
